<svg width="94" height="179" viewBox="0 0 94 179" fill="none" xmlns="http://www.w3.org/2000/svg">
<path d="M13.8627 149.2C10.3961 149.2 7.62273 148.333 5.54273 146.6C3.5494 144.867 2.55273 142.657 2.55273 139.97C2.55273 137.543 3.4194 135.593 5.15273 134.12C6.88607 132.647 8.83607 131.91 11.0027 131.91C13.1694 131.91 14.9894 132.343 16.4627 133.21C17.9361 134.163 19.2361 135.507 20.3627 137.24L21.2727 138.28C23.1794 140.88 25.0861 140.837 26.9927 138.15C27.7727 136.85 28.6394 135.117 29.5927 132.95C30.6327 130.87 31.8027 128.053 33.1027 124.5L7.88273 64.18C7.27607 62.5333 6.62607 61.2333 5.93273 60.28C5.2394 59.24 4.11273 58.3733 2.55273 57.68L0.212734 56.77V55.47H32.5827V56.64L29.9827 57.68C28.0761 58.2867 27.0794 59.2833 26.9927 60.67C26.9927 61.97 27.3394 63.6167 28.0327 65.61L41.5527 100.71L54.4227 65.22C55.1161 63.2267 55.3761 61.58 55.2027 60.28C55.0294 58.8933 53.9461 57.94 51.9527 57.42L49.2227 56.77V55.47H67.2927V56.77L64.4327 57.68C62.4394 58.2867 61.0527 59.1533 60.2727 60.28C59.4927 61.4067 58.7561 62.9667 58.0627 64.96L37.1327 122.03C33.7527 131.13 30.3727 137.933 26.9927 142.44C23.6127 146.947 19.2361 149.2 13.8627 149.2Z" fill="#F8EFF0"/>
<path d="M43.5972 145H42.5972V146H43.5972V145ZM43.5972 144.1L43.281 143.151L42.5972 143.379V144.1H43.5972ZM44.9472 143.65L44.6394 142.699L44.631 142.701L44.9472 143.65ZM47.2872 88.39L46.5063 89.0147L46.5063 89.0147L47.2872 88.39ZM44.7672 86.95L45.0545 85.9922L45.0236 85.9829L44.992 85.9756L44.7672 86.95ZM43.5972 86.68H42.5972V87.4755L43.3723 87.6544L43.5972 86.68ZM43.5972 85.78L43.3684 84.8065L42.5972 84.9877V85.78H43.5972ZM60.0672 81.91L60.6672 81.11L60.2934 80.8296L59.8384 80.9365L60.0672 81.91ZM61.1472 82.72L62.147 82.7414L62.158 82.2281L61.7472 81.92L61.1472 82.72ZM60.8772 95.32L59.8774 95.2986L59.8772 95.3093V95.32H60.8772ZM63.8472 143.74L63.5572 144.697L63.5648 144.699L63.5725 144.702L63.8472 143.74ZM65.1072 144.1H66.1072V143.346L65.3819 143.138L65.1072 144.1ZM65.1072 145V146H66.1072V145H65.1072ZM76.9872 145L76.1726 145.58L76.4716 146H76.9872V145ZM60.9672 122.5L60.2884 121.766L59.6421 122.363L60.1526 123.08L60.9672 122.5ZM77.6172 107.11L76.9389 106.375L76.9384 106.376L77.6172 107.11ZM78.9672 104.86L77.9894 104.65L77.9833 104.679L77.9788 104.708L78.9672 104.86ZM77.4372 103.06L77.7245 102.102L77.7194 102.101L77.4372 103.06ZM75.9072 102.61H74.9072V103.358L75.625 103.569L75.9072 102.61ZM75.9072 101.71V100.71H74.9072V101.71H75.9072ZM89.3172 101.71H90.3172V100.71H89.3172V101.71ZM89.3172 102.61L89.5749 103.576L90.3172 103.378V102.61H89.3172ZM86.6172 103.33L86.3595 102.364L86.3366 102.37L86.314 102.377L86.6172 103.33ZM83.3772 104.86L83.9464 105.682L83.9524 105.678L83.9584 105.674L83.3772 104.86ZM80.4972 107.2L79.8304 106.455L79.8217 106.463L79.8132 106.47L80.4972 107.2ZM70.4172 116.65L69.7332 115.92L69.0928 116.521L69.6052 117.234L70.4172 116.65ZM86.5272 139.06L85.7152 139.644L85.7185 139.648L86.5272 139.06ZM89.2272 142.12L88.5764 142.879L88.5764 142.879L89.2272 142.12ZM92.4672 143.92L92.9144 143.026L92.863 143L92.8089 142.98L92.4672 143.92ZM92.8272 144.1H93.8272V143.482L93.2744 143.206L92.8272 144.1ZM92.8272 145V146H93.8272V145H92.8272ZM44.5972 145V144.1H42.5972V145H44.5972ZM43.9134 145.049L45.2634 144.599L44.631 142.701L43.281 143.151L43.9134 145.049ZM45.255 144.601C46.4408 144.218 47.4056 143.571 48.0638 142.623C48.7182 141.679 49.0072 140.528 49.0072 139.24H47.0072C47.0072 140.232 46.7862 140.956 46.4206 141.482C46.0588 142.004 45.4936 142.422 44.6394 142.699L45.255 144.601ZM49.0072 139.24V91.09H47.0072V139.24H49.0072ZM49.0072 91.09C49.0072 89.7832 48.7502 88.618 48.0681 87.7653L46.5063 89.0147C46.7842 89.362 47.0072 89.9968 47.0072 91.09H49.0072ZM48.0681 87.7653C47.4039 86.9352 46.3374 86.377 45.0545 85.9922L44.4798 87.9078C45.597 88.243 46.2104 88.6448 46.5063 89.0147L48.0681 87.7653ZM44.992 85.9756L43.822 85.7056L43.3723 87.6544L44.5423 87.9244L44.992 85.9756ZM44.5972 86.68V85.78H42.5972V86.68H44.5972ZM43.8259 86.7535L60.2959 82.8835L59.8384 80.9365L43.3684 84.8065L43.8259 86.7535ZM59.4672 82.71L60.5472 83.52L61.7472 81.92L60.6672 81.11L59.4672 82.71ZM60.1474 82.6986L59.8774 95.2986L61.877 95.3414L62.147 82.7414L60.1474 82.6986ZM59.8772 95.32V139.24H61.8772V95.32H59.8772ZM59.8772 139.24C59.8772 140.572 60.1515 141.756 60.7851 142.716C61.4278 143.69 62.3794 144.34 63.5572 144.697L64.1372 142.783C63.3349 142.54 62.8016 142.14 62.4543 141.614C62.0978 141.074 61.8772 140.308 61.8772 139.24H59.8772ZM63.5725 144.702L64.8325 145.062L65.3819 143.138L64.1219 142.778L63.5725 144.702ZM64.1072 144.1V145H66.1072V144.1H64.1072ZM65.1072 144H43.5972V146H65.1072V144ZM77.8018 144.42L61.7818 121.92L60.1526 123.08L76.1726 145.58L77.8018 144.42ZM61.646 123.234L78.296 107.844L76.9384 106.376L60.2884 121.766L61.646 123.234ZM78.2955 107.845C79.1846 107.024 79.7909 106.082 79.9556 105.012L77.9788 104.708C77.9035 105.198 77.6098 105.756 76.9389 106.375L78.2955 107.845ZM79.945 105.07C80.0933 104.378 79.958 103.693 79.4816 103.132C79.048 102.622 78.4096 102.308 77.7245 102.102L77.1498 104.018C77.6648 104.172 77.8814 104.338 77.9577 104.428C77.9884 104.464 77.995 104.485 77.9981 104.498C78.0018 104.515 78.0087 104.56 77.9894 104.65L79.945 105.07ZM77.7194 102.101L76.1894 101.651L75.625 103.569L77.155 104.019L77.7194 102.101ZM76.9072 102.61V101.71H74.9072V102.61H76.9072ZM75.9072 102.71H89.3172V100.71H75.9072V102.71ZM88.3172 101.71V102.61H90.3172V101.71H88.3172ZM89.0595 101.644L86.3595 102.364L86.8748 104.296L89.5749 103.576L89.0595 101.644ZM86.314 102.377C84.9263 102.819 83.7442 103.369 82.7959 104.046L83.9584 105.674C84.6902 105.151 85.6681 104.681 86.9204 104.283L86.314 102.377ZM82.808 104.038C81.9797 104.611 80.9851 105.422 79.8304 106.455L81.164 107.945C82.2893 106.938 83.2146 106.189 83.9464 105.682L82.808 104.038ZM79.8132 106.47L69.7332 115.92L71.1011 117.38L81.1811 107.93L79.8132 106.47ZM69.6052 117.234L85.7152 139.644L87.3392 138.476L71.2292 116.066L69.6052 117.234ZM85.7185 139.648C86.7048 141.004 87.6565 142.091 88.5764 142.879L89.878 141.361C89.1178 140.709 88.2696 139.756 87.3359 138.472L85.7185 139.648ZM88.5764 142.879C89.5286 143.695 90.7216 144.349 92.1254 144.86L92.8089 142.98C91.5728 142.531 90.6058 141.985 89.878 141.361L88.5764 142.879ZM92.02 144.814L92.38 144.994L93.2744 143.206L92.9144 143.026L92.02 144.814ZM91.8272 144.1V145H93.8272V144.1H91.8272ZM92.8272 144H76.9872V146H92.8272V144Z" fill="white"/>
</svg>
