<svg xmlns="http://www.w3.org/2000/svg" viewBox="0 0 1920 1080"><defs><style>.cls-1{fill:#b1d7dd;}.cls-2{fill:#4b7a82;}.cls-3{fill:#878683;}.cls-4{fill:#385a5e;}.cls-5{fill:#908f8b;}.cls-6{fill:#c4c0bd;}.cls-7{fill:#fff;}.cls-8{fill:#6b6b6a;}.cls-9{fill:#bcbab8;}.cls-10{fill:#e5e4e3;}.cls-11{fill:#105f9b;}.cls-12{fill:#f8a482;}.cls-13{fill:#332421;}.cls-14{fill:#d1695e;}.cls-15{fill:#f0ab86;}.cls-16{fill:#a56756;}.cls-17{fill:#2d1111;}.cls-18{fill:#21090a;}.cls-19{fill:#161926;}.cls-20{fill:#fdb196;}.cls-21{fill:#cc885b;}.cls-22{fill:#381818;}.cls-23{fill:#964a4a;}.cls-24{fill:#262221;}.cls-25{fill:#eded6e;}.cls-26{fill:#030303;}.cls-27{fill:#baaea2;}.cls-28{fill:#ed916b;}.cls-29{fill:#ffb678;}.cls-30{fill:#f14052;}.cls-31{fill:#cfd9db;}.cls-32{fill:#0d476d;}.cls-33{fill:#3c1b1b;}.cls-34{fill:#c55b56;}.cls-35{fill:#3ba2ad;}.cls-36{fill:#154353;}.cls-37{fill:#9caedb;}.cls-38{fill:#dadeea;}.cls-39{fill:#a2b4dd;}.cls-40{fill:#eaed6e;}</style></defs><g id="elevator3"><polygon class="cls-1" points="1920 1080 0 1080 0 0 1920 0 1920 1018.33 1920 1080"/><polygon class="cls-2" points="679 1020 1265.96 1020 1920 1022.76 1920 1080 0 1080 0 1020 679 1020"/><g id="Layer_10" data-name="Layer 10"><rect class="cls-3" x="660" y="187.03" width="663.05" height="776.93"/></g><rect class="cls-4" x="673.59" y="1009" width="663.41" height="13.84"/><polygon class="cls-5" points="778 878 683.74 1011 1325 1014.21 1226.1 878 778 878"/><rect class="cls-4" y="1012" width="643" height="11.32"/><rect class="cls-4" x="1359.71" y="1014.21" width="560.29" height="11.32"/><rect class="cls-6" x="643" y="158" width="35" height="865"/><rect class="cls-6" x="1325" y="158" width="35" height="865"/><rect class="cls-6" x="678" y="159" width="647" height="32"/><polygon class="cls-7" points="836 223 831 215 905 214 907.97 223 836 223"/><polygon class="cls-7" points="846 244 851 252 916.28 252 913.45 244 846 244"/><polygon class="cls-7" points="1098 215 1095 223 1166.52 223 1171.63 215 1098 215"/><polygon class="cls-7" points="1089 244 1086 251 1151.4 251 1155.56 244 1089 244"/><polygon class="cls-8" points="919 200 919 215 921 226 921 210.56 919 200"/><polygon class="cls-8" points="1083.67 200 1083.67 213 1080.67 226 1080.67 213 1083.67 200"/><polygon class="cls-8" points="1076.01 226 1076.01 244 1074 253 1074 237.98 1076.01 226"/><polygon class="cls-8" points="927 230 929 245 929 254.42 927 244.58 927 230"/><polygon class="cls-8" points="774.7 248 835.46 248 837 250 776.17 250 774.7 248"/><rect class="cls-8" x="929" y="248" width="145" height="2"/><polygon class="cls-8" points="1166.81 248 1165.51 250 1225.09 250 1225 651 1227 653 1226.39 248 1166.81 248"/><polygon class="cls-8" points="774.7 248 776.17 250 777.77 653 774.7 656.79 774.7 248"/><polygon class="cls-8" points="777.77 695.49 777.77 881.04 759.21 908.08 759.21 904.51 774.7 882.65 774.7 697.61 777.77 695.49"/><polygon class="cls-8" points="1227 695.49 1226.1 878 1244.83 908.08 1244.83 910.6 1224.82 878.3 1224.82 695.49 1227 695.49"/><path class="cls-8" d="M952,1143"/><rect class="cls-8" x="1001.29" y="257.74" width="3.07" height="620.26"/><polygon class="cls-8" points="759.21 708.82 795 680 1207.59 680 1244.83 708.82 1244.83 663.86 1208 644 798 640 758.84 661.54 759.21 708.82"/><rect class="cls-9" x="1389" y="524" width="57" height="95"/><polygon class="cls-10" points="1417.5 542.17 1430 563 1405 563 1417.5 542.17"/><polygon class="cls-10" points="1417.96 601 1405.46 580.17 1430.46 580.17 1417.96 601"/><rect class="cls-9" x="759" y="82" width="484" height="42"/><rect class="cls-3" x="769" y="90" width="464" height="34"/><path class="cls-11" d="M1009.75,552.58"/></g><g id="mark3"><path class="cls-12" d="M1181.14,232.12l-13.71,30.24s-4.8,15.26-.69,18.86,5.88,0,6.37,6.15-.46,20.49-.46,20.49l-6.55,16.79,32.72,40.5,19.62-36.55-1-27.83,2.85-10.88a37.8,37.8,0,0,0,5.38-2.9c2.06-1.44,3.43-8.69,2.74-10.14s-2,0-3.43-2.9-1.37-29-1.37-29l-16.9-19.55Z"/><path class="cls-12" d="M1092,516l.69,42s6.17,10.86,15.08,15.94,26.74,10.14,26.74,10.14l1.38-32.6s-19.89,8-23.32,4.34-4.8-7.24-4.11-15.94,2.74-25.36,2.74-25.36Z"/><path class="cls-12" d="M1253.82,520.3v28.41s-1.37,11.44-9.6,12.89-9.6,16.66-9.6,16.66l1.38,6.52s12.34-4.34,17.82-8.69,9.6-8,11-10.87,1.82-11.91,3-19,6.12-25.93,6.12-25.93Z"/><path class="cls-13" d="M1214.25,919.44l60-1.63s5.42-6.52,0-14.67-18.57-12.22-24-17.11-6.19-13.85-6.19-13.85l-33.64,10.21,1.44,37.05Z"/><path class="cls-13" d="M1148.07,894.18V917l-59.3.65s-1.84-14.5,2-18.58,18.26-5,22.67-13.08a89.46,89.46,0,0,0,6.74-16.25Z"/><path class="cls-11" d="M1113.05,755.34c-3.67,19.06,1.64,84.78,1.64,84.78l-.8,37.1s18.7,3.1,28.38,14.51l9.67,11.41,4.64-130.37,14.71-163.2s-2.33-19.33,7.73-18.51,12.39,18,18.58,106.38,13.93,201.61,13.93,201.61,15.88-17.24,28.06-17.58l12.18-.33-5.42-120.63-1.06-224.38L1120,525.87"/><path class="cls-7" d="M1114.63,551.46s20.45,18.83,31.14,21.73,31.26,5.07,31.26,5.07a77.42,77.42,0,0,1,2-15.94c2.06-8.69,4.8-21.73,4.8-21.73l6.86,39.12,30.09-6.52c9.68-5.07,17.25-11.59,22.38-20.65s7.87-14.85,5.13-18.47-9.6-2.9-6.86-10.15,2.13-32,2.13-32l-.76-20.92,2.74-29.71s4.47,12.4,5,19.61,1.2,44.15,1.2,44.15-4.12-5.79-5.49-5.79-1,15.21-1,15.21,4.47,10.87,7.21,11.6,25.14.72,25.14.72,5-12.32,4.35-19.56a46.25,46.25,0,0,0-2.06-10.87s-1.72-114.71-6-125.1-22.8-27.06-37.88-39.37-16.19-14.49-16.19-14.49-6.44,10.86-9.18,15.21-8.23,8.7-8.23,8.7l-4.08,21.57s-.72-9.26-2.09-10.71-3.43-2.17-4.8-5.79,0-5.07-6.17-11.59-12.8-11-13.94-14.92-.23-9,1-10.81,0-1.64,0-1.64-6.84,9.85-7.25,12.45-1.09-.3-11.38,4.05-31.83,11.69-36.83,19.61-18.71,55-22.13,81.82-8.23,65.21-8.23,65.21l-5.49-7.24,3.43,13.76L1081,502.2l9.6,14.48s0,5.79,9.6,5.79h13.71s0-9.42,2.06-10.14,4.12-2.17,5.49-8l1.37-5.8-4.92,0s-1.25-5.36.8-13.54,3.43-17.59,3.43-23,4.8-15.57,4.8-15.57,1.37,30.43,0,35.5-8.23,44.92-8.23,44.92Z"/><path class="cls-13" d="M1166.74,262.36s4.35,2.57,4.58,6.36,1.14,3.92,2,2.77-1.83-7.68,2.29-13.48,3.42-10.87,4.11-13,3.43-4.54,8.23-7,9.6-1.71,13.71-1,4.8-.72,10.29.73,10.36,7,10.67,14.36,1.67,22.59,1.67,22.59a25.8,25.8,0,0,0,2.74-3.63c1.37-2.17,4.12-18.11,1.37-26.8s-10.28-23.19-18.51-24.64-9.9-5.07-19.69,0-18.71,11.59-20.08,16.67-4.8,13-4.8,16.66A53.47,53.47,0,0,0,1166.74,262.36Z"/><path class="cls-13" d="M1195.2,260.32v2a13.37,13.37,0,0,0-7.89-1.29c-4.8.57-8.23,1.29-8.23,1.29l.69-1.45a11.33,11.33,0,0,1,6.17-1.45A67.68,67.68,0,0,1,1195.2,260.32Z"/><path class="cls-13" d="M1207.41,262.36v1.76s4.46-1.45,7.27-.88a41.27,41.27,0,0,1,4.86,1.29V263s-3.43-2.09-6.17-2.09A17.46,17.46,0,0,0,1207.41,262.36Z"/><path class="cls-14" d="M1190.05,291.34s6-.6,7.45-.3a23.75,23.75,0,0,0,4.92-.08l6.15,2.56a56.94,56.94,0,0,1-8,.72,28,28,0,0,1-6.43-.72Z"/><ellipse class="cls-13" cx="1193.48" cy="401.47" rx="2.06" ry="2.17"/><ellipse class="cls-13" cx="1191.43" cy="431.18" rx="2.06" ry="2.17"/><ellipse class="cls-13" cx="1189.37" cy="461.61" rx="2.06" ry="2.17"/><ellipse class="cls-13" cx="1186.63" cy="490.59" rx="2.06" ry="2.17"/><ellipse class="cls-13" cx="1185.26" cy="521.75" rx="2.06" ry="2.17"/><ellipse class="cls-13" cx="1187.13" cy="267.37" rx="2.34" ry="2.96"/><ellipse class="cls-13" cx="1212.37" cy="268.36" rx="2.34" ry="2.96"/></g><g id="peter3"><path class="cls-15" d="M827.69,262.35s-27.14,23.53-28.34,28.7-1.21,18.36-1.21,18.36,3,9.19,6,9.76,9.65,10.91,9.65,10.91v20.08L795.12,376l36.8,60.26,41.61-58.54-12.66-20.09-4.23-7.46V334.09l13.27-20.66s4.22-4.25,3.62-7.58-3-9.06-4.22-10.21-13.87-26.4-13.87-26.4Z"/><path class="cls-16" d="M846.39,269.24s-21.11,0-24.13.57-6.63,2.87-6.63,6.89,0,12.63-4.82,15.5-9.66,3.44-11.46,7.46-1.21,9.75-1.21,9.75-7.84-7.46-7.84-9.18,0-6.89,1.81-8.61a25.35,25.35,0,0,0,3-3.44s-2.41-8.61-1.2-11.48,4.22-9.76,7.23-11.48,4.23-2.29,4.23-2.29S810.2,253.17,812,252s7.24-5.74,14.48-5.16,10.85,4.59,10.85,4.59,6.64.21,9,1.83,6,7.92,6,7.92,4.83-2.86,8.45,0,5.42,8.61,5.42,13.21v6.23s3,2.95,3.62,5.24,0,10.79,0,10.79l-4.82.12s-6-4.59-7.24-6.89-2.41-.57-2.41-6.31-4.22-9.76-4.22-9.76Z"/><path class="cls-17" d="M806.58,295.64s-2.41,3.44-1.2,4,1.81,1.15,2.41,4,4.22,8.6,8.44,9.18,10.49,0,12.78-3.45a25.52,25.52,0,0,0,3.51-8.6,34.83,34.83,0,0,0-1.21-4h7.24s-1.82,4.78-.91,7.56,3.9,8.32,9,8.7,10.24-1.34,11.91-3.64a40.28,40.28,0,0,0,3.48-6.88l2.41-2.3s1.21-4,0-4.59-6-1.15-6-1.15L853,292.77H834.65l-17.21-.57a8.88,8.88,0,0,0-6,1.72C808.39,296.21,806.58,295.64,806.58,295.64Z"/><path class="cls-15" d="M809.27,304.24s4.62,6,6.35,6.59,9.19.55,11.23-1.65,4.35-6.58,3.77-8.23-2.89-5.49-5.19-6-7.28-1.1-10.56,0-5.6,4.31-5.6,5.45Z"/><path class="cls-15" d="M839.15,304.39s4.62,6,6.35,6.59,9.19.55,11.23-1.65,4.34-6.58,3.77-8.23-2.89-5.49-5.19-6-7.28-1.1-10.57,0-5.59,4.31-5.59,5.45Z"/><ellipse class="cls-18" cx="821.96" cy="306.26" rx="2.11" ry="3.16"/><ellipse class="cls-18" cx="848.5" cy="306.26" rx="2.11" ry="3.16"/><path class="cls-14" d="M812.61,351.31s-6.7,7-7.57,9.53.34,6.54,5.77,17.44,28.34,29.85,28.34,29.85l3-10.91,12.66-10.33s9.65-22.95,7.85-24.68-5.51-10.9-5.51-10.9l-.53-5.16s14.48,10.9,16.29,13.77l3.62,5.74,33.17,15.49s24.13,1.93,30.76,19.34,4.83,85.12,4.83,85.12,5.87,29.27.22,36.44-14.74,6-23.47,6.6-11.74,14.92-11.74,14.92l-8.44,27s-39.2,6.67-62.73,5.34-59.44-11.57-64.1-15.34-2.85-22.14-2.85-22.14l3-15.5s-7.11,4.59-11.4,4-17.55-18.37-17.55-28.12,3.26-50.51,3.26-50.51l10.61-59.11s21.71-7.46,33.17-16.64A102.73,102.73,0,0,0,812.61,351.31Z"/><path class="cls-15" d="M846.43,453.43l-7.28,4.63s-4.76-.61-4.79,3.14,6.66,11.23,0,14.09-18.17,2.3-25.09,0-10.53-5.18-10.53-1.16-12.06,13.77-12.06,13.77-5.43,4-2.41,11.48,10.85,12.05,10.85,12.05L805,504s9.66,5.72,15,5.72S844,504,844,504l4.54-12.19L870.18,504l15.64,7.44,7.15-5.16s-.74-12-3.15-13.2-9.61-5.17-9.61-5.17-4.15-9-6.62-14.56-12.38-15.28-17.38-17.58A26.66,26.66,0,0,0,846.43,453.43Z"/><path class="cls-19" d="M805,467.82l7.57,16.07,11.14-3.75,7-1.94s3.68-1.27,3.65.49a31.67,31.67,0,0,0,.73,5.2l4.06-5.2-4.06-14.32Z"/><polygon class="cls-20" points="771.6 877.6 767.11 909.09 775.8 921.84 801.21 913.25 804.17 873.58 771.6 877.6"/><polygon class="cls-20" points="876.04 873.58 879.32 915.94 927.8 918.94 915.77 911.63 910.19 875.1 876.04 873.58"/><path class="cls-13" d="M876.78,935l68.47-1.62s6.19-6.48,0-14.58-21.21-12.14-27.39-17-11.76,9.67-11.76,9.67l-33.73-13.28L874,935Z"/><path class="cls-13" d="M801.21,909.89v22.67l-67.71.65s-2.1-14.42,2.32-18.46,20.41-5.22,25.89-13c3.26-4.63,14.72,14.31,14.72,14.31Z"/><path class="cls-13" d="M761.23,771.93c-4.2,18.94,1.86,84.24,1.86,84.24l-.9,36.87s2.48-.11,17.85-5.11c22.92-7.46,26.54,2.29,26.54,2.29l4.35-101,16.8-162.17s-2.66-19.2,8.83-18.39,14.14,17.92,21.21,105.71,15.76,173.53,15.76,173.53,17.46,1.48,31.37,1.14,14.72,7.86,14.72,7.86l-6.18-119.86-3.12-233.5L772.2,538.41"/><path class="cls-14" d="M823.75,323.85s7.25-1,9.06-.71a33.09,33.09,0,0,0,6-.35l7.63,2.38a79.06,79.06,0,0,1-9.68,1.2,39.13,39.13,0,0,1-7.87-.43Z"/><path class="cls-7" d="M865.88,305v4.61s2.38-.78,2.08,1.14-.85,6.35-.85,6.35l1.63.22,1.17-8.75s.31-2.52-.45-3.09a5.76,5.76,0,0,0-2.51-.63Z"/><path class="cls-7" d="M805,309v4.6s-2.37-.77-2.08,1.14.85,6.36.85,6.36l-1.62.21-1.17-8.74s-.31-2.52.45-3.09a5.64,5.64,0,0,1,2.5-.64Z"/></g><g id="amy3"><polygon class="cls-21" points="1096.1 267.28 1074.73 286.87 1065.82 341.5 1078.29 391.96 1106.79 398.5 1137.07 380.68 1141.82 326.06 1141.82 293.6 1115.1 265.5 1096.1 267.28"/><path class="cls-22" d="M1100.85,266.09s-10.09,4.16-10.68,7.13-6.53,8.9-9.5,13.06a36.92,36.92,0,0,0-6.53,20.19c0,8.31,0,17.81,1.18,20.78s8.91,12.47,8.91,12.47v13.65s0,7.13-1.78,11.28-4.75,1.78-7.13,4.75-11.87,17.22-11.87,17.22l-3,7.72s-7.13-5.94-8.91-10.09-3.56-7.13-2.37-13.07,5.34-14.84,3.56-20.18-4.64-17.22-1.73-20.78,12.42-13.07,12.42-23.75.59-31.47,9.5-38.6,20.19-12.46,30.87-12.46,25.53,8.31,29.1,13.06,8.9,14.84,8.9,21.37,1.19,19,4.16,24.35,9.5,14.84,9.5,17.81-1.19,13.65-1.19,19.59,3,11.88,3,17.81v10.66l-29.09-10.66s-6.54-4.15-6.54-5.34.6-20.78.6-20.78,3-8.31,5.34-14.84,2.38-19,1.78-25.54-2.37-14.25-3.56-16.62-4.75-2.37-5.94-5.94-12.47-11.87-12.47-11.87Z"/><path class="cls-22" d="M1097.29,294v3l-10-1.52-7.2,1.46a17.48,17.48,0,0,1,8.61-3A31.43,31.43,0,0,1,1097.29,294Z"/><path class="cls-22" d="M1110.38,293.73V297s7.56-2,9.7-1.65,6.85,1.65,6.85,1.65-5.31-3.56-8.27-3.3A78.61,78.61,0,0,1,1110.38,293.73Z"/><ellipse class="cls-22" cx="1089.57" cy="305.28" rx="2.37" ry="3.56"/><path class="cls-23" d="M1091.07,329s5.79,6.5,9.1,7.45,6.44,0,10.07-2.29a11.48,11.48,0,0,0,4.64-5s-5.27-1.33-7.47-.83a20.16,20.16,0,0,1-4.46.45,6.31,6.31,0,0,0-2.93-.7Z"/><ellipse class="cls-22" cx="1116.29" cy="305.28" rx="2.37" ry="3.56"/><path class="cls-7" d="M1084.06,356.89a21,21,0,0,0,13.23,7.52c8.91,1.43,16-1.25,19-2.29s5.45-2.15,5.45-2.15-2.17,2.58,1.24,5.71,32.73,13.81,32.73,13.81,17,15,19.92,19.19,7.23,13.14,9,22,10,55,10,55,3,24.2,0,31.21c-9,21.06-31.06,17-31.06,17l-31.06,3-18-12,7-20s17.48,8.12,21,1,27.38-3.18,18-5c-14.33-2.81-38.06-25.19-10-26.05l9-24.05,4.78,59.26-2.78,66-115.37,2.9-3-141.31-2.37,45.12V512.4L1064,548.71l-3.56,30.88s-41-44.05-45.16-60.68-1-51.21-1-76.14a118.42,118.42,0,0,1,8.75-44.27s3-10.69,20.79-16,24.34-8.32,31.46-13.07A21.82,21.82,0,0,0,1084.06,356.89Z"/><polygon class="cls-21" points="1049.68 758.54 1049.68 923.46 1071.45 923.46 1091.4 638.62 1106.24 649.13 1101.85 925.47 1126.31 926.72 1142.77 607.49 1061.93 583.54 1049.68 758.54"/><path class="cls-24" d="M1075,917.46s-18.84,1.69-29.07,0-21.72,15.16-21.72,15.16v8.67h51Z"/><path class="cls-24" d="M1101.92,916.47s18.84,1.69,29.07,0,21.72,15.17,21.72,15.17v8.66h-51Z"/><path class="cls-25" d="M1045.8,548.55s-18,99.43-27.25,122.06-12.25,48.69-27.28,62.72,8,40.07,29.06,50.09,60.11,24.05,86.16,25.05,50.77-.91,62-2.46l11.19-1.55s-17-65.12-20-95.18-2.48-102.1-2.48-102.1l7.65-63.42s-18,8.33-45.68,12.28S1045.8,548.55,1045.8,548.55Z"/><path class="cls-26" d="M1067.93,368.75s-21.74,3.37-33.67,12.64-21.93,41.55-22.44,69,0,64.19,0,64.19,9.47,21.53,17.51,33S1043,562.87,1043,562.87s2.42-29.41,2.42-35.68-4.48-15.79-4.48-15.79l1.48-48.85,2.31,31.42.13,59,35.26,17.58a183.52,183.52,0,0,0,11-40.18c3.4-22.44,3.36-39.88.88-75.25s-4.75-57.59-4.75-57.59Z"/><path class="cls-26" d="M1155.16,461.15s10.5,11.58,7.47,17.14c-1.78,3.26-6.65,9.09-10.38,13.35-2.62,3-4.68,5.23-4.68,5.23s2.58,18.07,7.81,21.06,7.89,6.59,13.07,6.29,22.33-1.79,24.77-11.06,5.52-33.32-2.53-66.89-7.31-40.57-20.7-53.59-24.9-21.81-28.17-22.93-27.9,34.11-27.9,34.11,13.26,57.78,13.44,88.42,0,74.58,0,74.58L1162,556l1.61-38.11-18.51-29-2.12-4.69,11.9-20.72"/><path class="cls-27" d="M1119.09,381.64v56.48h25.3l9.27-53s-11.3-2.25-18.83-2.25A125.76,125.76,0,0,1,1119.09,381.64Z"/><path class="cls-21" d="M1127.94,436.71l7.68,16.76,3.87,1.79,4.56,25.13s9.21-3.43,9.79-6.06a69.21,69.21,0,0,0,1.32-13.18V447.6s3.55-8.36,4.41-13.59a41.56,41.56,0,0,0-1.4-17.2c-1.5-4.6,1.29-3.91,1.4-8.77s-5.89-11.91-10.79-12.15-7.42.83-7.42.83-.36,4,2.58,5.25-15.36.5-16,2.36-2.37,5,0,6.07-1,4.31-1.21,6.07,3.59,3.27,3.59,3.27a3.57,3.57,0,0,0-3.59,2.13c-.93,2.39-1.16,7.18,1.21,7.42S1127.94,436.71,1127.94,436.71Z"/><path class="cls-26" d="M1121.28,372.63s-3.76,3.1-3.76,6.2v5.51s14.3-1.63,17.31-1.63,21.09,4.65,21.09,4.65v-3.71l-2.26-5.56Z"/><path class="cls-21" d="M1128.92,301.37a14.35,14.35,0,0,1,3.31-2.18c1.18-.37,4.14,1.14,4,5.48s.14,8.42-3.68,12.86l-3.82,4.44Z"/><path class="cls-7" d="M1130.37,307.39v4.91s2.53-.83,2.22,1.21-.91,6.77-.91,6.77l1.73.23,1.25-9.31s.33-2.69-.48-3.3a6.13,6.13,0,0,0-2.67-.68Z"/></g><g id="adam3"><path class="cls-28" d="M887.05,424.53l13.25,29.22s4.64,14.74.66,18.22-9.62,4.54-10.09,10.48,1,23.19,1,23.19l9.75,8.3L881.2,565.55l-26.09-49.28L857.05,494l-7.86-13.69a36.36,36.36,0,0,1-5.21-2.8c-2-1.4-3.31-8.4-2.65-9.8s2,0,3.32-2.8S846,437,846,437l16.33-18.89Z"/><path class="cls-28" d="M832.13,860.35c-2.2,14.06,1,62.57,1,62.57l-4.65,45.55s10.61-6.49,16.42,1.93,10.6-1,10.6-1l2.79-96.23,8.83-120.46s-1.4-14.26,4.64-13.66,7.44,13.31,11.15,78.52,8.37,148.81,8.37,148.81,11,5.2,18.36,5,5.8-18.17,5.8-18.17l-3.25-89-.64-165.62L836.32,691"/><path class="cls-13" d="M901,453.75s-4.2,2.48-4.42,6.14-1.1,3.79-2,2.68,1.76-7.42-2.21-13-3.31-10.5-4-12.6-3.31-4.39-8-6.75-9.27-1.66-13.25-1-4.64-.7-9.94.7-10,6.77-10.31,13.89-1.61,21.82-1.61,21.82a24.58,24.58,0,0,1-2.65-3.5c-1.33-2.1-4-17.5-1.33-25.9s9.94-22.41,17.89-23.81,17.35-3.5,26.81,1.4,14.14,14.43,15.46,19.33,2.9,29.35,2.9,32.85S901,453.75,901,453.75Z"/><path class="cls-13" d="M873.47,451.78v2a12.86,12.86,0,0,1,7.61-1.25c4.64.55,8,1.25,8,1.25l-.67-1.4a10.94,10.94,0,0,0-6-1.4A65.12,65.12,0,0,0,873.47,451.78Z"/><path class="cls-13" d="M861.66,453.75v1.7s-4.31-1.4-7-.85a38.64,38.64,0,0,0-4.69,1.25v-1.48s3.31-2,6-2A16.78,16.78,0,0,1,861.66,453.75Z"/><path class="cls-14" d="M878.3,479.55s-5.64,1.62-7.06,1.91a22.84,22.84,0,0,1-4.75-.08l-5.58-.86s3.77,4,7.34,4a26.87,26.87,0,0,0,6.21-.7Z"/><ellipse class="cls-13" cx="881.26" cy="458.59" rx="2.26" ry="2.86"/><ellipse class="cls-13" cx="856.87" cy="459.54" rx="2.26" ry="2.86"/><path class="cls-28" d="M958.9,590.44c-1,5.06,8.7,44.25,8.7,44.25s.26,19.75-17.26,31.35a248.93,248.93,0,0,0-30.62,24l-10.1-31.75s31.89-5.8,33.82-22.23-8.7-56.52-8.7-56.52l12.57-5Z"/><path class="cls-28" d="M823,574.24s-6.89,46.38-9.87,49.28-28.55-10.14-28.55-10.14-26.64-22.73-32.68-23.2S734,586.8,733.36,578.59,721.67,554,730.27,553s18.38,1,18.53,8.7S789,585.17,789,585.17s7.18,8.58,11.84,5.11,12.29-32.95,12.29-32.95l12.79,7.25Z"/><path class="cls-29" d="M823.15,666.51s-4.82,53.5-5.07,61.78,2.18,15.06,0,28.1-7.46,32.72-10.14,42.2,24.38,5.62,34,5.62,23.89.78,23.89.78l6.07-65.52,5.22,68s10.24-6.14,26.66-5.17l21.26,1.23V747.43L920,668.93l-94.06-2.42"/><path class="cls-30" d="M856,508s-37.67,5.43-42.51,15.41-15.56,34.9-15.56,34.9L795,571l24.45,9.94-6,100.1,117.73,6.3L924.93,576.6l4.56,11.11,29.82-3.38S951,531,934.51,520.88a56.7,56.7,0,0,0-33.28-8s-7.9,13.71-17.42,14-21.21,1.37-22.52-3.45a84.93,84.93,0,0,0-3.9-10.59"/><path class="cls-30" d="M894.19,982l49.21-1.21s4.44-4.86,0-10.93-15.24-9.11-19.69-12.75-16,7.5-16,7.5L891,954.4l1.19,27.6Z"/><path class="cls-7" d="M892,976.39l42.77-2.12,5.52-7.56s3.23,2.12,4.17,4.84,2.79,9-1,9.24S892.21,982,892.21,982Z"/><path class="cls-30" d="M853.11,982l-49.2-1.21s-4.45-4.86,0-10.93,15.24-9.11,19.69-12.75,16.45,6.53,16.45,6.53l16.23-9.24L855.1,982Z"/><path class="cls-7" d="M855.34,976.39l-42.78-2.12L807,966.71s-3.22,2.12-4.17,4.84-2.78,9,1,9.24S855.1,982,855.1,982Z"/><path class="cls-31" d="M847.67,414.81s19.17-7.2,28-5,17.7,4.32,17.7,4.32L897,434.49l-47.43-8.86Z"/><path class="cls-32" d="M840.76,441.84s-8-7-7.26-12.25,14.24-11,20.34-12.08,26.74-1.88,31.4,1.77a144.49,144.49,0,0,1,10.85,10l-2.69-15.1s4.17.66,5.69,6.31,3.91,22,3.91,22-16-7.11-25.07-10.58-22.23-1.22-30.28,1.11S840.76,441.84,840.76,441.84Z"/></g><g id="este3"><polygon class="cls-21" points="931.92 800.91 931.92 975.27 954.93 975.27 976.03 674.12 991.71 685.24 987.08 977.39 1012.94 978.71 1030.34 641.2 944.87 615.89 931.92 800.91"/><path class="cls-24" d="M958.67,968.93s-19.92,1.78-30.73,0-23,16-23,16v9.16h53.9Z"/><path class="cls-24" d="M987.15,967.88s19.92,1.79,30.73,0,23,16,23,16v9.17H987Z"/><path class="cls-28" d="M966.11,267.93,950.52,298,945,309.14l-2.23,2.22s-1.11,6.22,0,10.35,4.46,6.36,6.69,8.59S956.09,386,956.09,386l-14.48,13.36L986.16,484,1024,393.78l-20-13.36,17.82-61.26-16.7-53.46Z"/><path class="cls-33" d="M952.75,331.41s1.11,7.8,3.34,12.25a27.78,27.78,0,0,0,4.45,6.69v19.88s-1.11,14.26-3.89,14.45-15.92,0-15.92,0-9.14.19-11.37-6.49-5.63-9-1.7-20.1,9.49-24.45,9.49-24.45l4.46-14.48s1.11,5.57,4.45,8.91A10.38,10.38,0,0,0,952.75,331.41Z"/><path class="cls-33" d="M945,309.14a2.44,2.44,0,0,1,3.34-1.12,8.33,8.33,0,0,1,3.34,3.34s2.23-10,4.46-17.82,5.57-15.59,15.59-17.82,13.37-2.23,21.16,2.23,11.26,14.86,11.26,14.86,4.34,11.87,5.45,16.33,2.23,25.61,1.11,27.84-1.11,8.91-3.34,11.14-3.34,2.23-3.34,2.23v16.7l-9,17.72h42.77s9.66.1,8.55-14.38-10-42.32-12.26-50.12-6.68-22.27-8.91-32.3-12.25-27.84-20-31.18-16.71-6.69-24.51-5.57-17.82,10-17.82,10a38.58,38.58,0,0,0-8.91,6.69c-4.45,4.45-7.8,11.94-8.91,16.55S945,309.14,945,309.14Z"/><ellipse class="cls-33" cx="966.67" cy="312.48" rx="2.78" ry="4.46"/><ellipse class="cls-33" cx="996.74" cy="312.48" rx="2.78" ry="4.46"/><path class="cls-33" d="M976.14,301.34s-1.12-2.18-6.69-2.21-10,0-11.1,2.21l-1.15,2.23a8.14,8.14,0,0,1,5.51-2.22Z"/><path class="cls-33" d="M987.6,301.34s1.11-2.18,6.68-2.2,10,0,11.11,2.2l1.14,2.23a8.13,8.13,0,0,0-5.5-2.22Z"/><path class="cls-34" d="M971.68,342.55s4.46-5.57,6.68-5.57h5.93s5.21,3.34,7.44,4.46S971.68,342.55,971.68,342.55Z"/><path class="cls-35" d="M1219.54,1305.13"/><polygon class="cls-31" points="935.06 622.21 929 876 929 942.84 926.4 946.11 926.4 955.82 959.34 955.82 964 944 960 942.84 981.8 686.23 987.68 688.15 985.02 946.11 980.91 946.11 980.91 958.22 1021 956 1021 946.11 1018.66 946.11 1046.77 605 936.97 601 935.06 622.21"/><path class="cls-36" d="M946.94,386.89s6.83,17.35,29.7,19.73,47.89-20.84,47.89-20.84,21.58,3.59,35.78,16.41S1082,506.5,1082,506.5l-.83,76.08L1042.55,682.9s-30.11-17.9-28.08-37.9S1053,566.67,1053,566.67s-2.7-67.83-6.1-86.25,23.61,79.45,23.61,79.45l-14.3,60.39s-63.31,6.4-96.2,3.74-41.57,2-51.53-31-35.69-75-26.83-112,13.86-73.72,31.86-85.36S946.94,386.89,946.94,386.89Z"/><path class="cls-26" d="M1012.69,679.36s-14.08,5.42-19.39,17.14-8.92,27.17-9.11,39.44S972,772,985,775.67s44.26.6,66.63,3.45,40.37-1.58,40.37-8.69-4-43.55-10-59.55-8.46-28.37-22.73-31.52S1012.69,679.36,1012.69,679.36Z"/><path class="cls-28" d="M1017.69,658.78s-6.69,5.1-5.69,9.66,1.37,12.06,5.69,19.31S1022,697,1028,697s10.72-7.64,9.86-10.32-2.55-8.79-2.55-8.79-4.81-4-8.06-6.93"/><circle class="cls-31" cx="942.5" cy="459.5" r="4.5"/><circle class="cls-31" cx="964.5" cy="481.5" r="4.5"/><circle class="cls-31" cx="985.5" cy="459.5" r="4.5"/><circle class="cls-31" cx="1007.5" cy="481.5" r="4.5"/><circle class="cls-31" cx="942.5" cy="507.5" r="4.5"/><circle class="cls-31" cx="964.5" cy="529.5" r="4.5"/><circle class="cls-31" cx="985.5" cy="507.5" r="4.5"/><circle class="cls-31" cx="1007.5" cy="529.5" r="4.5"/><circle class="cls-31" cx="946.5" cy="553.5" r="4.5"/><circle class="cls-31" cx="968.5" cy="575.5" r="4.5"/><circle class="cls-31" cx="989.5" cy="553.5" r="4.5"/><circle class="cls-31" cx="1011.5" cy="575.5" r="4.5"/><circle class="cls-31" cx="1033.86" cy="432.81" r="4.5"/><circle class="cls-31" cx="1055.86" cy="454.81" r="4.5"/><circle class="cls-31" cx="1033.86" cy="480.81" r="4.5"/><circle class="cls-31" cx="1055.86" cy="502.81" r="4.5"/><circle class="cls-31" cx="1037.86" cy="526.81" r="4.5"/><circle class="cls-31" cx="1059.86" cy="548.81" r="4.5"/><circle class="cls-31" cx="903.5" cy="456.5" r="4.5"/><circle class="cls-31" cx="925.5" cy="478.5" r="4.5"/><circle class="cls-31" cx="903.5" cy="504.5" r="4.5"/><circle class="cls-31" cx="925.5" cy="526.5" r="4.5"/><circle class="cls-31" cx="907.5" cy="550.5" r="4.5"/><circle class="cls-31" cx="929.5" cy="572.5" r="4.5"/><circle class="cls-31" cx="951.5" cy="432.5" r="4.5"/><circle class="cls-31" cx="994.5" cy="432.5" r="4.5"/><circle class="cls-31" cx="912.5" cy="429.5" r="4.5"/><circle class="cls-31" cx="1057.5" cy="604.5" r="4.5"/><circle class="cls-31" cx="1039.5" cy="628.5" r="4.5"/><path class="cls-28" d="M935,612.19s-5,.46-5,4.52,1,12.18,7.11,16.24,12.18,2.84,17.25,2.94,15.4-4,13.79-9.07-12.77-6.05-15.82-9.09-14.21-12.65-15.22-10.39S935,612.19,935,612.19Z"/></g><g id="door2"><rect class="cls-3" x="1247" y="191" width="75" height="820"/><rect class="cls-3" x="679" y="191" width="75" height="820"/><rect class="cls-9" x="678" y="198" width="57" height="820"/><rect class="cls-9" x="1268" y="198" width="57" height="820"/><rect class="cls-9" x="739" y="198" width="20" height="814"/><rect class="cls-9" x="1243" y="197" width="20" height="817"/></g><g id="gossip3"><path class="cls-37" d="M1153,352.07s2.35,2.8-2.36,4.2-5.89,1.87-5.89,1.87,8.25-.47,11.78-1.4a41.36,41.36,0,0,0,8.24-3.74h24.73s9.43-.93,11.78-2.34S1206,348.79,1206,338s2.36-18.46,0-20.92-3.53-5.26-13-4.79-44.76,4.67-44.76,4.67-8.24.94-8.24,3.28v25.16s1.18,4.29,4.71,5.22A63,63,0,0,0,1153,352.07Z"/><circle class="cls-7" cx="1159.84" cy="334.86" r="3.99"/><circle class="cls-7" cx="1174.19" cy="334.86" r="3.99"/><circle class="cls-7" cx="1187.75" cy="334.86" r="3.99"/></g><g id="siri3"><path class="cls-38" d="M768.08,301.12s-3,2.61,3,3.92,7.53,1.75,7.53,1.75-10.54-.44-15.06-1.31A62.74,62.74,0,0,1,753,302H721.41s-12-.87-15-2.18-6-1.75-6-11.78-3-17.22,0-19.51,4.51-4.91,16.56-4.47,57.2,4.36,57.2,4.36,10.54.87,10.54,3v23.48a8.37,8.37,0,0,1-6,4.87C774.1,300.68,768.08,301.12,768.08,301.12Z"/><circle class="cls-7" cx="755.8" cy="283.5" r="3.99"/><circle class="cls-7" cx="741.45" cy="283.5" r="3.99"/><circle class="cls-7" cx="727.89" cy="283.5" r="3.99"/></g><g id="speech3"><path class="cls-39" d="M935.4,302.86s-2.11,6.42,2.11,9.63a59.94,59.94,0,0,1,5.27,4.28s-7.38-1.07-10.55-3.21-7.38-8.56-7.38-8.56H902.7s-8.43-2.14-10.54-5.35-4.22-4.28-4.22-28.89-2.11-42.25,0-47.88,3.16-12,11.6-11,40.08,10.7,40.08,10.7,7.38,2.14,7.38,7.49v57.61s-1,9.8-4.22,11.94A27.16,27.16,0,0,1,935.4,302.86Z"/><circle class="cls-7" cx="928.97" cy="262.19" r="3.99"/><circle class="cls-7" cx="914.62" cy="262.19" r="3.99"/><circle class="cls-7" cx="901.07" cy="262.19" r="3.99"/></g><g id="floor31"><circle class="cls-10" cx="846.5" cy="106.5" r="11.5"/></g><g id="floor32"><circle class="cls-10" cx="924.5" cy="106.5" r="11.5"/></g><g id="floor33"><circle class="cls-40" cx="1003.5" cy="106.5" r="11.5"/></g><g id="floor34"><circle class="cls-10" cx="1081.5" cy="106.5" r="11.5"/></g><g id="floor35"><circle class="cls-10" cx="1156.5" cy="107.5" r="11.5"/></g></svg>