<svg xmlns="http://www.w3.org/2000/svg" viewBox="0 0 1920 1080"><defs><style>.cls-1{fill:#b1d7dd;}.cls-2{fill:#4b7a82;}.cls-3{fill:#878683;}.cls-4{fill:#385a5e;}.cls-5{fill:#908f8b;}.cls-6{fill:#c4c0bd;}.cls-37,.cls-7{fill:#fff;}.cls-8{fill:#6b6b6a;}.cls-9{fill:#bcbab8;}.cls-10{fill:#e5e4e3;}.cls-11{fill:#105f9b;}.cls-12{fill:#f8a482;}.cls-13{fill:#3b1c1c;}.cls-14{fill:#d1695e;}.cls-15{fill:#b7ad7b;}.cls-16{fill:#fdb196;}.cls-17{fill:#e09c53;}.cls-18{fill:#964a4a;}.cls-19{fill:#a35b31;}.cls-20{fill:none;stroke:#000;stroke-miterlimit:10;}.cls-21{fill:#5b77c8;}.cls-22{fill:#f99285;}.cls-23{fill:#262221;}.cls-24{fill:#332421;}.cls-25{fill:#b8c3e3;}.cls-26{fill:#dadeea;}.cls-27{fill:#f0ab86;}.cls-28{fill:#a56756;}.cls-29{fill:#2d1111;}.cls-30{fill:#21090a;}.cls-31{fill:#161926;}.cls-32{fill:#cc885b;}.cls-33{fill:#381818;}.cls-34{fill:#eded6e;}.cls-35{fill:#030303;}.cls-36{fill:#baaea2;}.cls-37{opacity:0.8;}.cls-38{fill:#eaed6e;}</style></defs><g id="elevator2"><polygon class="cls-1" points="1920 1077.12 0 1077.12 0 0 1920 0 1920 1015.61 1920 1077.12"/><polygon class="cls-2" points="679 1020 1265.96 1020 1920 1022.76 1920 1080 0 1080 0 1020 679 1020"/><g id="Layer_10" data-name="Layer 10"><rect class="cls-3" x="660" y="187.03" width="663.05" height="776.93"/></g><rect class="cls-4" x="673.59" y="1009" width="663.41" height="13.84"/><polygon class="cls-5" points="778 878 683.74 1011 1325 1014.21 1226.1 878 778 878"/><rect class="cls-4" y="1012" width="643" height="11.32"/><rect class="cls-4" x="1359.71" y="1014.21" width="560.29" height="11.32"/><rect class="cls-6" x="643" y="158" width="35" height="865"/><rect class="cls-6" x="1325" y="158" width="35" height="865"/><rect class="cls-6" x="678" y="159" width="647" height="32"/><polygon class="cls-7" points="836 223 831 215 905 214 907.97 223 836 223"/><polygon class="cls-7" points="846 244 851 252 916.28 252 913.45 244 846 244"/><polygon class="cls-7" points="1098 215 1095 223 1166.52 223 1171.63 215 1098 215"/><polygon class="cls-7" points="1089 244 1086 251 1151.4 251 1155.56 244 1089 244"/><polygon class="cls-8" points="919 200 919 215 921 226 921 210.56 919 200"/><polygon class="cls-8" points="1083.67 200 1083.67 213 1080.67 226 1080.67 213 1083.67 200"/><polygon class="cls-8" points="1076.01 226 1076.01 244 1074 253 1074 237.98 1076.01 226"/><polygon class="cls-8" points="927 230 929 245 929 254.42 927 244.58 927 230"/><polygon class="cls-8" points="774.7 248 835.46 248 837 250 776.17 250 774.7 248"/><rect class="cls-8" x="929" y="248" width="145" height="2"/><polygon class="cls-8" points="1166.81 248 1165.51 250 1225.09 250 1225 651 1227 653 1226.39 248 1166.81 248"/><polygon class="cls-8" points="774.7 248 776.17 250 777.77 653 774.7 656.79 774.7 248"/><polygon class="cls-8" points="777.77 695.49 777.77 881.04 759.21 908.08 759.21 904.51 774.7 882.65 774.7 697.61 777.77 695.49"/><polygon class="cls-8" points="1227 695.49 1226.1 878 1244.83 908.08 1244.83 910.6 1224.82 878.3 1224.82 695.49 1227 695.49"/><path class="cls-8" d="M952,1143"/><rect class="cls-8" x="1001.29" y="257.74" width="3.07" height="620.26"/><polygon class="cls-8" points="759.21 708.82 795 680 1207.59 680 1244.83 708.82 1244.83 663.86 1208 644 798 640 758.84 661.54 759.21 708.82"/><rect class="cls-9" x="1389" y="524" width="57" height="95"/><polygon class="cls-10" points="1417.5 542.17 1430 563 1405 563 1417.5 542.17"/><polygon class="cls-10" points="1417.96 601 1405.46 580.17 1430.46 580.17 1417.96 601"/><rect class="cls-9" x="759" y="82" width="484" height="42"/><rect class="cls-3" x="769" y="90" width="464" height="34"/><path class="cls-11" d="M1009.75,552.58"/></g><g id="lisa2"><polygon class="cls-12" points="841.14 908.99 846.71 897.61 846.95 872.62 820.12 875.18 818.63 905.38 841.14 908.99"/><polygon class="cls-12" points="903.17 877.93 903.59 904.49 930.01 906.05 927.3 875.18 903.17 877.93"/><path class="cls-12" d="M939,606s-3.57,15.22-5.58,15.22-9.44,8.74-12.77,6-13.36-17.56-5-20.86,13.73-12,13.73-12Z"/><path class="cls-12" d="M798.93,567.94a111,111,0,0,0,7.51,18c4.69,8.73,17.77,10.53,17.77,10.53v-12L818,563.85Z"/><path class="cls-7" d="M848.68,372.31s-33.36,3.45-40.59,6.14-14.26,15.33-19.85,30.43-17.12,83-15,98.34,20.21,50.36,23.35,55.69,25,6.94,25,6.94-9.67-38.13-13.31-56.64c-.84-4.28-5.94-22.34-5.94-23.81,0-7.79,14.22-41.72,14.22-41.72l-.43,125.17s13.16,8.09,53.94,7.78,51.76-37.17,51.76-37.17-4.56-35.73-3.79-59.75,2.84-31.29,2.84-31.29l4.37-16.13s7.31,37.91,9.29,53.73S938,552.27,938,552.27l-8.51,42.4s5.27,32.59,14.22,5.69,17.87-29.06,18.52-59.11.64-62.24-3.62-97.14c-10.16-41-13-58.07-36.71-66.61-21.06-7.58-49.78-.49-49.78-.49Z"/><path class="cls-12" d="M847.48,281.38s-8.72,21.47-7.38,34.22,1.53,24.64,4.79,31.11,8,10.49,8,13.85-2.15,16.77-6.44,17.44-1.81,22,5,28.76,11,12.84,19,10.83,25.43-15.43,26.77-18.79,3-12.08-1.51-17.44S884,367,885.2,362.45s9.34-16.9,12-25.17,4.65-29.73,4-33.76-4.7-22.81-14.76-25.49-16.1-4-24.83-2A50.46,50.46,0,0,0,847.48,281.38Z"/><ellipse class="cls-13" cx="855.2" cy="313.27" rx="2.35" ry="3.69"/><ellipse class="cls-13" cx="884.05" cy="312.59" rx="2.35" ry="3.69"/><path class="cls-13" d="M864.26,300.85s.67,2.69-1.35,2.69h-12.3l-5.81,1.34s3.65-3.36,5.18-4,3.54-.67,8.24-.67S864.26,300.85,864.26,300.85Z"/><path class="cls-13" d="M877.87,300.18s-1.48.9-1.51,1.46-.31,1.36,1.51,1.63,6.52.27,9.87.27a51.35,51.35,0,0,1,9,1.34,26.55,26.55,0,0,0-5-3.36c-2.69-1.34-7.72-1.34-7.72-1.34Z"/><path class="cls-13" d="M869.62,275.34s-19.45-.67-23.48,9.4-6,33.54-6,33.54S843.66,339,845,341s8,9.41,8,11-1.27,15.88-2,19.26,1.39,6.68-10.77,7.38a220.65,220.65,0,0,1-23.37,0s-2.23-8-1.88-12.72,8.4-19,11.75-28.64,6.14-23,6.09-28.37,0-23.5,2.64-28.2,9.39-18.36,22.14-20.92,26.84-1.89,30.19.79,18.12,11.41,18.79,26.84,2,43.61,8.05,53,12.08,18.78,11.41,26.16S923.3,378,923.3,378s-23.81,2.58-27.34.95-10.38-9.35-10.64-13.54S886,352,886,352s4.42-3.52,5.77-7.55,5.36-12.07,5.36-22.14,1.85-13.09-.41-23.32-3.61-15.6-8.31-18.95-4.7-3.24-9.39-4A57.3,57.3,0,0,0,869.62,275.34Z"/><path class="cls-14" d="M856.89,337.58s5,5.14,8.68,5.62,8.06.48,11.79-1.92,4.34-3.37,4.34-3.37-7.77-.66-9.47-.33a25.81,25.81,0,0,0-2.93.74c-4.46-1-2.75-.74-4.86-.83C863.08,337.43,856.89,337.58,856.89,337.58Z"/><path class="cls-15" d="M816.62,549.15s33.47,3.57,56,3.79,49.31-3.79,49.31-3.79l5.41,190.62L934,883.31s-15.73-3.89-25.65-2l-9.91,1.91L883.71,704.76,870.3,615.28,856.45,741.66l-3.6,141.11-39.59-1.44,3.36-332.18"/><path class="cls-13" d="M846.71,897.6s-24.72,1.63-38.14,0-28.52,14.57-28.52,14.57v8.33H847Z"/><path class="cls-13" d="M903.64,899.11s24.73,1.62,38.15,0,28.51,14.56,28.51,14.56V922H903.4Z"/><path class="cls-14" d="M903.17,875.18"/></g><g id="anna2"><path class="cls-16" d="M1008.31,275.74,990.18,299s-4.53,2.59-4.53,5.83,1.94,12.95,4.53,14.89,2.59,5.83,3.88,9.71,6.48,11.65,6.48,11.65v14.25s.6,8.58-3.94,12.47-18.08,14.07-24.55,16-18.77,2.71-19.75,8.15a32.62,32.62,0,0,1-2.26,8s46.61,10.36,86.75,11.65,58.92-7.12,58.92-7.12-3.89-7.12-4.54-9.71-5.5-6.8-10-7.45-33-11.51-36.83-16S1041,355,1041,348.57V338.21s3.24-2.59,4.53-3.88,2.59-7.77,2.59-7.77a26.89,26.89,0,0,0,7.12-3.24c2.59-1.94,5.18-11,3.89-13.59a10.88,10.88,0,0,0-3.24-3.89l-5.18,3.24s-.65-14.89-1.94-20.72-6.47-15.54-14.24-16.83-13.86-1.3-17.94,0A36.52,36.52,0,0,0,1008.31,275.74Z"/><polygon class="cls-16" points="962.27 745.54 962.27 910.13 983.99 910.13 1003.91 625.85 1018.71 636.34 1014.34 912.14 1038.75 913.39 1055.18 594.77 974.5 570.87 962.27 745.54"/><path class="cls-17" d="M1050.36,308.67s.65-26.55-8.42-31.08-18.77-11-29.13-3.88S995.33,297,995.33,297l-3,11.66a14.31,14.31,0,0,1-2.88-9.07c0-5.82,1.25-25.11,3.54-29.06s11.35-12.37,15.88-14.31,9.07-5.18,15.54-2a80.71,80.71,0,0,0,14.25,5.18s8.43,3.26,11.66,9.72,4.52,7.76,4.52,16.83-1.29,20.07-1.29,20.07Z"/><path class="cls-17" d="M1000.21,347.27s1.95,14.9-3.88,20.72-20.72,14.89-20.72,14.89-.65-7.12,1.94-12.95,5.83-12.78,13-17.39S1000.21,347.27,1000.21,347.27Z"/><path class="cls-18" d="M1006.69,329.15s5.18,7.12,8.41,8.41,6.48.65,10.36-1.29a11.64,11.64,0,0,0,5.18-4.53s-5.18-1.88-7.44-1.59a20.43,20.43,0,0,1-4.54,0,6.46,6.46,0,0,0-2.87-1Z"/><path class="cls-19" d="M1017.69,295.48s1.3,1.3-5.18.65-13.26-.65-13.26-.65,2.91-2.59,4.85-3.24,11.65,1.3,11.65,1.3Z"/><path class="cls-19" d="M1030.64,295.46s-3-.26-2.45.85,1.8,1.76,3.75,1.76a79.19,79.19,0,0,1,8.41,1.3l5.83,1.29s-3.77-5.27-4.15-5.23S1030.64,295.46,1030.64,295.46Z"/><circle class="cls-20" cx="1007.01" cy="308.11" r="11.65"/><circle class="cls-20" cx="1036.14" cy="311.34" r="11.65"/><line class="cls-20" x1="1018.66" y1="308.11" x2="1024.49" y2="308.94"/><ellipse cx="1007.33" cy="305.52" rx="2.59" ry="3.56"/><ellipse cx="1036.47" cy="308.75" rx="2.59" ry="3.56"/><path class="cls-21" d="M953.18,498.29l-9.45,164.39v97.75s147.44-14,146.81-52.26S1083,587.58,1083,584s-4.41-114.09-4.41-114.09L951,472.48Z"/><path class="cls-22" d="M1052.72,523.17s42.75-16.34,52.61-22.26,17.65-7.54,15.23-24-17.06-70.24-17.06-73.77S1086.71,389,1086.71,389s-25.62,14.4-50.31,13.87-69-18.29-69-18.29l-15.84,5.07A11.39,11.39,0,0,0,944,398.1c-4.25,19.3-16.64,76.42-17.68,90.6-1.26,17.14-4.47,16.16,19.8,22.07A311.12,311.12,0,0,0,992,518.22l3.94-31.1s-41.38,5.91-44.34-1,7.91-39.55,7.91-39.55l3.92-22.13-17.73,1.69L948,490.82l96.38,2.63,35.3-14.34-.49-34.69-.44-17.41,4.93,31.94,6.08,15.83-61.28,25.89Z"/><path class="cls-16" d="M987.66,496.08s14.08-5.26,19.86-5.26,10.29,2.38,16.7,2.63,20.13,0,20.13,0,8.66,6.63,10.83,14.27,1.44,17.76-3.61,17.76-13.72-3.38-24.55-6.38-13-1.79-23.11-.59-15.89.53-16.25-7.08S987.66,496.08,987.66,496.08Z"/><path class="cls-23" d="M987.52,904.15s-18.8,1.68-29,0-21.69,15.13-21.69,15.13v8.65h50.88Z"/><path class="cls-23" d="M1014.41,903.16s18.8,1.69,29,0,21.69,15.14,21.69,15.14V927h-50.88Z"/></g><g id="mark2"><path class="cls-12" d="M1181.14,232.12l-13.71,30.24s-4.8,15.26-.69,18.86,5.88,0,6.37,6.15-.46,20.49-.46,20.49l-6.55,16.79,32.72,40.5,19.62-36.55-1-27.83,2.85-10.88a37.8,37.8,0,0,0,5.38-2.9c2.06-1.44,3.43-8.69,2.74-10.14s-2,0-3.43-2.9-1.37-29-1.37-29l-16.9-19.55Z"/><path class="cls-12" d="M1092,516l.69,42s6.17,10.86,15.08,15.94,26.74,10.14,26.74,10.14l1.38-32.6s-19.89,8-23.32,4.34-4.8-7.24-4.11-15.94,2.74-25.36,2.74-25.36Z"/><path class="cls-12" d="M1253.82,520.3v28.41s-1.37,11.44-9.6,12.89-9.6,16.66-9.6,16.66l1.38,6.52s12.34-4.34,17.82-8.69,9.6-8,11-10.87,1.82-11.91,3-19,6.12-25.93,6.12-25.93Z"/><path class="cls-24" d="M1214.25,919.44l60-1.63s5.42-6.52,0-14.67-18.57-12.22-24-17.11-6.19-13.85-6.19-13.85l-33.64,10.21,1.44,37.05Z"/><path class="cls-24" d="M1148.07,894.18V917l-59.3.65s-1.84-14.5,2-18.58,18.26-5,22.67-13.08a89.46,89.46,0,0,0,6.74-16.25Z"/><path class="cls-11" d="M1113.05,755.34c-3.67,19.06,1.64,84.78,1.64,84.78l-.8,37.1s18.7,3.1,28.38,14.51l9.67,11.41,4.64-130.37,14.71-163.2s-2.33-19.33,7.73-18.51,12.39,18,18.58,106.38,13.93,201.61,13.93,201.61,15.88-17.24,28.06-17.58l12.18-.33-5.42-120.63-1.06-224.38L1120,525.87"/><path class="cls-7" d="M1114.63,551.46s20.45,18.83,31.14,21.73,31.26,5.07,31.26,5.07a77.42,77.42,0,0,1,2-15.94c2.06-8.69,4.8-21.73,4.8-21.73l6.86,39.12,30.09-6.52c9.68-5.07,17.25-11.59,22.38-20.65s7.87-14.85,5.13-18.47-9.6-2.9-6.86-10.15,2.13-32,2.13-32l-.76-20.92,2.74-29.71s4.47,12.4,5,19.61,1.2,44.15,1.2,44.15-4.12-5.79-5.49-5.79-1,15.21-1,15.21,4.47,10.87,7.21,11.6,25.14.72,25.14.72,5-12.32,4.35-19.56a46.25,46.25,0,0,0-2.06-10.87s-1.72-114.71-6-125.1-22.8-27.06-37.88-39.37-16.19-14.49-16.19-14.49-6.44,10.86-9.18,15.21-8.23,8.7-8.23,8.7l-4.08,21.57s-.72-9.26-2.09-10.71-3.43-2.17-4.8-5.79,0-5.07-6.17-11.59-12.8-11-13.94-14.92-.23-9,1-10.81,0-1.64,0-1.64-6.84,9.85-7.25,12.45-1.09-.3-11.38,4.05-31.83,11.69-36.83,19.61-18.71,55-22.13,81.82-8.23,65.21-8.23,65.21l-5.49-7.24,3.43,13.76L1081,502.2l9.6,14.48s0,5.79,9.6,5.79h13.71s0-9.42,2.06-10.14,4.12-2.17,5.49-8l1.37-5.8-4.92,0s-1.25-5.36.8-13.54,3.43-17.59,3.43-23,4.8-15.57,4.8-15.57,1.37,30.43,0,35.5-8.23,44.92-8.23,44.92Z"/><path class="cls-24" d="M1166.74,262.36s4.35,2.57,4.58,6.36,1.14,3.92,2,2.77-1.83-7.68,2.29-13.48,3.42-10.87,4.11-13,3.43-4.54,8.23-7,9.6-1.71,13.71-1,4.8-.72,10.29.73,10.36,7,10.67,14.36,1.67,22.59,1.67,22.59a25.8,25.8,0,0,0,2.74-3.63c1.37-2.17,4.12-18.11,1.37-26.8s-10.28-23.19-18.51-24.64-9.9-5.07-19.69,0-18.71,11.59-20.08,16.67-4.8,13-4.8,16.66A53.47,53.47,0,0,0,1166.74,262.36Z"/><path class="cls-24" d="M1195.2,260.32v2a13.37,13.37,0,0,0-7.89-1.29c-4.8.57-8.23,1.29-8.23,1.29l.69-1.45a11.33,11.33,0,0,1,6.17-1.45A67.68,67.68,0,0,1,1195.2,260.32Z"/><path class="cls-24" d="M1207.41,262.36v1.76s4.46-1.45,7.27-.88a41.27,41.27,0,0,1,4.86,1.29V263s-3.43-2.09-6.17-2.09A17.46,17.46,0,0,0,1207.41,262.36Z"/><path class="cls-14" d="M1190.05,291.34s6-.6,7.45-.3a23.75,23.75,0,0,0,4.92-.08l6.15,2.56a56.94,56.94,0,0,1-8,.72,28,28,0,0,1-6.43-.72Z"/><ellipse class="cls-24" cx="1193.48" cy="401.47" rx="2.06" ry="2.17"/><ellipse class="cls-24" cx="1191.43" cy="431.18" rx="2.06" ry="2.17"/><ellipse class="cls-24" cx="1189.37" cy="461.61" rx="2.06" ry="2.17"/><ellipse class="cls-24" cx="1186.63" cy="490.59" rx="2.06" ry="2.17"/><ellipse class="cls-24" cx="1185.26" cy="521.75" rx="2.06" ry="2.17"/><ellipse class="cls-24" cx="1187.13" cy="267.37" rx="2.34" ry="2.96"/><ellipse class="cls-24" cx="1212.37" cy="268.36" rx="2.34" ry="2.96"/></g><g id="speech2"><path class="cls-25" d="M918.87,344.34s1.79,5.38-1.8,8.07a49.56,49.56,0,0,0-4.48,3.59s6.28-.9,9-2.69,6.28-7.18,6.28-7.18h18.83s7.18-1.79,9-4.48,3.59-3.59,3.59-24.22,1.79-35.42,0-40.13-2.69-10.1-9.87-9.2-34.08,9-34.08,9-6.28,1.79-6.28,6.28v48.29s.9,8.21,3.59,10A23.45,23.45,0,0,0,918.87,344.34Z"/><circle class="cls-7" cx="920.16" cy="311.55" r="3.99"/><circle class="cls-7" cx="934.51" cy="311.55" r="3.99"/><circle class="cls-7" cx="948.07" cy="311.55" r="3.99"/><path class="cls-26" d="M973.69,260.16a11.39,11.39,0,0,0,5.81,7.38c4.85,2.46,7.31,2.46,7.31,2.46s-1.64,0-2.46-3.28-1.62-6.56-1.62-6.56,2.44.82,4.9-1.64,4.11-.83,4.93-19.69,4.1-41.84,1.64-45.94-1.64-8.21-12.31-9-23-2.46-27.89-1.64-8.2,2.46-9,5.75,0,35.54,0,35.54,0,27.62.82,29.26,4.92,8.21,9.84,8.21S973.69,260.16,973.69,260.16Z"/><circle class="cls-7" cx="956.76" cy="225.98" r="3.65"/><circle class="cls-7" cx="969.89" cy="225.98" r="3.65"/><circle class="cls-7" cx="982.28" cy="225.98" r="3.65"/></g><g id="peter2"><path class="cls-27" d="M796.6,245.66s-30.84,26.74-32.21,32.61S763,299.14,763,299.14s3.43,10.44,6.85,11.09,11,12.39,11,12.39v22.83l-21.25,29.34,41.81,68.48,47.29-66.52L834.3,353.92l-4.8-8.47V327.18l15.08-23.47s4.8-4.83,4.11-8.61-3.43-10.31-4.8-11.61-15.76-30-15.76-30Z"/><path class="cls-28" d="M817.85,253.49s-24,0-27.42.65-7.53,3.26-7.53,7.83,0,14.35-5.49,17.61-11,3.91-13,8.48S763,299.14,763,299.14s-8.91-8.48-8.91-10.43,0-7.83,2.06-9.79a29,29,0,0,0,3.42-3.91s-2.74-9.78-1.37-13,4.8-11.09,8.23-13,4.79-2.61,4.79-2.61,5.49-11.09,7.54-12.39,8.23-6.53,16.45-5.87,12.34,5.21,12.34,5.21,7.54.25,10.28,2.08,6.85,9,6.85,9,5.49-3.26,9.6,0,6.17,9.78,6.17,15v7.09s3.42,3.34,4.11,5.95,0,12.26,0,12.26l-5.48.13s-6.86-5.21-8.23-7.82-2.74-.65-2.74-7.18-4.8-11.08-4.8-11.08Z"/><path class="cls-29" d="M772.61,283.49s-2.74,3.91-1.37,4.57,2.06,1.3,2.75,4.56,4.79,9.78,9.59,10.43,11.91,0,14.52-3.91a29.1,29.1,0,0,0,4-9.78,40.08,40.08,0,0,0-1.38-4.57h8.23s-2.06,5.44-1,8.59,4.43,9.46,10.27,9.9,11.64-1.53,13.53-4.14a46.06,46.06,0,0,0,4-7.82l2.74-2.61s1.37-4.57,0-5.22-6.85-1.3-6.85-1.3l-6.17-2H804.51L785,279.58a10.09,10.09,0,0,0-6.85,1.95C774.67,284.14,772.61,283.49,772.61,283.49Z"/><path class="cls-27" d="M775.67,293.27s5.25,6.86,7.21,7.48,10.45.63,12.76-1.87,4.94-7.48,4.29-9.36-3.28-6.23-5.9-6.86-8.27-1.24-12,0-6.36,4.9-6.36,6.19Z"/><path class="cls-27" d="M809.62,293.43s5.25,6.87,7.22,7.49,10.44.62,12.76-1.87,4.93-7.49,4.28-9.36-3.28-6.24-5.9-6.86-8.27-1.25-12,0-6.36,4.89-6.36,6.19Z"/><ellipse class="cls-30" cx="790.09" cy="295.56" rx="2.4" ry="3.59"/><ellipse class="cls-30" cx="820.25" cy="295.56" rx="2.4" ry="3.59"/><path class="cls-14" d="M779.47,346.75s-7.62,8-8.61,10.83.38,7.43,6.55,19.82,32.21,33.91,32.21,33.91l3.43-12.39,14.39-11.74s11-26.08,8.91-28-6.25-12.39-6.25-12.39l-.6-5.87S846,353.27,848,356.53l4.11,6.52,37.69,17.61s27.42,2.2,35,22,5.48,96.73,5.48,96.73,6.68,33.26.26,41.41-16.76,6.85-26.67,7.5-13.34,17-13.34,17l-9.6,30.66s-44.55,7.58-71.28,6.07-67.54-13.15-72.83-17.44-3.24-25.15-3.24-25.15L737,541.75s-8.09,5.21-13,4.56-19.94-20.87-19.94-31.95,3.7-57.39,3.7-57.39l12.06-67.18s24.67-8.48,37.7-18.91A116.48,116.48,0,0,0,779.47,346.75Z"/><path class="cls-27" d="M817.89,462.79l-8.27,5.26s-5.41-.69-5.44,3.57,7.57,12.76,0,16-20.65,2.62-28.51,0-12-5.88-12-1.32S750,502,750,502s-6.17,4.57-2.74,13.05,12.33,13.69,12.33,13.69l11.27-8.45s11,6.5,17,6.5,27.24-6.5,27.24-6.5l5.16-13.86,24.63,13.86,17.77,8.45,8.13-5.87s-.84-13.69-3.58-15S856.27,502,856.27,502s-4.7-10.26-7.51-16.54-14.07-17.37-19.75-20A30.19,30.19,0,0,0,817.89,462.79Z"/><path class="cls-31" d="M770.86,479.14l8.61,18.26,12.66-4.25,7.9-2.21s4.18-1.44,4.15.55a35.13,35.13,0,0,0,.83,5.91l4.61-5.91L805,475.23Z"/><polygon class="cls-16" points="732.86 944.78 727.76 980.57 737.63 995.05 766.51 985.3 769.87 940.22 732.86 944.78"/><polygon class="cls-16" points="851.54 940.22 855.27 988.35 910.35 991.77 896.68 983.46 890.34 941.95 851.54 940.22"/><path class="cls-24" d="M852.38,1010l77.81-1.84s7-7.36,0-16.56-24.1-13.8-31.13-19.32-13.36,11-13.36,11l-38.33-15.08,1.87,41.82Z"/><path class="cls-24" d="M766.51,981.48v25.76l-77,.74s-2.38-16.38,2.64-21,23.2-5.93,29.42-14.78c3.7-5.26,16.73,16.26,16.73,16.26Z"/><path class="cls-24" d="M721.07,824.72c-4.77,21.51,2.12,95.72,2.12,95.72l-1,41.89s2.83-.12,20.3-5.81c26-8.48,30.15,2.61,30.15,2.61l4.95-114.74,19.08-184.27s-3-21.82,10-20.9,16.06,20.36,24.1,120.12,17.91,197.18,17.91,197.18,19.83,1.68,35.64,1.31,16.74,8.93,16.74,8.93l-7-136.21L890.5,565.22l-157-5.86"/><path class="cls-14" d="M792.13,315.55s8.23-1.09,10.29-.81a37.9,37.9,0,0,0,6.81-.4l8.66,2.71a89.35,89.35,0,0,1-11,1.35,43.62,43.62,0,0,1-8.94-.48Z"/><path class="cls-7" d="M840,294.1v5.23s2.7-.88,2.36,1.29-1,7.22-1,7.22l1.85.25,1.33-9.94s.35-2.86-.51-3.51a6.54,6.54,0,0,0-2.85-.72Z"/><path class="cls-7" d="M770.76,298.68v5.23s-2.7-.88-2.36,1.3,1,7.22,1,7.22l-1.84.25-1.33-9.94s-.35-2.87.51-3.52a6.51,6.51,0,0,1,2.85-.72Z"/></g><g id="amy2"><polygon class="cls-32" points="1106.14 274.67 1083.35 295.56 1073.85 353.82 1087.14 407.65 1117.54 414.62 1149.84 395.62 1154.91 337.36 1154.91 302.74 1126.41 272.77 1106.14 274.67"/><path class="cls-33" d="M1111.21,273.4s-10.77,4.43-11.4,7.6-7,9.5-10.13,13.93a39.36,39.36,0,0,0-7,21.53c0,8.87,0,19,1.27,22.17s9.5,13.3,9.5,13.3v14.56s0,7.6-1.9,12-5.07,1.9-7.6,5.07S1071.31,402,1071.31,402l-3.16,8.24s-7.6-6.34-9.5-10.77-3.8-7.6-2.54-13.93,5.7-15.83,3.8-21.53-5-18.37-1.84-22.17,13.24-13.93,13.24-25.33.64-33.56,10.14-41.16S1103,262,1114.38,262s27.23,8.87,31,13.93,9.5,15.83,9.5,22.8,1.26,20.27,4.43,26,10.13,15.84,10.13,19-1.27,14.57-1.27,20.9,3.17,12.67,3.17,19V395l-31-11.37s-7-4.43-7-5.7.64-22.16.64-22.16,3.16-8.87,5.7-15.84,2.53-20.26,1.9-27.23-2.54-15.2-3.8-17.73-5.07-2.53-6.34-6.33-13.29-12.67-13.29-12.67Z"/><path class="cls-33" d="M1107.41,303.16v3.24l-10.69-1.62-7.68,1.55s3.17-2.53,9.19-3.17A34,34,0,0,1,1107.41,303.16Z"/><path class="cls-33" d="M1121.37,302.88v3.52s8.06-2.19,10.35-1.76,7.3,1.76,7.3,1.76-5.66-3.8-8.82-3.52A86.19,86.19,0,0,1,1121.37,302.88Z"/><ellipse class="cls-33" cx="1099.18" cy="315.2" rx="2.53" ry="3.8"/><path class="cls-18" d="M1100.77,340.5s6.18,6.93,9.71,7.95,6.86,0,10.74-2.44a12.32,12.32,0,0,0,5-5.3s-5.64-1.42-8-.88a21.46,21.46,0,0,1-4.76.47,6.8,6.8,0,0,0-3.12-.75Z"/><ellipse class="cls-33" cx="1127.67" cy="315.2" rx="2.53" ry="3.8"/><path class="cls-7" d="M1093.29,370.24a22.44,22.44,0,0,0,14.12,8c9.5,1.52,17.1-1.34,20.26-2.44s5.81-2.3,5.81-2.3-2.31,2.75,1.33,6.09,34.91,14.73,34.91,14.73,18.08,16,21.24,20.47,7.72,14,9.62,23.51S1211.27,497,1211.27,497s3.2,25.8,0,33.28c-9.63,22.46-33.13,18.17-33.13,18.17L1145,551.61l-19.23-12.83,7.48-21.37s18.64,8.67,22.44,1.07,29.2-3.39,19.23-5.35c-15.28-3-40.59-26.86-10.68-27.78l9.61-25.65,5.11,63.21-3,70.37-123,3.09-3.17-150.72-2.53,48.13v42.33l24.7,38.73-3.8,32.93s-43.74-47-48.17-64.71-1.07-54.62-1.07-81.22a126.25,126.25,0,0,1,9.34-47.22s3.17-11.4,22.16-17.1,26-8.86,33.57-13.93A23.26,23.26,0,0,0,1093.29,370.24Z"/><polygon class="cls-32" points="1056.63 798.64 1056.63 974.54 1079.85 974.54 1101.13 670.74 1116.95 681.95 1112.28 976.69 1138.37 978.02 1155.92 637.53 1069.7 611.99 1056.63 798.64"/><path class="cls-23" d="M1083.62,968.15s-20.09,1.79-31,0-23.17,16.17-23.17,16.17v9.24h54.37Z"/><path class="cls-23" d="M1112.35,967.09s20.09,1.8,31,0,23.17,16.18,23.17,16.18v9.24h-54.37Z"/><path class="cls-34" d="M1052.49,574.67s-19.2,106.05-29.06,130.19-13.07,51.93-29.1,66.89,8.55,42.75,31,53.43,64.12,25.65,91.91,26.72,54.14-1,66.07-2.62l11.94-1.66s-18.17-69.46-21.38-101.52-2.64-108.9-2.64-108.9l8.16-67.64s-19.25,8.88-48.72,13.1S1052.49,574.67,1052.49,574.67Z"/><path class="cls-35" d="M1076.1,382.89s-23.19,3.6-35.92,13.49-23.39,44.31-23.93,73.59,0,68.46,0,68.46,10.1,23,18.67,35.17,14.53,16.34,14.53,16.34,2.58-31.37,2.59-38.06-4.79-16.84-4.79-16.84l1.58-52.1,2.46,33.51.15,62.89,37.6,18.75a196,196,0,0,0,11.73-42.86c3.63-23.93,3.59-42.54.94-80.25s-5.07-61.43-5.07-61.43Z"/><path class="cls-35" d="M1169.14,481.45s11.19,12.34,8,18.27c-1.9,3.48-7.1,9.7-11.07,14.25-2.8,3.2-5,5.58-5,5.58s2.75,19.26,8.32,22.45,8.42,7,13.94,6.72,23.82-1.91,26.43-11.8,5.88-35.54-2.7-71.34-7.8-43.27-22.08-57.17-26.56-23.25-30-24.45-29.77,36.38-29.77,36.38,14.15,61.63,14.34,94.31,0,79.55,0,79.55l37-11.54,1.71-40.66-19.73-30.89-2.26-5L1168.86,484"/><path class="cls-36" d="M1130.66,396.64v60.25h27l9.88-56.55s-12-2.41-20.08-2.41A134.27,134.27,0,0,1,1130.66,396.64Z"/><path class="cls-32" d="M1140.1,455.38l8.19,17.88,4.13,1.9,4.87,26.81s9.82-3.66,10.43-6.47a73.33,73.33,0,0,0,1.42-14.05V467s3.78-8.91,4.7-14.49a44.48,44.48,0,0,0-1.49-18.35c-1.61-4.9,1.37-4.17,1.49-9.35s-6.28-12.71-11.52-13-7.91.88-7.91.88-.38,4.31,2.76,5.6-16.38.54-17.07,2.52-2.52,5.35,0,6.48-1.09,4.59-1.29,6.47,3.82,3.49,3.82,3.49a3.79,3.79,0,0,0-3.82,2.27c-1,2.55-1.23,7.66,1.29,7.91S1140.1,455.38,1140.1,455.38Z"/><path class="cls-35" d="M1133,387s-4,3.31-4,6.62v5.87s15.26-1.74,18.47-1.74,22.49,5,22.49,5v-4l-2.41-5.93Z"/><path class="cls-32" d="M1141.14,311a15.33,15.33,0,0,1,3.54-2.33c1.26-.39,4.41,1.22,4.32,5.84s.14,9-3.93,13.72L1141,333Z"/><path class="cls-7" d="M1142.69,317.45v5.23s2.7-.88,2.36,1.3-1,7.22-1,7.22l1.85.24,1.33-9.93s.35-2.87-.52-3.52a6.48,6.48,0,0,0-2.84-.72Z"/></g><g id="coffee2"><path class="cls-37" d="M1147,361c1.46,3.21,3.9,4.43,4,8,.06,2.33-.91,4.09-2,6-3.5,6.15-8.37,8.36-8,9s6-.74,10-5c1.33-1.4,4-4.2,4-8,0-4-2.86-7.58-4-9a16.74,16.74,0,0,1-4-7c0-.11-.07-.3-.12-.54-1-4.92,1.79-9.57,2.12-9.46S1143.68,353.72,1147,361Z"/><path class="cls-7" d="M1284,349"/><path class="cls-37" d="M1157.77,370.11c1,2.1,2.55,2.9,2.61,5.24a7.28,7.28,0,0,1-1.3,3.92c-2.29,4-5.48,5.47-5.24,5.89s3.91-.49,6.54-3.27c.87-.92,2.6-2.75,2.62-5.24s-1.87-4.95-2.62-5.88a10.92,10.92,0,0,1-2.61-4.58c0-.07,0-.2-.08-.35-.64-3.22,1.17-6.27,1.39-6.19S1155.6,365.35,1157.77,370.11Z"/></g><g id="door2"><rect class="cls-3" x="1247" y="191" width="75" height="820"/><rect class="cls-3" x="679" y="191" width="75" height="820"/><rect class="cls-9" x="678" y="198" width="57" height="820"/><rect class="cls-9" x="1268" y="198" width="57" height="820"/><rect class="cls-9" x="739" y="198" width="20" height="814"/><rect class="cls-9" x="1243" y="197" width="20" height="817"/></g><g id="phone2"><path class="cls-20" d="M760.58,485.75a13.7,13.7,0,0,1,4.92-11,13.55,13.55,0,0,1,10.81-2.51"/><path class="cls-20" d="M753.09,483c-.05-.84-.33-9.57,6.84-15.24a18.79,18.79,0,0,1,15-3.48"/><path class="cls-20" d="M818.61,490.1a13.68,13.68,0,0,1-2.91,11.65,13.54,13.54,0,0,1-10.2,4.37"/><path class="cls-20" d="M826.48,491.52c.19.83,2,9.36-4.05,16.21a18.78,18.78,0,0,1-14.18,6.07"/></g><g id="floor21"><circle class="cls-10" cx="846.5" cy="106.5" r="11.5"/></g><g id="floor22"><circle class="cls-38" cx="924.5" cy="106.5" r="11.5"/></g><g id="floor23"><circle class="cls-10" cx="1003.5" cy="106.5" r="11.5"/></g><g id="floor24"><circle class="cls-10" cx="1081.5" cy="106.5" r="11.5"/></g><g id="floor25"><circle class="cls-10" cx="1156.5" cy="107.5" r="11.5"/></g></svg>