<?xml version="1.0" encoding="utf-8"?>
<!-- Generator: Adobe Illustrator 23.1.1, SVG Export Plug-In . SVG Version: 6.00 Build 0)  -->
<svg version="1.1" id="Layer_1" xmlns="http://www.w3.org/2000/svg" xmlns:xlink="http://www.w3.org/1999/xlink" x="0px" y="0px"
	 viewBox="0 0 1920 1080" style="enable-background:new 0 0 1920 1080;" xml:space="preserve">
<style type="text/css">
	.st0{fill:#A085A0;}
	.st1{fill:#986579;}
	.st2{fill:#894861;}
</style>
<g id="brick_1_">
	<g id="light_2_">
		<path class="st0" d="M1742.3,28.8V7.9c0-5.3-4.3-9.5-9.5-9.5H1666c-5.3,0-9.5,4.3-9.5,9.5v20.9c0,5.3,4.3,9.5,9.5,9.5h66.8
			C1738,38.3,1742.3,34.1,1742.3,28.8z"/>
		<path class="st0" d="M1475.3,28.8V7.9c0-5.3-4.3-9.5-9.5-9.5H1399c-5.3,0-9.5,4.3-9.5,9.5v20.9c0,5.3,4.3,9.5,9.5,9.5h66.8
			C1471,38.3,1475.3,34.1,1475.3,28.8z"/>
		<path class="st0" d="M1028.3,29.4V8.5c0-5.3-4.3-9.5-9.5-9.5H952c-5.3,0-9.5,4.3-9.5,9.5v20.9c0,5.3,4.3,9.5,9.5,9.5h66.8
			C1024.1,39,1028.3,34.7,1028.3,29.4z"/>
		<path class="st0" d="M43.9,8.2v20.9c0,5.3,4.3,9.5,9.5,9.5h66.8c5.3,0,9.5-4.3,9.5-9.5V8.2c0-5.3-4.3-9.5-9.5-9.5H53.4
			C48.2-1.4,43.9,2.9,43.9,8.2z"/>
		<path class="st0" d="M442.8,89.6h66.8c5.3,0,9.5-4.3,9.5-9.5v-21c0-5.3-4.3-9.5-9.5-9.5h-66.8c-5.3,0-9.5,4.3-9.5,9.5V80
			C433.3,85.3,437.6,89.6,442.8,89.6z"/>
		<path class="st0" d="M1905.7,101.2h-66.8c-5.3,0-9.5,4.3-9.5,9.5v21c0,5.3,4.3,9.5,9.5,9.5h66.8c5.3,0,9.5-4.3,9.5-9.5v-21
			C1915.3,105.4,1911,101.2,1905.7,101.2z"/>
		<path class="st0" d="M1638.7,101.2h-66.8c-5.3,0-9.5,4.3-9.5,9.5v21c0,5.3,4.3,9.5,9.5,9.5h66.8c5.3,0,9.5-4.3,9.5-9.5v-21
			C1648.2,105.4,1643.9,101.2,1638.7,101.2z"/>
		<path class="st0" d="M1763.4,242.8h-66.8c-5.3,0-9.5,4.3-9.5,9.5v20.9c0,5.3,4.3,9.5,9.5,9.5h66.8c5.3,0,9.5-4.3,9.5-9.5v-20.9
			C1772.9,247,1768.7,242.8,1763.4,242.8z"/>
		<path class="st0" d="M1723.9,287.8h-66.8c-5.3,0-9.5,4.3-9.5,9.5v20.9c0,5.3,4.3,9.5,9.5,9.5h66.8c5.3,0,9.5-4.3,9.5-9.5v-20.9
			C1733.5,292,1729.2,287.8,1723.9,287.8z"/>
		<path class="st0" d="M1827.6,197.8l-66.8-0.4c-5.3,0-9.6,4.2-9.6,9.5l-0.1,20.9c0,5.3,4.2,9.6,9.5,9.6l66.8,0.4
			c5.3,0,9.6-4.2,9.6-9.5l0.1-20.9C1837.1,202.1,1832.9,197.8,1827.6,197.8z"/>
		<path class="st0" d="M1909.8,287l-66.8-0.4c-5.3,0-9.6,4.2-9.6,9.5l-0.1,20.9c0,5.3,4.2,9.6,9.5,9.6l66.8,0.4
			c5.3,0,9.6-4.2,9.6-9.5l0.1-20.9C1919.3,291.3,1915.1,287,1909.8,287z"/>
		<path class="st0" d="M1853.8,330.5H1787c-5.3,0-9.5,4.3-9.5,9.5v20.9c0,5.3,4.3,9.5,9.5,9.5h66.8c5.3,0,9.5-4.3,9.5-9.5V340
			C1863.4,334.8,1859.1,330.5,1853.8,330.5z"/>
		<path class="st0" d="M1675.8,330.5H1609c-5.3,0-9.5,4.3-9.5,9.5v20.9c0,5.3,4.3,9.5,9.5,9.5h66.8c5.3,0,9.5-4.3,9.5-9.5V340
			C1685.3,334.8,1681,330.5,1675.8,330.5z"/>
		<path class="st0" d="M1819.8,375.9H1753c-5.3,0-9.5,4.3-9.5,9.5v20.9c0,5.3,4.3,9.5,9.5,9.5h66.8c5.3,0,9.5-4.3,9.5-9.5v-20.9
			C1829.3,380.2,1825,375.9,1819.8,375.9z"/>
		<path class="st0" d="M1727.7,375.9h-66.8c-5.3,0-9.5,4.3-9.5,9.5v20.9c0,5.3,4.3,9.5,9.5,9.5h66.8c5.3,0,9.5-4.3,9.5-9.5v-20.9
			C1737.3,380.2,1733,375.9,1727.7,375.9z"/>
		<path class="st0" d="M1766.9,150h-66.8c-5.3,0-9.5,4.3-9.5,9.5v20.9c0,5.3,4.3,9.5,9.5,9.5h66.8c5.3,0,9.5-4.3,9.5-9.5v-20.9
			C1776.4,154.3,1772.1,150,1766.9,150z"/>
		<path class="st0" d="M1763.1,421.9h-66.8c-5.3,0-9.5,4.3-9.5,9.5v20.9c0,5.3,4.3,9.5,9.5,9.5h66.8c5.3,0,9.5-4.3,9.5-9.5v-20.9
			C1772.6,426.2,1768.3,421.9,1763.1,421.9z"/>
		<path class="st0" d="M1909.2,468.8h-66.8c-5.3,0-9.5,4.3-9.5,9.5v20.9c0,5.3,4.3,9.5,9.5,9.5h66.8c5.3,0,9.5-4.3,9.5-9.5v-20.9
			C1918.7,473.1,1914.5,468.8,1909.2,468.8z"/>
		<path class="st0" d="M1763.1,514.1h-66.8c-5.3,0-9.5,4.3-9.5,9.5v20.9c0,5.3,4.3,9.5,9.5,9.5h66.8c5.3,0,9.5-4.3,9.5-9.5v-20.8
			C1772.6,518.4,1768.3,514.1,1763.1,514.1z"/>
		<path class="st0" d="M1852.1,514.1h-66.8c-5.3,0-9.5,4.3-9.5,9.5v20.9c0,5.3,4.3,9.5,9.5,9.5h66.8c5.3,0,9.5-4.3,9.5-9.5v-20.8
			C1861.6,518.4,1857.4,514.1,1852.1,514.1z"/>
		<path class="st0" d="M1674.1,514.1h-66.8c-5.3,0-9.5,4.3-9.5,9.5v20.9c0,5.3,4.3,9.5,9.5,9.5h66.8c5.3,0,9.5-4.3,9.5-9.5v-20.8
			C1683.6,518.4,1679.3,514.1,1674.1,514.1z"/>
		<path class="st0" d="M1818.2,559.4h-66.8c-5.3,0-9.5,4.3-9.5,9.5v20.9c0,5.3,4.3,9.5,9.5,9.5h66.8c5.3,0,9.5-4.3,9.5-9.5v-20.9
			C1827.7,563.7,1823.4,559.4,1818.2,559.4z"/>
		<path class="st0" d="M1761.3,604.9h-66.8c-5.3,0-9.5,4.3-9.5,9.5v20.9c0,5.3,4.3,9.5,9.5,9.5h66.8c5.3,0,9.5-4.3,9.5-9.5v-20.9
			C1770.9,609.1,1766.6,604.9,1761.3,604.9z"/>
		<path class="st0" d="M1822,650.9h-66.8c-5.3,0-9.5,4.3-9.5,9.5v20.9c0,5.3,4.3,9.5,9.5,9.5h66.8c5.3,0,9.5-4.3,9.5-9.5v-20.9
			C1831.6,655.1,1827.3,650.9,1822,650.9z"/>
		<path class="st0" d="M1629.4,701.8h-66.8c-5.3,0-9.5,4.3-9.5,9.5v20.9c0,5.3,4.3,9.5,9.5,9.5h66.8c5.3,0,9.5-4.3,9.5-9.5v-20.9
			C1639,706.1,1634.7,701.8,1629.4,701.8z"/>
		<path class="st0" d="M1817.1,741.6h-66.8c-5.3,0-9.5,4.3-9.5,9.5V772c0,5.3,4.3,9.5,9.5,9.5h66.8c5.3,0,9.5-4.3,9.5-9.5v-20.9
			C1826.7,745.9,1822.4,741.6,1817.1,741.6z"/>
		<path class="st0" d="M1763.1,786.8h-66.8c-5.3,0-9.5,4.3-9.5,9.5v20.9c0,5.3,4.3,9.5,9.5,9.5h66.8c5.3,0,9.5-4.3,9.5-9.5v-20.9
			C1772.6,791.1,1768.3,786.8,1763.1,786.8z"/>
		<path class="st0" d="M1817.4,832.7h-66.8c-5.3,0-9.5,4.3-9.5,9.5v20.9c0,5.3,4.3,9.5,9.5,9.5h66.8c5.3,0,9.5-4.3,9.5-9.5v-20.9
			C1826.9,837,1822.7,832.7,1817.4,832.7z"/>
		<path class="st0" d="M1725.4,832.7h-66.8c-5.3,0-9.5,4.3-9.5,9.5v20.9c0,5.3,4.3,9.5,9.5,9.5h66.8c5.3,0,9.5-4.3,9.5-9.5v-20.9
			C1734.9,837,1730.7,832.7,1725.4,832.7z"/>
		<path class="st0" d="M1851.6,882.6h-66.8c-5.3,0-9.5,4.3-9.5,9.5V913c0,5.3,4.3,9.5,9.5,9.5h66.8c5.3,0,9.5-4.3,9.5-9.5v-20.9
			C1861.2,886.9,1856.9,882.6,1851.6,882.6z"/>
		<path class="st0" d="M1873.9,935h-66.8c-5.3,0-9.5,4.3-9.5,9.5v20.9c0,5.3,4.3,9.5,9.5,9.5h66.8c5.3,0,9.5-4.3,9.5-9.5v-20.9
			C1883.5,939.3,1879.2,935,1873.9,935z"/>
	</g>
	<g id="normal_1_">
		<path class="st1" d="M1920.3,28.8V7.9c0-5.3-4.3-9.5-9.5-9.5H1844c-5.3,0-9.5,4.3-9.5,9.5v20.9c0,5.3,4.3,9.5,9.5,9.5h66.8
			C1916.1,38.3,1920.3,34.1,1920.3,28.8z"/>
		<path class="st1" d="M1831.3,28.8V7.9c0-5.3-4.3-9.5-9.5-9.5H1755c-5.3,0-9.5,4.3-9.5,9.5v20.9c0,5.3,4.3,9.5,9.5,9.5h66.8
			C1827,38.3,1831.3,34.1,1831.3,28.8z"/>
		<path class="st1" d="M1653.3,28.8V7.9c0-5.3-4.3-9.5-9.5-9.5H1577c-5.3,0-9.5,4.3-9.5,9.5v20.9c0,5.3,4.3,9.5,9.5,9.5h66.8
			C1649,38.3,1653.3,34.1,1653.3,28.8z"/>
		<path class="st1" d="M1563.7,28.8V7.9c0-5.3-4.3-9.5-9.5-9.5h-66.8c-5.3,0-9.5,4.3-9.5,9.5v20.9c0,5.3,4.3,9.5,9.5,9.5h66.8
			C1559.5,38.3,1563.7,34.1,1563.7,28.8z"/>
		<path class="st1" d="M1385.7,28.8V7.9c0-5.3-4.3-9.5-9.5-9.5h-66.9c-5.3,0-9.5,4.3-9.5,9.5v20.9c0,5.3,4.3,9.5,9.5,9.5h66.8
			C1381.4,38.3,1385.7,34.1,1385.7,28.8z"/>
		<path class="st1" d="M1295.6,28.8V7.9c0-5.3-4.3-9.5-9.5-9.5h-66.8c-5.3,0-9.5,4.3-9.5,9.5v20.9c0,5.3,4.3,9.5,9.5,9.5h66.8
			C1291.4,38.3,1295.6,34.1,1295.6,28.8z"/>
		<path class="st1" d="M1206.6,28.8V7.9c0-5.3-4.3-9.5-9.5-9.5h-66.8c-5.3,0-9.5,4.3-9.5,9.5v20.9c0,5.3,4.3,9.5,9.5,9.5h66.8
			C1202.3,38.3,1206.6,34.1,1206.6,28.8z"/>
		<path class="st1" d="M1117.9,28.8V7.9c0-5.3-4.3-9.5-9.5-9.5h-66.8c-5.3,0-9.5,4.3-9.5,9.5v20.9c0,5.3,4.3,9.5,9.5,9.5h66.8
			C1113.6,38.3,1117.9,34.1,1117.9,28.8z"/>
		<path class="st1" d="M938.4,29.4V8.5c0-5.3-4.3-9.5-9.5-9.5h-66.8c-5.3,0-9.5,4.3-9.5,9.5v20.9c0,5.3,4.3,9.5,9.5,9.5h66.8
			C934.1,39,938.4,34.7,938.4,29.4z"/>
		<path class="st1" d="M849.3,28.8V7.9c0-5.3-4.3-9.5-9.5-9.5H773c-5.3,0-9.5,4.3-9.5,9.5v20.9c0,5.3,4.3,9.5,9.5,9.5h66.8
			C845.1,38.3,849.3,34.1,849.3,28.8z"/>
		<path class="st1" d="M759.1,28.8V7.9c0-5.3-4.3-9.5-9.5-9.5h-66.8c-5.3,0-9.5,4.3-9.5,9.5v20.9c0,5.3,4.3,9.5,9.5,9.5h66.8
			C754.8,38.3,759.1,34.1,759.1,28.8z"/>
		<path class="st1" d="M668.5,28.8V7.9c0-5.3-4.3-9.5-9.5-9.5h-66.8c-5.3,0-9.5,4.3-9.5,9.5v20.9c0,5.3,4.3,9.5,9.5,9.5H659
			C664.2,38.3,668.5,34.1,668.5,28.8z"/>
		<path class="st1" d="M577.3,29.1V8.2c0-5.3-4.3-9.5-9.5-9.5H501c-5.3,0-9.5,4.3-9.5,9.5v20.9c0,5.3,4.3,9.5,9.5,9.5h66.8
			C573,38.7,577.3,34.4,577.3,29.1z"/>
		<path class="st1" d="M399,29.8V8.9c0-5.3-4.3-9.5-9.5-9.5h-66.8c-5.3,0-9.5,4.3-9.5,9.5v20.9c0,5.3,4.3,9.5,9.5,9.5h66.8
			C394.7,39.3,399,35,399,29.8z"/>
		<path class="st1" d="M309,29.8V8.9c0-5.3-4.3-9.5-9.5-9.5h-66.8c-5.3,0-9.5,4.3-9.5,9.5v20.9c0,5.3,4.3,9.5,9.5,9.5h66.8
			C304.8,39.3,309,35,309,29.8z"/>
		<path class="st1" d="M220,29.1V8.2c0-5.3-4.3-9.5-9.5-9.5h-66.8c-5.3,0-9.5,4.3-9.5,9.5v20.9c0,5.3,4.3,9.5,9.5,9.5h66.8
			C215.7,38.7,220,34.4,220,29.1z"/>
		<path class="st1" d="M39.1,29.1V8.2c0-5.3-4.3-9.5-9.5-9.5H5.3v40h24.3C34.9,38.7,39.1,34.4,39.1,29.1z"/>
		<path class="st1" d="M48.6,228v-20.9c0-5.3-5.8-9.5-12.9-9.5h-33v40h33C42.9,237.6,48.6,233.3,48.6,228z"/>
		<path class="st1" d="M48.6,407.8v-20.9c0-5.3-5.8-9.5-12.9-9.5h-33v40h33C42.9,417.4,48.6,413.1,48.6,407.8z"/>
		<path class="st1" d="M1874.6,49.2c-5.3,0-9.5,4.3-9.5,9.5v21c0,5.3,4.3,9.5,9.5,9.5h49.5v-40H1874.6z"/>
		<path class="st1" d="M1785.6,89.3h66.8c5.3,0,9.5-4.3,9.5-9.5v-21c0-5.3-4.3-9.5-9.5-9.5h-66.8c-5.3,0-9.5,4.3-9.5,9.5v20.9
			C1776.1,85,1780.3,89.3,1785.6,89.3z"/>
		<path class="st1" d="M1696.6,89.3h66.8c5.3,0,9.5-4.3,9.5-9.5v-21c0-5.3-4.3-9.5-9.5-9.5h-66.8c-5.3,0-9.5,4.3-9.5,9.5v20.9
			C1687,85,1691.3,89.3,1696.6,89.3z"/>
		<path class="st1" d="M1607.6,89.3h66.8c5.3,0,9.5-4.3,9.5-9.5v-21c0-5.3-4.3-9.5-9.5-9.5h-66.8c-5.3,0-9.5,4.3-9.5,9.5v20.9
			C1598,85,1602.3,89.3,1607.6,89.3z"/>
		<path class="st1" d="M1429.6,89.3h66.8c5.3,0,9.5-4.3,9.5-9.5v-21c0-5.3-4.3-9.5-9.5-9.5h-66.8c-5.3,0-9.5,4.3-9.5,9.5v20.9
			C1420,85,1424.3,89.3,1429.6,89.3z"/>
		<path class="st1" d="M1340,89.3h66.8c5.3,0,9.5-4.3,9.5-9.5v-21c0-5.3-4.3-9.5-9.5-9.5H1340c-5.3,0-9.5,4.3-9.5,9.5v20.9
			C1330.4,85,1334.7,89.3,1340,89.3z"/>
		<path class="st1" d="M1249.9,89.3h66.8c5.3,0,9.5-4.3,9.5-9.5v-21c0-5.3-4.3-9.5-9.5-9.5h-66.8c-5.3,0-9.5,4.3-9.5,9.5v20.9
			C1240.4,85,1244.7,89.3,1249.9,89.3z"/>
		<path class="st1" d="M1160.9,89.3h66.8c5.3,0,9.5-4.3,9.5-9.5v-21c0-5.3-4.3-9.5-9.5-9.5h-66.8c-5.3,0-9.5,4.3-9.5,9.5v20.9
			C1151.4,85,1155.6,89.3,1160.9,89.3z"/>
		<path class="st1" d="M1072.2,89.3h66.8c5.3,0,9.5-4.3,9.5-9.5v-21c0-5.3-4.3-9.5-9.5-9.5h-66.8c-5.3,0-9.5,4.3-9.5,9.5v20.9
			C1062.6,85,1066.9,89.3,1072.2,89.3z"/>
		<path class="st1" d="M892.7,89.9h66.8c5.3,0,9.5-4.3,9.5-9.5v-21c0-5.3-4.3-9.5-9.5-9.5h-66.8c-5.3,0-9.5,4.3-9.5,9.5v20.9
			C883.1,85.7,887.4,89.9,892.7,89.9z"/>
		<path class="st1" d="M803.6,89.3h66.8c5.3,0,9.5-4.3,9.5-9.5v-21c0-5.3-4.3-9.5-9.5-9.5h-66.8c-5.3,0-9.5,4.3-9.5,9.5v20.9
			C794.1,85,798.4,89.3,803.6,89.3z"/>
		<path class="st1" d="M713.4,89.3h66.8c5.3,0,9.5-4.3,9.5-9.5v-21c0-5.3-4.3-9.5-9.5-9.5h-66.8c-5.3,0-9.5,4.3-9.5,9.5v20.9
			C703.8,85,708.1,89.3,713.4,89.3z"/>
		<path class="st1" d="M622.8,89.3h66.8c5.3,0,9.5-4.3,9.5-9.5v-21c0-5.3-4.3-9.5-9.5-9.5h-66.8c-5.3,0-9.5,4.3-9.5,9.5v20.9
			C613.2,85,617.5,89.3,622.8,89.3z"/>
		<path class="st1" d="M531.6,89.6h66.8c5.3,0,9.5-4.3,9.5-9.5v-21c0-5.3-4.3-9.5-9.5-9.5h-66.8c-5.3,0-9.5,4.3-9.5,9.5V80
			C522,85.3,526.3,89.6,531.6,89.6z"/>
		<path class="st1" d="M353.3,90.3h66.8c5.3,0,9.5-4.3,9.5-9.5v-21c0-5.3-4.3-9.5-9.5-9.5h-66.8c-5.3,0-9.5,4.3-9.5,9.5v20.9
			C343.8,86,348,90.3,353.3,90.3z"/>
		<path class="st1" d="M174.3,89.6h66.8c5.3,0,9.5-4.3,9.5-9.5v-21c0-5.3-4.3-9.5-9.5-9.5h-66.8c-5.3,0-9.5,4.3-9.5,9.5V80
			C164.8,85.3,169,89.6,174.3,89.6z"/>
		<path class="st1" d="M84.1,89.6h66.8c5.3,0,9.5-4.3,9.5-9.5v-21c0-5.3-4.3-9.5-9.5-9.5H84.1c-5.3,0-9.5,4.3-9.5,9.5V80
			C74.5,85.3,78.8,89.6,84.1,89.6z"/>
		<path class="st1" d="M69.8,80.1v-21c0-5.3-4.3-9.5-9.5-9.5h-55v40h54.9C65.5,89.6,69.8,85.3,69.8,80.1z"/>
		<path class="st1" d="M1727.7,101.2h-66.8c-5.3,0-9.5,4.3-9.5,9.5v21c0,5.3,4.3,9.5,9.5,9.5h66.8c5.3,0,9.5-4.3,9.5-9.5v-21
			C1737.2,105.4,1733,101.2,1727.7,101.2z"/>
		<path class="st1" d="M1549.2,101.2h-66.8c-5.3,0-9.5,4.3-9.5,9.5v21c0,5.3,4.3,9.5,9.5,9.5h66.8c5.3,0,9.5-4.3,9.5-9.5v-21
			C1558.7,105.4,1554.4,101.2,1549.2,101.2z"/>
		<path class="st1" d="M1460.7,101.2h-66.8c-5.3,0-9.5,4.3-9.5,9.5v21c0,5.3,4.3,9.5,9.5,9.5h66.8c5.3,0,9.5-4.3,9.5-9.5v-21
			C1470.2,105.4,1465.9,101.2,1460.7,101.2z"/>
		<path class="st1" d="M1371.1,101.2h-66.8c-5.3,0-9.5,4.3-9.5,9.5v21c0,5.3,4.3,9.5,9.5,9.5h66.8c5.3,0,9.5-4.3,9.5-9.5v-21
			C1380.6,105.4,1376.3,101.2,1371.1,101.2z"/>
		<path class="st1" d="M1281,101.2h-66.8c-5.3,0-9.5,4.3-9.5,9.5v21c0,5.3,4.3,9.5,9.5,9.5h66.8c5.3,0,9.5-4.3,9.5-9.5v-21
			C1290.6,105.4,1286.3,101.2,1281,101.2z"/>
		<path class="st1" d="M1192,101.2h-66.8c-5.3,0-9.5,4.3-9.5,9.5v21c0,5.3,4.3,9.5,9.5,9.5h66.8c5.3,0,9.5-4.3,9.5-9.5v-21
			C1201.5,105.4,1197.3,101.2,1192,101.2z"/>
		<path class="st1" d="M1103.3,101.2h-66.8c-5.3,0-9.5,4.3-9.5,9.5v21c0,5.3,4.3,9.5,9.5,9.5h66.8c5.3,0,9.5-4.3,9.5-9.5v-21
			C1112.8,105.4,1108.5,101.2,1103.3,101.2z"/>
		<path class="st1" d="M1013.8,101.8H947c-5.3,0-9.5,4.3-9.5,9.5v20.9c0,5.3,4.3,9.5,9.5,9.5h66.8c5.3,0,9.5-4.3,9.5-9.5v-20.8
			C1023.3,106.1,1019,101.8,1013.8,101.8z"/>
		<path class="st1" d="M923.8,101.8H857c-5.3,0-9.5,4.3-9.5,9.5v20.9c0,5.3,4.3,9.5,9.5,9.5h66.8c5.3,0,9.5-4.3,9.5-9.5v-20.8
			C933.3,106.1,929,101.8,923.8,101.8z"/>
		<path class="st1" d="M834.7,101.2h-66.8c-5.3,0-9.5,4.3-9.5,9.5v21c0,5.3,4.3,9.5,9.5,9.5h66.8c5.3,0,9.5-4.3,9.5-9.5v-21
			C844.3,105.4,840,101.2,834.7,101.2z"/>
		<path class="st1" d="M744.5,101.2h-66.8c-5.3,0-9.5,4.3-9.5,9.5v21c0,5.3,4.3,9.5,9.5,9.5h66.8c5.3,0,9.5-4.3,9.5-9.5v-21
			C754,105.4,749.8,101.2,744.5,101.2z"/>
		<path class="st1" d="M653.9,101.2h-66.8c-5.3,0-9.5,4.3-9.5,9.5v21c0,5.3,4.3,9.5,9.5,9.5h66.8c5.3,0,9.5-4.3,9.5-9.5v-21
			C663.4,105.4,659.1,101.2,653.9,101.2z"/>
		<path class="st1" d="M562.7,101.5h-66.8c-5.3,0-9.5,4.3-9.5,9.5v20.9c0,5.3,4.3,9.5,9.5,9.5h66.8c5.3,0,9.5-4.3,9.5-9.5V111
			C572.2,105.8,567.9,101.5,562.7,101.5z"/>
		<path class="st1" d="M473.9,101.5h-66.8c-5.3,0-9.5,4.3-9.5,9.5v20.9c0,5.3,4.3,9.5,9.5,9.5h66.8c5.3,0,9.5-4.3,9.5-9.5V111
			C483.5,105.8,479.2,101.5,473.9,101.5z"/>
		<path class="st1" d="M384.4,102.2h-66.8c-5.3,0-9.5,4.3-9.5,9.5v20.9c0,5.3,4.3,9.5,9.5,9.5h66.8c5.3,0,9.5-4.3,9.5-9.5v-20.9
			C394,106.4,389.7,102.2,384.4,102.2z"/>
		<path class="st1" d="M294.4,102.2h-66.8c-5.3,0-9.5,4.3-9.5,9.5v20.9c0,5.3,4.3,9.5,9.5,9.5h66.8c5.3,0,9.5-4.3,9.5-9.5v-20.9
			C304,106.4,299.7,102.2,294.4,102.2z"/>
		<path class="st1" d="M205.4,101.5h-66.8c-5.3,0-9.5,4.3-9.5,9.5v20.9c0,5.3,4.3,9.5,9.5,9.5h66.8c5.3,0,9.5-4.3,9.5-9.5V111
			C214.9,105.8,210.7,101.5,205.4,101.5z"/>
		<path class="st1" d="M24.5,101.5H5.3v40h19.2c5.3,0,9.5-4.3,9.5-9.5v-21C34.1,105.8,29.8,101.5,24.5,101.5z"/>
		<path class="st1" d="M1852.4,242.8h-66.8c-5.3,0-9.5,4.3-9.5,9.5v20.9c0,5.3,4.3,9.5,9.5,9.5h66.8c5.3,0,9.5-4.3,9.5-9.5v-20.9
			C1861.9,247,1857.7,242.8,1852.4,242.8z"/>
		<path class="st1" d="M1674.4,242.8h-66.8c-5.3,0-9.5,4.3-9.5,9.5v20.9c0,5.3,4.3,9.5,9.5,9.5h66.8c5.3,0,9.5-4.3,9.5-9.5v-20.9
			C1683.9,247,1679.6,242.8,1674.4,242.8z"/>
		<path class="st1" d="M1764.8,330.5H1698c-5.3,0-9.5,4.3-9.5,9.5v20.9c0,5.3,4.3,9.5,9.5,9.5h66.8c5.3,0,9.5-4.3,9.5-9.5V340
			C1774.3,334.8,1770.1,330.5,1764.8,330.5z"/>
		<path class="st1" d="M1856.9,150h-66.8c-5.3,0-9.5,4.3-9.5,9.5v20.9c0,5.3,4.3,9.5,9.5,9.5h66.8c5.3,0,9.5-4.3,9.5-9.5v-20.9
			C1866.4,154.3,1862.2,150,1856.9,150z"/>
		<path class="st1" d="M1676.9,150h-66.8c-5.3,0-9.5,4.3-9.5,9.5v20.9c0,5.3,4.3,9.5,9.5,9.5h66.8c5.3,0,9.5-4.3,9.5-9.5v-20.9
			C1686.4,154.3,1682.1,150,1676.9,150z"/>
		<path class="st1" d="M1852.1,421.9h-66.8c-5.3,0-9.5,4.3-9.5,9.5v20.9c0,5.3,4.3,9.5,9.5,9.5h66.8c5.3,0,9.5-4.3,9.5-9.5v-20.9
			C1861.6,426.2,1857.4,421.9,1852.1,421.9z"/>
		<path class="st1" d="M1727.2,468.8h-66.8c-5.3,0-9.5,4.3-9.5,9.5v20.9c0,5.3,4.3,9.5,9.5,9.5h66.8c5.3,0,9.5-4.3,9.5-9.5v-20.9
			C1736.7,473.1,1732.4,468.8,1727.2,468.8z"/>
		<path class="st1" d="M1910.2,559.4h-66.8c-5.3,0-9.5,4.3-9.5,9.5v20.9c0,5.3,4.3,9.5,9.5,9.5h66.8c5.3,0,9.5-4.3,9.5-9.5v-20.9
			C1919.7,563.7,1915.5,559.4,1910.2,559.4z"/>
		<path class="st1" d="M1850.4,604.9h-66.8c-5.3,0-9.5,4.3-9.5,9.5v20.9c0,5.3,4.3,9.5,9.5,9.5h66.8c5.3,0,9.5-4.3,9.5-9.5v-20.9
			C1859.9,609.1,1855.6,604.9,1850.4,604.9z"/>
		<path class="st1" d="M1672.3,604.9h-66.8c-5.3,0-9.5,4.3-9.5,9.5v20.9c0,5.3,4.3,9.5,9.5,9.5h66.8c5.3,0,9.5-4.3,9.5-9.5v-20.9
			C1681.9,609.1,1677.6,604.9,1672.3,604.9z"/>
		<path class="st1" d="M1729,650.9h-66.8c-5.3,0-9.5,4.3-9.5,9.5v20.9c0,5.3,4.3,9.5,9.5,9.5h66.8c5.3,0,9.5-4.3,9.5-9.5v-20.9
			C1738.6,655.1,1734.3,650.9,1729,650.9z"/>
		<path class="st1" d="M1736.5,696.3h-66.8c-5.3,0-9.5,4.3-9.5,9.5v20.9c0,5.3,4.3,9.5,9.5,9.5h66.8c5.3,0,9.5-4.3,9.5-9.5v-20.9
			C1746.1,700.6,1741.8,696.3,1736.5,696.3z"/>
		<path class="st1" d="M1850.4,696.3h-66.8c-5.3,0-9.5,4.3-9.5,9.5v20.9c0,5.3,4.3,9.5,9.5,9.5h66.8c5.3,0,9.5-4.3,9.5-9.5v-20.9
			C1859.9,700.6,1855.6,696.3,1850.4,696.3z"/>
		<path class="st1" d="M1908.2,741.6h-66.8c-5.3,0-9.5,4.3-9.5,9.5V772c0,5.3,4.3,9.5,9.5,9.5h66.8c5.3,0,9.5-4.3,9.5-9.5v-20.9
			C1917.7,745.9,1913.4,741.6,1908.2,741.6z"/>
		<path class="st1" d="M1852.1,786.8h-66.8c-5.3,0-9.5,4.3-9.5,9.5v20.9c0,5.3,4.3,9.5,9.5,9.5h66.8c5.3,0,9.5-4.3,9.5-9.5v-20.9
			C1861.6,791.1,1857.4,786.8,1852.1,786.8z"/>
		<path class="st1" d="M1636.8,790.3H1570c-5.3,0-9.5,4.3-9.5,9.5v20.9c0,5.3,4.3,9.5,9.5,9.5h66.8c5.3,0,9.5-4.3,9.5-9.5v-20.9
			C1646.3,794.6,1642,790.3,1636.8,790.3z"/>
		<path class="st1" d="M1762.6,882.6h-66.8c-5.3,0-9.5,4.3-9.5,9.5V913c0,5.3,4.3,9.5,9.5,9.5h66.8c5.3,0,9.5-4.3,9.5-9.5v-20.9
			C1772.1,886.9,1767.9,882.6,1762.6,882.6z"/>
		<path class="st1" d="M1636.8,883.8H1570c-5.3,0-9.5,4.3-9.5,9.5v20.9c0,5.3,4.3,9.5,9.5,9.5h66.8c5.3,0,9.5-4.3,9.5-9.5v-20.9
			C1646.3,888.1,1642.1,883.8,1636.8,883.8z"/>
		<path class="st1" d="M1874.9,242.8c-5.3,0-9.5,4.3-9.5,9.5v20.9c0,5.3,4.3,9.5,9.5,9.5h48.7v-40h-48.7V242.8z"/>
		<path class="st1" d="M1918.8,197.7l-66.8-0.4c-5.3,0-9.6,4.2-9.6,9.5l-0.1,20.9c0,5.3,4.2,9.6,9.5,9.6l66.8,0.4
			c1.8,0,3.5-0.5,5-1.4V199C1922.2,198.2,1920.6,197.8,1918.8,197.7z"/>
		<path class="st1" d="M1876.3,330.5c-5.3,0-9.5,4.3-9.5,9.5v20.9c0,5.3,4.3,9.5,9.5,9.5h47.2v-40h-47.2V330.5z"/>
		<path class="st1" d="M1880.4,150c-5.3,0-9.5,4.3-9.5,9.5v20.9c0,5.3,4.3,9.5,9.5,9.5h43.2v-40h-43.2V150z"/>
		<path class="st1" d="M1874.6,421.9c-5.3,0-9.5,4.3-9.5,9.5v20.9c0,5.3,4.3,9.5,9.5,9.5h49v-40h-49V421.9z"/>
		<path class="st1" d="M1874.6,514.1c-5.3,0-9.5,4.3-9.5,9.5v20.9c0,5.3,4.3,9.5,9.5,9.5h49v-40L1874.6,514.1L1874.6,514.1z"/>
		<path class="st1" d="M1872.9,604.9c-5.3,0-9.5,4.3-9.5,9.5v20.9c0,5.3,4.3,9.5,9.5,9.5h50.7v-40L1872.9,604.9L1872.9,604.9z"/>
		<path class="st1" d="M1872.9,696.3c-5.3,0-9.5,4.3-9.5,9.5v20.9c0,5.3,4.3,9.5,9.5,9.5h50.7v-40L1872.9,696.3L1872.9,696.3z"/>
		<path class="st1" d="M1874.6,786.8c-5.3,0-9.5,4.3-9.5,9.5v20.9c0,5.3,4.3,9.5,9.5,9.5h49v-40L1874.6,786.8L1874.6,786.8z"/>
		<path class="st1" d="M1874.2,878.7c-5.3,0-9.5,4.3-9.5,9.5v20.9c0,5.3,4.3,9.5,9.5,9.5h49.4v-40L1874.2,878.7L1874.2,878.7z"/>
	</g>
	<g id="dark_1_">
		<path class="st2" d="M488.5,29.1V8.2c0-5.3-4.3-9.5-9.5-9.5h-66.8c-5.3,0-9.5,4.3-9.5,9.5v20.9c0,5.3,4.3,9.5,9.5,9.5H479
			C484.3,38.7,488.5,34.4,488.5,29.1z"/>
		<path class="st2" d="M982.6,89.9h66.8c5.3,0,9.5-4.3,9.5-9.5v-21c0-5.3-4.3-9.5-9.5-9.5h-66.8c-5.3,0-9.5,4.3-9.5,9.5v20.9
			C973.1,85.7,977.4,89.9,982.6,89.9z"/>
		<path class="st2" d="M263.3,90.3h66.8c5.3,0,9.5-4.3,9.5-9.5v-21c0-5.3-4.3-9.5-9.5-9.5h-66.8c-5.3,0-9.5,4.3-9.5,9.5v20.9
			C253.8,86,258.1,90.3,263.3,90.3z"/>
		<path class="st2" d="M1816.7,101.2h-66.8c-5.3,0-9.5,4.3-9.5,9.5v21c0,5.3,4.3,9.5,9.5,9.5h66.8c5.3,0,9.5-4.3,9.5-9.5v-21
			C1826.2,105.4,1822,101.2,1816.7,101.2z"/>
		<path class="st2" d="M1518,89.3h66.8c5.3,0,9.5-4.3,9.5-9.5v-21c0-5.3-4.3-9.5-9.5-9.5H1518c-5.3,0-9.5,4.3-9.5,9.5v20.9
			C1508.5,85,1512.8,89.3,1518,89.3z"/>
		<path class="st2" d="M115.2,101.5H48.4c-5.3,0-9.5,4.3-9.5,9.5v20.9c0,5.3,4.3,9.5,9.5,9.5h66.8c5.3,0,9.5-4.3,9.5-9.5V111
			C124.7,105.8,120.4,101.5,115.2,101.5z"/>
		<path class="st2" d="M1736,197.7l-66.8-0.4c-5.3,0-9.6,4.2-9.6,9.5l-0.1,20.9c0,5.3,4.2,9.6,9.5,9.6l66.8,0.4
			c5.3,0,9.6-4.2,9.6-9.5l0.1-20.9C1745.5,202.1,1741.3,197.8,1736,197.7z"/>
		<path class="st2" d="M1816.5,286.8h-66.8c-5.3,0-9.5,4.3-9.5,9.5v20.9c0,5.3,4.3,9.5,9.5,9.5h66.8c5.3,0,9.5-4.3,9.5-9.5v-20.9
			C1826,291.1,1821.8,286.8,1816.5,286.8z"/>
		<path class="st2" d="M1910.8,375.9H1844c-5.3,0-9.5,4.3-9.5,9.5v20.9c0,5.3,4.3,9.5,9.5,9.5h66.8c5.3,0,9.5-4.3,9.5-9.5v-20.9
			C1920.3,380.2,1916,375.9,1910.8,375.9z"/>
		<path class="st2" d="M1674.1,421.9h-66.8c-5.3,0-9.5,4.3-9.5,9.5v20.9c0,5.3,4.3,9.5,9.5,9.5h66.8c5.3,0,9.5-4.3,9.5-9.5v-20.9
			C1683.6,426.2,1679.3,421.9,1674.1,421.9z"/>
		<path class="st2" d="M1818.2,468.8h-66.8c-5.3,0-9.5,4.3-9.5,9.5v20.9c0,5.3,4.3,9.5,9.5,9.5h66.8c5.3,0,9.5-4.3,9.5-9.5v-20.9
			C1827.7,473.1,1823.4,468.8,1818.2,468.8z"/>
		<path class="st2" d="M1727.2,559.4h-66.8c-5.3,0-9.5,4.3-9.5,9.5v20.9c0,5.3,4.3,9.5,9.5,9.5h66.8c5.3,0,9.5-4.3,9.5-9.5v-20.9
			C1736.7,563.7,1732.4,559.4,1727.2,559.4z"/>
		<path class="st2" d="M1914.1,650.9h-66.8c-5.3,0-9.5,4.3-9.5,9.5v20.9c0,5.3,4.3,9.5,9.5,9.5h66.8c5.3,0,9.5-4.3,9.5-9.5v-20.9
			C1923.6,655.1,1919.3,650.9,1914.1,650.9z"/>
		<path class="st2" d="M1725.1,741.6h-66.8c-5.3,0-9.5,4.3-9.5,9.5V772c0,5.3,4.3,9.5,9.5,9.5h66.8c5.3,0,9.5-4.3,9.5-9.5v-20.9
			C1734.7,745.9,1730.4,741.6,1725.1,741.6z"/>
		<path class="st2" d="M1909.4,832.7h-66.8c-5.3,0-9.5,4.3-9.5,9.5v20.9c0,5.3,4.3,9.5,9.5,9.5h66.8c5.3,0,9.5-4.3,9.5-9.5v-20.9
			C1919,837,1914.7,832.7,1909.4,832.7z"/>
	</g>
</g>
<path class="st1" d="M263.3,149.9h-66.8c-5.3,0-9.5,4.3-9.5,9.5v20.9c0,5.3,4.3,9.5,9.5,9.5h66.8c5.3,0,9.5-4.3,9.5-9.5v-20.9
	C272.8,154.2,268.6,149.9,263.3,149.9z"/>
<path class="st0" d="M169.6,149.9h-66.8c-5.3,0-9.5,4.3-9.5,9.5v20.9c0,5.3,4.3,9.5,9.5,9.5h66.8c5.3,0,9.5-4.3,9.5-9.5v-20.9
	C179.1,154.1,174.9,149.9,169.6,149.9z"/>
<path class="st2" d="M77.4,150.1l-66.8-0.4c-5.3,0-9.6,4.2-9.6,9.5l-0.1,20.9c0,5.3,4.2,9.6,9.5,9.6l66.8,0.4c5.3,0,9.6-4.2,9.6-9.5
	l0.1-20.9C86.9,154.5,82.7,150.2,77.4,150.1z"/>
<path class="st1" d="M543.5,149.9h-66.8c-5.3,0-9.5,4.3-9.5,9.5v20.9c0,5.3,4.3,9.5,9.5,9.5h66.8c5.3,0,9.5-4.3,9.5-9.5v-20.9
	C553,154.2,548.8,149.9,543.5,149.9z"/>
<path class="st0" d="M449.8,149.9H383c-5.3,0-9.5,4.3-9.5,9.5v20.9c0,5.3,4.3,9.5,9.5,9.5h66.8c5.3,0,9.5-4.3,9.5-9.5v-20.9
	C459.3,154.1,455.1,149.9,449.8,149.9z"/>
<path class="st2" d="M357.6,150.1l-66.8-0.4c-5.3,0-9.6,4.2-9.6,9.5l-0.1,20.9c0,5.3,4.2,9.6,9.5,9.6l66.8,0.4
	c5.3,0,9.6-4.2,9.6-9.5l0.1-20.9C367.1,154.5,362.9,150.2,357.6,150.1z"/>
<path class="st1" d="M635.7,149.9h-66.8c-5.3,0-9.5,4.3-9.5,9.5v20.9c0,5.3,4.3,9.5,9.5,9.5h66.8c5.3,0,9.5-4.3,9.5-9.5v-20.9
	C645.2,154.2,641,149.9,635.7,149.9z"/>
<path class="st1" d="M727.1,150h-66.8c-5.3,0-9.5,4.3-9.5,9.5v20.9c0,5.3,4.3,9.5,9.5,9.5h66.8c5.3,0,9.5-4.3,9.5-9.5v-20.9
	C736.6,154.3,732.4,150,727.1,150z"/>
<path class="st1" d="M819.3,150h-66.8c-5.3,0-9.5,4.3-9.5,9.5v20.9c0,5.3,4.3,9.5,9.5,9.5h66.8c5.3,0,9.5-4.3,9.5-9.5v-20.9
	C828.8,154.3,824.6,150,819.3,150z"/>
<path class="st1" d="M911.5,149.9h-66.8c-5.3,0-9.5,4.3-9.5,9.5v20.9c0,5.3,4.3,9.5,9.5,9.5h66.8c5.3,0,9.5-4.3,9.5-9.5v-20.9
	C921,154.2,916.8,149.9,911.5,149.9z"/>
<path class="st1" d="M1003.7,149.9h-66.8c-5.3,0-9.5,4.3-9.5,9.5v20.9c0,5.3,4.3,9.5,9.5,9.5h66.8c5.3,0,9.5-4.3,9.5-9.5v-20.9
	C1013.2,154.2,1009,149.9,1003.7,149.9z"/>
<path class="st1" d="M1095.1,150h-66.8c-5.3,0-9.5,4.3-9.5,9.5v20.9c0,5.3,4.3,9.5,9.5,9.5h66.8c5.3,0,9.5-4.3,9.5-9.5v-20.9
	C1104.6,154.3,1100.4,150,1095.1,150z"/>
<path class="st1" d="M1193.5,150h-66.8c-5.3,0-9.5,4.3-9.5,9.5v20.9c0,5.3,4.3,9.5,9.5,9.5h66.8c5.3,0,9.5-4.3,9.5-9.5v-20.9
	C1203,154.3,1198.8,150,1193.5,150z"/>
<path class="st0" d="M1290.8,149.9H1224c-5.3,0-9.5,4.3-9.5,9.5v20.9c0,5.3,4.3,9.5,9.5,9.5h66.8c5.3,0,9.5-4.3,9.5-9.5v-20.9
	C1300.3,154.1,1296.1,149.9,1290.8,149.9z"/>
<path class="st2" d="M1389.4,150.1l-66.8-0.4c-5.3,0-9.6,4.2-9.6,9.5l-0.1,20.9c0,5.3,4.2,9.6,9.5,9.6l66.8,0.4
	c5.3,0,9.6-4.2,9.6-9.5l0.1-20.9C1398.9,154.5,1394.7,150.2,1389.4,150.1z"/>
<path class="st2" d="M1486.8,150.1l-66.8-0.4c-5.3,0-9.6,4.2-9.6,9.5l-0.1,20.9c0,5.3,4.2,9.6,9.5,9.6l66.8,0.4
	c5.3,0,9.6-4.2,9.6-9.5l0.1-20.9C1496.3,154.5,1492.1,150.2,1486.8,150.1z"/>
<path class="st0" d="M1582.2,149.9h-66.8c-5.3,0-9.5,4.3-9.5,9.5v20.9c0,5.3,4.3,9.5,9.5,9.5h66.8c5.3,0,9.5-4.3,9.5-9.5v-20.9
	C1591.7,154.1,1587.5,149.9,1582.2,149.9z"/>
<path class="st1" d="M319.6,197.6h-66.8c-5.3,0-9.5,4.3-9.5,9.5V228c0,5.3,4.3,9.5,9.5,9.5h66.8c5.3,0,9.5-4.3,9.5-9.5v-20.9
	C329.1,201.9,324.9,197.6,319.6,197.6z"/>
<path class="st0" d="M225.9,197.6h-66.8c-5.3,0-9.5,4.3-9.5,9.5V228c0,5.3,4.3,9.5,9.5,9.5h66.8c5.3,0,9.5-4.3,9.5-9.5v-20.9
	C235.4,201.8,231.2,197.6,225.9,197.6z"/>
<path class="st2" d="M133.7,197.8l-66.8-0.4c-5.3,0-9.6,4.2-9.6,9.5l-0.1,20.9c0,5.3,4.2,9.6,9.5,9.6l66.8,0.4
	c5.3,0,9.6-4.2,9.6-9.5l0.1-20.9C143.2,202.2,139,197.9,133.7,197.8z"/>
<path class="st1" d="M599.8,197.6H533c-5.3,0-9.5,4.3-9.5,9.5V228c0,5.3,4.3,9.5,9.5,9.5h66.8c5.3,0,9.5-4.3,9.5-9.5v-20.9
	C609.3,201.9,605.1,197.6,599.8,197.6z"/>
<path class="st0" d="M506.1,197.6h-66.8c-5.3,0-9.5,4.3-9.5,9.5V228c0,5.3,4.3,9.5,9.5,9.5h66.8c5.3,0,9.5-4.3,9.5-9.5v-20.9
	C515.6,201.8,511.4,197.6,506.1,197.6z"/>
<path class="st2" d="M413.9,197.8l-66.8-0.4c-5.3,0-9.6,4.2-9.6,9.5l-0.1,20.9c0,5.3,4.2,9.6,9.5,9.6l66.8,0.4
	c5.3,0,9.6-4.2,9.6-9.5l0.1-20.9C423.4,202.2,419.2,197.9,413.9,197.8z"/>
<path class="st1" d="M692,197.6h-66.8c-5.3,0-9.5,4.3-9.5,9.5V228c0,5.3,4.3,9.5,9.5,9.5H692c5.3,0,9.5-4.3,9.5-9.5v-20.9
	C701.5,201.9,697.3,197.6,692,197.6z"/>
<path class="st1" d="M783.4,197.7h-66.8c-5.3,0-9.5,4.3-9.5,9.5v20.9c0,5.3,4.3,9.5,9.5,9.5h66.8c5.3,0,9.5-4.3,9.5-9.5v-20.9
	C792.9,202,788.7,197.7,783.4,197.7z"/>
<path class="st1" d="M875.6,197.7h-66.8c-5.3,0-9.5,4.3-9.5,9.5v20.9c0,5.3,4.3,9.5,9.5,9.5h66.8c5.3,0,9.5-4.3,9.5-9.5v-20.9
	C885.1,202,880.9,197.7,875.6,197.7z"/>
<path class="st1" d="M967.8,197.6H901c-5.3,0-9.5,4.3-9.5,9.5V228c0,5.3,4.3,9.5,9.5,9.5h66.8c5.3,0,9.5-4.3,9.5-9.5v-20.9
	C977.3,201.9,973.1,197.6,967.8,197.6z"/>
<path class="st1" d="M1060,197.6h-66.8c-5.3,0-9.5,4.3-9.5,9.5V228c0,5.3,4.3,9.5,9.5,9.5h66.8c5.3,0,9.5-4.3,9.5-9.5v-20.9
	C1069.5,201.9,1065.3,197.6,1060,197.6z"/>
<path class="st1" d="M1151.4,197.7h-66.8c-5.3,0-9.5,4.3-9.5,9.5v20.9c0,5.3,4.3,9.5,9.5,9.5h66.8c5.3,0,9.5-4.3,9.5-9.5v-20.9
	C1160.9,202,1156.7,197.7,1151.4,197.7z"/>
<path class="st1" d="M1249.8,197.7H1183c-5.3,0-9.5,4.3-9.5,9.5v20.9c0,5.3,4.3,9.5,9.5,9.5h66.8c5.3,0,9.5-4.3,9.5-9.5v-20.9
	C1259.3,202,1255.1,197.7,1249.8,197.7z"/>
<path class="st0" d="M1347.1,197.6h-66.8c-5.3,0-9.5,4.3-9.5,9.5V228c0,5.3,4.3,9.5,9.5,9.5h66.8c5.3,0,9.5-4.3,9.5-9.5v-20.9
	C1356.6,201.8,1352.4,197.6,1347.1,197.6z"/>
<path class="st2" d="M1445.7,197.8l-66.8-0.4c-5.3,0-9.6,4.2-9.6,9.5l-0.1,20.9c0,5.3,4.2,9.6,9.5,9.6l66.8,0.4
	c5.3,0,9.6-4.2,9.6-9.5l0.1-20.9C1455.2,202.2,1451,197.9,1445.7,197.8z"/>
<path class="st2" d="M1543.1,197.8l-66.8-0.4c-5.3,0-9.6,4.2-9.6,9.5l-0.1,20.9c0,5.3,4.2,9.6,9.5,9.6l66.8,0.4
	c5.3,0,9.6-4.2,9.6-9.5l0.1-20.9C1552.6,202.2,1548.4,197.9,1543.1,197.8z"/>
<path class="st0" d="M1638.5,197.6h-66.8c-5.3,0-9.5,4.3-9.5,9.5V228c0,5.3,4.3,9.5,9.5,9.5h66.8c5.3,0,9.5-4.3,9.5-9.5v-20.9
	C1648,201.8,1643.8,197.6,1638.5,197.6z"/>
<path class="st1" d="M260.9,244.4h-66.8c-5.3,0-9.5,4.3-9.5,9.5v20.9c0,5.3,4.3,9.5,9.5,9.5h66.8c5.3,0,9.5-4.3,9.5-9.5v-20.9
	C270.4,248.7,266.2,244.4,260.9,244.4z"/>
<path class="st0" d="M167.2,244.4h-66.8c-5.3,0-9.5,4.3-9.5,9.5v20.9c0,5.3,4.3,9.5,9.5,9.5h66.8c5.3,0,9.5-4.3,9.5-9.5v-20.9
	C176.7,248.6,172.5,244.4,167.2,244.4z"/>
<path class="st2" d="M75,244.6l-66.8-0.4c-5.3,0-9.6,4.2-9.6,9.5l-0.1,20.9c0,5.3,4.2,9.6,9.5,9.6l66.8,0.4c5.3,0,9.6-4.2,9.6-9.5
	l0.1-20.9C84.5,249,80.3,244.7,75,244.6z"/>
<path class="st1" d="M541.1,244.4h-66.8c-5.3,0-9.5,4.3-9.5,9.5v20.9c0,5.3,4.3,9.5,9.5,9.5h66.8c5.3,0,9.5-4.3,9.5-9.5v-20.9
	C550.6,248.7,546.4,244.4,541.1,244.4z"/>
<path class="st0" d="M447.4,244.4h-66.8c-5.3,0-9.5,4.3-9.5,9.5v20.9c0,5.3,4.3,9.5,9.5,9.5h66.8c5.3,0,9.5-4.3,9.5-9.5v-20.9
	C456.9,248.6,452.7,244.4,447.4,244.4z"/>
<path class="st2" d="M355.2,244.6l-66.8-0.4c-5.3,0-9.6,4.2-9.6,9.5l-0.1,20.9c0,5.3,4.2,9.6,9.5,9.6l66.8,0.4
	c5.3,0,9.6-4.2,9.6-9.5l0.1-20.9C364.7,249,360.5,244.7,355.2,244.6z"/>
<path class="st1" d="M633.3,244.4h-66.8c-5.3,0-9.5,4.3-9.5,9.5v20.9c0,5.3,4.3,9.5,9.5,9.5h66.8c5.3,0,9.5-4.3,9.5-9.5v-20.9
	C642.8,248.7,638.6,244.4,633.3,244.4z"/>
<path class="st1" d="M724.7,244.5h-66.8c-5.3,0-9.5,4.3-9.5,9.5v20.9c0,5.3,4.3,9.5,9.5,9.5h66.8c5.3,0,9.5-4.3,9.5-9.5V254
	C734.2,248.8,730,244.5,724.7,244.5z"/>
<path class="st1" d="M816.9,244.5h-66.8c-5.3,0-9.5,4.3-9.5,9.5v20.9c0,5.3,4.3,9.5,9.5,9.5h66.8c5.3,0,9.5-4.3,9.5-9.5V254
	C826.4,248.8,822.2,244.5,816.9,244.5z"/>
<path class="st1" d="M909.1,244.4h-66.8c-5.3,0-9.5,4.3-9.5,9.5v20.9c0,5.3,4.3,9.5,9.5,9.5h66.8c5.3,0,9.5-4.3,9.5-9.5v-20.9
	C918.6,248.7,914.4,244.4,909.1,244.4z"/>
<path class="st1" d="M1001.3,244.4h-66.8c-5.3,0-9.5,4.3-9.5,9.5v20.9c0,5.3,4.3,9.5,9.5,9.5h66.8c5.3,0,9.5-4.3,9.5-9.5v-20.9
	C1010.8,248.7,1006.6,244.4,1001.3,244.4z"/>
<path class="st1" d="M1092.7,244.4h-66.8c-5.3,0-9.5,4.3-9.5,9.5v20.9c0,5.3,4.3,9.5,9.5,9.5h66.8c5.3,0,9.5-4.3,9.5-9.5v-20.9
	C1102.2,248.7,1098,244.4,1092.7,244.4z"/>
<path class="st1" d="M1191.1,244.4h-66.8c-5.3,0-9.5,4.3-9.5,9.5v20.9c0,5.3,4.3,9.5,9.5,9.5h66.8c5.3,0,9.5-4.3,9.5-9.5v-20.9
	C1200.6,248.7,1196.4,244.4,1191.1,244.4z"/>
<path class="st0" d="M1288.4,244.4h-66.8c-5.3,0-9.5,4.3-9.5,9.5v20.9c0,5.3,4.3,9.5,9.5,9.5h66.8c5.3,0,9.5-4.3,9.5-9.5v-20.9
	C1297.9,248.6,1293.7,244.4,1288.4,244.4z"/>
<path class="st2" d="M1387,244.6l-66.8-0.4c-5.3,0-9.6,4.2-9.6,9.5l-0.1,20.9c0,5.3,4.2,9.6,9.5,9.6l66.8,0.4c5.3,0,9.6-4.2,9.6-9.5
	l0.1-20.9C1396.5,249,1392.3,244.7,1387,244.6z"/>
<path class="st2" d="M1484.4,244.5l-66.8-0.4c-5.3,0-9.6,4.2-9.6,9.5l-0.1,20.9c0,5.3,4.2,9.6,9.5,9.6l66.8,0.4
	c5.3,0,9.6-4.2,9.6-9.5l0.1-20.9C1493.9,248.9,1489.7,244.6,1484.4,244.5z"/>
<path class="st0" d="M1579.8,244.4H1513c-5.3,0-9.5,4.3-9.5,9.5v20.9c0,5.3,4.3,9.5,9.5,9.5h66.8c5.3,0,9.5-4.3,9.5-9.5v-20.9
	C1589.3,248.6,1585.1,244.4,1579.8,244.4z"/>
<path class="st1" d="M185.7,290h-66.8c-5.3,0-9.5,4.3-9.5,9.5v20.9c0,5.3,4.3,9.5,9.5,9.5h66.8c5.3,0,9.5-4.3,9.5-9.5v-20.9
	C195.2,294.3,191,290,185.7,290z"/>
<path class="st1" d="M280.1,290h-66.8c-5.3,0-9.5,4.3-9.5,9.5v20.9c0,5.3,4.3,9.5,9.5,9.5h66.8c5.3,0,9.5-4.3,9.5-9.5v-20.9
	C289.6,294.3,285.4,290,280.1,290z"/>
<path class="st0" d="M373.7,289.4h-66.8c-5.3,0-9.5,4.3-9.5,9.5v20.9c0,5.3,4.3,9.5,9.5,9.5h66.8c5.3,0,9.5-4.3,9.5-9.5v-20.9
	C383.2,293.6,379,289.4,373.7,289.4z"/>
<path class="st2" d="M472.3,289.6l-66.8-0.4c-5.3,0-9.6,4.2-9.6,9.5l-0.1,20.9c0,5.3,4.2,9.6,9.5,9.6l66.8,0.4
	c5.3,0,9.6-4.2,9.6-9.5l0.1-20.9C481.8,294,477.6,289.7,472.3,289.6z"/>
<path class="st2" d="M569.6,289.6l-66.8-0.4c-5.3,0-9.6,4.2-9.6,9.5l-0.1,20.9c0,5.3,4.2,9.6,9.5,9.6l66.8,0.4
	c5.3,0,9.6-4.2,9.6-9.5l0.1-20.9C579.1,294,574.9,289.7,569.6,289.6z"/>
<path class="st0" d="M665.1,289.4h-66.8c-5.3,0-9.5,4.3-9.5,9.5v20.9c0,5.3,4.3,9.5,9.5,9.5h66.8c5.3,0,9.5-4.3,9.5-9.5v-20.9
	C674.6,293.6,670.4,289.4,665.1,289.4z"/>
<path class="st1" d="M762.7,289.4h-66.8c-5.3,0-9.5,4.3-9.5,9.5v20.9c0,5.3,4.3,9.5,9.5,9.5h66.8c5.3,0,9.5-4.3,9.5-9.5v-20.9
	C772.2,293.7,768,289.4,762.7,289.4z"/>
<path class="st0" d="M860.1,289.3h-66.8c-5.3,0-9.5,4.3-9.5,9.5v20.9c0,5.3,4.3,9.5,9.5,9.5h66.8c5.3,0,9.5-4.3,9.5-9.5v-20.9
	C869.6,293.5,865.4,289.3,860.1,289.3z"/>
<path class="st2" d="M958.7,289.5l-66.8-0.4c-5.3,0-9.6,4.2-9.6,9.5l-0.1,20.9c0,5.3,4.2,9.6,9.5,9.6l66.8,0.4
	c5.3,0,9.6-4.2,9.6-9.5l0.1-20.9C968.2,293.9,964,289.6,958.7,289.5z"/>
<path class="st2" d="M1056,289.5l-66.8-0.4c-5.3,0-9.6,4.2-9.6,9.5l-0.1,20.9c0,5.3,4.2,9.6,9.5,9.6l66.8,0.4c5.3,0,9.6-4.2,9.6-9.5
	l0.1-20.9C1065.5,293.9,1061.3,289.6,1056,289.5z"/>
<path class="st0" d="M1151.4,289.3h-66.8c-5.3,0-9.5,4.3-9.5,9.5v20.9c0,5.3,4.3,9.5,9.5,9.5h66.8c5.3,0,9.5-4.3,9.5-9.5v-20.9
	C1160.9,293.5,1156.7,289.3,1151.4,289.3z"/>
<path class="st1" d="M1245.3,289.2h-66.8c-5.3,0-9.5,4-9.5,8.9v19.5c0,4.9,4.3,8.9,9.5,8.9h66.8c5.3,0,9.5-4,9.5-8.9v-19.5
	C1254.8,293.3,1250.6,289.2,1245.3,289.2z"/>
<path class="st0" d="M1342.6,289.2h-66.8c-5.3,0-9.5,4-9.5,8.9v19.5c0,4.9,4.3,8.9,9.5,8.9h66.8c5.3,0,9.5-4,9.5-8.9v-19.5
	C1352.1,293.1,1347.9,289.2,1342.6,289.2z"/>
<path class="st2" d="M1441.2,289.4l-66.8-0.4c-5.3,0-9.6,3.9-9.6,8.9l-0.1,19.5c0,4.9,4.2,9,9.5,9l66.8,0.4c5.3,0,9.6-3.9,9.6-8.9
	l0.1-19.5C1450.7,293.5,1446.5,289.5,1441.2,289.4z"/>
<path class="st2" d="M1538.6,289.3l-66.8-0.4c-5.3,0-9.6,3.9-9.6,8.9l-0.1,19.5c0,4.9,4.2,9,9.5,9l66.8,0.4c5.3,0,9.6-3.9,9.6-8.9
	l0.1-19.5C1548.1,293.4,1543.9,289.4,1538.6,289.3z"/>
<path class="st0" d="M1634,289.2h-66.8c-5.3,0-9.5,4-9.5,8.9v19.5c0,4.9,4.3,8.9,9.5,8.9h66.8c5.3,0,9.5-4,9.5-8.9v-19.5
	C1643.5,293.1,1639.3,289.2,1634,289.2z"/>
<path class="st0" d="M93.7,289H16.3c-6.1,0-11,4.3-11,9.5v20.9c0,5.3,5,9.5,11,9.5h77.4c6.1,0,11-4.3,11-9.5v-20.9
	C104.7,293.2,99.8,289,93.7,289z"/>
<path class="st1" d="M264.9,332.9h-66.8c-5.3,0-9.5,4.3-9.5,9.5v20.9c0,5.3,4.3,9.5,9.5,9.5h66.8c5.3,0,9.5-4.3,9.5-9.5v-20.9
	C274.4,337.2,270.2,332.9,264.9,332.9z"/>
<path class="st0" d="M171.2,332.9h-66.8c-5.3,0-9.5,4.3-9.5,9.5v20.9c0,5.3,4.3,9.5,9.5,9.5h66.8c5.3,0,9.5-4.3,9.5-9.5v-20.9
	C180.7,337.1,176.5,332.9,171.2,332.9z"/>
<path class="st2" d="M79,333.1l-66.8-0.4c-5.3,0-9.6,4.2-9.6,9.5l-0.1,20.9c0,5.3,4.2,9.6,9.5,9.6l66.8,0.4c5.3,0,9.6-4.2,9.6-9.5
	l0.1-20.9C88.5,337.5,84.3,333.2,79,333.1z"/>
<path class="st1" d="M545.1,332.9h-66.8c-5.3,0-9.5,4.3-9.5,9.5v20.9c0,5.3,4.3,9.5,9.5,9.5h66.8c5.3,0,9.5-4.3,9.5-9.5v-20.9
	C554.6,337.2,550.4,332.9,545.1,332.9z"/>
<path class="st0" d="M451.4,332.9h-66.8c-5.3,0-9.5,4.3-9.5,9.5v20.9c0,5.3,4.3,9.5,9.5,9.5h66.8c5.3,0,9.5-4.3,9.5-9.5v-20.9
	C460.9,337.1,456.7,332.9,451.4,332.9z"/>
<path class="st2" d="M359.2,333.1l-66.8-0.4c-5.3,0-9.6,4.2-9.6,9.5l-0.1,20.9c0,5.3,4.2,9.6,9.5,9.6l66.8,0.4
	c5.3,0,9.6-4.2,9.6-9.5l0.1-20.9C368.7,337.5,364.5,333.2,359.2,333.1z"/>
<path class="st1" d="M637.3,332.9h-66.8c-5.3,0-9.5,4.3-9.5,9.5v20.9c0,5.3,4.3,9.5,9.5,9.5h66.8c5.3,0,9.5-4.3,9.5-9.5v-20.9
	C646.8,337.2,642.6,332.9,637.3,332.9z"/>
<path class="st1" d="M728.7,333h-66.8c-5.3,0-9.5,4.3-9.5,9.5v20.9c0,5.3,4.3,9.5,9.5,9.5h66.8c5.3,0,9.5-4.3,9.5-9.5v-20.9
	C738.2,337.3,734,333,728.7,333z"/>
<path class="st1" d="M820.9,333h-66.8c-5.3,0-9.5,4.3-9.5,9.5v20.9c0,5.3,4.3,9.5,9.5,9.5h66.8c5.3,0,9.5-4.3,9.5-9.5v-20.9
	C830.4,337.3,826.2,333,820.9,333z"/>
<path class="st1" d="M913.1,332.9h-66.8c-5.3,0-9.5,4.3-9.5,9.5v20.9c0,5.3,4.3,9.5,9.5,9.5h66.8c5.3,0,9.5-4.3,9.5-9.5v-20.9
	C922.6,337.2,918.4,332.9,913.1,332.9z"/>
<path class="st1" d="M1005.3,332.9h-66.8c-5.3,0-9.5,4.3-9.5,9.5v20.9c0,5.3,4.3,9.5,9.5,9.5h66.8c5.3,0,9.5-4.3,9.5-9.5v-20.9
	C1014.8,337.2,1010.6,332.9,1005.3,332.9z"/>
<path class="st1" d="M1096.7,333h-66.8c-5.3,0-9.5,4.3-9.5,9.5v20.9c0,5.3,4.3,9.5,9.5,9.5h66.8c5.3,0,9.5-4.3,9.5-9.5v-20.9
	C1106.2,337.3,1102,333,1096.7,333z"/>
<path class="st1" d="M1195.1,333h-66.8c-5.3,0-9.5,4.3-9.5,9.5v20.9c0,5.3,4.3,9.5,9.5,9.5h66.8c5.3,0,9.5-4.3,9.5-9.5v-20.9
	C1204.6,337.3,1200.4,333,1195.1,333z"/>
<path class="st0" d="M1292.4,332.9h-66.8c-5.3,0-9.5,4.3-9.5,9.5v20.9c0,5.3,4.3,9.5,9.5,9.5h66.8c5.3,0,9.5-4.3,9.5-9.5v-20.9
	C1301.9,337.1,1297.7,332.9,1292.4,332.9z"/>
<path class="st2" d="M1391,333.1l-66.8-0.4c-5.3,0-9.6,4.2-9.6,9.5l-0.1,20.9c0,5.3,4.2,9.6,9.5,9.6l66.8,0.4c5.3,0,9.6-4.2,9.6-9.5
	l0.1-20.9C1400.5,337.5,1396.3,333.2,1391,333.1z"/>
<path class="st2" d="M1488.4,333.1l-66.8-0.4c-5.3,0-9.6,4.2-9.6,9.5l-0.1,20.9c0,5.3,4.2,9.6,9.5,9.6l66.8,0.4
	c5.3,0,9.6-4.2,9.6-9.5l0.1-20.9C1497.9,337.5,1493.7,333.2,1488.4,333.1z"/>
<path class="st0" d="M1583.8,332.9H1517c-5.3,0-9.5,4.3-9.5,9.5v20.9c0,5.3,4.3,9.5,9.5,9.5h66.8c5.3,0,9.5-4.3,9.5-9.5v-20.9
	C1593.3,337.1,1589.1,332.9,1583.8,332.9z"/>
<path class="st1" d="M317.9,377.4h-66.8c-5.3,0-9.5,4.3-9.5,9.5v20.9c0,5.3,4.3,9.5,9.5,9.5h66.8c5.3,0,9.5-4.3,9.5-9.5v-20.9
	C327.4,381.7,323.2,377.4,317.9,377.4z"/>
<path class="st0" d="M224.2,377.4h-66.8c-5.3,0-9.5,4.3-9.5,9.5v20.9c0,5.3,4.3,9.5,9.5,9.5h66.8c5.3,0,9.5-4.3,9.5-9.5v-20.9
	C233.7,381.6,229.5,377.4,224.2,377.4z"/>
<path class="st2" d="M132,377.6l-66.8-0.4c-5.3,0-9.6,4.2-9.6,9.5l-0.1,20.9c0,5.3,4.2,9.6,9.5,9.6l66.8,0.4c5.3,0,9.6-4.2,9.6-9.5
	l0.1-20.9C141.5,382,137.3,377.7,132,377.6z"/>
<path class="st1" d="M598.1,377.4h-66.8c-5.3,0-9.5,4.3-9.5,9.5v20.9c0,5.3,4.3,9.5,9.5,9.5h66.8c5.3,0,9.5-4.3,9.5-9.5v-20.9
	C607.6,381.7,603.4,377.4,598.1,377.4z"/>
<path class="st0" d="M504.4,377.4h-66.8c-5.3,0-9.5,4.3-9.5,9.5v20.9c0,5.3,4.3,9.5,9.5,9.5h66.8c5.3,0,9.5-4.3,9.5-9.5v-20.9
	C513.9,381.6,509.7,377.4,504.4,377.4z"/>
<path class="st2" d="M412.2,377.6l-66.8-0.4c-5.3,0-9.6,4.2-9.6,9.5l-0.1,20.9c0,5.3,4.2,9.6,9.5,9.6l66.8,0.4
	c5.3,0,9.6-4.2,9.6-9.5l0.1-20.9C421.7,382,417.5,377.7,412.2,377.6z"/>
<path class="st1" d="M690.3,377.4h-66.8c-5.3,0-9.5,4.3-9.5,9.5v20.9c0,5.3,4.3,9.5,9.5,9.5h66.8c5.3,0,9.5-4.3,9.5-9.5v-20.9
	C699.8,381.7,695.6,377.4,690.3,377.4z"/>
<path class="st1" d="M781.7,377.5h-66.8c-5.3,0-9.5,4.3-9.5,9.5v20.9c0,5.3,4.3,9.5,9.5,9.5h66.8c5.3,0,9.5-4.3,9.5-9.5V387
	C791.2,381.8,787,377.5,781.7,377.5z"/>
<path class="st1" d="M873.8,377.5H807c-5.3,0-9.5,4.3-9.5,9.5v20.9c0,5.3,4.3,9.5,9.5,9.5h66.8c5.3,0,9.5-4.3,9.5-9.5V387
	C883.3,381.8,879.1,377.5,873.8,377.5z"/>
<path class="st1" d="M966.1,377.4h-66.8c-5.3,0-9.5,4.3-9.5,9.5v20.9c0,5.3,4.3,9.5,9.5,9.5h66.8c5.3,0,9.5-4.3,9.5-9.5v-20.9
	C975.6,381.7,971.4,377.4,966.1,377.4z"/>
<path class="st1" d="M1058.3,377.4h-66.8c-5.3,0-9.5,4.3-9.5,9.5v20.9c0,5.3,4.3,9.5,9.5,9.5h66.8c5.3,0,9.5-4.3,9.5-9.5v-20.9
	C1067.8,381.7,1063.6,377.4,1058.3,377.4z"/>
<path class="st1" d="M1149.6,377.4h-66.8c-5.3,0-9.5,4.3-9.5,9.5v20.9c0,5.3,4.3,9.5,9.5,9.5h66.8c5.3,0,9.5-4.3,9.5-9.5v-20.9
	C1159.1,381.7,1154.9,377.4,1149.6,377.4z"/>
<path class="st1" d="M1248,377.4h-66.8c-5.3,0-9.5,4.3-9.5,9.5v20.9c0,5.3,4.3,9.5,9.5,9.5h66.8c5.3,0,9.5-4.3,9.5-9.5v-20.9
	C1257.5,381.7,1253.3,377.4,1248,377.4z"/>
<path class="st0" d="M1345.4,377.4h-66.8c-5.3,0-9.5,4.3-9.5,9.5v20.9c0,5.3,4.3,9.5,9.5,9.5h66.8c5.3,0,9.5-4.3,9.5-9.5v-20.9
	C1354.9,381.6,1350.7,377.4,1345.4,377.4z"/>
<path class="st2" d="M1444,377.6l-66.8-0.4c-5.3,0-9.6,4.2-9.6,9.5l-0.1,20.9c0,5.3,4.2,9.6,9.5,9.6l66.8,0.4c5.3,0,9.6-4.2,9.6-9.5
	l0.1-20.9C1453.5,382,1449.3,377.7,1444,377.6z"/>
<path class="st2" d="M1541.3,377.5l-66.8-0.4c-5.3,0-9.6,4.2-9.6,9.5l-0.1,20.9c0,5.3,4.2,9.6,9.5,9.6l66.8,0.4
	c5.3,0,9.6-4.2,9.6-9.5l0.1-20.9C1550.8,381.9,1546.6,377.6,1541.3,377.5z"/>
<path class="st0" d="M1636.8,377.4H1570c-5.3,0-9.5,4.3-9.5,9.5v20.9c0,5.3,4.3,9.5,9.5,9.5h66.8c5.3,0,9.5-4.3,9.5-9.5v-20.9
	C1646.3,381.6,1642.1,377.4,1636.8,377.4z"/>
<g id="brick_2_">
	<g id="light_1_">
		<path class="st0" d="M178.7,1043.1l0,20.9c0,5.3,4.3,9.5,9.5,9.5l66.8,0.1c5.3,0,9.5-4.3,9.5-9.5l0-20.9c0-5.3-4.3-9.5-9.5-9.5
			l-66.8-0.1C183,1033.6,178.7,1037.8,178.7,1043.1z"/>
		<path class="st0" d="M445.7,1043.7l0,20.9c0,5.3,4.3,9.5,9.5,9.5l66.8,0.1c5.3,0,9.5-4.3,9.5-9.5l0-20.9c0-5.3-4.3-9.5-9.5-9.5
			l-66.8-0.1C450,1034.2,445.7,1038.4,445.7,1043.7z"/>
		<path class="st0" d="M892.7,1044.1l0,20.9c0,5.3,4.3,9.5,9.5,9.5l66.8,0.1c5.3,0,9.5-4.3,9.5-9.5l0-20.9c0-5.3-4.3-9.5-9.5-9.5
			l-66.8-0.1C896.9,1034.5,892.7,1038.8,892.7,1044.1z"/>
		<path class="st0" d="M1877.1,1067.5l0-20.9c0-5.3-4.3-9.5-9.5-9.5l-66.8-0.1c-5.3,0-9.5,4.3-9.5,9.5l0,20.9c0,5.3,4.3,9.5,9.5,9.5
			l66.8,0.1C1872.7,1077.1,1877,1072.8,1877.1,1067.5z"/>
		<path class="st0" d="M1478.3,985.2l-66.8-0.1c-5.3,0-9.5,4.3-9.5,9.5l0,21c0,5.3,4.3,9.5,9.5,9.5l66.8,0.1c5.3,0,9.5-4.3,9.5-9.5
			l0-20.9C1487.8,989.5,1483.5,985.2,1478.3,985.2z"/>
		<path class="st0" d="M15.5,970.3l66.8,0.1c5.3,0,9.5-4.3,9.5-9.5l0-21c0-5.3-4.3-9.5-9.5-9.5l-66.8-0.1c-5.3,0-9.5,4.3-9.5,9.5
			l0,21C5.9,966.1,10.2,970.3,15.5,970.3z"/>
		<path class="st0" d="M282.5,970.9l66.8,0.1c5.3,0,9.5-4.3,9.5-9.5l0-21c0-5.3-4.3-9.5-9.5-9.5l-66.8-0.1c-5.3,0-9.5,4.3-9.5,9.5
			l0,21C273,966.7,277.3,970.9,282.5,970.9z"/>
		<path class="st0" d="M158.1,829l66.8,0.1c5.3,0,9.5-4.3,9.5-9.5l0-20.9c0-5.3-4.3-9.5-9.5-9.5l-66.8-0.1c-5.3,0-9.5,4.3-9.5,9.5
			l0,20.9C148.6,824.8,152.8,829,158.1,829z"/>
		<path class="st0" d="M197.7,784.1l66.8,0.1c5.3,0,9.5-4.3,9.5-9.5l0-20.9c0-5.3-4.3-9.5-9.5-9.5l-66.8-0.1c-5.3,0-9.5,4.3-9.5,9.5
			l0,20.9C188.1,779.9,192.4,784.1,197.7,784.1z"/>
		<path class="st0" d="M93.8,873.9l66.8,0.5c5.3,0,9.6-4.2,9.6-9.5l0.1-20.9c0-5.3-4.2-9.6-9.5-9.6l-66.8-0.5
			c-5.3,0-9.6,4.2-9.6,9.5l-0.1,20.9C84.3,869.6,88.5,873.9,93.8,873.9z"/>
		<path class="st0" d="M11.8,784.5l66.8,0.5c5.3,0,9.6-4.2,9.6-9.5l0.1-20.9c0-5.3-4.2-9.6-9.5-9.6l-66.8-0.5
			c-5.3,0-9.6,4.2-9.6,9.5l-0.1,20.9C2.3,780.2,6.5,784.5,11.8,784.5z"/>
		<path class="st0" d="M67.9,741.1l66.8,0.1c5.3,0,9.5-4.3,9.5-9.5l0-20.9c0-5.3-4.3-9.5-9.5-9.5L68,701.2c-5.3,0-9.5,4.3-9.5,9.5
			l0,20.9C58.3,736.8,62.6,741.1,67.9,741.1z"/>
		<path class="st0" d="M245.9,741.5l66.8,0.1c5.3,0,9.5-4.3,9.5-9.5l0-20.9c0-5.3-4.3-9.5-9.5-9.5l-66.8-0.1c-5.3,0-9.5,4.3-9.5,9.5
			l0,20.9C236.4,737.2,240.7,741.5,245.9,741.5z"/>
		<path class="st0" d="M102,695.8l66.8,0.1c5.3,0,9.5-4.3,9.5-9.5l0-20.9c0-5.3-4.3-9.5-9.5-9.5l-66.8-0.1c-5.3,0-9.5,4.3-9.5,9.5
			l0,20.9C92.5,691.5,96.8,695.8,102,695.8z"/>
		<path class="st0" d="M194.1,696l66.8,0.1c5.3,0,9.5-4.3,9.5-9.5l0-20.9c0-5.3-4.3-9.5-9.5-9.5l-66.8-0.1c-5.3,0-9.5,4.3-9.5,9.5
			l0,20.9C184.5,691.7,188.8,696,194.1,696z"/>
		<path class="st0" d="M154.4,921.8l66.8,0.1c5.3,0,9.5-4.3,9.5-9.5l0-20.9c0-5.3-4.3-9.5-9.5-9.5l-66.8-0.1c-5.3,0-9.5,4.3-9.5,9.5
			l0,20.9C144.9,917.5,149.2,921.8,154.4,921.8z"/>
		<path class="st0" d="M158.8,649.9l66.8,0.1c5.3,0,9.5-4.3,9.5-9.5l0-20.9c0-5.3-4.3-9.5-9.5-9.5l-66.8-0.1c-5.3,0-9.5,4.3-9.5,9.5
			l0,20.9C149.3,645.6,153.6,649.9,158.8,649.9z"/>
		<path class="st0" d="M12.8,602.7l66.8,0.1c5.3,0,9.5-4.3,9.5-9.5l0-20.9c0-5.3-4.3-9.5-9.5-9.5l-66.8-0.1c-5.3,0-9.5,4.3-9.5,9.5
			l0,20.9C3.3,598.4,7.5,602.7,12.8,602.7z"/>
		<path class="st0" d="M159,557.7l66.8,0.1c5.3,0,9.5-4.3,9.5-9.5l0-20.9c0-5.3-4.3-9.5-9.5-9.5l-66.8-0.1c-5.3,0-9.5,4.3-9.5,9.5
			l0,20.8C149.5,553.4,153.8,557.7,159,557.7z"/>
		<path class="st0" d="M70,557.5l66.8,0.1c5.3,0,9.5-4.3,9.5-9.5l0-20.9c0-5.3-4.3-9.5-9.5-9.5l-66.8-0.1c-5.3,0-9.5,4.3-9.5,9.5
			l0,20.8C60.5,553.2,64.7,557.5,70,557.5z"/>
		<path class="st0" d="M248,557.9l66.8,0.1c5.3,0,9.5-4.3,9.5-9.5l0-20.9c0-5.3-4.3-9.5-9.5-9.5l-66.8-0.1c-5.3,0-9.5,4.3-9.5,9.5
			l0,20.8C238.5,553.6,242.8,557.9,248,557.9z"/>
		<path class="st0" d="M104,512.3l66.8,0.1c5.3,0,9.5-4.3,9.5-9.5l0-20.9c0-5.3-4.3-9.5-9.5-9.5l-66.8-0.1c-5.3,0-9.5,4.3-9.5,9.5
			l0,20.9C94.5,508,98.8,512.3,104,512.3z"/>
		<path class="st0" d="M161,466.9l66.8,0.1c5.3,0,9.5-4.3,9.5-9.5l0-20.9c0-5.3-4.3-9.5-9.5-9.5l-66.8-0.1c-5.3,0-9.5,4.3-9.5,9.5
			l0,20.9C151.4,462.7,155.7,466.9,161,466.9z"/>
	</g>
	<g id="normal_2_">
		<path class="st1" d="M0.7,1042.7l0,20.9c0,5.3,4.3,9.5,9.5,9.5l66.8,0.1c5.3,0,9.5-4.3,9.5-9.5l0-20.9c0-5.3-4.3-9.5-9.5-9.5
			l-66.8-0.1C4.9,1033.2,0.7,1037.4,0.7,1042.7z"/>
		<path class="st1" d="M89.7,1042.9l0,20.9c0,5.3,4.3,9.5,9.5,9.5l66.8,0.1c5.3,0,9.5-4.3,9.5-9.5l0-20.9c0-5.3-4.3-9.5-9.5-9.5
			l-66.8-0.1C94,1033.4,89.7,1037.6,89.7,1042.9z"/>
		<path class="st1" d="M267.7,1043.3l0,20.9c0,5.3,4.3,9.5,9.5,9.5l66.8,0.1c5.3,0,9.5-4.3,9.5-9.5l0-20.9c0-5.3-4.3-9.5-9.5-9.5
			l-66.8-0.1C272,1033.8,267.7,1038,267.7,1043.3z"/>
		<path class="st1" d="M357.3,1043.5l0,20.9c0,5.3,4.3,9.5,9.5,9.5l66.8,0.1c5.3,0,9.5-4.3,9.5-9.5l0-20.9c0-5.3-4.3-9.5-9.5-9.5
			l-66.8-0.1C361.5,1034,357.3,1038.2,357.3,1043.5z"/>
		<path class="st1" d="M535.3,1043.9l0,20.9c0,5.3,4.3,9.5,9.5,9.5l66.9,0.1c5.3,0,9.5-4.3,9.5-9.5l0-20.9c0-5.3-4.3-9.5-9.5-9.5
			l-66.8-0.1C539.6,1034.4,535.3,1038.6,535.3,1043.9z"/>
		<path class="st1" d="M625.4,1044.1l0,20.9c0,5.3,4.3,9.5,9.5,9.5l66.8,0.1c5.3,0,9.5-4.3,9.5-9.5l0-20.9c0-5.3-4.3-9.5-9.5-9.5
			l-66.8-0.1C629.6,1034.6,625.4,1038.8,625.4,1044.1z"/>
		<path class="st1" d="M714.4,1044.3l0,20.9c0,5.3,4.3,9.5,9.5,9.5l66.8,0.1c5.3,0,9.5-4.3,9.5-9.5l0-20.9c0-5.3-4.3-9.5-9.5-9.5
			l-66.8-0.1C718.7,1034.8,714.4,1039,714.4,1044.3z"/>
		<path class="st1" d="M803.1,1044.5l0,20.9c0,5.3,4.3,9.5,9.5,9.5l66.8,0.1c5.3,0,9.5-4.3,9.5-9.5l0-20.9c0-5.3-4.3-9.5-9.5-9.5
			l-66.8-0.1C807.4,1035,803.1,1039.2,803.1,1044.5z"/>
		<path class="st1" d="M982.6,1044.3l0,20.9c0,5.3,4.3,9.5,9.5,9.5l66.8,0.1c5.3,0,9.5-4.3,9.5-9.5l0-20.9c0-5.3-4.3-9.5-9.5-9.5
			l-66.8-0.1C986.9,1034.7,982.6,1039,982.6,1044.3z"/>
		<path class="st1" d="M1071.7,1045.1l0,20.9c0,5.3,4.3,9.5,9.5,9.5l66.8,0.1c5.3,0,9.5-4.3,9.5-9.5l0-20.9c0-5.3-4.3-9.5-9.5-9.5
			l-66.8-0.1C1075.9,1035.6,1071.7,1039.8,1071.7,1045.1z"/>
		<path class="st1" d="M1161.9,1045.3l0,20.9c0,5.3,4.3,9.5,9.5,9.5l66.8,0.1c5.3,0,9.5-4.3,9.5-9.5l0-20.9c0-5.3-4.3-9.5-9.5-9.5
			l-66.8-0.1C1166.2,1035.8,1161.9,1040,1161.9,1045.3z"/>
		<path class="st1" d="M1252.5,1045.5l0,20.9c0,5.3,4.3,9.5,9.5,9.5l66.8,0.1c5.3,0,9.5-4.3,9.5-9.5l0-20.9c0-5.3-4.3-9.5-9.5-9.5
			l-66.8-0.1C1256.8,1036,1252.5,1040.2,1252.5,1045.5z"/>
		<path class="st1" d="M1343.7,1045.4l0,20.9c0,5.3,4.3,9.5,9.5,9.5l66.8,0.1c5.3,0,9.5-4.3,9.5-9.5l0-20.9c0-5.3-4.3-9.5-9.5-9.5
			l-66.8-0.1C1348,1035.8,1343.7,1040.1,1343.7,1045.4z"/>
		<path class="st1" d="M1522,1045.1l0,20.9c0,5.3,4.3,9.5,9.5,9.5l66.8,0.1c5.3,0,9.5-4.3,9.5-9.5l0-20.9c0-5.3-4.3-9.5-9.5-9.5
			l-66.8-0.1C1526.3,1035.6,1522,1039.9,1522,1045.1z"/>
		<path class="st1" d="M1612,1045.3l0,20.9c0,5.3,4.3,9.5,9.5,9.5l66.8,0.1c5.3,0,9.5-4.3,9.5-9.5l0-20.9c0-5.3-4.3-9.5-9.5-9.5
			l-66.8-0.1C1616.2,1035.8,1612,1040.1,1612,1045.3z"/>
		<path class="st1" d="M1701,1046.2l0,20.9c0,5.3,4.3,9.5,9.5,9.5l66.8,0.1c5.3,0,9.5-4.3,9.5-9.5l0-20.9c0-5.3-4.3-9.5-9.5-9.5
			l-66.8-0.1C1705.3,1036.6,1701,1040.9,1701,1046.2z"/>
		<path class="st1" d="M1881.9,1046.6l0,20.9c0,5.3,4.3,9.5,9.5,9.5l24.3,0.1l0.1-40l-24.3-0.1
			C1886.1,1037,1881.9,1041.3,1881.9,1046.6z"/>
		<path class="st1" d="M46.4,1022.4c5.3,0,9.5-4.3,9.5-9.5l0-21c0-5.3-4.3-9.5-9.5-9.5L-3,982.3l-0.1,40L46.4,1022.4z"/>
		<path class="st1" d="M135.5,982.5l-66.8-0.1c-5.3,0-9.5,4.3-9.5,9.5l0,21c0,5.3,4.3,9.5,9.5,9.5l66.8,0.1c5.3,0,9.5-4.3,9.5-9.5
			l0-20.9C145,986.8,140.8,982.5,135.5,982.5z"/>
		<path class="st1" d="M224.5,982.7l-66.8-0.1c-5.3,0-9.5,4.3-9.5,9.5l0,21c0,5.3,4.3,9.5,9.5,9.5l66.8,0.1c5.3,0,9.5-4.3,9.5-9.5
			l0-20.9C234.1,987,229.8,982.7,224.5,982.7z"/>
		<path class="st1" d="M313.5,982.9l-66.8-0.1c-5.3,0-9.5,4.3-9.5,9.5l0,21c0,5.3,4.3,9.5,9.5,9.5l66.8,0.1c5.3,0,9.5-4.3,9.5-9.5
			l0-20.9C323.1,987.2,318.8,982.9,313.5,982.9z"/>
		<path class="st1" d="M491.5,983.3l-66.8-0.1c-5.3,0-9.5,4.3-9.5,9.5l0,21c0,5.3,4.3,9.5,9.5,9.5l66.8,0.1c5.3,0,9.5-4.3,9.5-9.5
			l0-20.9C501.1,987.6,496.8,983.3,491.5,983.3z"/>
		<path class="st1" d="M581.1,983.5l-66.8-0.1c-5.3,0-9.5,4.3-9.5,9.5l0,21c0,5.3,4.3,9.5,9.5,9.5l66.8,0.1c5.3,0,9.5-4.3,9.5-9.5
			l0-20.9C590.7,987.8,586.4,983.5,581.1,983.5z"/>
		<path class="st1" d="M671.2,983.7l-66.8-0.1c-5.3,0-9.5,4.3-9.5,9.5l0,21c0,5.3,4.3,9.5,9.5,9.5l66.8,0.1c5.3,0,9.5-4.3,9.5-9.5
			l0-20.9C680.7,988,676.4,983.7,671.2,983.7z"/>
		<path class="st1" d="M760.2,983.9l-66.8-0.1c-5.3,0-9.5,4.3-9.5,9.5l0,21c0,5.3,4.3,9.5,9.5,9.5l66.8,0.1c5.3,0,9.5-4.3,9.5-9.5
			l0-20.9C769.7,988.2,765.5,983.9,760.2,983.9z"/>
		<path class="st1" d="M848.9,984.1l-66.8-0.1c-5.3,0-9.5,4.3-9.5,9.5l0,21c0,5.3,4.3,9.5,9.5,9.5l66.8,0.1c5.3,0,9.5-4.3,9.5-9.5
			l0-20.9C858.5,988.4,854.2,984.1,848.9,984.1z"/>
		<path class="st1" d="M1028.4,983.9l-66.8-0.1c-5.3,0-9.5,4.3-9.5,9.5l0,21c0,5.3,4.3,9.5,9.5,9.5l66.8,0.1c5.3,0,9.5-4.3,9.5-9.5
			l0-20.9C1038,988.1,1033.7,983.9,1028.4,983.9z"/>
		<path class="st1" d="M1117.5,984.7l-66.8-0.1c-5.3,0-9.5,4.3-9.5,9.5l0,21c0,5.3,4.3,9.5,9.5,9.5l66.8,0.1c5.3,0,9.5-4.3,9.5-9.5
			l0-20.9C1127,989,1122.7,984.7,1117.5,984.7z"/>
		<path class="st1" d="M1207.7,984.9l-66.8-0.1c-5.3,0-9.5,4.3-9.5,9.5l0,21c0,5.3,4.3,9.5,9.5,9.5l66.8,0.1c5.3,0,9.5-4.3,9.5-9.5
			l0-20.9C1217.3,989.2,1213,984.9,1207.7,984.9z"/>
		<path class="st1" d="M1298.3,985.1l-66.8-0.1c-5.3,0-9.5,4.3-9.5,9.5l0,21c0,5.3,4.3,9.5,9.5,9.5l66.8,0.1c5.3,0,9.5-4.3,9.5-9.5
			l0-20.9C1307.9,989.4,1303.6,985.1,1298.3,985.1z"/>
		<path class="st1" d="M1389.5,985l-66.8-0.1c-5.3,0-9.5,4.3-9.5,9.5l0,21c0,5.3,4.3,9.5,9.5,9.5l66.8,0.1c5.3,0,9.5-4.3,9.5-9.5
			l0-20.9C1399.1,989.3,1394.8,985,1389.5,985z"/>
		<path class="st1" d="M1567.8,984.7l-66.8-0.1c-5.3,0-9.5,4.3-9.5,9.5l0,21c0,5.3,4.3,9.5,9.5,9.5l66.8,0.1c5.3,0,9.5-4.3,9.5-9.5
			l0-20.9C1577.3,989,1573.1,984.7,1567.8,984.7z"/>
		<path class="st1" d="M1746.8,985.8l-66.8-0.1c-5.3,0-9.5,4.3-9.5,9.5l0,21c0,5.3,4.3,9.5,9.5,9.5l66.8,0.1c5.3,0,9.5-4.3,9.5-9.5
			l0-20.9C1756.3,990.1,1752.1,985.8,1746.8,985.8z"/>
		<path class="st1" d="M1837,986l-66.8-0.1c-5.3,0-9.5,4.3-9.5,9.5l0,21c0,5.3,4.3,9.5,9.5,9.5l66.8,0.1c5.3,0,9.5-4.3,9.5-9.5
			l0-20.9C1846.6,990.3,1842.3,986,1837,986z"/>
		<path class="st1" d="M1851.3,995.5l0,21c0,5.3,4.3,9.5,9.5,9.5l55,0.1l0.1-40l-54.9-0.1C1855.6,986,1851.3,990.3,1851.3,995.5z"/>
		<path class="st1" d="M193.5,970.7l66.8,0.1c5.3,0,9.5-4.3,9.5-9.5l0-21c0-5.3-4.3-9.5-9.5-9.5l-66.8-0.1c-5.3,0-9.5,4.3-9.5,9.5
			l0,21C184,966.5,188.2,970.7,193.5,970.7z"/>
		<path class="st1" d="M372,971.1l66.8,0.1c5.3,0,9.5-4.3,9.5-9.5l0-21c0-5.3-4.3-9.5-9.5-9.5l-66.8-0.1c-5.3,0-9.5,4.3-9.5,9.5
			l0,21C362.5,966.9,366.8,971.1,372,971.1z"/>
		<path class="st1" d="M460.5,971.3l66.8,0.1c5.3,0,9.5-4.3,9.5-9.5l0-21c0-5.3-4.3-9.5-9.5-9.5l-66.8-0.1c-5.3,0-9.5,4.3-9.5,9.5
			l0,21C451,967.1,455.3,971.3,460.5,971.3z"/>
		<path class="st1" d="M550.1,971.5l66.8,0.1c5.3,0,9.5-4.3,9.5-9.5l0-21c0-5.3-4.3-9.5-9.5-9.5l-66.8-0.1c-5.3,0-9.5,4.3-9.5,9.5
			l0,21C540.6,967.3,544.9,971.5,550.1,971.5z"/>
		<path class="st1" d="M640.2,971.7l66.8,0.1c5.3,0,9.5-4.3,9.5-9.5l0-21c0-5.3-4.3-9.5-9.5-9.5l-66.8-0.1c-5.3,0-9.5,4.3-9.5,9.5
			l0,21C630.6,967.5,634.9,971.7,640.2,971.7z"/>
		<path class="st1" d="M729.2,971.9l66.8,0.1c5.3,0,9.5-4.3,9.5-9.5l0-21c0-5.3-4.3-9.5-9.5-9.5l-66.8-0.1c-5.3,0-9.5,4.3-9.5,9.5
			l0,21C719.7,967.7,723.9,971.9,729.2,971.9z"/>
		<path class="st1" d="M817.9,972.1l66.8,0.1c5.3,0,9.5-4.3,9.5-9.5l0-21c0-5.3-4.3-9.5-9.5-9.5l-66.8-0.1c-5.3,0-9.5,4.3-9.5,9.5
			l0,21C808.4,967.9,812.7,972.1,817.9,972.1z"/>
		<path class="st1" d="M907.4,971.7l66.8,0.1c5.3,0,9.5-4.3,9.5-9.5l0-20.9c0-5.3-4.3-9.5-9.5-9.5l-66.8-0.1c-5.3,0-9.5,4.3-9.5,9.5
			l0,20.8C897.9,967.4,902.2,971.7,907.4,971.7z"/>
		<path class="st1" d="M997.4,971.9l66.8,0.1c5.3,0,9.5-4.3,9.5-9.5l0-20.9c0-5.3-4.3-9.5-9.5-9.5l-66.8-0.1c-5.3,0-9.5,4.3-9.5,9.5
			l0,20.8C987.9,967.6,992.2,971.9,997.4,971.9z"/>
		<path class="st1" d="M1086.5,972.7l66.8,0.1c5.3,0,9.5-4.3,9.5-9.5l0-21c0-5.3-4.3-9.5-9.5-9.5l-66.8-0.1c-5.3,0-9.5,4.3-9.5,9.5
			l0,21C1076.9,968.5,1081.2,972.7,1086.5,972.7z"/>
		<path class="st1" d="M1176.7,972.9l66.8,0.1c5.3,0,9.5-4.3,9.5-9.5l0-21c0-5.3-4.3-9.5-9.5-9.5l-66.8-0.1c-5.3,0-9.5,4.3-9.5,9.5
			l0,21C1167.2,968.7,1171.4,972.9,1176.7,972.9z"/>
		<path class="st1" d="M1267.3,973.1l66.8,0.1c5.3,0,9.5-4.3,9.5-9.5l0-21c0-5.3-4.3-9.5-9.5-9.5l-66.8-0.1c-5.3,0-9.5,4.3-9.5,9.5
			l0,21C1257.8,968.9,1262.1,973.1,1267.3,973.1z"/>
		<path class="st1" d="M1358.5,973l66.8,0.1c5.3,0,9.5-4.3,9.5-9.5l0-20.9c0-5.3-4.3-9.5-9.5-9.5l-66.8-0.1c-5.3,0-9.5,4.3-9.5,9.5
			l0,20.9C1349,968.7,1353.3,973,1358.5,973z"/>
		<path class="st1" d="M1447.3,973.2l66.8,0.1c5.3,0,9.5-4.3,9.5-9.5l0-20.9c0-5.3-4.3-9.5-9.5-9.5l-66.8-0.1
			c-5.3,0-9.5,4.3-9.5,9.5l0,20.9C1437.7,968.9,1442,973.2,1447.3,973.2z"/>
		<path class="st1" d="M1536.8,972.7l66.8,0.1c5.3,0,9.5-4.3,9.5-9.5l0-20.9c0-5.3-4.3-9.5-9.5-9.5l-66.8-0.1
			c-5.3,0-9.5,4.3-9.5,9.5l0,20.9C1527.2,968.5,1531.5,972.7,1536.8,972.7z"/>
		<path class="st1" d="M1626.8,972.9l66.8,0.1c5.3,0,9.5-4.3,9.5-9.5l0-20.9c0-5.3-4.3-9.5-9.5-9.5l-66.8-0.1
			c-5.3,0-9.5,4.3-9.5,9.5l0,20.9C1617.2,968.7,1621.5,972.9,1626.8,972.9z"/>
		<path class="st1" d="M1715.8,973.8l66.8,0.1c5.3,0,9.5-4.3,9.5-9.5l0-20.9c0-5.3-4.3-9.5-9.5-9.5l-66.8-0.1
			c-5.3,0-9.5,4.3-9.5,9.5l0,20.9C1706.3,969.5,1710.5,973.8,1715.8,973.8z"/>
		<path class="st1" d="M69.1,828.8l66.8,0.1c5.3,0,9.5-4.3,9.5-9.5l0-20.9c0-5.3-4.3-9.5-9.5-9.5l-66.8-0.1c-5.3,0-9.5,4.3-9.5,9.5
			l0,20.9C59.6,824.6,63.8,828.8,69.1,828.8z"/>
		<path class="st1" d="M247.1,829.2l66.8,0.1c5.3,0,9.5-4.3,9.5-9.5l0-20.9c0-5.3-4.3-9.5-9.5-9.5l-66.8-0.1c-5.3,0-9.5,4.3-9.5,9.5
			l0,20.9C237.6,825,241.9,829.2,247.1,829.2z"/>
		<path class="st1" d="M156.9,741.3l66.8,0.1c5.3,0,9.5-4.3,9.5-9.5l0-20.9c0-5.3-4.3-9.5-9.5-9.5l-66.8-0.1c-5.3,0-9.5,4.3-9.5,9.5
			l0,20.9C147.4,737,151.6,741.3,156.9,741.3z"/>
		<path class="st1" d="M64.4,921.6l66.8,0.1c5.3,0,9.5-4.3,9.5-9.5l0-20.9c0-5.3-4.3-9.5-9.5-9.5l-66.8-0.1c-5.3,0-9.5,4.3-9.5,9.5
			l0,20.9C54.9,917.3,59.1,921.6,64.4,921.6z"/>
		<path class="st1" d="M244.4,922l66.8,0.1c5.3,0,9.5-4.3,9.5-9.5l0-20.9c0-5.3-4.3-9.5-9.5-9.5l-66.8-0.1c-5.3,0-9.5,4.3-9.5,9.5
			l0,20.9C234.9,917.7,239.2,922,244.4,922z"/>
		<path class="st1" d="M69.8,649.7l66.8,0.1c5.3,0,9.5-4.3,9.5-9.5l0-20.9c0-5.3-4.3-9.5-9.5-9.5l-66.8-0.1c-5.3,0-9.5,4.3-9.5,9.5
			l0,20.9C60.3,645.4,64.5,649.7,69.8,649.7z"/>
		<path class="st1" d="M194.8,603.1l66.8,0.1c5.3,0,9.5-4.3,9.5-9.5l0-20.9c0-5.3-4.3-9.5-9.5-9.5l-66.8-0.1c-5.3,0-9.5,4.3-9.5,9.5
			l0,20.9C185.3,598.8,189.6,603.1,194.8,603.1z"/>
		<path class="st1" d="M12,512.1l66.8,0.1c5.3,0,9.5-4.3,9.5-9.5l0-20.9c0-5.3-4.3-9.5-9.5-9.5l-66.8-0.1c-5.3,0-9.5,4.3-9.5,9.5
			l0,20.9C2.5,507.8,6.7,512.1,12,512.1z"/>
		<path class="st1" d="M71.9,466.7l66.8,0.1c5.3,0,9.5-4.3,9.5-9.5l0-20.9c0-5.3-4.3-9.5-9.5-9.5L72,426.8c-5.3,0-9.5,4.3-9.5,9.5
			l0,20.9C62.4,462.5,66.7,466.7,71.9,466.7z"/>
		<path class="st1" d="M250,467.1l66.8,0.1c5.3,0,9.5-4.3,9.5-9.5l0-20.9c0-5.3-4.3-9.5-9.5-9.5l-66.8-0.1c-5.3,0-9.5,4.3-9.5,9.5
			l0,20.9C240.4,462.9,244.7,467.1,250,467.1z"/>
		<path class="st1" d="M46.6,828.8c5.3,0,9.5-4.3,9.5-9.5l0-20.9c0-5.3-4.3-9.5-9.5-9.5L-2,788.8l-0.1,40l48.7,0.1L46.6,828.8z"/>
		<path class="st1" d="M2.6,873.8l66.8,0.5c5.3,0,9.6-4.2,9.6-9.5l0.1-20.9c0-5.3-4.2-9.6-9.5-9.6l-66.8-0.5c-1.8,0-3.5,0.5-5,1.4
			l-0.1,37.3C-0.8,873.3,0.8,873.7,2.6,873.8z"/>
		<path class="st1" d="M45.4,741.1c5.3,0,9.5-4.3,9.5-9.5l0-20.9c0-5.3-4.3-9.5-9.5-9.5l-47.2-0.1l-0.1,40l47.2,0.1L45.4,741.1z"/>
		<path class="st1" d="M40.9,921.6c5.3,0,9.5-4.3,9.5-9.5l0-20.9c0-5.3-4.3-9.5-9.5-9.5l-43.2-0.1l-0.1,40l43.2,0.1L40.9,921.6z"/>
		<path class="st1" d="M47.3,649.7c5.3,0,9.5-4.3,9.5-9.5l0-20.9c0-5.3-4.3-9.5-9.5-9.5l-49-0.1l-0.1,40l49,0.1L47.3,649.7z"/>
		<path class="st1" d="M47.5,557.5c5.3,0,9.5-4.3,9.5-9.5l0-20.9c0-5.3-4.3-9.5-9.5-9.5l-49-0.1l-0.1,40l49,0.1L47.5,557.5z"/>
		<path class="st1" d="M49.4,466.7c5.3,0,9.5-4.3,9.5-9.5l0-20.9c0-5.3-4.3-9.5-9.5-9.5l-50.7-0.1l-0.1,40L49.4,466.7L49.4,466.7z"
			/>
		<path class="st1" d="M1889.7,944.5l0,20.9c0,5.3,3.9,9.5,8.6,9.5l22,0l0.1-40l-22,0C1893.5,934.9,1889.7,939.2,1889.7,944.5z"/>
	</g>
	<g id="dark_2_">
		<path class="st2" d="M1432.5,1045.6l0,20.9c0,5.3,4.3,9.5,9.5,9.5l66.8,0.1c5.3,0,9.5-4.3,9.5-9.5l0-20.9c0-5.3-4.3-9.5-9.5-9.5
			l-66.8-0.1C1436.7,1036,1432.5,1040.3,1432.5,1045.6z"/>
		<path class="st2" d="M938.5,983.7l-66.8-0.1c-5.3,0-9.5,4.3-9.5,9.5l0,21c0,5.3,4.3,9.5,9.5,9.5l66.8,0.1c5.3,0,9.5-4.3,9.5-9.5
			l0-20.9C948,987.9,943.7,983.7,938.5,983.7z"/>
		<path class="st2" d="M1657.8,984.9l-66.8-0.1c-5.3,0-9.5,4.3-9.5,9.5l0,21c0,5.3,4.3,9.5,9.5,9.5l66.8,0.1c5.3,0,9.5-4.3,9.5-9.5
			l0-20.9C1667.3,989.2,1663,984.9,1657.8,984.9z"/>
		<path class="st2" d="M104.5,970.5l66.8,0.1c5.3,0,9.5-4.3,9.5-9.5l0-21c0-5.3-4.3-9.5-9.5-9.5l-66.8-0.1c-5.3,0-9.5,4.3-9.5,9.5
			l0,21C95,966.3,99.2,970.5,104.5,970.5z"/>
		<path class="st2" d="M403.1,983.1l-66.8-0.1c-5.3,0-9.5,4.3-9.5,9.5l0,21c0,5.3,4.3,9.5,9.5,9.5l66.8,0.1c5.3,0,9.5-4.3,9.5-9.5
			l0-20.9C412.6,987.4,408.3,983.1,403.1,983.1z"/>
		<path class="st2" d="M185.4,874.2l66.8,0.5c5.3,0,9.6-4.2,9.6-9.5l0.1-20.9c0-5.3-4.2-9.6-9.5-9.6l-66.8-0.5
			c-5.3,0-9.6,4.2-9.6,9.5l-0.1,20.9C175.9,869.8,180.1,874.1,185.4,874.2z"/>
		<path class="st2" d="M105.1,784.9l66.8,0.1c5.3,0,9.5-4.3,9.5-9.5l0-20.9c0-5.3-4.3-9.5-9.5-9.5l-66.8-0.1c-5.3,0-9.5,4.3-9.5,9.5
			l0,20.9C95.6,780.6,99.8,784.9,105.1,784.9z"/>
		<path class="st2" d="M11,695.6l66.8,0.1c5.3,0,9.5-4.3,9.5-9.5l0-20.9c0-5.3-4.3-9.5-9.5-9.5l-66.8-0.1c-5.3,0-9.5,4.3-9.5,9.5
			l0,20.9C1.5,691.3,5.8,695.6,11,695.6z"/>
		<path class="st2" d="M247.8,650.1l66.8,0.1c5.3,0,9.5-4.3,9.5-9.5l0-20.9c0-5.3-4.3-9.5-9.5-9.5l-66.8-0.1c-5.3,0-9.5,4.3-9.5,9.5
			l0,20.9C238.3,645.8,242.6,650.1,247.8,650.1z"/>
		<path class="st2" d="M103.8,602.9l66.8,0.1c5.3,0,9.5-4.3,9.5-9.5l0-20.9c0-5.3-4.3-9.5-9.5-9.5l-66.8-0.1c-5.3,0-9.5,4.3-9.5,9.5
			l0,20.9C94.3,598.6,98.6,602.9,103.8,602.9z"/>
		<path class="st2" d="M195,512.5l66.8,0.1c5.3,0,9.5-4.3,9.5-9.5l0-20.9c0-5.3-4.3-9.5-9.5-9.5l-66.8-0.1c-5.3,0-9.5,4.3-9.5,9.5
			l0,20.9C185.5,508.2,189.8,512.5,195,512.5z"/>
	</g>
</g>
<path class="st1" d="M1380.3,830.2l66.8,0.1c5.3,0,9.5-4.3,9.5-9.5l0-20.9c0-5.3-4.3-9.5-9.5-9.5l-66.8-0.1c-5.3,0-9.5,4.3-9.5,9.5
	l0,20.9C1370.9,825.8,1375,830.2,1380.3,830.2z"/>
<path class="st0" d="M1474.1,830.4l66.8,0.1c5.3,0,9.5-4.3,9.5-9.5l0-20.9c0-5.3-4.3-9.5-9.5-9.5l-66.8-0.1c-5.3,0-9.5,4.3-9.5,9.5
	l0,20.9C1464.6,826.2,1468.8,830.4,1474.1,830.4z"/>
<path class="st1" d="M1288.2,830l66.8,0.1c5.3,0,9.5-4.3,9.5-9.5l0-20.9c0-5.3-4.3-9.5-9.5-9.5l-66.8-0.1c-5.3,0-9.5,4.3-9.5,9.5
	l0,20.9C1278.7,825.6,1282.9,829.9,1288.2,830z"/>
<path class="st1" d="M1196.8,829.7l66.8,0.1c5.3,0,9.5-4.3,9.5-9.5l0-20.9c0-5.3-4.3-9.5-9.5-9.5l-66.8-0.1c-5.3,0-9.5,4.3-9.5,9.5
	l0,20.9C1187.3,825.4,1191.5,829.7,1196.8,829.7z"/>
<path class="st1" d="M1104.6,829.5l66.8,0.1c5.3,0,9.5-4.3,9.5-9.5l0-20.9c0-5.3-4.3-9.5-9.5-9.5l-66.8-0.1c-5.3,0-9.5,4.3-9.5,9.5
	l0,20.9C1095.1,825.2,1099.3,829.5,1104.6,829.5z"/>
<path class="st1" d="M1012.4,829.4l66.8,0.1c5.3,0,9.5-4.3,9.5-9.5l0-20.9c0-5.3-4.3-9.5-9.5-9.5l-66.8-0.1c-5.3,0-9.5,4.3-9.5,9.5
	l0,20.9C1002.9,825,1007.1,829.4,1012.4,829.4z"/>
<path class="st1" d="M920.2,829.2l66.8,0.1c5.3,0,9.5-4.3,9.5-9.5l0-20.9c0-5.3-4.3-9.5-9.5-9.5l-66.8-0.1c-5.3,0-9.5,4.3-9.5,9.5
	l0,20.9C910.7,824.8,914.9,829.1,920.2,829.2z"/>
<path class="st1" d="M828.8,828.9l66.8,0.1c5.3,0,9.5-4.3,9.5-9.5l0-20.9c0-5.3-4.3-9.5-9.5-9.5l-66.8-0.1c-5.3,0-9.5,4.3-9.5,9.5
	l0,20.9C819.3,824.6,823.5,828.9,828.8,828.9z"/>
<path class="st1" d="M730.4,828.7l66.8,0.1c5.3,0,9.5-4.3,9.5-9.5l0-20.9c0-5.3-4.3-9.5-9.5-9.5l-66.8-0.1c-5.3,0-9.5,4.3-9.5,9.5
	l0,20.9C720.9,824.4,725.1,828.7,730.4,828.7z"/>
<path class="st0" d="M633.1,828.5l66.8,0.1c5.3,0,9.5-4.3,9.5-9.5l0-20.9c0-5.3-4.3-9.5-9.5-9.5l-66.8-0.1c-5.3,0-9.5,4.3-9.5,9.5
	l0,20.9C623.6,824.3,627.8,828.5,633.1,828.5z"/>
<path class="st2" d="M534.4,828.1l66.8,0.5c5.3,0,9.6-4.2,9.6-9.5l0.1-20.9c0-5.3-4.2-9.6-9.5-9.6l-66.8-0.5c-5.3,0-9.6,4.2-9.6,9.5
	l-0.1,20.9C525,823.7,529.1,828,534.4,828.1z"/>
<path class="st2" d="M437.1,827.9l66.8,0.5c5.3,0,9.6-4.2,9.6-9.5l0.1-20.9c0-5.3-4.2-9.6-9.5-9.6l-66.8-0.5c-5.3,0-9.6,4.2-9.6,9.5
	l-0.1,20.9C427.6,823.5,431.8,827.8,437.1,827.9z"/>
<path class="st0" d="M341.7,827.9l66.8,0.1c5.3,0,9.5-4.3,9.5-9.5l0-20.9c0-5.3-4.3-9.5-9.5-9.5l-66.8-0.1c-5.3,0-9.5,4.3-9.5,9.5
	l0,20.9C332.2,823.6,336.4,827.9,341.7,827.9z"/>
<path class="st0" d="M1547.9,785.5l66.8,0.1c5.3,0,9.5-4.3,9.5-9.5l0-20.9c0-5.3-4.3-9.5-9.5-9.5l-66.8-0.1c-5.3,0-9.5,4.3-9.5,9.5
	l0,20.9C1538.4,781.3,1542.6,785.5,1547.9,785.5z"/>
<path class="st2" d="M1449.3,785.1l66.8,0.5c5.3,0,9.6-4.2,9.6-9.5l0.1-20.9c0-5.3-4.2-9.6-9.5-9.6l-66.8-0.5
	c-5.3,0-9.6,4.2-9.6,9.5l-0.1,20.9C1439.8,780.7,1444,785,1449.3,785.1z"/>
<path class="st2" d="M1352,784.9l66.8,0.5c5.3,0,9.6-4.2,9.6-9.5l0.1-20.9c0-5.3-4.2-9.6-9.5-9.6l-66.8-0.5c-5.3,0-9.6,4.2-9.6,9.5
	l-0.1,20.9C1342.5,780.5,1346.7,784.8,1352,784.9z"/>
<path class="st0" d="M1256.5,784.9l66.8,0.1c5.3,0,9.5-4.3,9.5-9.5l0-20.9c0-5.3-4.3-9.5-9.5-9.5l-66.8-0.1c-5.3,0-9.5,4.3-9.5,9.5
	l0,20.9C1247,780.7,1251.2,784.9,1256.5,784.9z"/>
<path class="st1" d="M1158.9,784.7l66.8,0.1c5.3,0,9.5-4.3,9.5-9.5l0-20.9c0-5.3-4.3-9.5-9.5-9.5l-66.8-0.1c-5.3,0-9.5,4.3-9.5,9.5
	l0,20.9C1149.4,780.4,1153.6,784.7,1158.9,784.7z"/>
<path class="st0" d="M1061.5,784.6l66.8,0.1c5.3,0,9.5-4.3,9.5-9.5l0-20.9c0-5.3-4.3-9.5-9.5-9.5l-66.8-0.1c-5.3,0-9.5,4.3-9.5,9.5
	l0,20.9C1052,780.3,1056.2,784.5,1061.5,784.6z"/>
<path class="st2" d="M962.9,784.1l66.8,0.5c5.3,0,9.6-4.2,9.6-9.5l0.1-20.9c0-5.3-4.2-9.6-9.5-9.6l-66.8-0.5c-5.3,0-9.6,4.2-9.6,9.5
	l-0.1,20.9C953.4,779.7,957.6,784,962.9,784.1z"/>
<path class="st2" d="M865.6,784l66.8,0.5c5.3,0,9.6-4.2,9.6-9.5l0.1-20.9c0-5.3-4.2-9.6-9.5-9.6l-66.8-0.5c-5.3,0-9.6,4.2-9.6,9.5
	l-0.1,20.9C856.1,779.5,860.3,783.9,865.6,784z"/>
<path class="st0" d="M770.2,783.9L837,784c5.3,0,9.5-4.3,9.5-9.5l0-20.9c0-5.3-4.3-9.5-9.5-9.5l-66.8-0.1c-5.3,0-9.5,4.3-9.5,9.5
	l0,20.9C760.7,779.7,764.9,783.9,770.2,783.9z"/>
<path class="st1" d="M676.3,783.7l66.8,0.1c5.3,0,9.5-4,9.5-8.8l0-19.5c0-4.9-4.3-8.9-9.5-8.9l-66.8-0.1c-5.3,0-9.5,4-9.5,8.8
	l0,19.5C666.8,779.7,671,783.7,676.3,783.7z"/>
<path class="st0" d="M579,783.6l66.8,0.1c5.3,0,9.5-4,9.5-8.8l0-19.5c0-4.9-4.3-8.9-9.5-8.9l-66.8-0.1c-5.3,0-9.5,4-9.5,8.8l0,19.5
	C569.5,779.6,573.7,783.6,579,783.6z"/>
<path class="st2" d="M480.3,783.1l66.8,0.5c5.3,0,9.6-3.9,9.6-8.8l0.1-19.5c0-4.9-4.2-9-9.5-9l-66.8-0.5c-5.3,0-9.6,3.9-9.6,8.8
	l-0.1,19.5C470.8,779,475,783,480.3,783.1z"/>
<path class="st2" d="M383,783l66.8,0.5c5.3,0,9.6-3.9,9.6-8.8l0.1-19.5c0-4.9-4.2-9-9.5-9l-66.8-0.5c-5.3,0-9.6,3.9-9.6,8.8
	l-0.1,19.5C373.5,778.9,377.7,782.9,383,783z"/>
<path class="st1" d="M1376.5,741.6l66.8,0.1c5.3,0,9.5-4.3,9.5-9.5l0-20.9c0-5.3-4.3-9.5-9.5-9.5l-66.8-0.1c-5.3,0-9.5,4.3-9.5,9.5
	l0,20.9C1367,737.3,1371.2,741.6,1376.5,741.6z"/>
<path class="st0" d="M1470.3,741.8l66.8,0.1c5.3,0,9.5-4.3,9.5-9.5l0-20.9c0-5.3-4.3-9.5-9.5-9.5l-66.8-0.1c-5.3,0-9.5,4.3-9.5,9.5
	l0,20.9C1460.8,737.6,1465,741.8,1470.3,741.8z"/>
<path class="st1" d="M1284.3,741.4l66.8,0.1c5.3,0,9.5-4.3,9.5-9.5l0-20.9c0-5.3-4.3-9.5-9.5-9.5l-66.8-0.1c-5.3,0-9.5,4.3-9.5,9.5
	l0,20.9C1274.9,737.1,1279,741.4,1284.3,741.4z"/>
<path class="st1" d="M1193,741.2l66.8,0.1c5.3,0,9.5-4.3,9.5-9.5l0-20.9c0-5.3-4.3-9.5-9.5-9.5l-66.8-0.1c-5.3,0-9.5,4.3-9.5,9.5
	l0,20.9C1183.5,736.8,1187.7,741.2,1193,741.2z"/>
<path class="st1" d="M1100.8,741l66.8,0.1c5.3,0,9.5-4.3,9.5-9.5l0-20.9c0-5.3-4.3-9.5-9.5-9.5l-66.8-0.1c-5.3,0-9.5,4.3-9.5,9.5
	l0,20.9C1091.3,736.6,1095.5,741,1100.8,741z"/>
<path class="st1" d="M1008.5,740.8l66.8,0.1c5.3,0,9.5-4.3,9.5-9.5l0-20.9c0-5.3-4.3-9.5-9.5-9.5l-66.8-0.1c-5.3,0-9.5,4.3-9.5,9.5
	l0,20.9C999.1,736.5,1003.2,740.8,1008.5,740.8z"/>
<path class="st1" d="M916.4,740.6l66.8,0.1c5.3,0,9.5-4.3,9.5-9.5l0-20.9c0-5.3-4.3-9.5-9.5-9.5l-66.8-0.1c-5.3,0-9.5,4.3-9.5,9.5
	l0,20.9C906.9,736.3,911.1,740.6,916.4,740.6z"/>
<path class="st1" d="M825,740.4l66.8,0.1c5.3,0,9.5-4.3,9.5-9.5l0-20.9c0-5.3-4.3-9.5-9.5-9.5l-66.8-0.1c-5.3,0-9.5,4.3-9.5,9.5
	l0,20.9C815.5,736.1,819.7,740.4,825,740.4z"/>
<path class="st1" d="M726.6,740.2l66.8,0.1c5.3,0,9.5-4.3,9.5-9.5l0-20.9c0-5.3-4.3-9.5-9.5-9.5l-66.8-0.1c-5.3,0-9.5,4.3-9.5,9.5
	l0,20.9C717.1,735.8,721.3,740.1,726.6,740.2z"/>
<path class="st0" d="M629.2,740l66.8,0.1c5.3,0,9.5-4.3,9.5-9.5l0-20.9c0-5.3-4.3-9.5-9.5-9.5l-66.8-0.1c-5.3,0-9.5,4.3-9.5,9.5
	l0,20.9C619.8,735.8,623.9,740,629.2,740z"/>
<path class="st2" d="M530.6,739.5l66.8,0.5c5.3,0,9.6-4.2,9.6-9.5l0.1-20.9c0-5.3-4.2-9.6-9.5-9.6l-66.8-0.5c-5.3,0-9.6,4.2-9.6,9.5
	l-0.1,20.9C521.1,735.1,525.3,739.4,530.6,739.5z"/>
<path class="st2" d="M433.3,739.4l66.8,0.5c5.3,0,9.6-4.2,9.6-9.5l0.1-20.9c0-5.3-4.2-9.6-9.5-9.6l-66.8-0.5c-5.3,0-9.6,4.2-9.6,9.5
	l-0.1,20.9C423.8,735,428,739.3,433.3,739.4z"/>
<path class="st0" d="M337.9,739.3l66.8,0.1c5.3,0,9.5-4.3,9.5-9.5l0-20.9c0-5.3-4.3-9.5-9.5-9.5l-66.8-0.1c-5.3,0-9.5,4.3-9.5,9.5
	l0,20.9C328.4,735.1,332.6,739.3,337.9,739.3z"/>
<path class="st1" d="M1323.7,697l66.8,0.1c5.3,0,9.5-4.3,9.5-9.5l0-20.9c0-5.3-4.3-9.5-9.5-9.5l-66.8-0.1c-5.3,0-9.5,4.3-9.5,9.5
	l0,20.9C1314.2,692.7,1318.4,697,1323.7,697z"/>
<path class="st0" d="M1417.4,697.2l66.8,0.1c5.3,0,9.5-4.3,9.5-9.5l0-20.9c0-5.3-4.3-9.5-9.5-9.5l-66.8-0.1c-5.3,0-9.5,4.3-9.5,9.5
	l0,20.9C1407.9,693,1412.1,697.2,1417.4,697.2z"/>
<path class="st2" d="M1509.6,697.2l66.8,0.5c5.3,0,9.6-4.2,9.6-9.5l0.1-20.9c0-5.3-4.2-9.6-9.5-9.6l-66.8-0.5
	c-5.3,0-9.6,4.2-9.6,9.5l-0.1,20.9C1500.1,692.8,1504.3,697.1,1509.6,697.2z"/>
<path class="st1" d="M1231.5,696.8l66.8,0.1c5.3,0,9.5-4.3,9.5-9.5l0-20.9c0-5.3-4.3-9.5-9.5-9.5l-66.8-0.1c-5.3,0-9.5,4.3-9.5,9.5
	l0,20.9C1222,692.5,1226.2,696.8,1231.5,696.8z"/>
<path class="st1" d="M1140.1,696.6l66.8,0.1c5.3,0,9.5-4.3,9.5-9.5l0-20.9c0-5.3-4.3-9.5-9.5-9.5l-66.8-0.1c-5.3,0-9.5,4.3-9.5,9.5
	l0,20.9C1130.6,692.2,1134.8,696.5,1140.1,696.6z"/>
<path class="st1" d="M1047.9,696.3l66.8,0.1c5.3,0,9.5-4.3,9.5-9.5l0-20.9c0-5.3-4.3-9.5-9.5-9.5l-66.8-0.1c-5.3,0-9.5,4.3-9.5,9.5
	l0,20.9C1038.4,692,1042.6,696.3,1047.9,696.3z"/>
<path class="st1" d="M955.7,696.2l66.8,0.1c5.3,0,9.5-4.3,9.5-9.5l0-20.9c0-5.3-4.3-9.5-9.5-9.5l-66.8-0.1c-5.3,0-9.5,4.3-9.5,9.5
	l0,20.9C946.2,691.9,950.4,696.2,955.7,696.2z"/>
<path class="st1" d="M863.5,696l66.8,0.1c5.3,0,9.5-4.3,9.5-9.5l0-20.9c0-5.3-4.3-9.5-9.5-9.5l-66.8-0.1c-5.3,0-9.5,4.3-9.5,9.5
	l0,20.9C854,691.7,858.2,696,863.5,696z"/>
<path class="st1" d="M772.1,695.8l66.8,0.1c5.3,0,9.5-4.3,9.5-9.5l0-20.9c0-5.3-4.3-9.5-9.5-9.5l-66.8-0.1c-5.3,0-9.5,4.3-9.5,9.5
	l0,20.9C762.6,691.4,766.8,695.7,772.1,695.8z"/>
<path class="st1" d="M673.8,695.5l66.8,0.1c5.3,0,9.5-4.3,9.5-9.5l0-20.9c0-5.3-4.3-9.5-9.5-9.5l-66.8-0.1c-5.3,0-9.5,4.3-9.5,9.5
	l0,20.9C664.3,691.2,668.5,695.5,673.8,695.5z"/>
<path class="st0" d="M576.4,695.4l66.8,0.1c5.3,0,9.5-4.3,9.5-9.5l0-20.9c0-5.3-4.3-9.5-9.5-9.5l-66.8-0.1c-5.3,0-9.5,4.3-9.5,9.5
	l0,20.9C566.9,691.1,571.1,695.4,576.4,695.4z"/>
<path class="st2" d="M477.8,694.9l66.8,0.5c5.3,0,9.6-4.2,9.6-9.5l0.1-20.9c0-5.3-4.2-9.6-9.5-9.6l-66.8-0.5c-5.3,0-9.6,4.2-9.6,9.5
	l-0.1,20.9C468.3,690.5,472.5,694.8,477.8,694.9z"/>
<path class="st2" d="M380.5,694.8l66.8,0.5c5.3,0,9.6-4.2,9.6-9.5L457,665c0-5.3-4.2-9.6-9.5-9.6l-66.8-0.5c-5.3,0-9.6,4.2-9.6,9.5
	l-0.1,20.9C371,690.4,375.2,694.7,380.5,694.8z"/>
<path class="st1" d="M1383.1,647.6l66.8,0.1c5.3,0,9.5-4.3,9.5-9.5l0-20.9c0-5.3-4.3-9.5-9.5-9.5l-66.8-0.1c-5.3,0-9.5,4.3-9.5,9.5
	l0,20.9C1373.7,643.2,1377.8,647.5,1383.1,647.6z"/>
<path class="st0" d="M1476.9,647.8l66.8,0.1c5.3,0,9.5-4.3,9.5-9.5l0-20.9c0-5.3-4.3-9.5-9.5-9.5l-66.8-0.1c-5.3,0-9.5,4.3-9.5,9.5
	l0,20.9C1467.4,643.5,1471.6,647.8,1476.9,647.8z"/>
<path class="st1" d="M1291,647.3l66.8,0.1c5.3,0,9.5-4.3,9.5-9.5l0-20.9c0-5.3-4.3-9.5-9.5-9.5l-66.8-0.1c-5.3,0-9.5,4.3-9.5,9.5
	l0,20.9C1281.5,643,1285.7,647.3,1291,647.3z"/>
<path class="st1" d="M1199.6,647.1l66.8,0.1c5.3,0,9.5-4.3,9.5-9.5l0-20.9c0-5.3-4.3-9.5-9.5-9.5l-66.8-0.1c-5.3,0-9.5,4.3-9.5,9.5
	l0,20.9C1190.1,642.8,1194.3,647.1,1199.6,647.1z"/>
<path class="st1" d="M1107.4,646.9l66.8,0.1c5.3,0,9.5-4.3,9.5-9.5l0-20.9c0-5.3-4.3-9.5-9.5-9.5l-66.8-0.1c-5.3,0-9.5,4.3-9.5,9.5
	l0,20.9C1097.9,642.6,1102.1,646.9,1107.4,646.9z"/>
<path class="st1" d="M1015.2,646.8l66.8,0.1c5.3,0,9.5-4.3,9.5-9.5l0-20.9c0-5.3-4.3-9.5-9.5-9.5l-66.8-0.1c-5.3,0-9.5,4.3-9.5,9.5
	l0,20.9C1005.7,642.4,1009.9,646.7,1015.2,646.8z"/>
<path class="st1" d="M923,646.5l66.8,0.1c5.3,0,9.5-4.3,9.5-9.5l0-20.9c0-5.3-4.3-9.5-9.5-9.5l-66.8-0.1c-5.3,0-9.5,4.3-9.5,9.5
	l0,20.9C913.5,642.2,917.7,646.5,923,646.5z"/>
<path class="st1" d="M831.6,646.3l66.8,0.1c5.3,0,9.5-4.3,9.5-9.5l0-20.9c0-5.3-4.3-9.5-9.5-9.5l-66.8-0.1c-5.3,0-9.5,4.3-9.5,9.5
	l0,20.9C822.1,642,826.3,646.3,831.6,646.3z"/>
<path class="st1" d="M733.2,646.1l66.8,0.1c5.3,0,9.5-4.3,9.5-9.5l0-20.9c0-5.3-4.3-9.5-9.5-9.5l-66.8-0.1c-5.3,0-9.5,4.3-9.5,9.5
	l0,20.9C723.7,641.8,727.9,646.1,733.2,646.1z"/>
<path class="st0" d="M635.9,645.9l66.8,0.1c5.3,0,9.5-4.3,9.5-9.5l0-20.9c0-5.3-4.3-9.5-9.5-9.5l-66.8-0.1c-5.3,0-9.5,4.3-9.5,9.5
	l0,20.9C626.4,641.7,630.6,645.9,635.9,645.9z"/>
<path class="st2" d="M537.2,645.5L604,646c5.3,0,9.6-4.2,9.6-9.5l0.1-20.9c0-5.3-4.2-9.6-9.5-9.6l-66.8-0.5c-5.3,0-9.6,4.2-9.6,9.5
	l-0.1,20.9C527.8,641,531.9,645.3,537.2,645.5z"/>
<path class="st2" d="M439.9,645.3l66.8,0.5c5.3,0,9.6-4.2,9.6-9.5l0.1-20.9c0-5.3-4.2-9.6-9.5-9.6l-66.8-0.5c-5.3,0-9.6,4.2-9.6,9.5
	l-0.1,20.9C430.4,640.9,434.6,645.2,439.9,645.3z"/>
<path class="st0" d="M344.2,648.8l66.8,1.1c5.3,0.1,9.6-4.1,9.7-9.3l0.3-20.9c0.1-5.3-4.1-9.6-9.3-9.7l-66.8-1.1
	c-5.3-0.1-9.6,4.1-9.7,9.3l-0.3,20.9C334.8,644.4,338.9,648.7,344.2,648.8z"/>
<path class="st0" d="M1550.7,602.9l66.8,0.1c5.3,0,9.5-4.3,9.5-9.5l0-20.9c0-5.3-4.3-9.5-9.5-9.5l-66.8-0.1c-5.3,0-9.5,4.3-9.5,9.5
	l0,20.9C1541.2,598.7,1545.4,602.9,1550.7,602.9z"/>
<path class="st2" d="M1452.1,602.5l66.8,0.5c5.3,0,9.6-4.2,9.6-9.5l0.1-20.9c0-5.3-4.2-9.6-9.5-9.6l-66.8-0.5
	c-5.3,0-9.6,4.2-9.6,9.5l-0.1,20.9C1442.6,598.1,1446.8,602.4,1452.1,602.5z"/>
<path class="st2" d="M1354.8,602.3l66.8,0.5c5.3,0,9.6-4.2,9.6-9.5l0.1-20.9c0-5.3-4.2-9.6-9.5-9.6l-66.8-0.5
	c-5.3,0-9.6,4.2-9.6,9.5l-0.1,20.9C1345.3,597.9,1349.5,602.2,1354.8,602.3z"/>
<path class="st0" d="M1259.3,602.3l66.8,0.1c5.3,0,9.5-4.3,9.5-9.5l0-20.9c0-5.3-4.3-9.5-9.5-9.5l-66.8-0.1c-5.3,0-9.5,4.3-9.5,9.5
	l0,20.9C1249.8,598.1,1254,602.3,1259.3,602.3z"/>
<path class="st1" d="M1161.7,602.1l66.8,0.1c5.3,0,9.5-4.3,9.5-9.5l0-20.9c0-5.3-4.3-9.5-9.5-9.5l-66.8-0.1c-5.3,0-9.5,4.3-9.5,9.5
	l0,20.9C1152.2,597.8,1156.4,602.1,1161.7,602.1z"/>
<path class="st0" d="M1064.3,601.9l66.8,0.1c5.3,0,9.5-4.3,9.5-9.5l0-20.9c0-5.3-4.3-9.5-9.5-9.5l-66.8-0.1c-5.3,0-9.5,4.3-9.5,9.5
	l0,20.9C1054.8,597.7,1059,601.9,1064.3,601.9z"/>
<path class="st2" d="M965.7,601.5l66.8,0.5c5.3,0,9.6-4.2,9.6-9.5l0.1-20.9c0-5.3-4.2-9.6-9.5-9.6l-66.8-0.5c-5.3,0-9.6,4.2-9.6,9.5
	l-0.1,20.9C956.2,597.1,960.4,601.4,965.7,601.5z"/>
<path class="st2" d="M868.4,601.4l66.8,0.5c5.3,0,9.6-4.2,9.6-9.5l0.1-20.9c0-5.3-4.2-9.6-9.5-9.6l-66.8-0.5c-5.3,0-9.6,4.2-9.6,9.5
	l-0.1,20.9C858.9,596.9,863.1,601.2,868.4,601.4z"/>
<path class="st0" d="M773,601.3l66.8,0.1c5.3,0,9.5-4.3,9.5-9.5l0-20.9c0-5.3-4.3-9.5-9.5-9.5l-66.8-0.1c-5.3,0-9.5,4.3-9.5,9.5
	l0,20.9C763.5,597.1,767.7,601.3,773,601.3z"/>
<path class="st1" d="M679.1,601.1l66.8,0.1c5.3,0,9.5-4,9.5-8.8l0-19.5c0-4.9-4.3-8.9-9.5-8.9l-66.8-0.1c-5.3,0-9.5,4-9.5,8.8
	l0,19.5C669.6,597.1,673.8,601.1,679.1,601.1z"/>
<path class="st0" d="M581.8,601l66.8,0.1c5.3,0,9.5-4,9.5-8.8l0-19.5c0-4.9-4.3-8.9-9.5-8.9l-66.8-0.1c-5.3,0-9.5,4-9.5,8.8l0,19.5
	C572.3,597,576.5,601,581.8,601z"/>
<path class="st2" d="M483.1,600.5l66.8,0.5c5.3,0,9.6-3.9,9.6-8.8l0.1-19.5c0-4.9-4.2-9-9.5-9l-66.8-0.5c-5.3,0-9.6,3.9-9.6,8.8
	l-0.1,19.5C473.6,596.4,477.8,600.4,483.1,600.5z"/>
<path class="st2" d="M385.8,600.4l66.8,0.5c5.3,0,9.6-3.9,9.6-8.8l0.1-19.5c0-4.9-4.2-9-9.5-9l-66.8-0.5c-5.3,0-9.6,3.9-9.6,8.8
	l-0.1,19.5C376.3,596.3,380.5,600.3,385.8,600.4z"/>
<path class="st1" d="M1379.3,559l66.8,0.1c5.3,0,9.5-4.3,9.5-9.5l0-20.9c0-5.3-4.3-9.5-9.5-9.5l-66.8-0.1c-5.3,0-9.5,4.3-9.5,9.5
	l0,20.9C1369.8,554.7,1374,559,1379.3,559z"/>
<path class="st0" d="M1473.1,559.2l66.8,0.1c5.3,0,9.5-4.3,9.5-9.5l0-20.9c0-5.3-4.3-9.5-9.5-9.5l-66.8-0.1c-5.3,0-9.5,4.3-9.5,9.5
	l0,20.9C1463.6,555,1467.8,559.2,1473.1,559.2z"/>
<path class="st1" d="M1287.1,558.8l66.8,0.1c5.3,0,9.5-4.3,9.5-9.5l0-20.9c0-5.3-4.3-9.5-9.5-9.5l-66.8-0.1c-5.3,0-9.5,4.3-9.5,9.5
	l0,20.9C1277.7,554.5,1281.8,558.8,1287.1,558.8z"/>
<path class="st1" d="M1195.8,558.6l66.8,0.1c5.3,0,9.5-4.3,9.5-9.5l0-20.9c0-5.3-4.3-9.5-9.5-9.5l-66.8-0.1c-5.3,0-9.5,4.3-9.5,9.5
	l0,20.9C1186.3,554.2,1190.5,558.5,1195.8,558.6z"/>
<path class="st1" d="M1103.6,558.4l66.8,0.1c5.3,0,9.5-4.3,9.5-9.5l0-20.9c0-5.3-4.3-9.5-9.5-9.5l-66.8-0.1c-5.3,0-9.5,4.3-9.5,9.5
	l0,20.9C1094.1,554,1098.3,558.3,1103.6,558.4z"/>
<path class="st1" d="M1011.3,558.2l66.8,0.1c5.3,0,9.5-4.3,9.5-9.5l0-20.9c0-5.3-4.3-9.5-9.5-9.5l-66.8-0.1c-5.3,0-9.5,4.3-9.5,9.5
	l0,20.9C1001.9,553.9,1006,558.2,1011.3,558.2z"/>
<path class="st1" d="M919.2,558l66.8,0.1c5.3,0,9.5-4.3,9.5-9.5l0-20.9c0-5.3-4.3-9.5-9.5-9.5l-66.8-0.1c-5.3,0-9.5,4.3-9.5,9.5
	l0,20.9C909.7,553.7,913.9,558,919.2,558z"/>
<path class="st1" d="M827.8,557.8l66.8,0.1c5.3,0,9.5-4.3,9.5-9.5l0-20.9c0-5.3-4.3-9.5-9.5-9.5l-66.8-0.1c-5.3,0-9.5,4.3-9.5,9.5
	l0,20.9C818.3,553.4,822.5,557.7,827.8,557.8z"/>
<path class="st1" d="M729.4,557.5l66.8,0.1c5.3,0,9.5-4.3,9.5-9.5l0-20.9c0-5.3-4.3-9.5-9.5-9.5l-66.8-0.1c-5.3,0-9.5,4.3-9.5,9.5
	l0,20.9C719.9,553.2,724.1,557.5,729.4,557.5z"/>
<path class="st0" d="M632,557.4l66.8,0.1c5.3,0,9.5-4.3,9.5-9.5l0-20.9c0-5.3-4.3-9.5-9.5-9.5l-66.8-0.1c-5.3,0-9.5,4.3-9.5,9.5
	l0,20.9C622.6,553.2,626.7,557.4,632,557.4z"/>
<path class="st2" d="M533.4,556.9l66.8,0.5c5.3,0,9.6-4.2,9.6-9.5l0.1-20.9c0-5.3-4.2-9.6-9.5-9.6l-66.8-0.5c-5.3,0-9.6,4.2-9.6,9.5
	l-0.1,20.9C523.9,552.5,528.1,556.8,533.4,556.9z"/>
<path class="st2" d="M436.1,556.8l66.8,0.5c5.3,0,9.6-4.2,9.6-9.5l0.1-20.9c0-5.3-4.2-9.6-9.5-9.6l-66.8-0.5c-5.3,0-9.6,4.2-9.6,9.5
	l-0.1,20.9C426.6,552.4,430.8,556.7,436.1,556.8z"/>
<path class="st0" d="M340.7,556.7l66.8,0.1c5.3,0,9.5-4.3,9.5-9.5l0-20.9c0-5.3-4.3-9.5-9.5-9.5l-66.8-0.1c-5.3,0-9.5,4.3-9.5,9.5
	l0,20.9C331.2,552.5,335.4,556.7,340.7,556.7z"/>
<path class="st1" d="M1326.5,514.4l66.8,0.1c5.3,0,9.5-4.3,9.5-9.5l0-20.9c0-5.3-4.3-9.5-9.5-9.5l-66.8-0.1c-5.3,0-9.5,4.3-9.5,9.5
	l0,20.9C1317,510.1,1321.2,514.4,1326.5,514.4z"/>
<path class="st0" d="M1420.2,514.6l66.8,0.1c5.3,0,9.5-4.3,9.5-9.5l0-20.9c0-5.3-4.3-9.5-9.5-9.5l-66.8-0.1c-5.3,0-9.5,4.3-9.5,9.5
	l0,20.9C1410.7,510.4,1414.9,514.6,1420.2,514.6z"/>
<path class="st2" d="M1512.4,514.6l66.8,0.5c5.3,0,9.6-4.2,9.6-9.5l0.1-20.9c0-5.3-4.2-9.6-9.5-9.6l-66.8-0.5
	c-5.3,0-9.6,4.2-9.6,9.5l-0.1,20.9C1502.9,510.2,1507.1,514.5,1512.4,514.6z"/>
<path class="st1" d="M1234.3,514.2l66.8,0.1c5.3,0,9.5-4.3,9.5-9.5l0-20.9c0-5.3-4.3-9.5-9.5-9.5l-66.8-0.1c-5.3,0-9.5,4.3-9.5,9.5
	l0,20.9C1224.8,509.9,1229,514.2,1234.3,514.2z"/>
<path class="st1" d="M1142.9,513.9l66.8,0.1c5.3,0,9.5-4.3,9.5-9.5l0-20.9c0-5.3-4.3-9.5-9.5-9.5L1143,474c-5.3,0-9.5,4.3-9.5,9.5
	l0,20.9C1133.4,509.6,1137.6,513.9,1142.9,513.9z"/>
<path class="st1" d="M1050.7,513.7l66.8,0.1c5.3,0,9.5-4.3,9.5-9.5l0-20.9c0-5.3-4.3-9.5-9.5-9.5l-66.8-0.1c-5.3,0-9.5,4.3-9.5,9.5
	l0,20.9C1041.2,509.4,1045.4,513.7,1050.7,513.7z"/>
<path class="st1" d="M958.5,513.6l66.8,0.1c5.3,0,9.5-4.3,9.5-9.5l0-20.9c0-5.3-4.3-9.5-9.5-9.5l-66.8-0.1c-5.3,0-9.5,4.3-9.5,9.5
	l0,20.9C949,509.3,953.2,513.6,958.5,513.6z"/>
<path class="st1" d="M866.3,513.4l66.8,0.1c5.3,0,9.5-4.3,9.5-9.5l0-20.9c0-5.3-4.3-9.5-9.5-9.5l-66.8-0.1c-5.3,0-9.5,4.3-9.5,9.5
	l0,20.9C856.8,509.1,861,513.4,866.3,513.4z"/>
<path class="st1" d="M774.9,513.1l66.8,0.1c5.3,0,9.5-4.3,9.5-9.5l0-20.9c0-5.3-4.3-9.5-9.5-9.5l-66.8-0.1c-5.3,0-9.5,4.3-9.5,9.5
	l0,20.9C765.4,508.8,769.6,513.1,774.9,513.1z"/>
<path class="st1" d="M676.6,512.9l66.8,0.1c5.3,0,9.5-4.3,9.5-9.5l0-20.9c0-5.3-4.3-9.5-9.5-9.5l-66.8-0.1c-5.3,0-9.5,4.3-9.5,9.5
	l0,20.9C667.1,508.6,671.3,512.9,676.6,512.9z"/>
<path class="st0" d="M579.2,512.8l66.8,0.1c5.3,0,9.5-4.3,9.5-9.5l0-20.9c0-5.3-4.3-9.5-9.5-9.5l-66.8-0.1c-5.3,0-9.5,4.3-9.5,9.5
	l0,20.9C569.7,508.5,573.9,512.7,579.2,512.8z"/>
<path class="st2" d="M480.6,512.3l66.8,0.5c5.3,0,9.6-4.2,9.6-9.5l0.1-20.9c0-5.3-4.2-9.6-9.5-9.6l-66.8-0.5c-5.3,0-9.6,4.2-9.6,9.5
	l-0.1,20.9C471.1,507.9,475.3,512.2,480.6,512.3z"/>
<path class="st2" d="M383.3,512.2l66.8,0.5c5.3,0,9.6-4.2,9.6-9.5l0.1-20.9c0-5.3-4.2-9.6-9.5-9.6l-66.8-0.5c-5.3,0-9.6,4.2-9.6,9.5
	l-0.1,20.9C373.8,507.7,378,512.1,383.3,512.2z"/>
<path class="st1" d="M1289.3,465.1l66.8,0.1c5.3,0,9.5-4.3,9.5-9.5l0-20.9c0-5.3-4.3-9.5-9.5-9.5l-66.8-0.1c-5.3,0-9.5,4.3-9.5,9.5
	l0,20.9C1279.8,460.7,1284,465.1,1289.3,465.1z"/>
<path class="st0" d="M1383.1,465.3l66.8,0.1c5.3,0,9.5-4.3,9.5-9.5l0-20.9c0-5.3-4.3-9.5-9.5-9.5l-66.8-0.1c-5.3,0-9.5,4.3-9.5,9.5
	l0,20.9C1373.6,461.1,1377.8,465.3,1383.1,465.3z"/>
<path class="st2" d="M1475.3,465.3l66.8,0.5c5.3,0,9.6-4.2,9.6-9.5l0.1-20.9c0-5.3-4.2-9.6-9.5-9.6l-66.8-0.5
	c-5.3,0-9.6,4.2-9.6,9.5l-0.1,20.9C1465.8,460.9,1470,465.2,1475.3,465.3z"/>
<path class="st1" d="M1197.1,464.9l66.8,0.1c5.3,0,9.5-4.3,9.5-9.5l0-20.9c0-5.3-4.3-9.5-9.5-9.5l-66.8-0.1c-5.3,0-9.5,4.3-9.5,9.5
	l0,20.9C1187.7,460.5,1191.8,464.8,1197.1,464.9z"/>
<path class="st1" d="M1105.8,464.6l66.8,0.1c5.3,0,9.5-4.3,9.5-9.5l0-20.9c0-5.3-4.3-9.5-9.5-9.5l-66.8-0.1c-5.3,0-9.5,4.3-9.5,9.5
	l0,20.9C1096.3,460.3,1100.5,464.6,1105.8,464.6z"/>
<path class="st1" d="M1013.6,464.4l66.8,0.1c5.3,0,9.5-4.3,9.5-9.5l0-20.9c0-5.3-4.3-9.5-9.5-9.5l-66.8-0.1c-5.3,0-9.5,4.3-9.5,9.5
	l0,20.9C1004.1,460.1,1008.3,464.4,1013.6,464.4z"/>
<path class="st1" d="M921.3,464.3l66.8,0.1c5.3,0,9.5-4.3,9.5-9.5l0-20.9c0-5.3-4.3-9.5-9.5-9.5l-66.8-0.1c-5.3,0-9.5,4.3-9.5,9.5
	l0,20.9C911.9,459.9,916,464.3,921.3,464.3z"/>
<path class="st1" d="M829.2,464.1l66.8,0.1c5.3,0,9.5-4.3,9.5-9.5l0-20.9c0-5.3-4.3-9.5-9.5-9.5l-66.8-0.1c-5.3,0-9.5,4.3-9.5,9.5
	l0,20.9C819.7,459.7,823.9,464.1,829.2,464.1z"/>
<path class="st1" d="M737.8,463.8l66.8,0.1c5.3,0,9.5-4.3,9.5-9.5l0-20.9c0-5.3-4.3-9.5-9.5-9.5l-66.8-0.1c-5.3,0-9.5,4.3-9.5,9.5
	l0,20.9C728.3,459.5,732.5,463.8,737.8,463.8z"/>
<path class="st1" d="M639.4,463.6l66.8,0.1c5.3,0,9.5-4.3,9.5-9.5l0-20.9c0-5.3-4.3-9.5-9.5-9.5l-66.8-0.1c-5.3,0-9.5,4.3-9.5,9.5
	l0,20.9C629.9,459.3,634.1,463.6,639.4,463.6z"/>
<path class="st0" d="M542,463.4l66.8,0.1c5.3,0,9.5-4.3,9.5-9.5l0-20.9c0-5.3-4.3-9.5-9.5-9.5l-66.8-0.1c-5.3,0-9.5,4.3-9.5,9.5
	l0,20.9C532.6,459.2,536.7,463.4,542,463.4z"/>
<path class="st2" d="M443.4,463l66.8,0.5c5.3,0,9.6-4.2,9.6-9.5l0.1-20.9c0-5.3-4.2-9.6-9.5-9.6l-66.8-0.5c-5.3,0-9.6,4.2-9.6,9.5
	l-0.1,20.9C433.9,458.6,438.1,462.9,443.4,463z"/>
<path class="st2" d="M346.1,462.8l66.8,0.5c5.3,0,9.6-4.2,9.6-9.5l0.1-20.9c0-5.3-4.2-9.6-9.5-9.6l-66.8-0.5c-5.3,0-9.6,4.2-9.6,9.5
	l-0.1,20.9C336.6,458.4,340.8,462.7,346.1,462.8z"/>
<path class="st0" d="M287.3,603.1l66.8,0.1c5.3,0,9.5-4.3,9.5-9.5l0-20.9c0-5.3-4.3-9.5-9.5-9.5l-66.8-0.1c-5.3,0-9.5,4.3-9.5,9.5
	l0,20.9C277.8,598.9,282,603.1,287.3,603.1z"/>
<path class="st2" d="M289.2,694.4l66.8,0.5c5.3,0,9.6-4.2,9.6-9.5l0.1-20.9c0-5.3-4.2-9.6-9.5-9.6l-66.8-0.5c-5.3,0-9.6,4.2-9.6,9.5
	l-0.1,20.9C279.7,690,283.9,694.3,289.2,694.4z"/>
<path class="st2" d="M289.5,511.6l66.8,0.5c5.3,0,9.6-4.2,9.6-9.5l0.1-20.9c0-5.3-4.2-9.6-9.5-9.6l-66.8-0.5c-5.3,0-9.6,4.2-9.6,9.5
	L280,502C280,507.2,284.2,511.5,289.5,511.6z"/>
<path class="st1" d="M1378.2,924.8l66.8,0.1c5.3,0,9.5-4.3,9.5-9.5l0-20.9c0-5.3-4.3-9.5-9.5-9.5l-66.8-0.1c-5.3,0-9.5,4.3-9.5,9.5
	l0,20.9C1368.7,920.5,1372.9,924.8,1378.2,924.8z"/>
<path class="st0" d="M1471.9,925.1l66.8,0.1c5.3,0,9.5-4.3,9.5-9.5l0-20.9c0-5.3-4.3-9.5-9.5-9.5l-66.8-0.1c-5.3,0-9.5,4.3-9.5,9.5
	l0,20.9C1462.4,920.8,1466.6,925,1471.9,925.1z"/>
<path class="st1" d="M1286,924.6l66.8,0.1c5.3,0,9.5-4.3,9.5-9.5l0-20.9c0-5.3-4.3-9.5-9.5-9.5l-66.8-0.1c-5.3,0-9.5,4.3-9.5,9.5
	l0,20.9C1276.5,920.3,1280.7,924.6,1286,924.6z"/>
<path class="st1" d="M1194.6,924.4l66.8,0.1c5.3,0,9.5-4.3,9.5-9.5l0-20.9c0-5.3-4.3-9.5-9.5-9.5l-66.8-0.1c-5.3,0-9.5,4.3-9.5,9.5
	l0,20.9C1185.1,920.1,1189.3,924.4,1194.6,924.4z"/>
<path class="st1" d="M1102.4,924.2l66.8,0.1c5.3,0,9.5-4.3,9.5-9.5l0-20.9c0-5.3-4.3-9.5-9.5-9.5l-66.8-0.1c-5.3,0-9.5,4.3-9.5,9.5
	l0,20.9C1092.9,919.9,1097.1,924.2,1102.4,924.2z"/>
<path class="st1" d="M1010.2,924l66.8,0.1c5.3,0,9.5-4.3,9.5-9.5l0-20.9c0-5.3-4.3-9.5-9.5-9.5l-66.8-0.1c-5.3,0-9.5,4.3-9.5,9.5
	l0,20.9C1000.7,919.7,1004.9,924,1010.2,924z"/>
<path class="st1" d="M918,923.8l66.8,0.1c5.3,0,9.5-4.3,9.5-9.5l0-20.9c0-5.3-4.3-9.5-9.5-9.5l-66.8-0.1c-5.3,0-9.5,4.3-9.5,9.5
	l0,20.9C908.5,919.5,912.7,923.8,918,923.8z"/>
<path class="st1" d="M826.6,923.6l66.8,0.1c5.3,0,9.5-4.3,9.5-9.5l0-20.9c0-5.3-4.3-9.5-9.5-9.5l-66.8-0.1c-5.3,0-9.5,4.3-9.5,9.5
	l0,20.9C817.1,919.3,821.3,923.6,826.6,923.6z"/>
<path class="st1" d="M728.2,923.4l66.8,0.1c5.3,0,9.5-4.3,9.5-9.5l0-20.9c0-5.3-4.3-9.5-9.5-9.5l-66.8-0.1c-5.3,0-9.5,4.3-9.5,9.5
	l0,20.9C718.8,919,722.9,923.4,728.2,923.4z"/>
<path class="st0" d="M630.9,923.2l66.8,0.1c5.3,0,9.5-4.3,9.5-9.5l0-20.9c0-5.3-4.3-9.5-9.5-9.5l-66.8-0.1c-5.3,0-9.5,4.3-9.5,9.5
	l0,20.9C621.4,919,625.6,923.2,630.9,923.2z"/>
<path class="st2" d="M532.3,922.8l66.8,0.5c5.3,0,9.6-4.2,9.6-9.5l0.1-20.9c0-5.3-4.2-9.6-9.5-9.6l-66.8-0.5c-5.3,0-9.6,4.2-9.6,9.5
	l-0.1,20.9C522.8,918.3,527,922.6,532.3,922.8z"/>
<path class="st2" d="M435,922.6l66.8,0.5c5.3,0,9.6-4.2,9.6-9.5l0.1-20.9c0-5.3-4.2-9.6-9.5-9.6l-66.8-0.5c-5.3,0-9.6,4.2-9.6,9.5
	l-0.1,20.9C425.5,918.2,429.7,922.5,435,922.6z"/>
<path class="st0" d="M339.5,922.5l66.8,0.1c5.3,0,9.5-4.3,9.5-9.5l0-20.9c0-5.3-4.3-9.5-9.5-9.5l-66.8-0.1c-5.3,0-9.5,4.3-9.5,9.5
	l0,20.9C330,918.3,334.2,922.5,339.5,922.5z"/>
<path class="st2" d="M1447.1,879.8l66.8,0.5c5.3,0,9.6-4.2,9.6-9.5l0.1-20.9c0-5.3-4.2-9.6-9.5-9.6l-66.8-0.5
	c-5.3,0-9.6,4.2-9.6,9.5l-0.1,20.9C1437.6,875.3,1441.8,879.7,1447.1,879.8z"/>
<path class="st2" d="M1349.8,879.6l66.8,0.5c5.3,0,9.6-4.2,9.6-9.5l0.1-20.9c0-5.3-4.2-9.6-9.5-9.6l-66.8-0.5
	c-5.3,0-9.6,4.2-9.6,9.5l-0.1,20.9C1340.3,875.2,1344.5,879.5,1349.8,879.6z"/>
<path class="st0" d="M1254.4,879.6l66.8,0.1c5.3,0,9.5-4.3,9.5-9.5l0-20.9c0-5.3-4.3-9.5-9.5-9.5l-66.8-0.1c-5.3,0-9.5,4.3-9.5,9.5
	l0,20.9C1244.9,875.3,1249.1,879.6,1254.4,879.6z"/>
<path class="st1" d="M1156.7,879.4l66.8,0.1c5.3,0,9.5-4.3,9.5-9.5l0-20.9c0-5.3-4.3-9.5-9.5-9.5l-66.8-0.1c-5.3,0-9.5,4.3-9.5,9.5
	l0,20.9C1147.2,875.1,1151.4,879.4,1156.7,879.4z"/>
<path class="st0" d="M1059.4,879.2l66.8,0.1c5.3,0,9.5-4.3,9.5-9.5l0-20.9c0-5.3-4.3-9.5-9.5-9.5l-66.8-0.1c-5.3,0-9.5,4.3-9.5,9.5
	l0,20.9C1049.9,875,1054.1,879.2,1059.4,879.2z"/>
<path class="st2" d="M960.8,878.8l66.8,0.5c5.3,0,9.6-4.2,9.6-9.5l0.1-20.9c0-5.3-4.2-9.6-9.5-9.6l-66.8-0.5c-5.3,0-9.6,4.2-9.6,9.5
	l-0.1,20.9C951.3,874.4,955.5,878.7,960.8,878.8z"/>
<path class="st2" d="M863.4,878.6l66.8,0.5c5.3,0,9.6-4.2,9.6-9.5l0.1-20.9c0-5.3-4.2-9.6-9.5-9.6l-66.8-0.5c-5.3,0-9.6,4.2-9.6,9.5
	l-0.1,20.9C853.9,874.2,858.1,878.5,863.4,878.6z"/>
<path class="st0" d="M768,878.6l66.8,0.1c5.3,0,9.5-4.3,9.5-9.5l0-20.9c0-5.3-4.3-9.5-9.5-9.5l-66.8-0.1c-5.3,0-9.5,4.3-9.5,9.5
	l0,20.9C758.5,874.4,762.7,878.6,768,878.6z"/>
<path class="st1" d="M674.1,878.4l66.8,0.1c5.3,0,9.5-4,9.5-8.8l0-19.5c0-4.9-4.3-8.9-9.5-8.9l-66.8-0.1c-5.3,0-9.5,4-9.5,8.8
	l0,19.5C664.6,874.4,668.8,878.4,674.1,878.4z"/>
<path class="st0" d="M576.8,878.3l66.8,0.1c5.3,0,9.5-4,9.5-8.8l0-19.5c0-4.9-4.3-8.9-9.5-8.9l-66.8-0.1c-5.3,0-9.5,4-9.5,8.8
	l0,19.5C567.3,874.3,571.5,878.2,576.8,878.3z"/>
<path class="st2" d="M478.2,877.8l66.8,0.5c5.3,0,9.6-3.9,9.6-8.8l0.1-19.5c0-4.9-4.2-9-9.5-9l-66.8-0.5c-5.3,0-9.6,3.9-9.6,8.8
	l-0.1,19.5C468.7,873.7,472.9,877.7,478.2,877.8z"/>
<path class="st2" d="M380.8,877.7l66.8,0.5c5.3,0,9.6-3.9,9.6-8.8l0.1-19.5c0-4.9-4.2-9-9.5-9l-66.8-0.5c-5.3,0-9.6,3.9-9.6,8.8
	l-0.1,19.5C371.4,873.6,375.5,877.6,380.8,877.7z"/>
<path class="st0" d="M290.9,784.6l66.8,0.1c5.3,0,9.5-4.3,9.5-9.5l0-20.9c0-5.3-4.3-9.5-9.5-9.5l-66.8-0.1c-5.3,0-9.5,4.3-9.5,9.5
	l0,20.9C281.4,780.4,285.6,784.6,290.9,784.6z"/>
<path class="st0" d="M282.5,876.2l66.8,0.1c5.3,0,9.5-4.3,9.5-9.5l0-20.9c0-5.3-4.3-9.5-9.5-9.5l-66.8-0.1c-5.3,0-9.5,4.3-9.5,9.5
	l0,20.9C273,871.9,277.2,876.2,282.5,876.2z"/>
<path class="st0" d="M1544.9,878.3l66.8,0.1c5.3,0,9.5-4.3,9.5-9.5l0-20.9c0-5.3-4.3-9.5-9.5-9.5l-66.8-0.1c-5.3,0-9.5,4.3-9.5,9.5
	l0,20.9C1535.4,874,1539.6,878.2,1544.9,878.3z"/>
</svg>
