<svg class="svgFour" id="svgFour" width="1440" viewBox="0 0 1440 1065" fill="none" xmlns="http://www.w3.org/2000/svg">
<rect y="731" width="1444" height="334" fill="#F1ECE7"/>
<path d="M1198 1064H250C250 1064 308.798 790.222 705.053 783.129C1101.31 776.036 1198 1064 1198 1064Z" fill="#D3B497"/>
<rect x="358" y="608" width="729" height="400" rx="20" fill="#9AC8C8"/>
<rect x="377" y="636" width="340" height="372" fill="#FCFAF4"/>
<rect x="721" y="636" width="340" height="372" fill="#FCFAF4"/>
<rect x="278" width="855" height="426" rx="50" fill="#898078"/>
<rect x="321" y="167" width="766" height="219" fill="#F1ECE7"/>
<rect x="322" y="40" width="765" height="127" fill="#CCBDB1"/>
<path d="M895.291 167L322 386H1087V167H895.291Z" fill="#E4E0DB"/>
<path d="M537.391 48.9509L527.008 59.5079L543.731 71.065L560.312 63.7126L556.668 51.0045L537.391 48.9509Z" fill="white"/>
<path d="M821.261 70.3006L814.339 77.3386L825.488 85.0433L836.541 80.1418L834.112 71.6697L821.261 70.3006Z" fill="white"/>
<path d="M536.554 61.0102L527.086 59.5659L543.695 71.1201L560.305 63.7383L559.101 59.5659L544.738 64.7011L536.554 61.0102Z" fill="#F3EEEE"/>
<path d="M820.703 78.3403L814.391 77.3774L825.464 85.0803L836.536 80.159L835.734 77.3774L826.159 80.8009L820.703 78.3403Z" fill="#F3EEEE"/>
<path d="M321.064 919.595C318.565 939.975 378.5 1064 378.5 1064H447L386 966.177C386 966.177 383.532 964.038 390.591 941.139C397.65 918.24 394.027 897.692 386 899.215C377.972 900.738 357.795 931.308 357.795 919.595V880C357.795 880 323.562 899.215 321.064 919.595Z" fill="#EFBC96"/>
<path d="M1118.94 919.595C1121.24 939.975 1071.5 1064 1071.5 1064H1003L1059.16 966.177C1059.16 966.177 1061.43 964.038 1054.93 941.139C1048.43 918.24 1051.77 897.692 1059.16 899.215C1066.55 900.738 1085.13 931.308 1085.13 919.595V880C1085.13 880 1116.64 899.215 1118.94 919.595Z" fill="#EFBC96"/>
<path d="M719 636V1009" stroke="#96918D" stroke-width="4"/>
<path d="M388.937 917.434C382.897 919.156 381.051 916.753 377 912.887C377 912.887 382.426 902.657 387.309 905.499C392.193 908.34 388.937 917.434 388.937 917.434Z" fill="#F09857"/>
<path d="M343 916.5C347.774 916.552 350.762 914.993 357.5 905L358.5 922C351.1 924.453 347.978 922.32 343 916.5Z" fill="#D3A481"/>
<path d="M1099 917.499C1094.07 917.55 1090.99 915.992 1084.03 906L1083 922.998C1090.64 925.451 1093.86 923.318 1099 917.499Z" fill="#D3A481"/>
<path d="M1066.3 911.492C1062.63 915.946 1060.02 915.204 1055.01 914.586C1055.01 914.586 1053.89 904.352 1059.01 903.791C1064.12 903.23 1066.3 911.492 1066.3 911.492Z" fill="#F09857"/>
<path d="M386 906.5C382.5 906 381 907.5 381 907.5L382.5 905.5C384.523 904.896 385 904 387.5 905C390 906 390.5 909 390.5 909L390 912C390 912 389.5 907 386 906.5Z" fill="#FFD5B7"/>
<path d="M1059.59 904.958C1062.94 905.025 1064.09 906.743 1064.09 906.743L1063.03 904.532C1061.24 903.613 1060.94 902.654 1058.44 903.24C1055.93 903.827 1054.96 906.704 1054.96 906.704L1054.92 909.741C1054.92 909.741 1056.23 904.892 1059.59 904.958Z" fill="#FFD5B7"/>
<rect x="408" y="961" width="38" height="22" rx="9" fill="#FCFAF4" stroke="#ACB5B5" stroke-width="2"/>
<rect x="995" y="966" width="38" height="22" rx="9" fill="#FCFAF4" stroke="#ACB5B5" stroke-width="2"/>
<path d="M425.328 972.855L428.434 973.979V975.302L424.215 973.515V972.577L425.328 972.855ZM428.434 971.938L425.323 973.08L424.215 973.344V972.406L428.434 970.619V971.938Z" fill="#96918D"/>
<path d="M1015.63 978.051L1012.5 976.933V975.619L1016.75 977.406V978.349L1015.63 978.051ZM1012.5 978.988L1015.63 977.846L1016.75 977.577V978.515L1012.5 980.302V978.988Z" fill="#96918D"/>
<rect x="409" y="661" width="279" height="282" fill="#FCFAF4"/>
<rect x="746" y="661" width="279" height="282" fill="#FCFAF4"/>
</svg>
