<svg width="1440" height="839" viewBox="0 0 1440 839" fill="none" xmlns="http://www.w3.org/2000/svg">
<rect y="535.003" width="1440" height="304" fill="#F1ECE7"/>
<rect x="535.713" y="343.161" width="515.854" height="306.601" fill="#D3C6BC"/>
<path d="M758.325 425.045C754.345 423.975 753.19 422.596 753.154 418.677C758.139 419.669 759.228 421.086 758.325 425.045Z" fill="#79D2BD"/>
<path d="M760.145 512.386C756.165 511.316 755.01 509.937 754.974 506.018C759.959 507.01 761.047 508.426 760.145 512.386Z" fill="#79D2BD"/>
<path d="M1440.05 803.521L1132.54 731.192L1037.92 643.852L1440.05 666.596V803.521Z" fill="#E4E0DB"/>
<path d="M759.689 424.815C759.589 421.376 760.459 420.063 763.747 418.879C764.165 423.084 763.248 424.356 759.689 424.815Z" fill="#79D2BD"/>
<path d="M761.509 512.156C761.409 508.717 762.279 507.404 765.566 506.22C765.985 510.425 765.067 511.697 761.509 512.156Z" fill="#79D2BD"/>
<path d="M763.492 431.015L763.652 430.372C764.328 427.666 762.281 425.045 759.491 425.045C756.722 425.045 754.678 427.631 755.319 430.326L755.472 430.97C755.914 432.83 757.575 434.143 759.487 434.143C761.382 434.143 763.033 432.853 763.492 431.015Z" fill="#E7E7E7"/>
<path d="M765.312 518.356L765.472 517.713C766.147 515.007 764.1 512.386 761.311 512.386C758.541 512.386 756.498 514.972 757.138 517.666L757.291 518.311C757.733 520.171 759.395 521.484 761.307 521.484C763.202 521.484 764.853 520.194 765.312 518.356Z" fill="#E7E7E7"/>
<path d="M1038.83 646.498L1133.45 731.644V270.377L1038.83 334.039V646.498Z" fill="#BFB4AC"/>
<path d="M536.492 645.216L443.823 728.581L1133.45 731.647L1039.1 645.216H536.492Z" fill="#E6DBD1"/>
<ellipse cx="779.51" cy="700.497" rx="37.673" ry="5.8208" transform="rotate(10.1673 779.51 700.497)" fill="#C4C4C4" fill-opacity="0.5"/>
<ellipse cx="753.609" cy="680.698" rx="45.9447" ry="14.5567" fill="#D5CFCA"/>
<ellipse cx="756.338" cy="694.345" rx="14.1018" ry="6.36857" fill="#BF9F82"/>
<path d="M710.392 610.951L709.632 637.343C709.551 640.16 711.812 642.487 714.63 642.487H736.667C739.641 642.487 741.958 639.907 741.639 636.95L738.788 610.558C738.514 608.019 736.371 606.095 733.817 606.095H715.39C712.685 606.095 710.47 608.247 710.392 610.951Z" fill="#A58B74"/>
<path d="M714.943 647.036H711.303L709.484 683.428H711.303L714.943 647.036Z" fill="#A58B74"/>
<path d="M729.499 647.036H726.052L724.041 683.428H726.052L729.499 647.036Z" fill="#A58B74"/>
<path d="M752.131 647.036H750.425L752.131 683.428H753.154L752.131 647.036Z" fill="#A58B74"/>
<rect x="707.664" y="642.487" width="45.4898" height="4.54898" rx="2.27449" fill="#BCA48F"/>
<path d="M755.884 676.133C757.161 664.091 758.39 657.68 762.058 647.227L763.937 645.216L772.26 652.506L762.058 677.893C759.726 678.19 758.36 677.622 755.884 676.133Z" fill="#27395F"/>
<path d="M759.075 690.242C755.567 688.514 754.211 686.325 752.08 681.844C749.844 683.014 750.312 684.36 753.706 687.789C756.144 691.226 757.569 692.626 760.311 693.384L759.075 690.242Z" fill="#304886"/>
<path d="M761.342 677.426L756.633 676.149C755.109 680.362 753.847 681.209 751.334 681.768C754.673 687.429 756.652 689.534 760.459 690.706C758.593 688.418 758.032 686.499 761.342 677.426Z" fill="#F4B485"/>
<ellipse cx="757.248" cy="688.886" rx="8.64306" ry="3.63918" fill="#A58B74"/>
<path d="M789.023 661.593L784.997 662.804C786.209 664.89 786.635 666.076 786.255 668.253C790.378 669.103 792.691 669.385 796.824 667.042C794.183 666.589 792.492 665.441 789.023 661.593Z" fill="#F4B485"/>
<path d="M755.884 647.036H758.613V688.887H755.884V647.036Z" fill="#BF9F82"/>
<path d="M766.892 624.15L726.114 623.381C723.299 634.192 723.4 638.222 726.114 642.338H746.251L761.042 637.215C761.042 637.215 763.811 643.107 765.07 645.669C766.328 648.23 784.26 663.345 784.26 663.345C786.391 663.518 787.563 663.419 789.546 662.32C781.752 646.531 776.75 638.21 766.892 624.15Z" fill="#304886"/>
<path d="M535.713 334.717L442.004 273.107V729.825L535.713 646.785V334.717Z" fill="#BBB0A7"/>
<ellipse cx="757.248" cy="644.306" rx="8.64306" ry="4.54898" fill="#A58B74"/>
<path d="M513.876 404.182L472.919 383.32C466.266 379.931 458.38 384.764 458.38 392.23V587.096C458.38 595.145 467.405 599.896 474.04 595.34L514.997 567.221C517.713 565.356 519.337 562.272 519.337 558.977V413.093C519.337 409.332 517.227 405.889 513.876 404.182Z" fill="#898078"/>
<path d="M1063.14 421.652L1100.46 401.276C1107.12 397.638 1115.25 402.461 1115.25 410.053V605.422C1115.25 613.621 1105.93 618.336 1099.33 613.476L1062.01 586.014C1059.45 584.129 1057.94 581.139 1057.94 577.959V430.429C1057.94 426.771 1059.93 423.405 1063.14 421.652Z" fill="#898078"/>
<path d="M512.058 413.873L468.388 394.109V589.716L512.058 560.324V413.873Z" fill="#CCBDB1"/>
<path d="M1065.21 430.249L1106.16 410.486V606.092L1065.21 576.7V430.249Z" fill="#CCBDB1"/>
<ellipse cx="757.248" cy="688.431" rx="1.36469" ry="0.454898" fill="#BF9F82"/>
<ellipse cx="756.338" cy="638.848" rx="14.1018" ry="6.36857" fill="#BF9F82"/>
<ellipse cx="756.793" cy="630.66" rx="40.031" ry="10.0078" fill="#F0E3D7"/>
<ellipse cx="756.793" cy="627.93" rx="40.031" ry="10.0078" fill="#D3B497"/>
<ellipse cx="772.715" cy="626.565" rx="6.82347" ry="2.27449" fill="#FFF0D3"/>
<ellipse cx="776.354" cy="626.565" rx="6.82347" ry="2.27449" fill="#BA9B81" fill-opacity="0.4"/>
<path d="M769.076 626.111L766.801 620.652H778.628L776.809 626.111C773.646 627.461 771.965 627.345 769.076 626.111Z" fill="#FFF2E6"/>
<rect x="702.206" y="434.143" width="70.0543" height="7.27837" rx="3.63918" fill="#D0AC8B"/>
<rect x="704.025" y="521.484" width="70.0543" height="7.27837" rx="3.63918" fill="#D0AC8B"/>
<rect x="741.327" y="475.084" width="70.0543" height="7.27837" rx="3.63918" fill="#D0AC8B"/>
<rect x="722.325" y="431.946" width="14.5059" height="5.84232" rx="2" transform="rotate(-58.6456 722.325 431.946)" fill="#EF9262"/>
<rect x="734.958" y="434.143" width="13.6469" height="6.36857" rx="2" transform="rotate(-90 734.958 434.143)" fill="#FFD87E"/>
<rect x="736.778" y="521.484" width="13.6469" height="6.36857" rx="2" transform="rotate(-90 736.778 521.484)" fill="#CAB177"/>
<rect x="774.08" y="475.084" width="13.6469" height="6.36857" rx="2" transform="rotate(-90 774.08 475.084)" fill="#B198C3"/>
<rect x="766.801" y="475.084" width="13.6469" height="6.36857" rx="2" transform="rotate(-90 766.801 475.084)" fill="#E89FCB"/>
<rect x="742.236" y="434.143" width="13.6469" height="6.36857" rx="2" transform="rotate(-90 742.236 434.143)" fill="#BF8484"/>
<rect x="744.056" y="521.484" width="13.6469" height="6.36857" rx="2" transform="rotate(-90 744.056 521.484)" fill="#BF8484"/>
<rect x="781.358" y="475.084" width="13.6469" height="6.36857" rx="2" transform="rotate(-90 781.358 475.084)" fill="#7B80EE"/>
<path d="M889.624 450.856L867.789 432.324V569.703L889.624 551.962V450.856Z" fill="#AFA297"/>
<path d="M858.69 450.527V437.774C858.69 432.252 863.168 427.774 868.69 427.774H992.438C997.961 427.774 1002.44 432.252 1002.44 437.774V450.527C1002.44 456.05 997.961 460.527 992.438 460.527H868.69C863.168 460.527 858.69 456.05 858.69 450.527Z" fill="#F8EDE4"/>
<path d="M1005.11 655.562L1001.96 629.255C1001.63 626.514 999.143 624.557 996.401 624.886L989.207 625.748C986.465 626.077 984.509 628.566 984.837 631.308L987.99 657.614C988.319 660.356 990.808 662.313 993.55 661.984L1000.74 661.122C1003.49 660.793 1005.44 658.304 1005.11 655.562Z" fill="#757373"/>
<path d="M960.231 656.372L963.655 625.621C963.96 622.877 966.433 620.9 969.177 621.205L996.311 624.226C999.056 624.531 1001.03 627.004 1000.73 629.748L997.304 660.499C996.998 663.244 994.526 665.221 991.781 664.915L964.647 661.895C961.903 661.589 959.925 659.116 960.231 656.372Z" fill="#969696"/>
<path d="M889.624 552.417V460.527H993.34V552.417H889.624Z" fill="#C8B9AC"/>
<path d="M916.917 554.692C916.87 538.943 919.199 522.972 929.388 513.296C931.447 516.228 933.349 516.918 938.057 516.445C941.53 521.594 942.319 525.132 942.392 532.192V556.966L916.917 554.692Z" fill="#EBF3FD"/>
<path d="M929.655 512.735L931.425 507.837C933.308 511.205 934.631 512.558 937.843 513.279L937.4 516.001C933.184 516.181 931.547 515.394 929.655 512.735Z" fill="#F4B485"/>
<path d="M935.824 497.829C934.389 497.829 933.671 500.827 933.194 501.871C933.194 501.871 932.955 500.793 931.521 500.793C930.086 500.793 931.521 504.297 931.521 504.297L930.564 506.183C932.202 510.775 934.013 512.336 940.844 511.034C942.601 507.638 942.646 504.911 942.039 499.446C940.356 498.837 937.258 497.829 935.824 497.829Z" fill="#F4B485"/>
<path d="M943.49 493.931C939.611 491.516 934.826 490.099 929.086 493.393V491.782L928.126 494.199L926.925 494.468L928.126 494.736C927.775 499.918 928.287 502.449 931.007 506.017L931.967 504.137C931.568 502.878 931.247 501.183 931.967 500.914C932.687 500.645 933.887 501.72 933.887 501.72C934.927 497.31 937.01 497.064 942.53 499.302C944.299 497.687 944.76 496.598 943.49 493.931Z" fill="#372828"/>
<path d="M963.302 453.655C963.55 453.655 963.781 453.61 963.996 453.519C964.214 453.424 964.393 453.286 964.533 453.104C964.676 452.918 964.758 452.692 964.777 452.425H965.334C965.317 452.76 965.215 453.06 965.026 453.323C964.841 453.584 964.596 453.789 964.294 453.938C963.994 454.085 963.664 454.158 963.302 454.158C962.935 454.158 962.609 454.091 962.326 453.958C962.046 453.825 961.812 453.639 961.623 453.401C961.434 453.16 961.291 452.881 961.193 452.562C961.099 452.239 961.052 451.893 961.052 451.521V451.316C961.052 450.945 961.099 450.6 961.193 450.281C961.291 449.959 961.434 449.679 961.623 449.441C961.812 449.201 962.046 449.013 962.326 448.88C962.606 448.746 962.93 448.68 963.298 448.68C963.675 448.68 964.014 448.756 964.313 448.909C964.616 449.062 964.857 449.279 965.036 449.559C965.218 449.839 965.317 450.171 965.334 450.555H964.777C964.761 450.271 964.686 450.027 964.552 449.822C964.419 449.617 964.243 449.459 964.025 449.349C963.807 449.238 963.565 449.183 963.298 449.183C962.998 449.183 962.743 449.241 962.531 449.358C962.319 449.472 962.147 449.63 962.013 449.832C961.883 450.031 961.787 450.258 961.725 450.516C961.663 450.77 961.633 451.036 961.633 451.316V451.521C961.633 451.805 961.662 452.075 961.72 452.332C961.782 452.586 961.878 452.812 962.009 453.011C962.142 453.209 962.315 453.367 962.526 453.484C962.741 453.598 963 453.655 963.302 453.655ZM973.673 453.113V450.389C973.673 450.138 973.621 449.922 973.517 449.739C973.413 449.557 973.26 449.417 973.058 449.319C972.856 449.222 972.607 449.173 972.311 449.173C972.038 449.173 971.794 449.222 971.579 449.319C971.367 449.414 971.199 449.542 971.076 449.705C970.955 449.865 970.895 450.042 970.895 450.237L970.309 450.232C970.309 450.034 970.358 449.842 970.456 449.656C970.553 449.471 970.692 449.305 970.871 449.158C971.05 449.012 971.263 448.896 971.51 448.812C971.761 448.724 972.036 448.68 972.335 448.68C972.713 448.68 973.045 448.743 973.332 448.87C973.621 448.997 973.848 449.188 974.01 449.441C974.173 449.695 974.254 450.014 974.254 450.398V452.952C974.254 453.134 974.267 453.323 974.294 453.519C974.323 453.714 974.363 453.875 974.416 454.002V454.061H973.795C973.756 453.943 973.725 453.797 973.703 453.621C973.683 453.442 973.673 453.273 973.673 453.113ZM973.81 450.984L973.82 451.434H972.672C972.373 451.434 972.104 451.461 971.867 451.517C971.632 451.569 971.434 451.647 971.271 451.751C971.108 451.852 970.983 451.974 970.895 452.117C970.81 452.26 970.768 452.423 970.768 452.605C970.768 452.794 970.815 452.967 970.91 453.123C971.007 453.279 971.144 453.405 971.32 453.499C971.499 453.59 971.71 453.636 971.955 453.636C972.28 453.636 972.567 453.576 972.814 453.455C973.065 453.335 973.271 453.177 973.434 452.981C973.597 452.786 973.706 452.573 973.761 452.342L974.015 452.679C973.973 452.841 973.895 453.009 973.781 453.182C973.67 453.351 973.525 453.51 973.346 453.66C973.167 453.807 972.956 453.927 972.711 454.021C972.471 454.113 972.197 454.158 971.891 454.158C971.546 454.158 971.245 454.093 970.988 453.963C970.734 453.833 970.535 453.655 970.392 453.431C970.252 453.203 970.182 452.946 970.182 452.659C970.182 452.399 970.238 452.166 970.348 451.961C970.459 451.753 970.618 451.577 970.827 451.434C971.038 451.287 971.292 451.176 971.588 451.102C971.888 451.023 972.223 450.984 972.594 450.984H973.81ZM980.773 454.061H980.192V448.123C980.192 447.762 980.254 447.457 980.377 447.21C980.504 446.963 980.683 446.775 980.914 446.648C981.149 446.521 981.427 446.458 981.749 446.458C981.85 446.458 981.954 446.465 982.062 446.478C982.169 446.487 982.273 446.508 982.374 446.541L982.33 447.034C982.249 447.011 982.166 446.997 982.081 446.99C982 446.98 981.904 446.976 981.793 446.976C981.582 446.976 981.399 447.021 981.246 447.112C981.093 447.2 980.976 447.329 980.895 447.498C980.813 447.667 980.773 447.876 980.773 448.123V454.061ZM982.033 448.777V449.256H979.318V448.777H982.033ZM988.956 454.158C988.611 454.158 988.294 454.095 988.004 453.968C987.718 453.841 987.467 453.662 987.252 453.431C987.041 453.2 986.876 452.926 986.759 452.61C986.645 452.291 986.588 451.943 986.588 451.565V451.355C986.588 450.949 986.648 450.581 986.769 450.252C986.889 449.923 987.055 449.642 987.267 449.407C987.478 449.173 987.719 448.994 987.989 448.87C988.263 448.743 988.549 448.68 988.849 448.68C989.184 448.68 989.482 448.74 989.742 448.86C990.003 448.978 990.221 449.145 990.397 449.363C990.576 449.578 990.711 449.834 990.802 450.13C990.893 450.423 990.939 450.747 990.939 451.102V451.458H986.94V450.96H990.358V450.892C990.351 450.595 990.291 450.319 990.177 450.062C990.066 449.801 989.9 449.59 989.679 449.427C989.458 449.264 989.181 449.183 988.849 449.183C988.601 449.183 988.374 449.235 988.165 449.339C987.96 449.443 987.783 449.593 987.633 449.788C987.486 449.98 987.373 450.21 987.291 450.477C987.213 450.74 987.174 451.033 987.174 451.355V451.565C987.174 451.858 987.216 452.132 987.301 452.386C987.389 452.636 987.513 452.858 987.672 453.05C987.835 453.242 988.027 453.392 988.248 453.499C988.47 453.606 988.714 453.66 988.981 453.66C989.293 453.66 989.57 453.603 989.811 453.489C990.052 453.372 990.268 453.188 990.46 452.938L990.826 453.221C990.712 453.39 990.569 453.546 990.397 453.689C990.227 453.833 990.024 453.947 989.786 454.031C989.549 454.116 989.272 454.158 988.956 454.158Z" fill="#898078"/>
<path d="M1098.84 741.996C1098.83 742.241 1098.8 742.486 1098.73 742.73C1098.67 742.975 1098.58 743.201 1098.46 743.406C1098.34 743.609 1098.19 743.772 1098 743.895C1097.81 744.017 1097.58 744.078 1097.32 744.078C1097.15 744.078 1097.01 744.048 1096.88 743.988C1096.75 743.928 1096.65 743.842 1096.57 743.73C1096.48 743.618 1096.42 743.483 1096.39 743.324C1096.36 743.163 1096.35 742.983 1096.36 742.785L1096.56 740.559H1096.95L1096.76 742.785C1096.74 742.993 1096.75 743.161 1096.79 743.289C1096.82 743.414 1096.87 743.51 1096.94 743.578C1097.01 743.643 1097.08 743.688 1097.16 743.711C1097.23 743.732 1097.3 743.742 1097.37 743.742C1097.54 743.742 1097.7 743.698 1097.83 743.609C1097.96 743.521 1098.07 743.397 1098.17 743.238C1098.26 743.079 1098.33 742.895 1098.39 742.684C1098.44 742.473 1098.47 742.243 1098.48 741.996C1098.5 741.603 1098.48 741.241 1098.43 740.91C1098.37 740.579 1098.28 740.285 1098.15 740.027C1098.02 739.767 1097.84 739.547 1097.63 739.367C1097.42 739.188 1097.16 739.051 1096.86 738.957C1096.56 738.863 1096.22 738.816 1095.83 738.816C1095.5 738.816 1095.18 738.867 1094.89 738.969C1094.6 739.068 1094.33 739.214 1094.09 739.406C1093.85 739.596 1093.64 739.827 1093.46 740.098C1093.29 740.368 1093.15 740.676 1093.05 741.02C1092.95 741.361 1092.89 741.732 1092.87 742.133C1092.85 742.521 1092.87 742.883 1092.94 743.219C1093 743.555 1093.11 743.858 1093.25 744.129C1093.39 744.4 1093.57 744.632 1093.79 744.824C1094.01 745.017 1094.27 745.164 1094.55 745.266C1094.85 745.367 1095.17 745.418 1095.53 745.418C1095.76 745.418 1095.99 745.389 1096.23 745.332C1096.46 745.277 1096.66 745.203 1096.82 745.109L1096.94 745.422C1096.77 745.536 1096.54 745.622 1096.27 745.68C1096 745.74 1095.75 745.77 1095.52 745.77C1095.12 745.77 1094.76 745.715 1094.43 745.605C1094.1 745.499 1093.82 745.341 1093.56 745.133C1093.31 744.927 1093.1 744.676 1092.94 744.379C1092.77 744.085 1092.65 743.749 1092.57 743.371C1092.49 742.993 1092.46 742.581 1092.48 742.133C1092.5 741.695 1092.56 741.288 1092.68 740.91C1092.79 740.533 1092.95 740.194 1093.14 739.895C1093.34 739.592 1093.57 739.333 1093.84 739.117C1094.11 738.901 1094.41 738.736 1094.75 738.621C1095.09 738.507 1095.45 738.449 1095.85 738.449C1096.26 738.449 1096.64 738.503 1096.96 738.609C1097.3 738.716 1097.58 738.871 1097.82 739.074C1098.07 739.275 1098.27 739.52 1098.43 739.809C1098.58 740.098 1098.7 740.426 1098.77 740.793C1098.84 741.16 1098.86 741.561 1098.84 741.996ZM1094.62 742.332C1094.6 742.533 1094.6 742.716 1094.61 742.883C1094.63 743.049 1094.67 743.194 1094.73 743.316C1094.79 743.436 1094.86 743.53 1094.96 743.598C1095.06 743.663 1095.17 743.695 1095.3 743.695C1095.4 743.695 1095.51 743.677 1095.61 743.641C1095.72 743.602 1095.82 743.538 1095.92 743.449C1096.02 743.361 1096.12 743.24 1096.21 743.086C1096.3 742.93 1096.37 742.733 1096.43 742.496L1096.62 742.734C1096.56 742.956 1096.48 743.15 1096.39 743.316C1096.29 743.483 1096.18 743.624 1096.06 743.738C1095.94 743.85 1095.81 743.935 1095.67 743.992C1095.53 744.049 1095.38 744.078 1095.22 744.078C1095.04 744.078 1094.88 744.036 1094.74 743.953C1094.6 743.87 1094.49 743.751 1094.4 743.598C1094.31 743.444 1094.25 743.26 1094.22 743.047C1094.18 742.833 1094.18 742.595 1094.2 742.332C1094.23 742.064 1094.27 741.816 1094.34 741.59C1094.42 741.361 1094.51 741.158 1094.61 740.98C1094.72 740.801 1094.84 740.648 1094.97 740.523C1095.11 740.398 1095.26 740.303 1095.41 740.238C1095.57 740.171 1095.73 740.137 1095.9 740.137C1096.17 740.137 1096.37 740.18 1096.52 740.266C1096.67 740.349 1096.82 740.447 1096.95 740.559L1096.69 740.816C1096.61 740.728 1096.51 740.652 1096.38 740.59C1096.25 740.527 1096.1 740.496 1095.93 740.496C1095.77 740.496 1095.62 740.534 1095.48 740.609C1095.33 740.682 1095.2 740.796 1095.08 740.949C1094.96 741.1 1094.87 741.29 1094.79 741.52C1094.7 741.749 1094.65 742.02 1094.62 742.332ZM1101.67 740.676V744H1101.21V739.773H1101.65L1101.67 740.676ZM1101.57 741.625L1101.36 741.508C1101.37 741.258 1101.42 741.023 1101.51 740.805C1101.6 740.586 1101.71 740.393 1101.86 740.227C1102.01 740.06 1102.18 739.93 1102.38 739.836C1102.58 739.742 1102.8 739.695 1103.04 739.695C1103.25 739.695 1103.44 739.724 1103.61 739.781C1103.77 739.839 1103.92 739.93 1104.03 740.055C1104.15 740.18 1104.24 740.34 1104.3 740.535C1104.36 740.73 1104.39 740.969 1104.39 741.25V744H1103.92V741.246C1103.92 740.954 1103.88 740.727 1103.8 740.562C1103.72 740.396 1103.61 740.277 1103.46 740.207C1103.31 740.137 1103.14 740.102 1102.93 740.102C1102.71 740.102 1102.51 740.151 1102.34 740.25C1102.18 740.346 1102.04 740.473 1101.92 740.629C1101.81 740.783 1101.72 740.948 1101.66 741.125C1101.6 741.299 1101.57 741.466 1101.57 741.625ZM1109.59 743.023V739.773H1110.06V744H1109.61L1109.59 743.023ZM1109.68 742.242L1109.92 742.234C1109.92 742.5 1109.89 742.745 1109.83 742.969C1109.76 743.193 1109.67 743.388 1109.53 743.555C1109.4 743.721 1109.23 743.85 1109.02 743.941C1108.81 744.033 1108.55 744.078 1108.26 744.078C1108.05 744.078 1107.86 744.049 1107.69 743.992C1107.52 743.932 1107.37 743.839 1107.25 743.711C1107.13 743.583 1107.03 743.418 1106.97 743.215C1106.9 743.012 1106.87 742.766 1106.87 742.477V739.773H1107.33V742.484C1107.33 742.711 1107.36 742.9 1107.41 743.051C1107.46 743.202 1107.53 743.323 1107.62 743.414C1107.71 743.505 1107.81 743.57 1107.93 743.609C1108.05 743.648 1108.17 743.668 1108.31 743.668C1108.65 743.668 1108.92 743.602 1109.12 743.469C1109.32 743.336 1109.46 743.161 1109.55 742.945C1109.63 742.727 1109.68 742.492 1109.68 742.242ZM1113.08 738V744H1112.62V738H1113.08ZM1115.63 738H1116.1V743.18L1116.07 744H1115.63V738ZM1119.04 741.848V741.93C1119.04 742.245 1119.01 742.534 1118.93 742.797C1118.86 743.06 1118.75 743.288 1118.62 743.48C1118.48 743.671 1118.31 743.818 1118.11 743.922C1117.91 744.026 1117.68 744.078 1117.42 744.078C1117.17 744.078 1116.95 744.039 1116.75 743.961C1116.56 743.88 1116.39 743.767 1116.25 743.621C1116.11 743.473 1116 743.299 1115.92 743.102C1115.84 742.901 1115.78 742.681 1115.74 742.441V741.398C1115.78 741.143 1115.85 740.911 1115.93 740.703C1116.02 740.495 1116.13 740.315 1116.26 740.164C1116.4 740.013 1116.57 739.897 1116.76 739.816C1116.95 739.736 1117.17 739.695 1117.42 739.695C1117.67 739.695 1117.9 739.746 1118.1 739.848C1118.31 739.947 1118.48 740.091 1118.62 740.281C1118.75 740.469 1118.86 740.695 1118.93 740.961C1119.01 741.224 1119.04 741.52 1119.04 741.848ZM1118.57 741.93V741.848C1118.57 741.6 1118.55 741.371 1118.5 741.16C1118.45 740.949 1118.38 740.766 1118.28 740.609C1118.18 740.451 1118.05 740.327 1117.89 740.238C1117.74 740.15 1117.55 740.105 1117.33 740.105C1117.11 740.105 1116.92 740.143 1116.76 740.219C1116.6 740.292 1116.47 740.389 1116.37 740.512C1116.26 740.632 1116.18 740.763 1116.12 740.906C1116.06 741.049 1116.02 741.19 1115.99 741.328V742.543C1116.04 742.738 1116.11 742.922 1116.22 743.094C1116.33 743.266 1116.48 743.405 1116.66 743.512C1116.85 743.616 1117.07 743.668 1117.34 743.668C1117.55 743.668 1117.74 743.624 1117.89 743.535C1118.05 743.447 1118.17 743.324 1118.27 743.168C1118.37 743.012 1118.45 742.828 1118.49 742.617C1118.54 742.406 1118.57 742.177 1118.57 741.93ZM1124.19 744V744.402H1120.75V744H1124.19ZM1125.83 741.953V741.824C1125.83 741.517 1125.88 741.233 1125.97 740.973C1126.05 740.712 1126.18 740.487 1126.34 740.297C1126.51 740.107 1126.71 739.96 1126.94 739.855C1127.17 739.749 1127.43 739.695 1127.72 739.695C1128 739.695 1128.26 739.749 1128.49 739.855C1128.72 739.96 1128.92 740.107 1129.09 740.297C1129.26 740.487 1129.38 740.712 1129.47 740.973C1129.56 741.233 1129.61 741.517 1129.61 741.824V741.953C1129.61 742.26 1129.56 742.544 1129.47 742.805C1129.38 743.062 1129.26 743.286 1129.09 743.477C1128.93 743.667 1128.73 743.815 1128.5 743.922C1128.26 744.026 1128.01 744.078 1127.72 744.078C1127.44 744.078 1127.18 744.026 1126.95 743.922C1126.71 743.815 1126.51 743.667 1126.35 743.477C1126.18 743.286 1126.05 743.062 1125.97 742.805C1125.88 742.544 1125.83 742.26 1125.83 741.953ZM1126.3 741.824V741.953C1126.3 742.185 1126.33 742.405 1126.39 742.613C1126.45 742.819 1126.54 743.003 1126.66 743.164C1126.78 743.323 1126.93 743.448 1127.11 743.539C1127.29 743.63 1127.49 743.676 1127.72 743.676C1127.95 743.676 1128.15 743.63 1128.33 743.539C1128.51 743.448 1128.65 743.323 1128.77 743.164C1128.89 743.003 1128.98 742.819 1129.04 742.613C1129.11 742.405 1129.14 742.185 1129.14 741.953V741.824C1129.14 741.595 1129.11 741.378 1129.04 741.172C1128.98 740.966 1128.89 740.783 1128.77 740.621C1128.65 740.46 1128.5 740.332 1128.32 740.238C1128.15 740.145 1127.94 740.098 1127.72 740.098C1127.49 740.098 1127.28 740.145 1127.11 740.238C1126.93 740.332 1126.78 740.46 1126.66 740.621C1126.54 740.783 1126.45 740.966 1126.39 741.172C1126.33 741.378 1126.3 741.595 1126.3 741.824Z" fill="#898078"/>
<path d="M976.249 627.494L976.033 629.156L975.474 629.083L975.745 626.987L976.27 627.055L976.249 627.494ZM976.101 628.024L975.946 628.004C975.965 627.858 976 627.726 976.051 627.608C976.103 627.489 976.169 627.388 976.25 627.307C976.331 627.224 976.426 627.164 976.535 627.127C976.643 627.09 976.765 627.08 976.899 627.098C976.992 627.11 977.075 627.135 977.149 627.173C977.223 627.211 977.284 627.262 977.332 627.329C977.381 627.394 977.415 627.476 977.434 627.575C977.453 627.672 977.454 627.785 977.437 627.916L977.256 629.314L976.698 629.242L976.871 627.905C976.883 627.81 976.88 627.735 976.861 627.68C976.842 627.625 976.81 627.584 976.765 627.557C976.721 627.53 976.666 627.512 976.6 627.504C976.528 627.495 976.463 627.501 976.405 627.524C976.348 627.547 976.299 627.582 976.257 627.631C976.215 627.678 976.182 627.735 976.156 627.803C976.13 627.87 976.112 627.944 976.101 628.024ZM977.357 628.122L977.154 628.121C977.172 627.984 977.205 627.859 977.254 627.746C977.304 627.633 977.369 627.537 977.447 627.456C977.527 627.376 977.621 627.318 977.728 627.282C977.835 627.245 977.955 627.235 978.086 627.252C978.187 627.265 978.277 627.291 978.356 627.332C978.435 627.371 978.499 627.426 978.549 627.497C978.6 627.566 978.635 627.654 978.653 627.758C978.672 627.863 978.672 627.989 978.653 628.135L978.48 629.473L977.92 629.4L978.094 628.062C978.106 627.965 978.103 627.89 978.083 627.836C978.066 627.781 978.034 627.741 977.989 627.716C977.945 627.689 977.891 627.671 977.826 627.663C977.759 627.654 977.699 627.66 977.645 627.681C977.591 627.7 977.544 627.731 977.505 627.773C977.465 627.815 977.433 627.866 977.408 627.926C977.383 627.984 977.366 628.05 977.357 628.122ZM980.585 629.785C980.422 629.764 980.28 629.72 980.157 629.651C980.035 629.582 979.935 629.494 979.857 629.39C979.78 629.285 979.725 629.168 979.693 629.04C979.662 628.909 979.655 628.775 979.673 628.635L979.683 628.558C979.703 628.399 979.745 628.256 979.807 628.131C979.87 628.005 979.949 627.899 980.045 627.813C980.143 627.727 980.256 627.666 980.384 627.63C980.512 627.593 980.653 627.584 980.805 627.604C980.954 627.624 981.082 627.665 981.191 627.729C981.299 627.793 981.386 627.875 981.452 627.976C981.519 628.076 981.565 628.193 981.588 628.324C981.612 628.455 981.614 628.597 981.594 628.75L981.564 628.983L979.898 628.767L979.946 628.395L981.064 628.54L981.069 628.497C981.079 628.42 981.074 628.349 981.054 628.284C981.035 628.219 981 628.165 980.949 628.121C980.898 628.078 980.829 628.051 980.743 628.039C980.669 628.03 980.604 628.038 980.547 628.063C980.49 628.089 980.44 628.128 980.399 628.182C980.359 628.236 980.326 628.301 980.299 628.378C980.274 628.453 980.255 628.537 980.243 628.63L980.233 628.708C980.222 628.792 980.223 628.871 980.237 628.945C980.253 629.019 980.279 629.085 980.316 629.142C980.355 629.2 980.404 629.247 980.463 629.283C980.524 629.32 980.595 629.344 980.677 629.354C980.777 629.367 980.873 629.36 980.965 629.333C981.058 629.304 981.141 629.254 981.215 629.182L981.448 629.511C981.396 629.569 981.328 629.622 981.244 629.67C981.162 629.718 981.065 629.755 980.954 629.778C980.844 629.801 980.721 629.803 980.585 629.785ZM983.242 628.415L983.028 630.063L982.47 629.991L982.742 627.895L983.265 627.963L983.242 628.415ZM983.092 628.931L982.941 628.911C982.961 628.756 982.999 628.62 983.055 628.501C983.112 628.381 983.182 628.282 983.265 628.203C983.349 628.123 983.444 628.067 983.549 628.033C983.656 627.998 983.772 627.989 983.896 628.005C983.994 628.018 984.082 628.044 984.159 628.083C984.237 628.122 984.301 628.176 984.351 628.245C984.402 628.315 984.437 628.403 984.455 628.509C984.474 628.615 984.474 628.742 984.455 628.889L984.281 630.226L983.72 630.153L983.893 628.814C983.905 628.721 983.902 628.647 983.883 628.592C983.863 628.537 983.83 628.496 983.782 628.469C983.736 628.441 983.677 628.422 983.605 628.413C983.53 628.403 983.463 628.409 983.403 628.432C983.345 628.454 983.294 628.49 983.251 628.538C983.21 628.585 983.176 628.642 983.148 628.71C983.121 628.777 983.103 628.851 983.092 628.931ZM986.724 630.032L986.931 628.438L987.489 628.511L987.217 630.606L986.692 630.538L986.724 630.032ZM986.842 629.61L987.007 629.628C986.989 629.767 986.956 629.895 986.908 630.011C986.86 630.126 986.799 630.223 986.723 630.302C986.647 630.38 986.557 630.437 986.452 630.474C986.348 630.509 986.229 630.518 986.096 630.5C985.994 630.487 985.902 630.461 985.819 630.421C985.738 630.38 985.67 630.325 985.616 630.255C985.563 630.184 985.526 630.097 985.504 629.994C985.483 629.89 985.482 629.769 985.5 629.629L985.676 628.275L986.234 628.348L986.057 629.706C986.049 629.768 986.05 629.821 986.058 629.865C986.068 629.91 986.085 629.948 986.109 629.978C986.132 630.009 986.162 630.032 986.196 630.049C986.232 630.065 986.273 630.076 986.318 630.082C986.433 630.097 986.526 630.085 986.598 630.048C986.671 630.01 986.727 629.953 986.764 629.876C986.803 629.798 986.829 629.71 986.842 629.61Z" fill="white"/>
<path d="M974.681 636.836L974.744 636.37C974.748 636.336 974.746 636.307 974.739 636.281C974.731 636.255 974.716 636.234 974.695 636.217C974.674 636.201 974.646 636.19 974.61 636.185C974.579 636.181 974.551 636.183 974.527 636.191C974.503 636.198 974.484 636.211 974.469 636.229C974.454 636.247 974.445 636.269 974.441 636.296L974.162 636.259C974.168 636.214 974.184 636.173 974.21 636.136C974.236 636.099 974.271 636.067 974.314 636.042C974.358 636.017 974.408 635.999 974.464 635.988C974.522 635.978 974.584 635.978 974.652 635.987C974.733 635.998 974.804 636.021 974.863 636.057C974.923 636.092 974.967 636.139 974.996 636.198C975.026 636.258 975.035 636.328 975.024 636.409L974.964 636.857C974.957 636.915 974.954 636.962 974.956 637C974.958 637.037 974.964 637.07 974.974 637.099L974.972 637.115L974.69 637.078C974.681 637.048 974.675 637.011 974.674 636.967C974.673 636.923 974.675 636.879 974.681 636.836ZM974.772 636.439L974.753 636.597L974.597 636.577C974.56 636.572 974.527 636.572 974.499 636.576C974.471 636.581 974.447 636.59 974.428 636.603C974.408 636.616 974.393 636.632 974.382 636.65C974.372 636.669 974.365 636.691 974.362 636.715C974.358 636.739 974.361 636.761 974.369 636.782C974.378 636.802 974.392 636.819 974.411 636.833C974.43 636.846 974.454 636.854 974.481 636.858C974.523 636.863 974.561 636.86 974.594 636.847C974.627 636.835 974.654 636.817 974.674 636.795C974.695 636.773 974.707 636.751 974.71 636.729L974.768 636.857C974.754 636.882 974.736 636.907 974.715 636.933C974.693 636.959 974.668 636.983 974.637 637.005C974.607 637.026 974.571 637.042 974.531 637.053C974.491 637.063 974.445 637.065 974.393 637.058C974.326 637.049 974.268 637.028 974.217 636.994C974.167 636.96 974.129 636.917 974.104 636.865C974.079 636.814 974.071 636.757 974.079 636.697C974.087 636.642 974.103 636.594 974.13 636.555C974.156 636.515 974.191 636.483 974.235 636.459C974.28 636.435 974.333 636.42 974.396 636.413C974.459 636.405 974.53 636.407 974.61 636.418L974.772 636.439ZM975.892 636.393L975.781 637.223L975.501 637.186L975.641 636.139L975.903 636.174L975.892 636.393ZM975.817 636.658L975.74 636.647C975.749 636.575 975.767 636.509 975.793 636.45C975.819 636.39 975.852 636.34 975.893 636.299C975.933 636.258 975.981 636.228 976.035 636.21C976.09 636.192 976.151 636.187 976.218 636.196C976.264 636.202 976.306 636.215 976.343 636.234C976.379 636.253 976.41 636.279 976.434 636.313C976.458 636.345 976.475 636.386 976.484 636.436C976.493 636.484 976.494 636.541 976.485 636.606L976.392 637.305L976.113 637.268L976.202 636.6C976.209 636.552 976.207 636.514 976.198 636.487C976.188 636.459 976.172 636.439 976.15 636.425C976.128 636.412 976.1 636.403 976.067 636.399C976.031 636.394 975.999 636.397 975.97 636.408C975.941 636.42 975.916 636.437 975.896 636.461C975.875 636.485 975.858 636.513 975.845 636.547C975.832 636.581 975.822 636.618 975.817 636.658ZM976.445 636.709L976.343 636.708C976.352 636.64 976.369 636.577 976.394 636.521C976.419 636.465 976.452 636.416 976.491 636.376C976.531 636.336 976.578 636.308 976.632 636.29C976.685 636.271 976.745 636.266 976.811 636.275C976.861 636.282 976.906 636.295 976.945 636.316C976.985 636.336 977.017 636.363 977.042 636.399C977.067 636.434 977.085 636.477 977.093 636.53C977.103 636.582 977.103 636.645 977.093 636.718L977.003 637.387L976.724 637.349L976.813 636.68C976.82 636.632 976.818 636.594 976.808 636.567C976.8 636.54 976.784 636.52 976.761 636.507C976.739 636.494 976.712 636.485 976.68 636.48C976.647 636.476 976.616 636.479 976.589 636.489C976.562 636.499 976.539 636.514 976.519 636.535C976.499 636.556 976.483 636.581 976.471 636.611C976.458 636.64 976.45 636.673 976.445 636.709ZM978.056 637.547C977.974 637.536 977.903 637.513 977.842 637.479C977.781 637.444 977.731 637.4 977.692 637.348C977.654 637.295 977.627 637.237 977.611 637.172C977.595 637.107 977.592 637.04 977.602 636.97L977.607 636.931C977.617 636.852 977.638 636.781 977.67 636.718C977.701 636.655 977.741 636.602 977.789 636.56C977.838 636.517 977.895 636.487 977.959 636.469C978.023 636.451 978.094 636.446 978.17 636.457C978.244 636.467 978.308 636.488 978.362 636.52C978.416 636.552 978.46 636.593 978.493 636.644C978.526 636.694 978.548 636.752 978.56 636.818C978.571 636.883 978.572 636.954 978.562 637.031L978.546 637.147L977.714 637.036L977.739 636.85L978.297 636.925L978.3 636.904C978.305 636.865 978.303 636.829 978.293 636.797C978.283 636.764 978.266 636.737 978.241 636.715C978.215 636.694 978.181 636.68 978.138 636.674C978.101 636.669 978.068 636.673 978.04 636.686C978.011 636.698 977.986 636.718 977.966 636.745C977.946 636.772 977.929 636.804 977.915 636.842C977.902 636.88 977.893 636.922 977.887 636.969L977.881 637.007C977.876 637.049 977.876 637.089 977.883 637.126C977.891 637.163 977.904 637.196 977.922 637.225C977.941 637.253 977.966 637.277 977.996 637.295C978.026 637.314 978.061 637.326 978.102 637.331C978.152 637.338 978.201 637.335 978.246 637.321C978.293 637.307 978.335 637.282 978.372 637.246L978.488 637.411C978.461 637.44 978.427 637.466 978.385 637.49C978.344 637.514 978.296 637.532 978.24 637.544C978.185 637.555 978.123 637.556 978.056 637.547ZM979.392 636.872L979.282 637.691L979.004 637.654L979.143 636.606L979.406 636.641L979.392 636.872ZM979.739 636.679L979.699 636.937C979.686 636.933 979.67 636.929 979.651 636.925C979.632 636.921 979.615 636.918 979.6 636.916C979.56 636.91 979.525 636.911 979.495 636.917C979.465 636.923 979.44 636.935 979.418 636.951C979.396 636.968 979.379 636.99 979.366 637.016C979.353 637.043 979.343 637.074 979.337 637.109L979.284 637.084C979.293 637.016 979.308 636.955 979.329 636.9C979.35 636.844 979.376 636.797 979.408 636.758C979.44 636.719 979.477 636.69 979.518 636.672C979.559 636.654 979.604 636.648 979.653 636.655C979.669 636.657 979.684 636.66 979.7 636.665C979.716 636.669 979.729 636.674 979.739 636.679ZM980.521 636.79L980.381 637.838L980.101 637.8L980.241 636.753L980.521 636.79ZM980.26 636.478C980.265 636.437 980.284 636.405 980.316 636.383C980.348 636.36 980.388 636.352 980.435 636.358C980.482 636.364 980.518 636.383 980.543 636.413C980.569 636.443 980.579 636.479 980.573 636.519C980.568 636.56 980.549 636.592 980.516 636.614C980.484 636.637 980.445 636.645 980.398 636.639C980.35 636.633 980.314 636.614 980.289 636.584C980.264 636.554 980.254 636.518 980.26 636.478ZM981.427 637.775C981.461 637.78 981.492 637.777 981.521 637.768C981.549 637.758 981.572 637.742 981.59 637.72C981.609 637.698 981.621 637.67 981.626 637.637L981.888 637.672C981.878 637.746 981.849 637.809 981.803 637.861C981.757 637.913 981.699 637.95 981.629 637.975C981.56 637.998 981.484 638.005 981.404 637.994C981.322 637.983 981.253 637.96 981.196 637.925C981.14 637.89 981.095 637.846 981.061 637.792C981.028 637.739 981.005 637.679 980.994 637.612C980.982 637.545 980.982 637.474 980.991 637.401L980.995 637.373C981.005 637.299 981.024 637.231 981.053 637.17C981.081 637.108 981.119 637.056 981.165 637.013C981.212 636.97 981.267 636.939 981.33 636.92C981.394 636.901 981.466 636.897 981.547 636.908C981.633 636.919 981.706 636.946 981.766 636.987C981.827 637.029 981.871 637.083 981.9 637.149C981.929 637.214 981.939 637.289 981.928 637.372L981.666 637.337C981.67 637.302 981.667 637.27 981.656 637.239C981.646 637.209 981.63 637.184 981.605 637.164C981.582 637.143 981.551 637.13 981.513 637.125C981.472 637.119 981.438 637.124 981.41 637.138C981.382 637.151 981.359 637.171 981.34 637.199C981.322 637.226 981.308 637.258 981.297 637.295C981.287 637.331 981.279 637.369 981.274 637.41L981.27 637.438C981.265 637.479 981.262 637.518 981.262 637.556C981.262 637.594 981.268 637.629 981.278 637.66C981.289 637.691 981.306 637.716 981.33 637.737C981.353 637.757 981.386 637.77 981.427 637.775ZM982.955 637.941L983.018 637.474C983.022 637.441 983.02 637.411 983.013 637.386C983.005 637.36 982.99 637.339 982.969 637.322C982.948 637.306 982.92 637.295 982.884 637.29C982.853 637.286 982.825 637.288 982.801 637.296C982.777 637.303 982.758 637.316 982.743 637.334C982.728 637.352 982.719 637.374 982.715 637.401L982.436 637.363C982.442 637.319 982.458 637.278 982.484 637.241C982.51 637.203 982.545 637.172 982.588 637.147C982.632 637.121 982.682 637.103 982.738 637.093C982.796 637.083 982.858 637.083 982.926 637.092C983.007 637.103 983.078 637.126 983.137 637.161C983.197 637.197 983.241 637.244 983.27 637.303C983.3 637.362 983.309 637.433 983.298 637.514L983.238 637.962C983.231 638.019 983.228 638.067 983.23 638.105C983.232 638.142 983.238 638.175 983.248 638.204L983.246 638.22L982.964 638.183C982.955 638.152 982.949 638.115 982.948 638.072C982.947 638.028 982.95 637.984 982.955 637.941ZM983.046 637.544L983.027 637.702L982.871 637.681C982.834 637.676 982.801 637.676 982.773 637.681C982.745 637.686 982.721 637.695 982.702 637.708C982.682 637.721 982.667 637.736 982.656 637.755C982.646 637.774 982.639 637.796 982.636 637.819C982.632 637.843 982.635 637.866 982.643 637.886C982.652 637.907 982.666 637.924 982.685 637.937C982.704 637.95 982.728 637.959 982.755 637.963C982.797 637.968 982.835 637.965 982.868 637.952C982.901 637.939 982.928 637.922 982.948 637.9C982.969 637.877 982.981 637.855 982.984 637.834L983.042 637.961C983.028 637.987 983.011 638.012 982.989 638.038C982.967 638.064 982.942 638.088 982.911 638.109C982.881 638.13 982.845 638.146 982.805 638.157C982.765 638.168 982.719 638.169 982.667 638.163C982.6 638.154 982.542 638.132 982.491 638.099C982.441 638.064 982.403 638.022 982.378 637.97C982.353 637.918 982.345 637.862 982.353 637.801C982.361 637.747 982.377 637.699 982.404 637.659C982.43 637.62 982.465 637.588 982.509 637.564C982.554 637.54 982.607 637.524 982.67 637.518C982.733 637.51 982.804 637.512 982.884 637.523L983.046 637.544ZM984.159 637.504L984.049 638.327L983.77 638.29L983.91 637.243L984.172 637.278L984.159 637.504ZM984.083 637.762L984.008 637.751C984.018 637.674 984.038 637.606 984.066 637.546C984.094 637.486 984.129 637.437 984.171 637.398C984.213 637.358 984.261 637.33 984.314 637.313C984.367 637.296 984.425 637.292 984.487 637.3C984.536 637.307 984.58 637.32 984.619 637.339C984.657 637.359 984.689 637.386 984.714 637.421C984.74 637.456 984.757 637.5 984.765 637.553C984.775 637.606 984.774 637.67 984.765 637.743L984.675 638.411L984.395 638.374L984.484 637.705C984.49 637.658 984.489 637.621 984.479 637.594C984.47 637.566 984.453 637.546 984.429 637.532C984.406 637.518 984.377 637.508 984.341 637.503C984.303 637.498 984.27 637.501 984.24 637.512C984.211 637.524 984.185 637.541 984.164 637.565C984.143 637.589 984.126 637.617 984.112 637.651C984.098 637.685 984.089 637.722 984.083 637.762ZM985.268 637.968L985.271 637.948C985.281 637.871 985.302 637.802 985.332 637.74C985.363 637.678 985.402 637.626 985.451 637.583C985.499 637.541 985.556 637.511 985.62 637.493C985.685 637.474 985.757 637.47 985.837 637.48C985.916 637.491 985.985 637.514 986.043 637.549C986.102 637.584 986.149 637.628 986.184 637.681C986.221 637.735 986.245 637.796 986.259 637.864C986.272 637.931 986.273 638.003 986.263 638.08L986.26 638.1C986.25 638.177 986.23 638.246 986.199 638.308C986.169 638.37 986.129 638.422 986.08 638.465C986.031 638.507 985.975 638.537 985.91 638.555C985.845 638.573 985.773 638.577 985.694 638.567C985.614 638.556 985.545 638.533 985.487 638.499C985.429 638.464 985.382 638.42 985.346 638.367C985.311 638.313 985.286 638.252 985.273 638.184C985.26 638.116 985.258 638.044 985.268 637.968ZM985.55 637.985L985.547 638.005C985.541 638.049 985.54 638.091 985.542 638.13C985.545 638.169 985.553 638.204 985.566 638.235C985.579 638.266 985.599 638.291 985.624 638.311C985.65 638.331 985.683 638.344 985.723 638.349C985.762 638.354 985.796 638.35 985.826 638.338C985.856 638.326 985.881 638.306 985.901 638.28C985.922 638.253 985.939 638.221 985.952 638.184C985.965 638.147 985.975 638.107 985.981 638.063L985.983 638.043C985.989 638 985.99 637.96 985.987 637.921C985.984 637.882 985.976 637.847 985.963 637.815C985.95 637.783 985.931 637.757 985.905 637.737C985.88 637.716 985.847 637.703 985.808 637.698C985.768 637.693 985.734 637.697 985.704 637.71C985.674 637.723 985.649 637.743 985.628 637.771C985.607 637.797 985.59 637.829 985.577 637.866C985.565 637.903 985.555 637.942 985.55 637.985Z" fill="white"/>
<path d="M973.519 641.989L973.379 643.036L973.099 642.999L973.239 641.951L973.519 641.989ZM973.258 641.676C973.263 641.636 973.282 641.604 973.314 641.581C973.346 641.559 973.386 641.55 973.433 641.557C973.48 641.563 973.516 641.581 973.541 641.612C973.567 641.642 973.577 641.677 973.571 641.718C973.566 641.759 973.547 641.79 973.514 641.813C973.483 641.836 973.443 641.844 973.396 641.837C973.348 641.831 973.312 641.813 973.287 641.783C973.262 641.752 973.252 641.717 973.258 641.676ZM974.425 642.974C974.459 642.978 974.49 642.976 974.519 642.967C974.547 642.957 974.57 642.941 974.588 642.919C974.607 642.896 974.619 642.869 974.624 642.836L974.886 642.871C974.876 642.944 974.847 643.007 974.801 643.06C974.755 643.111 974.697 643.149 974.627 643.173C974.558 643.197 974.482 643.203 974.402 643.192C974.321 643.182 974.251 643.159 974.194 643.123C974.138 643.088 974.093 643.044 974.059 642.991C974.026 642.937 974.003 642.877 973.992 642.811C973.98 642.743 973.98 642.673 973.989 642.599L973.993 642.571C974.003 642.497 974.022 642.429 974.051 642.368C974.079 642.306 974.117 642.254 974.163 642.212C974.21 642.169 974.265 642.138 974.328 642.119C974.392 642.1 974.464 642.095 974.545 642.106C974.631 642.118 974.704 642.144 974.764 642.186C974.825 642.227 974.869 642.281 974.898 642.347C974.927 642.413 974.937 642.488 974.926 642.571L974.664 642.536C974.668 642.501 974.665 642.468 974.654 642.438C974.645 642.408 974.628 642.383 974.603 642.362C974.58 642.341 974.549 642.328 974.511 642.323C974.47 642.318 974.436 642.322 974.408 642.336C974.38 642.349 974.357 642.37 974.338 642.398C974.32 642.425 974.306 642.457 974.295 642.494C974.285 642.53 974.277 642.568 974.272 642.609L974.268 642.637C974.263 642.677 974.26 642.717 974.26 642.755C974.26 642.793 974.266 642.828 974.276 642.858C974.287 642.889 974.304 642.915 974.328 642.935C974.351 642.956 974.384 642.968 974.425 642.974ZM975.836 643.384C975.755 643.373 975.683 643.35 975.622 643.316C975.561 643.281 975.511 643.237 975.472 643.185C975.434 643.132 975.407 643.074 975.391 643.009C975.376 642.944 975.373 642.877 975.382 642.807L975.387 642.768C975.398 642.689 975.419 642.618 975.45 642.555C975.481 642.492 975.521 642.44 975.57 642.397C975.619 642.354 975.675 642.324 975.74 642.306C975.804 642.288 975.874 642.284 975.95 642.294C976.024 642.304 976.088 642.325 976.143 642.357C976.197 642.389 976.24 642.43 976.273 642.481C976.306 642.531 976.329 642.589 976.34 642.655C976.352 642.721 976.353 642.792 976.342 642.868L976.327 642.984L975.494 642.873L975.519 642.687L976.078 642.762L976.081 642.741C976.086 642.702 976.083 642.667 976.073 642.634C976.064 642.602 976.046 642.574 976.021 642.553C975.996 642.531 975.961 642.517 975.918 642.511C975.881 642.506 975.849 642.51 975.82 642.523C975.791 642.535 975.767 642.555 975.746 642.582C975.726 642.609 975.709 642.641 975.696 642.68C975.683 642.717 975.673 642.759 975.667 642.806L975.662 642.844C975.656 642.886 975.657 642.926 975.664 642.963C975.671 643 975.684 643.033 975.703 643.062C975.722 643.091 975.746 643.114 975.776 643.133C975.806 643.151 975.842 643.163 975.883 643.169C975.933 643.175 975.981 643.172 976.027 643.158C976.073 643.144 976.115 643.119 976.152 643.083L976.268 643.249C976.242 643.277 976.208 643.304 976.166 643.328C976.124 643.352 976.076 643.369 976.021 643.381C975.965 643.392 975.904 643.393 975.836 643.384ZM977.433 643.345L977.601 642.087L977.882 642.124L977.683 643.611L977.431 643.577L977.433 643.345ZM976.809 642.974L976.811 642.954C976.822 642.874 976.841 642.802 976.868 642.739C976.894 642.676 976.928 642.623 976.97 642.581C977.011 642.538 977.058 642.507 977.113 642.488C977.167 642.469 977.227 642.464 977.292 642.473C977.354 642.481 977.405 642.501 977.448 642.533C977.491 642.565 977.525 642.607 977.551 642.659C977.578 642.711 977.597 642.77 977.608 642.837C977.62 642.904 977.625 642.976 977.624 643.053L977.618 643.098C977.599 643.169 977.575 643.235 977.547 643.295C977.519 643.355 977.485 643.406 977.446 643.449C977.407 643.491 977.363 643.522 977.313 643.542C977.263 643.561 977.207 643.567 977.145 643.559C977.08 643.55 977.024 643.529 976.976 643.496C976.93 643.463 976.892 643.42 976.863 643.367C976.836 643.315 976.817 643.256 976.808 643.189C976.798 643.122 976.798 643.05 976.809 642.974ZM977.09 642.991L977.087 643.011C977.082 643.054 977.079 643.095 977.081 643.133C977.083 643.172 977.09 643.207 977.101 643.238C977.114 643.268 977.132 643.293 977.155 643.313C977.178 643.332 977.209 643.344 977.245 643.349C977.293 643.355 977.334 643.349 977.368 643.332C977.402 643.315 977.429 643.288 977.45 643.252C977.472 643.216 977.488 643.173 977.497 643.124L977.514 642.997C977.517 642.956 977.516 642.919 977.511 642.885C977.506 642.851 977.497 642.821 977.482 642.796C977.467 642.77 977.448 642.749 977.423 642.733C977.399 642.716 977.369 642.706 977.334 642.701C977.298 642.696 977.265 642.701 977.237 642.714C977.209 642.727 977.186 642.746 977.166 642.772C977.146 642.799 977.13 642.831 977.117 642.868C977.105 642.905 977.096 642.946 977.09 642.991ZM979.601 642.354L979.403 643.841L979.123 643.803L979.321 642.316L979.601 642.354ZM980.587 643.758L980.649 643.292C980.653 643.258 980.652 643.229 980.644 643.203C980.636 643.177 980.622 643.156 980.6 643.139C980.58 643.123 980.551 643.112 980.515 643.107C980.484 643.103 980.456 643.105 980.432 643.113C980.408 643.12 980.389 643.133 980.374 643.151C980.359 643.169 980.35 643.191 980.346 643.218L980.068 643.181C980.074 643.136 980.09 643.095 980.116 643.058C980.142 643.021 980.176 642.989 980.22 642.964C980.263 642.939 980.313 642.921 980.37 642.911C980.427 642.9 980.489 642.9 980.557 642.909C980.638 642.92 980.709 642.943 980.769 642.979C980.828 643.014 980.872 643.061 980.901 643.12C980.931 643.18 980.94 643.25 980.929 643.331L980.87 643.779C980.862 643.837 980.859 643.884 980.861 643.922C980.864 643.959 980.87 643.992 980.88 644.021L980.877 644.037L980.596 644C980.586 643.97 980.58 643.933 980.579 643.889C980.578 643.845 980.581 643.801 980.587 643.758ZM980.677 643.361L980.658 643.519L980.502 643.499C980.465 643.494 980.433 643.494 980.405 643.498C980.376 643.503 980.352 643.512 980.333 643.525C980.314 643.538 980.298 643.554 980.287 643.572C980.277 643.591 980.27 643.613 980.267 643.637C980.264 643.661 980.266 643.683 980.275 643.704C980.283 643.724 980.297 643.741 980.316 643.755C980.335 643.768 980.359 643.776 980.387 643.78C980.429 643.785 980.466 643.782 980.499 643.769C980.533 643.757 980.559 643.739 980.579 643.717C980.6 643.695 980.612 643.673 980.616 643.651L980.674 643.779C980.66 643.804 980.642 643.829 980.62 643.855C980.599 643.881 980.573 643.905 980.542 643.927C980.512 643.948 980.477 643.964 980.437 643.975C980.396 643.985 980.35 643.987 980.298 643.98C980.231 643.971 980.173 643.95 980.122 643.916C980.072 643.882 980.035 643.839 980.009 643.788C979.985 643.736 979.976 643.679 979.985 643.619C979.992 643.564 980.009 643.517 980.035 643.477C980.061 643.437 980.096 643.405 980.14 643.381C980.185 643.357 980.239 643.342 980.301 643.335C980.364 643.327 980.435 643.329 980.515 643.34L980.677 643.361ZM982.06 643.129L982.034 643.327L981.424 643.245L981.451 643.048L982.06 643.129ZM981.636 642.81L981.915 642.847L981.783 643.837C981.779 643.867 981.779 643.891 981.785 643.908C981.791 643.926 981.802 643.939 981.817 643.947C981.833 643.955 981.853 643.961 981.877 643.964C981.894 643.966 981.91 643.968 981.924 643.968C981.938 643.968 981.95 643.968 981.96 643.967L981.934 644.173C981.909 644.177 981.882 644.18 981.854 644.181C981.826 644.181 981.795 644.18 981.761 644.175C981.7 644.167 981.648 644.15 981.604 644.124C981.562 644.097 981.532 644.059 981.513 644.011C981.495 643.963 981.49 643.902 981.5 643.828L981.636 642.81ZM983.089 643.267L983.063 643.464L982.453 643.383L982.479 643.185L983.089 643.267ZM982.665 642.947L982.943 642.984L982.811 643.974C982.807 644.005 982.808 644.029 982.814 644.046C982.82 644.063 982.831 644.076 982.846 644.084C982.861 644.092 982.881 644.098 982.906 644.101C982.923 644.104 982.939 644.105 982.952 644.106C982.967 644.106 982.979 644.105 982.989 644.105L982.963 644.31C982.938 644.314 982.911 644.317 982.883 644.318C982.854 644.319 982.823 644.317 982.79 644.312C982.728 644.304 982.676 644.287 982.633 644.261C982.591 644.234 982.56 644.197 982.542 644.148C982.523 644.1 982.519 644.039 982.529 643.965L982.665 642.947ZM983.944 644.467C983.863 644.456 983.792 644.433 983.731 644.399C983.67 644.364 983.62 644.32 983.581 644.267C983.542 644.215 983.515 644.156 983.5 644.092C983.484 644.027 983.481 643.959 983.49 643.89L983.495 643.851C983.506 643.772 983.527 643.701 983.558 643.638C983.59 643.575 983.63 643.522 983.678 643.479C983.727 643.437 983.784 643.406 983.848 643.389C983.912 643.37 983.982 643.366 984.058 643.376C984.132 643.386 984.197 643.407 984.251 643.44C984.305 643.472 984.348 643.513 984.381 643.563C984.414 643.614 984.437 643.672 984.448 643.738C984.46 643.803 984.461 643.874 984.45 643.951L984.435 644.067L983.603 643.956L983.627 643.77L984.186 643.845L984.189 643.823C984.194 643.785 984.191 643.749 984.181 643.717C984.172 643.684 984.154 643.657 984.129 643.635C984.104 643.613 984.069 643.6 984.026 643.594C983.989 643.589 983.957 643.593 983.928 643.605C983.9 643.618 983.875 643.638 983.854 643.664C983.834 643.691 983.817 643.724 983.804 643.762C983.791 643.8 983.781 643.842 983.775 643.888L983.77 643.927C983.764 643.969 983.765 644.009 983.772 644.046C983.779 644.083 983.792 644.116 983.811 644.144C983.83 644.173 983.854 644.197 983.884 644.215C983.915 644.234 983.95 644.246 983.991 644.251C984.041 644.258 984.089 644.254 984.135 644.241C984.181 644.227 984.223 644.202 984.26 644.166L984.376 644.331C984.35 644.36 984.316 644.386 984.274 644.41C984.233 644.434 984.184 644.452 984.129 644.464C984.074 644.475 984.012 644.476 983.944 644.467Z" fill="white"/>
<path d="M972.869 648.892C972.903 648.897 972.934 648.895 972.962 648.885C972.99 648.875 973.014 648.859 973.032 648.837C973.05 648.815 973.062 648.787 973.067 648.754L973.33 648.789C973.319 648.863 973.291 648.926 973.244 648.978C973.198 649.03 973.14 649.068 973.071 649.092C973.001 649.115 972.926 649.122 972.845 649.111C972.764 649.1 972.695 649.077 972.638 649.042C972.581 649.007 972.536 648.963 972.503 648.91C972.469 648.856 972.447 648.796 972.435 648.729C972.424 648.662 972.423 648.591 972.433 648.518L972.437 648.49C972.447 648.416 972.466 648.348 972.494 648.287C972.523 648.225 972.56 648.173 972.607 648.13C972.653 648.087 972.708 648.056 972.772 648.037C972.836 648.018 972.908 648.014 972.988 648.025C973.074 648.036 973.147 648.063 973.207 648.104C973.268 648.146 973.313 648.2 973.341 648.266C973.371 648.331 973.38 648.406 973.37 648.489L973.107 648.454C973.111 648.419 973.108 648.387 973.098 648.356C973.088 648.326 973.071 648.301 973.047 648.281C973.023 648.26 972.993 648.247 972.954 648.242C972.914 648.236 972.879 648.241 972.851 648.255C972.823 648.268 972.8 648.288 972.782 648.316C972.764 648.343 972.749 648.375 972.739 648.412C972.729 648.448 972.721 648.486 972.715 648.527L972.712 648.555C972.706 648.596 972.704 648.635 972.704 648.673C972.704 648.711 972.709 648.746 972.719 648.777C972.73 648.808 972.748 648.834 972.771 648.854C972.795 648.874 972.827 648.887 972.869 648.892ZM974.188 648.437L974.079 649.256L973.8 649.219L973.94 648.171L974.202 648.206L974.188 648.437ZM974.535 648.244L974.496 648.502C974.482 648.498 974.466 648.494 974.447 648.49C974.429 648.486 974.412 648.483 974.396 648.481C974.357 648.475 974.322 648.476 974.291 648.482C974.262 648.488 974.236 648.5 974.214 648.516C974.193 648.533 974.175 648.555 974.162 648.581C974.149 648.608 974.14 648.639 974.134 648.674L974.08 648.649C974.089 648.581 974.104 648.52 974.125 648.465C974.146 648.409 974.173 648.362 974.204 648.323C974.236 648.284 974.273 648.255 974.314 648.237C974.356 648.219 974.401 648.213 974.45 648.22C974.465 648.222 974.481 648.225 974.497 648.23C974.512 648.234 974.525 648.239 974.535 648.244ZM974.878 648.84L974.88 648.82C974.891 648.743 974.911 648.674 974.942 648.613C974.972 648.55 975.012 648.498 975.06 648.456C975.108 648.414 975.165 648.384 975.23 648.365C975.295 648.346 975.367 648.342 975.446 648.353C975.526 648.363 975.595 648.386 975.653 648.422C975.711 648.456 975.758 648.501 975.794 648.554C975.83 648.607 975.855 648.668 975.868 648.736C975.881 648.804 975.883 648.876 975.873 648.953L975.87 648.973C975.86 649.049 975.839 649.118 975.809 649.18C975.778 649.242 975.738 649.294 975.689 649.337C975.641 649.379 975.584 649.409 975.52 649.428C975.455 649.446 975.383 649.45 975.303 649.439C975.224 649.429 975.155 649.406 975.097 649.371C975.039 649.336 974.992 649.292 974.956 649.239C974.92 649.185 974.896 649.124 974.882 649.057C974.869 648.989 974.868 648.917 974.878 648.84ZM975.159 648.857L975.157 648.878C975.151 648.922 975.149 648.963 975.152 649.002C975.154 649.041 975.162 649.076 975.175 649.108C975.189 649.138 975.208 649.164 975.234 649.184C975.26 649.203 975.292 649.216 975.332 649.221C975.371 649.226 975.405 649.223 975.435 649.21C975.465 649.198 975.49 649.179 975.511 649.153C975.532 649.126 975.548 649.094 975.561 649.057C975.575 649.02 975.584 648.979 975.59 648.936L975.593 648.915C975.599 648.873 975.6 648.832 975.596 648.794C975.594 648.754 975.586 648.719 975.572 648.688C975.559 648.656 975.54 648.63 975.515 648.609C975.489 648.589 975.457 648.576 975.417 648.571C975.378 648.565 975.343 648.569 975.313 648.582C975.284 648.595 975.259 648.616 975.237 648.643C975.216 648.67 975.2 648.702 975.187 648.739C975.174 648.775 975.165 648.815 975.159 648.857ZM976.764 648.548L976.624 649.596L976.344 649.558L976.484 648.511L976.764 648.548ZM976.503 648.236C976.508 648.195 976.527 648.163 976.559 648.141C976.591 648.118 976.631 648.11 976.679 648.116C976.726 648.123 976.762 648.141 976.786 648.171C976.812 648.201 976.822 648.237 976.817 648.278C976.811 648.318 976.792 648.35 976.76 648.372C976.728 648.395 976.688 648.403 976.641 648.397C976.593 648.391 976.557 648.372 976.532 648.342C976.507 648.312 976.498 648.276 976.503 648.236ZM977.816 649.46C977.819 649.44 977.815 649.421 977.806 649.404C977.796 649.386 977.777 649.368 977.747 649.351C977.718 649.332 977.675 649.313 977.618 649.294C977.566 649.275 977.519 649.254 977.475 649.231C977.432 649.207 977.396 649.18 977.366 649.15C977.336 649.12 977.314 649.087 977.3 649.051C977.286 649.013 977.282 648.972 977.288 648.928C977.294 648.884 977.309 648.844 977.333 648.808C977.357 648.771 977.389 648.741 977.429 648.716C977.469 648.691 977.516 648.673 977.57 648.663C977.624 648.652 977.684 648.652 977.749 648.66C977.84 648.672 977.917 648.697 977.978 648.735C978.04 648.773 978.085 648.82 978.113 648.875C978.142 648.93 978.152 648.99 978.143 649.055L977.864 649.018C977.868 648.99 977.865 648.965 977.857 648.943C977.848 648.919 977.833 648.9 977.811 648.884C977.79 648.868 977.76 648.858 977.723 648.853C977.692 648.849 977.664 648.851 977.64 648.859C977.616 648.866 977.597 648.878 977.582 648.894C977.568 648.91 977.56 648.929 977.557 648.95C977.555 648.966 977.556 648.981 977.561 648.995C977.566 649.008 977.576 649.021 977.59 649.033C977.604 649.046 977.623 649.058 977.646 649.07C977.67 649.082 977.7 649.094 977.736 649.106C977.81 649.131 977.874 649.161 977.93 649.194C977.986 649.226 978.029 649.266 978.058 649.313C978.088 649.36 978.098 649.417 978.088 649.486C978.082 649.532 978.066 649.574 978.04 649.61C978.015 649.645 977.98 649.675 977.938 649.699C977.895 649.722 977.846 649.739 977.789 649.747C977.734 649.756 977.672 649.755 977.605 649.747C977.508 649.733 977.428 649.705 977.365 649.661C977.302 649.617 977.257 649.566 977.229 649.508C977.202 649.449 977.193 649.392 977.2 649.335L977.464 649.37C977.461 649.408 977.466 649.44 977.481 649.466C977.497 649.492 977.518 649.512 977.545 649.526C977.573 649.54 977.603 649.549 977.637 649.554C977.673 649.559 977.704 649.558 977.729 649.551C977.754 649.544 977.774 649.533 977.789 649.518C977.804 649.502 977.813 649.483 977.816 649.46ZM979.191 649.644C979.194 649.624 979.19 649.605 979.181 649.587C979.171 649.57 979.152 649.552 979.122 649.534C979.093 649.516 979.05 649.497 978.993 649.478C978.941 649.459 978.894 649.438 978.85 649.414C978.808 649.39 978.771 649.363 978.741 649.334C978.711 649.304 978.69 649.271 978.675 649.234C978.661 649.197 978.657 649.156 978.663 649.111C978.669 649.068 978.684 649.027 978.708 648.991C978.732 648.955 978.764 648.925 978.804 648.9C978.844 648.874 978.891 648.856 978.945 648.847C978.999 648.836 979.059 648.835 979.125 648.844C979.216 648.856 979.292 648.881 979.353 648.919C979.415 648.957 979.46 649.003 979.488 649.059C979.517 649.114 979.527 649.174 979.518 649.238L979.239 649.201C979.243 649.174 979.24 649.149 979.232 649.126C979.224 649.103 979.208 649.083 979.186 649.068C979.165 649.052 979.135 649.041 979.098 649.036C979.067 649.032 979.039 649.034 979.015 649.042C978.991 649.049 978.972 649.061 978.957 649.078C978.943 649.094 978.935 649.112 978.932 649.134C978.93 649.15 978.931 649.165 978.936 649.178C978.942 649.192 978.951 649.204 978.965 649.217C978.98 649.229 978.998 649.242 979.022 649.254C979.046 649.266 979.076 649.277 979.111 649.289C979.185 649.315 979.25 649.344 979.306 649.377C979.362 649.41 979.404 649.45 979.433 649.497C979.463 649.544 979.473 649.601 979.464 649.669C979.457 649.716 979.441 649.757 979.416 649.793C979.39 649.829 979.356 649.859 979.313 649.883C979.27 649.906 979.221 649.922 979.165 649.931C979.109 649.939 979.048 649.939 978.98 649.93C978.883 649.917 978.803 649.889 978.74 649.845C978.677 649.801 978.632 649.75 978.604 649.692C978.577 649.633 978.568 649.575 978.575 649.518L978.84 649.554C978.836 649.592 978.841 649.624 978.856 649.65C978.872 649.675 978.893 649.695 978.92 649.709C978.948 649.723 978.979 649.733 979.012 649.737C979.048 649.742 979.079 649.741 979.104 649.735C979.129 649.728 979.149 649.717 979.164 649.701C979.179 649.686 979.188 649.667 979.191 649.644ZM980.558 649.881L980.62 649.414C980.625 649.381 980.623 649.351 980.616 649.326C980.608 649.3 980.593 649.278 980.572 649.262C980.551 649.245 980.523 649.235 980.486 649.23C980.456 649.226 980.428 649.227 980.404 649.235C980.38 649.243 980.361 649.256 980.346 649.274C980.331 649.292 980.322 649.314 980.318 649.34L980.039 649.303C980.045 649.258 980.061 649.218 980.087 649.18C980.113 649.143 980.148 649.112 980.191 649.087C980.235 649.061 980.285 649.043 980.341 649.033C980.398 649.023 980.461 649.022 980.529 649.031C980.61 649.042 980.68 649.065 980.74 649.101C980.8 649.137 980.844 649.184 980.873 649.243C980.902 649.302 980.912 649.372 980.901 649.454L980.841 649.902C980.833 649.959 980.831 650.007 980.833 650.044C980.835 650.082 980.841 650.115 980.851 650.143L980.849 650.16L980.567 650.122C980.558 650.092 980.552 650.055 980.551 650.012C980.55 649.968 980.552 649.924 980.558 649.881ZM980.649 649.484L980.629 649.642L980.474 649.621C980.437 649.616 980.404 649.616 980.376 649.621C980.348 649.626 980.324 649.635 980.305 649.648C980.285 649.66 980.27 649.676 980.259 649.695C980.248 649.714 980.242 649.735 980.238 649.759C980.235 649.783 980.238 649.805 980.246 649.826C980.255 649.846 980.269 649.863 980.288 649.877C980.307 649.89 980.331 649.899 980.358 649.902C980.4 649.908 980.438 649.904 980.471 649.892C980.504 649.879 980.531 649.862 980.551 649.839C980.572 649.817 980.584 649.795 980.587 649.773L980.645 649.901C980.631 649.926 980.613 649.952 980.592 649.978C980.57 650.004 980.544 650.028 980.514 650.049C980.484 650.07 980.448 650.086 980.408 650.097C980.368 650.107 980.322 650.109 980.269 650.102C980.203 650.093 980.144 650.072 980.094 650.038C980.044 650.004 980.006 649.961 979.981 649.91C979.956 649.858 979.948 649.802 979.956 649.741C979.963 649.686 979.98 649.639 980.007 649.599C980.033 649.559 980.068 649.528 980.112 649.504C980.157 649.48 980.21 649.464 980.273 649.457C980.336 649.45 980.407 649.452 980.487 649.462L980.649 649.484ZM981.762 649.443L981.652 650.267L981.373 650.23L981.513 649.183L981.774 649.217L981.762 649.443ZM981.686 649.701L981.611 649.691C981.621 649.614 981.64 649.545 981.669 649.486C981.697 649.426 981.732 649.377 981.774 649.338C981.816 649.298 981.864 649.27 981.917 649.253C981.97 649.236 982.028 649.232 982.09 649.24C982.139 649.246 982.183 649.259 982.221 649.279C982.26 649.299 982.292 649.326 982.317 649.361C982.342 649.396 982.36 649.44 982.368 649.493C982.378 649.546 982.377 649.609 982.368 649.683L982.278 650.351L981.998 650.313L982.087 649.644C982.093 649.598 982.092 649.561 982.082 649.533C982.073 649.506 982.056 649.485 982.032 649.472C982.009 649.457 981.98 649.448 981.943 649.443C981.906 649.438 981.872 649.441 981.843 649.452C981.814 649.463 981.788 649.481 981.767 649.505C981.746 649.529 981.728 649.557 981.715 649.591C981.701 649.624 981.692 649.661 981.686 649.701ZM983.5 649.448L983.474 649.645L982.864 649.564L982.89 649.366L983.5 649.448ZM983.076 649.128L983.354 649.165L983.222 650.156C983.218 650.186 983.219 650.21 983.225 650.227C983.231 650.244 983.242 650.257 983.257 650.266C983.272 650.274 983.292 650.279 983.317 650.282C983.334 650.285 983.35 650.286 983.363 650.287C983.378 650.287 983.39 650.286 983.4 650.286L983.374 650.491C983.349 650.496 983.322 650.498 983.294 650.499C983.265 650.5 983.234 650.498 983.201 650.494C983.139 650.485 983.087 650.468 983.044 650.442C983.002 650.415 982.971 650.378 982.953 650.329C982.934 650.281 982.93 650.22 982.94 650.146L983.076 649.128Z" fill="white"/>
<path d="M972.162 653.683L971.995 654.931L971.716 654.894L971.91 653.444L972.168 653.479L972.162 653.683ZM972.783 654.082L972.781 654.102C972.77 654.178 972.752 654.248 972.725 654.311C972.699 654.374 972.666 654.427 972.625 654.471C972.584 654.514 972.537 654.546 972.482 654.566C972.428 654.586 972.369 654.591 972.303 654.582C972.239 654.574 972.185 654.553 972.141 654.521C972.098 654.489 972.063 654.448 972.037 654.397C972.011 654.346 971.993 654.288 971.982 654.223C971.971 654.159 971.965 654.09 971.964 654.018L971.971 653.965C971.992 653.89 972.016 653.822 972.044 653.762C972.072 653.7 972.105 653.648 972.142 653.606C972.181 653.563 972.225 653.532 972.275 653.513C972.326 653.493 972.383 653.488 972.446 653.496C972.512 653.505 972.569 653.525 972.616 653.557C972.664 653.589 972.701 653.631 972.729 653.683C972.758 653.734 972.776 653.794 972.785 653.862C972.795 653.929 972.794 654.003 972.783 654.082ZM972.501 654.065L972.504 654.045C972.509 654 972.511 653.959 972.508 653.92C972.506 653.881 972.499 653.846 972.487 653.816C972.475 653.785 972.457 653.761 972.434 653.742C972.411 653.722 972.381 653.71 972.345 653.705C972.307 653.7 972.273 653.702 972.245 653.711C972.217 653.719 972.193 653.734 972.173 653.755C972.153 653.776 972.137 653.802 972.124 653.833C972.111 653.864 972.101 653.9 972.094 653.941L972.076 654.075C972.073 654.123 972.076 654.168 972.086 654.208C972.096 654.247 972.115 654.28 972.143 654.306C972.171 654.332 972.21 654.348 972.26 654.355C972.297 654.36 972.329 654.356 972.356 654.343C972.384 654.33 972.407 654.31 972.426 654.283C972.446 654.256 972.462 654.224 972.474 654.186C972.486 654.149 972.495 654.109 972.501 654.065ZM973.839 654.527L973.901 654.061C973.906 654.027 973.904 653.998 973.896 653.972C973.888 653.946 973.874 653.925 973.852 653.908C973.832 653.892 973.803 653.881 973.767 653.876C973.736 653.872 973.709 653.874 973.685 653.882C973.661 653.889 973.641 653.902 973.626 653.921C973.611 653.938 973.602 653.96 973.599 653.987L973.32 653.95C973.326 653.905 973.342 653.864 973.368 653.827C973.394 653.79 973.428 653.759 973.472 653.734C973.515 653.708 973.565 653.69 973.622 653.68C973.679 653.67 973.742 653.669 973.809 653.678C973.891 653.689 973.961 653.712 974.021 653.748C974.08 653.783 974.125 653.831 974.153 653.89C974.183 653.949 974.192 654.019 974.182 654.1L974.122 654.548C974.114 654.606 974.111 654.653 974.113 654.691C974.116 654.728 974.122 654.761 974.132 654.79L974.13 654.807L973.848 654.769C973.838 654.739 973.833 654.702 973.831 654.658C973.83 654.614 973.833 654.571 973.839 654.527ZM973.929 654.131L973.91 654.289L973.754 654.268C973.717 654.263 973.685 654.263 973.657 654.268C973.628 654.272 973.605 654.281 973.585 654.294C973.566 654.307 973.55 654.323 973.539 654.342C973.529 654.361 973.522 654.382 973.519 654.406C973.516 654.43 973.518 654.452 973.527 654.473C973.535 654.493 973.549 654.51 973.568 654.524C973.588 654.537 973.611 654.545 973.639 654.549C973.681 654.555 973.718 654.551 973.752 654.538C973.785 654.526 973.811 654.508 973.831 654.486C973.852 654.464 973.864 654.442 973.868 654.42L973.926 654.548C973.912 654.573 973.894 654.598 973.872 654.624C973.851 654.65 973.825 654.674 973.795 654.696C973.764 654.717 973.729 654.733 973.689 654.744C973.649 654.754 973.602 654.756 973.55 654.749C973.484 654.74 973.425 654.719 973.374 654.685C973.324 654.651 973.287 654.608 973.261 654.557C973.237 654.505 973.229 654.448 973.237 654.388C973.244 654.333 973.261 654.286 973.287 654.246C973.314 654.206 973.349 654.174 973.393 654.151C973.437 654.126 973.491 654.111 973.553 654.104C973.616 654.097 973.688 654.098 973.768 654.109L973.929 654.131ZM975.094 653.869L974.954 654.917L974.674 654.879L974.814 653.832L975.094 653.869ZM974.833 653.557C974.838 653.516 974.857 653.484 974.889 653.462C974.921 653.439 974.961 653.431 975.009 653.437C975.056 653.444 975.092 653.462 975.117 653.492C975.142 653.522 975.152 653.558 975.147 653.599C975.141 653.639 975.122 653.671 975.09 653.693C975.058 653.716 975.018 653.724 974.971 653.718C974.923 653.712 974.887 653.693 974.862 653.663C974.837 653.633 974.828 653.597 974.833 653.557ZM975.924 654.208L975.814 655.031L975.535 654.994L975.675 653.947L975.937 653.982L975.924 654.208ZM975.848 654.466L975.773 654.456C975.783 654.378 975.802 654.31 975.831 654.25C975.859 654.191 975.894 654.141 975.936 654.102C975.978 654.062 976.026 654.034 976.079 654.018C976.132 654 976.19 653.996 976.252 654.004C976.301 654.011 976.345 654.024 976.383 654.043C976.422 654.063 976.454 654.09 976.479 654.125C976.505 654.16 976.522 654.204 976.53 654.257C976.54 654.31 976.539 654.374 976.53 654.447L976.44 655.115L976.16 655.078L976.249 654.409C976.255 654.362 976.254 654.325 976.244 654.298C976.235 654.27 976.218 654.25 976.194 654.236C976.171 654.222 976.142 654.212 976.105 654.207C976.068 654.202 976.034 654.205 976.005 654.217C975.976 654.228 975.95 654.245 975.929 654.269C975.908 654.293 975.891 654.321 975.877 654.355C975.863 654.389 975.854 654.426 975.848 654.466ZM978.457 655.144L978.519 654.677C978.523 654.644 978.522 654.614 978.514 654.589C978.506 654.563 978.492 654.542 978.47 654.525C978.449 654.508 978.421 654.498 978.385 654.493C978.354 654.489 978.326 654.491 978.302 654.499C978.278 654.506 978.259 654.519 978.244 654.537C978.229 654.555 978.22 654.577 978.216 654.603L977.938 654.566C977.944 654.522 977.96 654.481 977.985 654.444C978.011 654.406 978.046 654.375 978.09 654.35C978.133 654.324 978.183 654.306 978.24 654.296C978.297 654.286 978.359 654.286 978.427 654.295C978.508 654.306 978.579 654.329 978.638 654.364C978.698 654.4 978.742 654.447 978.771 654.506C978.801 654.565 978.81 654.635 978.799 654.717L978.739 655.165C978.732 655.222 978.729 655.27 978.731 655.308C978.733 655.345 978.74 655.378 978.75 655.407L978.747 655.423L978.466 655.386C978.456 655.355 978.45 655.318 978.449 655.275C978.448 655.231 978.451 655.187 978.457 655.144ZM978.547 654.747L978.528 654.905L978.372 654.884C978.335 654.879 978.303 654.879 978.274 654.884C978.246 654.889 978.222 654.898 978.203 654.911C978.183 654.924 978.168 654.939 978.157 654.958C978.147 654.977 978.14 654.999 978.137 655.022C978.134 655.046 978.136 655.069 978.145 655.089C978.153 655.11 978.167 655.127 978.186 655.14C978.205 655.153 978.229 655.162 978.257 655.166C978.299 655.171 978.336 655.168 978.369 655.155C978.403 655.142 978.429 655.125 978.449 655.103C978.47 655.08 978.482 655.058 978.486 655.036L978.543 655.164C978.53 655.189 978.512 655.215 978.49 655.241C978.469 655.267 978.443 655.291 978.412 655.312C978.382 655.333 978.347 655.349 978.306 655.36C978.266 655.371 978.22 655.372 978.168 655.365C978.101 655.357 978.043 655.335 977.992 655.302C977.942 655.267 977.905 655.225 977.879 655.173C977.855 655.121 977.846 655.065 977.854 655.004C977.862 654.95 977.879 654.902 977.905 654.862C977.931 654.823 977.966 654.791 978.01 654.767C978.055 654.743 978.109 654.727 978.171 654.721C978.234 654.713 978.305 654.715 978.385 654.726L978.547 654.747ZM979.93 655.326L980.037 654.529L980.316 654.567L980.176 655.614L979.913 655.579L979.93 655.326ZM979.99 655.115L980.073 655.124C980.063 655.194 980.047 655.258 980.022 655.316C979.998 655.373 979.967 655.421 979.929 655.461C979.891 655.5 979.846 655.528 979.794 655.546C979.741 655.563 979.682 655.568 979.616 655.559C979.565 655.552 979.518 655.539 979.477 655.519C979.436 655.498 979.403 655.47 979.376 655.435C979.35 655.399 979.331 655.356 979.32 655.305C979.31 655.253 979.31 655.192 979.319 655.122L979.41 654.446L979.688 654.483L979.598 655.161C979.594 655.192 979.594 655.219 979.598 655.241C979.603 655.263 979.611 655.282 979.623 655.298C979.635 655.313 979.649 655.325 979.666 655.333C979.684 655.341 979.705 655.347 979.727 655.35C979.785 655.358 979.831 655.352 979.867 655.333C979.904 655.315 979.932 655.286 979.951 655.248C979.97 655.209 979.983 655.165 979.99 655.115ZM971.964 656.333C971.999 656.338 972.03 656.335 972.058 656.326C972.086 656.316 972.109 656.3 972.127 656.278C972.146 656.256 972.158 656.228 972.163 656.195L972.426 656.23C972.415 656.304 972.387 656.367 972.34 656.419C972.294 656.471 972.236 656.508 972.166 656.533C972.097 656.556 972.022 656.563 971.941 656.552C971.86 656.541 971.791 656.518 971.734 656.483C971.677 656.448 971.632 656.404 971.599 656.35C971.565 656.297 971.543 656.237 971.531 656.17C971.52 656.103 971.519 656.032 971.529 655.959L971.532 655.931C971.542 655.857 971.562 655.789 971.59 655.728C971.619 655.666 971.656 655.614 971.703 655.571C971.749 655.528 971.804 655.497 971.868 655.478C971.931 655.459 972.004 655.455 972.084 655.466C972.17 655.477 972.243 655.503 972.303 655.545C972.364 655.587 972.409 655.641 972.437 655.707C972.467 655.772 972.476 655.847 972.466 655.93L972.203 655.895C972.207 655.86 972.204 655.828 972.194 655.797C972.184 655.767 972.167 655.742 972.143 655.722C972.119 655.701 972.088 655.688 972.05 655.683C972.01 655.677 971.975 655.681 971.947 655.695C971.919 655.709 971.896 655.729 971.878 655.757C971.86 655.784 971.845 655.816 971.835 655.853C971.824 655.889 971.817 655.927 971.811 655.968L971.808 655.996C971.802 656.037 971.799 656.076 971.8 656.114C971.8 656.152 971.805 656.187 971.815 656.218C971.826 656.249 971.844 656.274 971.867 656.295C971.891 656.315 971.923 656.328 971.964 656.333ZM973.366 655.209L973.168 656.696L972.889 656.659L973.088 655.172L973.366 655.209ZM973.203 656.13L973.127 656.12C973.137 656.047 973.156 655.981 973.183 655.922C973.21 655.863 973.243 655.813 973.284 655.773C973.325 655.731 973.372 655.701 973.423 655.683C973.476 655.664 973.532 655.659 973.591 655.667C973.643 655.674 973.688 655.687 973.728 655.708C973.769 655.728 973.802 655.756 973.829 655.792C973.855 655.828 973.874 655.873 973.883 655.926C973.893 655.98 973.893 656.044 973.884 656.118L973.795 656.78L973.514 656.742L973.603 656.078C973.609 656.032 973.607 655.994 973.597 655.966C973.588 655.937 973.572 655.916 973.548 655.901C973.525 655.886 973.495 655.877 973.459 655.872C973.419 655.866 973.384 655.869 973.354 655.88C973.324 655.891 973.299 655.909 973.279 655.933C973.258 655.957 973.242 655.986 973.23 656.019C973.217 656.053 973.208 656.09 973.203 656.13ZM974.388 656.337L974.391 656.316C974.401 656.24 974.421 656.17 974.452 656.109C974.483 656.046 974.522 655.994 974.57 655.952C974.619 655.91 974.675 655.88 974.74 655.861C974.805 655.843 974.877 655.838 974.957 655.849C975.036 655.86 975.105 655.883 975.163 655.918C975.221 655.953 975.268 655.997 975.304 656.05C975.34 656.104 975.365 656.164 975.378 656.232C975.392 656.3 975.393 656.372 975.383 656.449L975.38 656.469C975.37 656.545 975.35 656.614 975.319 656.677C975.288 656.738 975.249 656.79 975.199 656.833C975.151 656.875 975.095 656.906 975.03 656.924C974.965 656.942 974.893 656.946 974.813 656.935C974.734 656.925 974.665 656.902 974.607 656.867C974.549 656.833 974.502 656.789 974.466 656.735C974.43 656.681 974.406 656.62 974.393 656.553C974.379 656.485 974.378 656.413 974.388 656.337ZM974.669 656.354L974.667 656.374C974.661 656.418 974.659 656.459 974.662 656.498C974.665 656.537 974.672 656.573 974.685 656.604C974.699 656.635 974.719 656.66 974.744 656.68C974.77 656.7 974.803 656.712 974.843 656.718C974.881 656.723 974.916 656.719 974.945 656.707C974.975 656.694 975.001 656.675 975.021 656.649C975.042 656.622 975.059 656.59 975.071 656.553C975.085 656.516 975.095 656.476 975.1 656.432L975.103 656.411C975.109 656.369 975.11 656.328 975.107 656.29C975.104 656.251 975.096 656.215 975.082 656.184C975.069 656.152 975.05 656.126 975.025 656.105C974.999 656.085 974.967 656.072 974.927 656.067C974.888 656.062 974.853 656.065 974.823 656.079C974.794 656.092 974.769 656.112 974.747 656.139C974.727 656.166 974.71 656.198 974.697 656.235C974.684 656.271 974.675 656.311 974.669 656.354ZM976.299 656.912C976.333 656.917 976.364 656.914 976.393 656.905C976.421 656.895 976.444 656.879 976.462 656.857C976.481 656.834 976.493 656.807 976.498 656.774L976.76 656.809C976.75 656.883 976.721 656.945 976.675 656.998C976.628 657.049 976.57 657.087 976.501 657.111C976.431 657.135 976.356 657.141 976.276 657.131C976.194 657.12 976.125 657.097 976.068 657.061C976.012 657.026 975.967 656.982 975.933 656.929C975.9 656.875 975.877 656.815 975.866 656.749C975.854 656.682 975.853 656.611 975.863 656.538L975.867 656.51C975.877 656.435 975.896 656.368 975.925 656.306C975.953 656.245 975.991 656.192 976.037 656.15C976.084 656.107 976.139 656.076 976.202 656.057C976.266 656.038 976.338 656.033 976.419 656.044C976.505 656.056 976.578 656.082 976.638 656.124C976.699 656.165 976.743 656.219 976.772 656.285C976.801 656.351 976.811 656.426 976.8 656.509L976.538 656.474C976.542 656.439 976.539 656.406 976.528 656.376C976.518 656.346 976.501 656.321 976.477 656.3C976.454 656.279 976.423 656.266 976.385 656.261C976.344 656.256 976.31 656.26 976.282 656.274C976.254 656.288 976.231 656.308 976.212 656.336C976.194 656.363 976.18 656.395 976.169 656.432C976.159 656.468 976.151 656.506 976.146 656.547L976.142 656.575C976.137 656.615 976.134 656.655 976.134 656.693C976.134 656.731 976.14 656.766 976.15 656.797C976.161 656.828 976.178 656.853 976.202 656.873C976.225 656.894 976.258 656.906 976.299 656.912ZM977.254 656.719L977.257 656.699C977.267 656.622 977.288 656.553 977.318 656.491C977.349 656.429 977.388 656.377 977.437 656.335C977.485 656.293 977.542 656.263 977.607 656.244C977.671 656.225 977.744 656.221 977.823 656.232C977.902 656.242 977.971 656.265 978.03 656.301C978.088 656.335 978.135 656.379 978.17 656.433C978.207 656.486 978.231 656.547 978.245 656.615C978.258 656.683 978.26 656.755 978.249 656.832L978.247 656.852C978.236 656.928 978.216 656.997 978.185 657.059C978.155 657.121 978.115 657.173 978.066 657.216C978.018 657.258 977.961 657.288 977.896 657.307C977.831 657.325 977.759 657.329 977.68 657.318C977.6 657.307 977.532 657.285 977.473 657.25C977.415 657.215 977.368 657.171 977.332 657.118C977.297 657.064 977.272 657.003 977.259 656.936C977.246 656.868 977.244 656.796 977.254 656.719ZM977.536 656.736L977.533 656.757C977.527 656.8 977.526 656.842 977.528 656.881C977.531 656.92 977.539 656.955 977.552 656.987C977.565 657.017 977.585 657.043 977.611 657.063C977.636 657.082 977.669 657.095 977.709 657.1C977.748 657.105 977.782 657.102 977.812 657.089C977.842 657.077 977.867 657.058 977.888 657.032C977.908 657.005 977.925 656.973 977.938 656.936C977.951 656.899 977.961 656.858 977.967 656.815L977.97 656.794C977.975 656.752 977.976 656.711 977.973 656.672C977.97 656.633 977.962 656.598 977.949 656.567C977.936 656.535 977.917 656.509 977.891 656.488C977.866 656.468 977.833 656.455 977.794 656.45C977.755 656.444 977.72 656.448 977.69 656.461C977.66 656.474 977.635 656.495 977.614 656.522C977.593 656.549 977.576 656.581 977.564 656.618C977.551 656.654 977.542 656.694 977.536 656.736ZM979.199 655.988L979 657.475L978.721 657.437L978.919 655.951L979.199 655.988ZM980.185 657.392L980.247 656.926C980.251 656.892 980.25 656.863 980.242 656.837C980.234 656.812 980.22 656.79 980.198 656.774C980.177 656.757 980.149 656.746 980.113 656.741C980.082 656.737 980.054 656.739 980.03 656.747C980.006 656.754 979.987 656.767 979.972 656.786C979.957 656.803 979.948 656.825 979.944 656.852L979.666 656.815C979.672 656.77 979.688 656.729 979.714 656.692C979.739 656.655 979.774 656.624 979.818 656.599C979.861 656.573 979.911 656.555 979.968 656.545C980.025 656.535 980.087 656.534 980.155 656.543C980.236 656.554 980.307 656.577 980.366 656.613C980.426 656.648 980.47 656.696 980.499 656.755C980.529 656.814 980.538 656.884 980.527 656.965L980.467 657.413C980.46 657.471 980.457 657.518 980.459 657.556C980.461 657.593 980.468 657.626 980.478 657.655L980.475 657.672L980.194 657.634C980.184 657.604 980.178 657.567 980.177 657.523C980.176 657.479 980.179 657.436 980.185 657.392ZM980.275 656.996L980.256 657.154L980.1 657.133C980.063 657.128 980.031 657.128 980.002 657.133C979.974 657.137 979.95 657.146 979.931 657.16C979.911 657.172 979.896 657.188 979.885 657.207C979.875 657.226 979.868 657.247 979.865 657.271C979.862 657.295 979.864 657.317 979.873 657.338C979.881 657.358 979.895 657.375 979.914 657.389C979.933 657.402 979.957 657.41 979.985 657.414C980.027 657.42 980.064 657.416 980.097 657.403C980.131 657.391 980.157 657.373 980.177 657.351C980.198 657.329 980.21 657.307 980.214 657.285L980.271 657.413C980.258 657.438 980.24 657.463 980.218 657.489C980.197 657.516 980.171 657.539 980.14 657.561C980.11 657.582 980.075 657.598 980.034 657.609C979.994 657.619 979.948 657.621 979.896 657.614C979.829 657.605 979.771 657.584 979.72 657.55C979.67 657.516 979.633 657.473 979.607 657.422C979.583 657.37 979.574 657.314 979.582 657.253C979.59 657.198 979.607 657.151 979.633 657.111C979.659 657.071 979.694 657.039 979.738 657.016C979.783 656.991 979.837 656.976 979.899 656.969C979.962 656.962 980.033 656.963 980.113 656.974L980.275 656.996ZM981.658 656.764L981.632 656.961L981.022 656.88L981.048 656.682L981.658 656.764ZM981.234 656.444L981.513 656.481L981.381 657.471C981.376 657.502 981.377 657.525 981.383 657.543C981.389 657.56 981.4 657.573 981.415 657.581C981.43 657.589 981.45 657.595 981.475 657.598C981.492 657.601 981.508 657.602 981.522 657.602C981.536 657.602 981.548 657.602 981.558 657.601L981.532 657.807C981.507 657.811 981.48 657.814 981.452 657.815C981.424 657.816 981.393 657.814 981.359 657.809C981.298 657.801 981.246 657.784 981.202 657.758C981.16 657.731 981.13 657.694 981.111 657.645C981.093 657.597 981.088 657.536 981.098 657.462L981.234 656.444Z" fill="white"/>
<path d="M937.6 513.296L937.843 511.216C934.039 511.717 932.724 510.451 930.564 507.837C932.135 510.656 933.285 512.08 937.6 513.296Z" fill="#E19A67"/>
<path d="M777.719 622.471C777.719 622.471 780.448 622.016 780.448 623.381C780.448 624.746 776.354 623.836 776.354 623.836" stroke="#FFF2E5"/>
<path d="M889.624 552.417L867.789 569.09L993.34 569.703V552.417H889.624Z" fill="#F2E7DD"/>
<rect x="591.073" y="428.965" width="27.3325" height="34.9248" fill="#EDE8DF"/>
<path d="M613.091 451.995C602.893 448.883 594.363 443.137 593.603 440.607C592.844 438.076 603.485 431.997 609.547 435.039C615.61 438.081 616.605 449.028 613.091 451.995Z" fill="#8E6641"/>
<path d="M611.572 457.816C611.826 456.551 599.931 448.705 597.653 449.971C595.375 451.236 595.375 457.816 599.172 460.347C602.968 462.878 611.319 459.081 611.572 457.816Z" fill="#D8A868"/>
<path d="M603.727 461.106C604.063 456.596 606.005 449.211 606.258 447.44C606.511 445.668 605.681 439.306 604.233 436.051" stroke="#1E0A06"/>
<path d="M602.435 434.533C603.09 435.517 603.524 435.924 604.46 436.304C604.663 435.444 604.652 434.825 604.46 433.521C603.665 431.942 603.224 431.631 602.435 430.99C602.192 432.374 602.078 433.149 602.435 434.533Z" fill="#240902"/>
<path d="M600.035 438.085C600.975 438.802 601.518 439.045 602.526 439.1C602.438 438.22 602.225 437.638 601.619 436.468C600.353 435.235 599.834 435.085 598.88 434.735C599.101 436.123 599.246 436.893 600.035 438.085Z" fill="#240902"/>
<path d="M600.541 446.183C601.481 446.901 602.024 447.144 603.033 447.198C602.944 446.319 602.732 445.737 602.125 444.566C600.859 443.333 600.341 443.183 599.386 442.834C599.607 444.221 599.752 444.992 600.541 446.183Z" fill="#240902"/>
<path d="M602.731 450.238C603.522 449.911 603.872 449.66 604.273 449.049C603.69 448.784 603.249 448.706 602.296 448.659C601.064 449.002 600.781 449.272 600.215 449.742C601.164 450.109 601.699 450.298 602.731 450.238Z" fill="#240902"/>
<path d="M609.69 437.864C608.886 438.729 608.393 439.06 607.412 439.283C607.353 438.401 607.465 437.792 607.866 436.536C608.904 435.109 609.389 434.873 610.268 434.368C610.282 435.773 610.267 436.557 609.69 437.864Z" fill="#240902"/>
<path d="M612.069 452.714C610.906 452.918 610.313 452.884 609.396 452.47C609.881 451.731 610.338 451.313 611.416 450.554C613.106 450.043 613.634 450.148 614.64 450.276C613.803 451.404 613.317 452.02 612.069 452.714Z" fill="#240902"/>
<path d="M610.2 449.517C609.396 450.382 608.903 450.713 607.921 450.936C607.862 450.054 607.974 449.445 608.375 448.189C609.414 446.761 609.898 446.526 610.778 446.021C610.791 447.426 610.776 448.21 610.2 449.517Z" fill="#240902"/>
<path d="M608.726 441.586C608.047 441.472 607.728 441.339 607.305 440.933C607.715 440.621 608.047 440.48 608.786 440.273C609.814 440.32 610.084 440.48 610.611 440.746C609.932 441.203 609.546 441.447 608.726 441.586Z" fill="#240902"/>
<path d="M608.542 456.395C607.93 455.937 607.674 455.63 607.429 454.964C607.955 454.81 608.335 454.811 609.137 454.934C610.116 455.485 610.312 455.798 610.716 456.356C609.87 456.546 609.396 456.635 608.542 456.395Z" fill="#240902"/>
<path d="M605.245 439.594C603.747 439.641 602.916 439.419 601.449 438.582M606.004 442.631C607.341 441.676 607.904 440.925 608.029 438.582M605.245 452.248C604.471 448.718 603.721 448.048 601.449 445.921M604.486 456.298C604.962 455.699 605.484 455.183 606.004 454.74M610.56 452.248C609.341 452.414 608.914 452.719 608.054 453.261M608.535 449.971C607.508 451.089 607.407 451.824 608.054 453.261M608.054 453.261C607.465 453.632 606.737 454.114 606.004 454.74M606.004 454.74C607.015 454.599 607.435 454.755 608.029 455.285" stroke="black"/>
<rect x="625.491" y="448.705" width="27.3325" height="34.9248" fill="#EDE8DF"/>
<path d="M646.75 464.396C641.941 473.759 628.781 462.877 628.022 460.346C627.263 457.815 637.904 451.736 643.966 454.779C650.028 457.821 650.264 461.429 646.75 464.396Z" fill="#8E6641"/>
<path d="M646.028 465.987C637.415 460.151 628.611 473.713 629.213 476.248C629.815 478.783 636.654 484.384 640.117 481.414C643.58 478.443 654.64 471.824 646.028 465.987Z" fill="#D8A868"/>
<path d="M644.262 475.46C643.027 472.831 641.566 468.225 641.13 467.166C640.694 466.107 638.426 462.68 636.853 461.148" stroke="#1E0A06"/>
<path d="M635.394 461.038C636.203 461.471 636.65 461.591 637.429 461.507C637.253 460.844 637.018 460.424 636.408 459.602C635.285 458.814 634.869 458.763 634.094 458.613C634.435 459.649 634.642 460.222 635.394 461.038Z" fill="#240902"/>
<path d="M635.817 464.057C636.628 463.983 637.016 463.853 637.551 463.412C637.094 463.008 636.714 462.813 635.859 462.503C634.642 462.468 634.309 462.634 633.664 462.901C634.426 463.5 634.86 463.821 635.817 464.057Z" fill="#240902"/>
<path d="M640.465 461.119C640.017 461.782 639.722 462.053 639.088 462.295C638.955 461.702 638.966 461.278 639.103 460.387C639.648 459.321 639.948 459.116 640.484 458.691C640.641 459.644 640.713 460.178 640.465 461.119Z" fill="#240902"/>
<path d="M637.355 465.931C638.139 465.71 638.497 465.511 638.942 464.98C638.419 464.667 638.009 464.544 637.112 464.396C635.909 464.584 635.613 464.807 635.026 465.187C635.885 465.637 636.371 465.874 637.355 465.931Z" fill="#240902"/>
<path d="M641.714 463.18C641.153 463.747 640.812 463.957 640.143 464.078C640.119 463.473 640.207 463.059 640.503 462.212C641.234 461.268 641.567 461.122 642.172 460.805C642.155 461.767 642.13 462.304 641.714 463.18Z" fill="#240902"/>
<path d="M638.723 467.861C639.526 467.727 639.904 467.57 640.405 467.09C639.919 466.722 639.526 466.555 638.651 466.308C637.434 466.362 637.115 466.552 636.49 466.865C637.294 467.407 637.751 467.696 638.723 467.861Z" fill="#240902"/>
<path d="M642.735 465.313C642.24 465.94 641.925 466.188 641.274 466.383C641.185 465.782 641.227 465.36 641.427 464.484C642.049 463.462 642.364 463.28 642.929 462.896C643.017 463.857 643.051 464.394 642.735 465.313Z" fill="#240902"/>
<path d="M639.836 470.349C640.637 470.199 641.011 470.033 641.502 469.543C641.009 469.185 640.612 469.026 639.732 468.798C638.517 468.878 638.201 469.074 637.583 469.4C638.398 469.925 638.861 470.204 639.836 470.349Z" fill="#240902"/>
<path d="M643.665 467.873C643.157 468.489 642.837 468.73 642.182 468.911C642.106 468.309 642.156 467.888 642.375 467.017C643.018 466.009 643.337 465.833 643.911 465.462C643.979 466.424 644.001 466.961 643.665 467.873Z" fill="#240902"/>
<path d="M640.661 472.563C641.454 472.379 641.821 472.198 642.291 471.689C641.784 471.351 641.381 471.209 640.492 471.017C639.281 471.148 638.974 471.357 638.37 471.708C639.207 472.199 639.681 472.459 640.661 472.563Z" fill="#240902"/>
<path d="M644.779 469.941C644.246 470.535 643.916 470.762 643.254 470.915C643.202 470.311 643.269 469.893 643.524 469.032C644.209 468.052 644.535 467.891 645.124 467.544C645.152 468.507 645.153 469.045 644.779 469.941Z" fill="#240902"/>
<path d="M731.774 590.022C732.532 589.463 732.93 587.951 733.594 583.35L739.962 588.354L739.507 590.628C739.021 591.647 738.191 592.138 736.778 592.448C734.046 591.271 733.273 590.903 731.774 590.022Z" fill="#F4B485"/>
<path d="M734.061 580.866C737.074 581.129 738.926 580.416 743.493 577.618C746.079 582.258 742.983 587.264 741.963 588.006C740.944 588.748 739.669 588.254 739.669 588.254L737.63 599.417L744.767 600.653C746.385 598.446 748.846 597.438 750.12 590.76C751.395 584.082 748.553 574.151 743.748 570.725C743.748 570.725 741.454 569.488 736.865 569.736C732.277 569.983 727.946 577.158 726.414 584.824C717.621 593.21 715.245 594.092 714.943 598.675C715.539 603.052 716.446 604.442 718.512 606.095L732.277 590.018L734.061 585.318C733.248 583.908 733.373 582.882 734.061 580.866Z" fill="#5E4040"/>
<path d="M739.962 588.809C743.369 588.159 746.018 585.538 743.601 576.981C739.632 580.622 735.26 581.135 733.594 580.621C732.785 586.089 734.848 587.197 739.962 588.809Z" fill="#F4B485"/>
<path d="M746.993 593.262C744.385 590.731 739.17 590.225 739.17 590.225C738.699 591.438 738.154 591.729 736.824 591.744C735.69 591.723 734.133 591.005 731.348 589.719L723.586 593.813L725.872 623.381H744.385L750.383 613.004C750.657 605.854 749.601 595.793 746.993 593.262Z" fill="#FFF0D3"/>
<ellipse cx="748.805" cy="625.631" rx="15.9544" ry="5.45878" transform="rotate(8.31406 748.805 625.631)" fill="#615858" fill-opacity="0.2"/>
<path d="M739.507 589.718C736.399 588.805 736.163 588.273 734.958 586.534C737.003 587.527 737.239 588.538 739.507 588.809V589.718Z" fill="#CB9A76"/>
<path d="M726.546 606.095L724.041 610.481L725.794 623.381H741.327L728.049 613.577L726.546 606.095Z" fill="#ECD19C"/>
<path d="M743.376 609.338L734.639 607.509C733.396 607.249 732.229 608.197 732.229 609.467V621.038C732.229 621.935 732.827 622.723 733.691 622.964L742.429 625.402C743.703 625.758 744.966 624.8 744.966 623.476V611.296C744.966 610.349 744.302 609.532 743.376 609.338Z" fill="white"/>
<path d="M745.582 609.298L752.499 607.609C753.759 607.302 754.974 608.255 754.974 609.552V621.104C754.974 621.97 754.416 622.738 753.593 623.006L746.675 625.258C745.383 625.679 744.056 624.715 744.056 623.356V611.241C744.056 610.319 744.686 609.517 745.582 609.298Z" fill="white"/>
<path d="M743.376 611.157L734.639 609.329C733.396 609.069 732.229 610.017 732.229 611.286V622.857C732.229 623.755 732.827 624.542 733.691 624.783L742.429 627.222C743.703 627.578 744.966 626.619 744.966 625.295V613.115C744.966 612.168 744.302 611.351 743.376 611.157Z" fill="#77B9B9"/>
<path d="M746.451 611.095L752.459 609.494C753.728 609.156 754.974 610.113 754.974 611.427V622.963C754.974 623.81 754.441 624.565 753.643 624.848L747.635 626.982C746.333 627.444 744.966 626.479 744.966 625.097V613.027C744.966 612.121 745.575 611.328 746.451 611.095Z" fill="#77B9B9"/>
<path d="M738.515 618.832L734.048 619.742V622.774L739.507 621.561L741.492 623.381L740.996 622.168L742.237 622.774L740.996 620.955H742.237L738.515 618.832Z" fill="#F4B485"/>
<path d="M722.422 615.274C721.691 614.499 726.542 607.787 732.413 594.881L730.951 589.719C727.334 589.778 726.053 590.295 722.422 592.816C718.792 595.338 713.976 614.236 715.113 621.211C720.268 624.354 725.76 623.32 734.362 622.76C735.117 620.807 735.196 619.775 734.362 618.113C733.487 617.33 723.153 616.048 722.422 615.274Z" fill="#FFF0D3"/>
<path d="M796.184 667.051C792.69 669.069 790.056 668.941 785.038 668.118C784.729 670.76 786.136 671.157 791 670.253C795.315 670.185 797.323 669.782 799.554 667.852L796.184 667.051Z" fill="#304886"/>
<rect x="589.048" y="430.921" width="5.56772" height="2.02463" transform="rotate(-38.611 589.048 430.921)" fill="white"/>
<rect x="650.571" y="447.692" width="5.56772" height="2.02463" transform="rotate(39.6059 650.571 447.692)" fill="white"/>
<rect x="591.073" y="474.519" width="27.3325" height="35.431" fill="#EDE8DF"/>
<path d="M611.852 483.326C609.587 492.721 610.36 492.601 608.049 493.448C605.738 494.296 597.544 491.377 600.001 485.715C602.458 480.053 612.716 482.12 611.852 483.326Z" fill="#8E6641"/>
<path d="M611.572 499.321C611.572 493.753 599.93 488.301 597.653 489.566C595.375 490.831 595.411 502.242 599.207 504.773C603.003 507.304 611.572 504.888 611.572 499.321Z" fill="#D8A868"/>
<path d="M602.912 499.815C602.267 500.34 601.268 493.364 602.011 492.318C602.173 492.09 602.2 491.898 602.141 491.73M600.508 490.261C600.358 489.526 600.057 486.292 599.757 485.851C599.626 485.66 599.43 485.393 599.155 485.114M600.508 490.261C600.557 490.5 600.812 490.691 601.109 490.876M600.508 490.261C599.459 489.697 598.944 489.228 598.254 487.909M597.653 484.087C598.305 484.361 598.797 484.749 599.155 485.114M599.155 483.646C598.952 484.259 598.934 484.585 599.155 485.114M607.27 483.646C607.203 484.631 606.322 486.148 605.301 487.615M602.141 491.73C602.378 491.412 602.966 490.703 603.663 489.814M602.141 491.73C602.018 491.38 601.524 491.134 601.109 490.876M603.663 489.814C604.558 490.049 605.075 490.057 606.068 489.526M603.663 489.814C604.182 489.152 604.761 488.39 605.301 487.615M605.301 487.615C605.408 486.775 605.328 486.322 604.866 485.557M601.109 490.876C600.852 489.971 601.017 489.443 601.409 488.497" stroke="black"/>
<path d="M605.751 482.253C605.902 483.056 606.044 483.497 607.053 484.151C608.033 484.13 608.385 483.69 608.788 482.411L607.776 483.044V481.779L607.053 482.728L606.763 481.621L606.474 482.411L605.751 482.253Z" fill="#240902"/>
<path d="M602.92 485.091C603.348 485.713 603.639 486.03 604.808 486.189C605.71 485.786 605.878 485.275 605.792 484.033L605.081 484.966L604.627 483.894L604.297 484.982L603.631 484.158L603.647 484.941L602.92 485.091Z" fill="#240902"/>
<path d="M598.476 482.18C598.512 482.934 598.591 483.357 599.501 484.109C600.479 484.242 600.892 483.897 601.474 482.796L600.378 483.214L600.557 482.064L599.703 482.814L599.573 481.762L599.173 482.437L598.476 482.18Z" fill="#240902"/>
<path d="M595.431 484.021C595.952 484.567 596.289 484.835 597.469 484.807C598.295 484.267 598.381 483.735 598.1 482.522L597.545 483.557L596.927 482.569L596.774 483.696L595.986 482.987L596.125 483.759L595.431 484.021Z" fill="#240902"/>
<path d="M596.596 488.099C597.116 488.645 597.454 488.912 598.634 488.884C599.46 488.344 599.545 487.813 599.265 486.599L598.71 487.634L598.092 486.647L597.938 487.773L597.15 487.064L597.29 487.836L596.596 488.099Z" fill="#240902"/>
<path d="M600.925 487.14C600.96 487.894 601.04 488.317 601.95 489.069C602.928 489.202 603.34 488.856 603.923 487.756L602.826 488.174L603.006 487.023L602.152 487.774L602.022 486.722L601.622 487.396L600.925 487.14Z" fill="#240902"/>
<path d="M605.645 488.226C605.388 488.936 605.298 489.357 605.849 490.401C606.7 490.901 607.214 490.74 608.175 489.949L607.002 489.913L607.611 488.92L606.534 489.284L606.818 488.263L606.19 488.731L605.645 488.226Z" fill="#240902"/>
<rect x="601.667" y="473.681" width="5.56772" height="2.02463" transform="rotate(-3.58208 601.667 473.681)" fill="white"/>
<path d="M519.111 565.154L469.298 598.817L477.612 698.911L640.571 731.647H815.93L680.825 645.216H624.418H562.097L519.111 565.154Z" fill="#C69F83" fill-opacity="0.2"/>
<path d="M980.316 550.598C976.336 549.528 975.181 548.148 975.145 544.229C980.13 545.221 981.218 546.638 980.316 550.598Z" fill="#79D2BD"/>
<path d="M512.058 533.312L468.388 534.676V589.719L512.058 560.097V533.312Z" fill="#F1ECE7"/>
<path d="M1065.21 534.221L1086.59 534.221H1106.16V606.095L1065.21 577.969V534.221Z" fill="#F1ECE7"/>
<path d="M241.849 293.697H281.88V628.912L241.849 643.059V293.697Z" fill="#9E8570"/>
<path d="M981.68 550.367C981.579 546.929 982.45 545.616 985.737 544.432C986.156 548.636 985.238 549.908 981.68 550.367Z" fill="#77B5A6"/>
<path d="M120.846 363.751H159.967V715.842L120.846 696.43V363.751Z" fill="#BA9E86"/>
<path d="M201.195 262.97L168.269 367.844L296.923 394.062L363.383 327.601L278.631 220.899L201.195 262.97Z" fill="#EADED4"/>
<path d="M985.482 556.567L985.643 555.925C986.318 553.218 984.271 550.598 981.481 550.598C978.712 550.598 976.669 553.183 977.309 555.878L977.462 556.522C977.904 558.383 979.566 559.696 981.478 559.696C983.372 559.696 985.024 558.406 985.482 556.567Z" fill="#9E8570"/>
<path d="M54.676 318.31L14.7009 445.638L170.9 477.469L251.59 396.779L148.691 267.23L54.676 318.31Z" fill="#FFFEFE"/>
<path d="M1186.5 343.161H384.306C346.513 343.161 496.792 174.849 577.778 174.849H1001.26C1116.95 174.849 1218.89 343.161 1186.5 343.161Z" fill="#898078"/>
<path d="M920.935 789.086C933.736 771.165 925.077 731.647 925.077 731.647H1004.14C1004.14 731.647 1012.04 775.626 1026.35 789.086C1040.66 802.545 1037.66 839.003 1037.66 839.003H828.667C828.667 839.003 908.135 807.006 920.935 789.086Z" fill="white"/>
<circle cx="1267.64" cy="662.047" r="18.6508" fill="white"/>
<ellipse cx="1207.6" cy="644.306" rx="18.6508" ry="19.1057" fill="white"/>
<ellipse cx="1290.39" cy="734.376" rx="41.3957" ry="13.6469" fill="#949494"/>
<ellipse cx="1231.25" cy="717.545" rx="42.3055" ry="12.2822" fill="#949494"/>
<circle cx="1267.19" cy="714.361" r="33.6625" fill="white"/>
<ellipse cx="1209.87" cy="696.62" rx="33.6625" ry="33.2076" fill="white"/>
<path d="M1240.35 673.027L1259.76 662.589L1262.39 672.844L1240.35 673.027Z" fill="#EBB496"/>
<path d="M1181.27 654.691L1200.68 644.254L1203.3 654.508L1181.27 654.691Z" fill="#EBB496"/>
<circle cx="1198.95" cy="685.247" r="2.72939" fill="#949494"/>
<ellipse cx="1256.27" cy="702.988" rx="2.72939" ry="2.27449" fill="#949494"/>
<ellipse cx="1271.28" cy="660.683" rx="2.27449" ry="2.72939" fill="#393535"/>
<circle cx="1211.69" cy="640.667" r="2.72939" fill="#393535"/>
<circle cx="1258.55" cy="657.499" r="2.27449" fill="#393535"/>
<ellipse cx="1198.95" cy="637.483" rx="2.72939" ry="2.27449" fill="#393535"/>
<ellipse cx="1198.95" cy="700.259" rx="2.72939" ry="2.27449" fill="#949494"/>
<circle cx="1256.27" cy="718" r="2.72939" fill="#949494"/>
<path d="M1152.2 26.8641L1121.03 58.5593L1171.24 93.2574L1221.02 71.1833L1210.08 33.0297L1152.2 26.8641Z" fill="white"/>
<path d="M332.623 8.23985L315.342 25.81L343.175 45.0447L370.77 32.808L364.706 11.6577L332.623 8.23985Z" fill="white"/>
<path d="M1149.69 63.071L1121.26 58.7349L1171.13 93.4242L1221 71.2616L1217.38 58.7349L1174.26 74.1523L1149.69 63.071Z" fill="#F3EEEE"/>
<path d="M331.23 28.3115L315.472 25.9077L343.115 45.1376L370.758 32.8518L368.755 25.9077L344.851 34.4543L331.23 28.3115Z" fill="#F3EEEE"/>
<ellipse cx="772.715" cy="620.197" rx="5.91368" ry="2.27449" fill="#E9DCD0"/>
<ellipse cx="772.715" cy="620.197" rx="5.00388" ry="1.36469" fill="#9E8570"/>
</svg>
