<svg width="1439" height="754" viewBox="0 0 1439 754" fill="none" xmlns="http://www.w3.org/2000/svg">
<rect y="440" width="1440" height="334" fill="#F1ECE7"/>
<path d="M1119.05 105.207L1095.55 129.103L1133.4 155.264L1170.93 138.621L1162.68 109.855L1119.05 105.207Z" fill="white"/>
<path d="M1117.15 132.505L1095.72 129.235L1133.32 155.39L1170.92 138.68L1168.19 129.235L1135.68 140.859L1117.15 132.505Z" fill="#F3EEEE"/>
<path d="M821.045 16.1942L810.569 37.4496L841.783 46.6136L863.285 27.116L851.368 9.63521L821.045 16.1942Z" fill="white"/>
<path d="M825.828 34.9394L810.716 37.499L841.756 46.7159L863.288 27.159L859.364 21.4233L840.118 36.4383L825.828 34.9394Z" fill="#F3EEEE"/>
<path d="M557.028 87.105L542.504 105.829L571.249 121.063L596.222 106.271L588.05 86.7563L557.028 87.105Z" fill="white"/>
<path d="M557.958 106.428L542.639 105.907L571.202 121.158L596.216 106.313L593.521 99.9076L571.657 110.761L557.958 106.428Z" fill="#F3EEEE"/>
<path d="M1146.46 535.197L1006.27 513.3C1004.97 513.096 1003.71 512.636 1002.59 511.946L989.547 503.952C980.774 498.573 984.865 485.047 995.149 485.433L1148.38 491.188C1153.75 491.39 1158 495.804 1158 501.181V525.317C1158 531.455 1152.52 536.144 1146.46 535.197Z" fill="#E4E0DB"/>
<rect x="860" y="414" width="152" height="99" fill="#E6DBD1"/>
<path d="M1044.64 425H853.02C844.152 425 866.231 366 885.234 366H999.457C1026.6 366 1052.25 425 1044.64 425Z" fill="#6C6259"/>
<path d="M1026.59 425H840.39C831.618 425 866.499 366 885.297 366H983.591C1010.45 366 1034.11 425 1026.59 425Z" fill="#898079"/>
<path d="M1023 491.555L1010 513V425H1023V491.555Z" fill="#BBB0A7"/>
<path d="M964.002 467C950.937 467 945.492 475.955 946.037 513H984C982.371 477.488 978.337 467 964.002 467Z" fill="#6C6259"/>
<circle cx="975" cy="492" r="4" fill="white"/>
<circle cx="898.5" cy="455.5" r="18.5" fill="#FDFDFD"/>
<circle cx="898.5" cy="455.5" r="13.5" fill="#BBB0A7"/>
<path d="M801 388H813V487.788L801 492V388Z" fill="#9E8570"/>
<path d="M789.126 378.977L779.318 410.217L817.642 418.026L837.439 398.229L812.193 366.445L789.126 378.977Z" fill="#EADED4"/>
<path d="M765 409H777V514L765 508.211V409Z" fill="#BA9E86"/>
<path d="M745.481 395.462L733.573 433.39L780.102 442.872L804.138 418.836L773.486 380.246L745.481 395.462Z" fill="#FFFEFE"/>
<circle cx="1058.5" cy="479.5" r="7.5" fill="white"/>
<ellipse cx="1068" cy="509" rx="17" ry="5" fill="#949494"/>
<circle cx="1059.5" cy="500.5" r="13.5" fill="white"/>
<path d="M1048.02 483.748L1055.77 479.582L1056.81 483.675L1048.02 483.748Z" fill="#EBB496"/>
<circle cx="1055" cy="496" r="1" fill="#949494"/>
<circle cx="1060" cy="478" r="1" fill="#393535"/>
<circle cx="1055" cy="477" r="1" fill="#393535"/>
<circle cx="1055" cy="502" r="1" fill="#949494"/>
<circle cx="1082.5" cy="486.5" r="7.5" fill="white"/>
<ellipse cx="1091.5" cy="515.5" rx="16.5" ry="5.5" fill="#949494"/>
<circle cx="1082.5" cy="507.5" r="13.5" fill="white"/>
<path d="M1071.6 491.067L1079.35 486.901L1080.4 490.994L1071.6 491.067Z" fill="#EBB496"/>
<circle cx="1078" cy="503" r="1" fill="#949494"/>
<circle cx="1084" cy="486" r="1" fill="#393535"/>
<circle cx="1079" cy="485" r="1" fill="#393535"/>
<circle cx="1078" cy="509" r="1" fill="#949494"/>
<path d="M943.908 599.675C950.093 572.632 945.909 513 945.909 513H984.107C984.107 513 987.927 579.364 994.839 599.675C1001.75 619.985 1000.97 754 1000.97 754H900C900 754 937.724 626.717 943.908 599.675Z" fill="white"/>
</svg>
