<svg width="67" height="41" viewBox="0 0 67 41" fill="none" xmlns="http://www.w3.org/2000/svg">
<path d="M22.398 25.1464L0 12.965L10.1434 9.00164L22.9562 16.4134L23.1988 3.89623L33.2452 0L31.4252 37.0142L21.5972 40.8433L22.398 25.1464Z" fill="white"/>
<path d="M21.5972 40.8433L31.4009 37.0366L41.6414 37.2829L32.1047 41L21.5972 40.8433Z" fill="#858585"/>
<path d="M43.2916 3.47078L33.2452 0L31.4009 37.0366L41.6414 37.2829L43.2916 3.47078Z" fill="#C4C4C4"/>
<path opacity="0.7" d="M67 15.0028L53.5078 14.6669L47.5139 18.9662L42.3937 22.6385L42.1267 27.9678L52.8768 37.574L65.8109 37.9099L65.8594 36.7679L52.4886 25.236L66.9757 15.3834L67 15.0028Z" fill="#727272"/>
<path opacity="0.7" d="M41.6414 37.3053L41.9569 30.9459L41.6414 37.3053Z" fill="#8C8C8C"/>
</svg>
