<?xml version="1.0" encoding="utf-8"?>
<!-- Generator: Adobe Illustrator 23.1.1, SVG Export Plug-In . SVG Version: 6.00 Build 0)  -->
<svg version="1.1" xmlns="http://www.w3.org/2000/svg" xmlns:xlink="http://www.w3.org/1999/xlink" x="0px" y="0px"
	 viewBox="0 0 1280 1024" style="enable-background:new 0 0 1280 1024;" xml:space="preserve">
<style type="text/css">
	.st0{display:none;}
	.st1{display:inline;fill:#FFFDFE;}
	.st2{display:inline;}
	.st3{fill:#BBB7DC;}
	.st4{fill:none;}
	.st5{fill:#632A7E;}
	.st6{fill:#851F82;}
	.st7{fill:#FFFFFF;}
	.st8{fill:#FFFFFF;stroke:#FFFFFF;stroke-miterlimit:10;}
	.st9{fill:#F49AC1;}
	.st10{fill:none;stroke:#0F060F;stroke-miterlimit:10;}
	.st11{fill:#FFFDFE;}
</style>
<g id="Layer_1" class="st0">
	
		<image style="display:inline;overflow:visible;" width="293" height="462" xlink:href="chowder.png"  transform="matrix(1.9727 0 0 2.002 351 49)">
	</image>
	<path class="st1" d="M608,479c-4.4,7.4-6.6,15.8-7,25c8.3-0.9,14.6-3.9,19-9C617.4,488.3,613.5,482.8,608,479z"/>
	<path class="st2" d="M647,455c-4,0-4-5-4-5c0.3-4.4,1.5-4,4-4c2.2,0,4,3,3,5C650,451,651,455,647,455z"/>
	<path class="st2" d="M669,446c-4,0-4,4-4,4h7C672,450,673,446,669,446z"/>
	<path class="st2" d="M669,455c1.8-0.9,2.8-2.6,3-5h-7C665.4,453,666.7,454.7,669,455z"/>
</g>
<g id="Layer_2">
	<path class="st3" d="M481.1,436.1l-5,18.2v12.1c0,0-11.4-1.2-21.4,0c-10.1,1.2-27.8,14.6-27.8,14.6l-18.9,20.6l-15.1,23
		c0,0-3.8,12.1-3.8,30.3c0,18.2,0,29.1,0,29.1s5,19.4,7.6,26.7s1.3,10.9,11.4,20.6c10.1,9.7,26.5,25.5,26.5,25.5
		s26.5,15.8,35.3,19.4s42.9,8.5,42.9,8.5l40.4,3.6h64.3h29l34.1-3.6c0,0,36.6-2.4,47.9-3.6c11.4-1.2,42.9-3.6,50.5-6.1
		c7.6-2.4,27.8-9.7,40.4-15.8c12.6-6.1,36.6-24.3,36.6-24.3s16.4-15.8,25.2-26.7c8.8-10.9,13.9-24.3,17.7-34
		c3.8-9.7,6.3-27.9,6.3-27.9s-2.5-20.6-5-26.7c-2.5-6.1-12.6-17-20.2-24.3c-7.6-7.3-26.5-12.1-30.3-14.6c-3.8-2.4-20.2-3.6-18.9-4.9
		c1.3-1.2,2.5-20.6,2.5-20.6c-1.1-18.8-4.9-22.7-7.6-32.7l-26.5-8.5l-39.1-13.3l-34.1-12.1l-32.8-8.5h-36.6l-47.9,13.3L553,414.2
		l-44.2,12.1L481.1,436.1z"/>
	<path class="st4" d="M631.2,360.9c0,0,24-8.5,40.4-8.5c16.4,0,35.3,8.5,35.3,8.5"/>
	<path class="st5" d="M474.8,447c-10.1,4.9-16.4,2.4-17.7-10.9c-1.3-13.3,18.9-20.6,18.9-20.6s-11.4-12.1-11.4-18.2
		s2.5-21.8,16.4-26.7s-27.8-6.1-24-35.2c3.8-29.1,13.9-30.3,13.9-30.3s-21.4-1.2-22.7-29.1c-1.3-27.9,26.5-38.8,26.5-38.8
		s-26.5-4.9-32.8-9.7c-6.3-4.9-26.5-18.2-13.9-36.4c12.6-18.2,34.1,0,34.1,0l18.9,20.6c0,0-10.1-13.3-10.1-26.7s0-17,10.1-20.6
		c8.8-1.2,11.4-1.2,17.7,9.7c6.3,10.9,3.8,25.5,3.8,25.5s1.3-23,6.3-29.1c5-6.1,13.9-6.1,13.9-6.1c11.2,2.8,16.3,8,15.1,15.8
		c-2.2,14-8.9,24.6-18.9,32.7c7-4.3,13.5-6.1,18.9-3.6c12.9,3.1,16.6,11.4,18.9,20.6l2.5,10.9c1.9-8,4.3-14.7,11.4-14.6
		c10.3-1.4,18.2,2,25.2,7.3c8.4,5.4,12.6,11.7,13.9,18.2c9.7-1,13.9,1.2,21.4,2.4c7.6,1.2,23.6,22.2,26.5,36.4
		c0.2-17.1,7.6-26.9,18.9-32.7c6.9-4.1,15.9-3.2,25.2-1.2c6.5-18.3,17.5-28.7,31.5-34c11.6-5.8,23.4-4,35.3-1.2
		c0.9-9.1,4.7-16.6,12.6-21.8c6.3-4.1,14.9-4.3,24-3.6c-10.7-5.8-18.7-12.9-21.4-23c-3.5-11.8-1.6-20.6,5-26.7
		c13.1-3.2,22.5,0.6,29,9.7l6.3,29.1c-1.5-8-0.9-15.4,3.8-21.8c1.3-11.1,18.7-18.3,22.7-14.6c3.7-0.7,16.9,13,7.6,23
		c-2,8.4-7.6,13.6-13.9,18.2c10-9.7,19-16.6,25.2-15.8c8.3-2.3,15.6,1.4,22.7,6.1c4.6,12.5-1.2,20.5-13.9,25.5
		c-11.1,7-23.9,6.9-36.6,7.3c21.8,2.9,23.8,32.6-1.3,43.7c25.5,0.9,17.5,49-3.8,59.4c6.9,4.1,13.8,8.1,15.1,15.8
		c5,14.1,2.5,33.7,2.5,40c0,4.9-10.3,32.9-25.2,34c7.8-1,13.9-0.1,16.4,4.9c4.4,4.7,5,9.6,2.5,14.6c-0.3,8.4-6.6,10.2-13.9,10.9
		c-5.8-2.9-8.4-7.5-8.8-13.3L693,380.3c0,0-31.5,0-36.6,0s-103.5,34-103.5,34l-71.9,21.8C481.1,436.1,484.9,442.1,474.8,447z"/>
	<path class="st5" d="M513.9,168c0-3.6,8.8-3.6,8.8-3.6l15.1,15.8"/>
	<path class="st6" d="M425.6,653.1c-9.4,1.9-14.8,5.9-16.4,12.1c-2.6,13.9,3.2,23.4,16.4,29.1c9-2.7,12.6-6.1,20.2-6.1
		s18.9,27.9,18.9,27.9c20.9,14,51.1,25.3,82,36.4c34.8,18.1,69.1,47.7,103.5,76.4c49.6-45.7,98.8-79.9,147.6-101.9
		c8.4-12.7,17.9-19.6,27.8-24.3h8.8c18.6-12.4,23.7-23.9,25.2-35.2c3.1-12.3-3.8-19.3-17.7-22.7c-5.3,4-10.8,8.1-16.7,12.5
		c-4.9,5-178.9,30.7-178.9,30.7c1.1,0.1-159-17.9-165.3-15.8C473,675.3,424,656.3,425.6,653.1z"/>
</g>
<g id="Layer_3">
	<path class="st7" d="M616.1,465.2c-8-5.5-10.4-27.1,2.5-42.4c6.3-8.5,15.3-12.7,26.5-13.3C681.4,417.6,655.1,486.1,616.1,465.2z"/>
	<path class="st8" d="M666.6,434.8c0,0,0.2,14.5,3.8,21.8c5.1,7,11.9,9.9,20.2,9.7c11.7-2.2,21.2-7.3,25.2-19.4
		c1.5-8.1,2.1-15.9,0-23c-2.6-12.7-10-20.9-26.5-20.6c-6.5,1.1-12.2,3.9-16.4,9.7C667.5,415.1,665.5,432.1,666.6,434.8z"/>
	<path class="st9" d="M633.8,479.7c-1.2-4.2-0.6-7.3,3.8-8.5c4.3-2.3,12.1-3.6,20.2-4.9c4.3,0,10.6,0,17.7,0
		c6.5,1.7,10.9,3.4,11.4,4.9c2.2,3.7,0,8.5,0,8.5s-4.8,4.6-8.8,4.9h-11.4c1.8,4.5-2.4,7.2-7.6,9.7c-6.5-1-9.6-4.2-8.8-9.7
		C642.9,485.1,637.2,483.7,633.8,479.7z"/>
	<path class="st10" d="M583.3,449.4c9,34.6,29.8,59.3,75,63.1c40.7-1.9,66-18.4,80.2-45.4"/>
</g>
<g id="Layer_4">
	<path d="M650.3,445.8c-5,0-5-6.1-5-6.1c0.4-5.3,1.9-4.9,5-4.9c2.8,0,5,3.7,3.8,6.1C654.1,440.9,655.4,445.8,650.3,445.8z"/>
	<path d="M678.1,434.8c-5,0-5,4.9-5,4.9h8.8C681.9,439.7,683.1,434.8,678.1,434.8z"/>
	<path d="M678.1,445.8c2.3-1.1,3.6-3.1,3.8-6.1H673C673.5,443.3,675.2,445.4,678.1,445.8z"/>
	<path class="st11" d="M592.4,478.6c-5.6,9-8.3,19.2-8.8,30.3c10.4-1.1,18.4-4.7,24-10.9C604.2,489.9,599.3,483.3,592.4,478.6z"/>
	<path class="st9" d="M497.5,487c0-6.1,8.8-6.1,17.7-6.1s16.4,2.4,16.4,8.5s-5,10.9-17.7,8.5C501.3,495.5,497.5,493.1,497.5,487z"/>
	<path class="st9" d="M782.9,487c0-6.1,8.8-6.1,17.7-6.1s16.4,2.4,16.4,8.5s-5,10.9-17.7,8.5C786.7,495.4,782.9,493,782.9,487z"/>
</g>
</svg>
