<svg width="375" height="76" viewBox="0 0 375 76" fill="none" xmlns="http://www.w3.org/2000/svg">
<g filter="url(#filter0_d_1_106)">
<rect width="375" height="61" fill="white"/>
</g>
<path d="M40.7844 28.8186C40.7844 28.8328 40.6655 28.8555 40.5168 28.8668C40.3532 28.8781 40.2491 28.898 40.2491 28.9178C40.2491 28.9348 40.2342 28.9291 40.2194 28.9065C40.2015 28.8781 40.1896 28.8753 40.1896 28.898C40.1896 28.9235 40.1212 28.9348 39.9547 28.9348C39.8238 28.9348 39.7138 28.9461 39.7078 28.9603C39.7049 28.9745 39.6186 28.9971 39.5205 29.0056C39.4223 29.0169 39.3391 29.0368 39.3331 29.0509C39.3272 29.0651 39.2677 29.0764 39.1993 29.0764C39.1309 29.0764 39.0476 29.0963 39.0179 29.1189C38.9852 29.1416 38.9227 29.1614 38.8751 29.1614C38.8275 29.1614 38.7919 29.1784 38.7919 29.1954C38.7919 29.2209 38.78 29.2181 38.7621 29.1898C38.7473 29.1671 38.7324 29.1614 38.7324 29.1784C38.7324 29.1982 38.6967 29.2181 38.6521 29.2266C38.4588 29.2662 38.2863 29.3172 38.2863 29.3371C38.2863 29.3512 38.2595 29.3597 38.2238 29.3597C38.1911 29.3597 38.1435 29.3796 38.1197 29.4022C38.093 29.4249 38.0276 29.4447 37.971 29.4447C37.9145 29.4447 37.8699 29.4532 37.8699 29.4674C37.8699 29.4787 37.7986 29.5127 37.7153 29.541C37.629 29.5694 37.5517 29.6005 37.5428 29.6118C37.516 29.643 37.3316 29.728 37.287 29.728C37.2632 29.728 37.2454 29.7393 37.2454 29.7563C37.2454 29.7705 37.2127 29.7847 37.171 29.7847C37.1294 29.7847 37.0967 29.7988 37.0967 29.8158C37.0967 29.8328 37.0759 29.8385 37.0491 29.83C37.0253 29.8215 37.0134 29.8243 37.0223 29.8413C37.0313 29.8583 37.0194 29.8696 36.9956 29.8696C36.9688 29.8696 36.948 29.881 36.948 29.8951C36.948 29.9093 36.9064 29.9291 36.8588 29.9405C36.8082 29.9518 36.7696 29.9716 36.7696 29.9858C36.7696 30 36.7428 30.0113 36.7101 30.0113C36.6774 30.0113 36.6506 30.0226 36.6506 30.0368C36.6506 30.0509 36.6179 30.0708 36.5762 30.0793C36.5346 30.0906 36.5019 30.1104 36.5019 30.1246C36.5019 30.1416 36.4811 30.1529 36.4573 30.1529C36.4335 30.1529 36.4127 30.1643 36.4127 30.1784C36.4127 30.1926 36.38 30.2124 36.3383 30.2209C36.2967 30.2322 36.264 30.2521 36.264 30.2662C36.264 30.2832 36.2432 30.2946 36.2194 30.2946C36.1956 30.2946 36.145 30.3257 36.1034 30.3654C36.0618 30.405 35.9993 30.4362 35.9666 30.4362C35.9279 30.4362 35.9131 30.4475 35.922 30.4674C35.9339 30.4844 35.916 30.5042 35.8803 30.5127C35.8447 30.5212 35.8179 30.5382 35.8179 30.5524C35.8179 30.5665 35.803 30.5779 35.7852 30.5779C35.7673 30.5779 35.7346 30.5948 35.7138 30.6118C35.6276 30.6883 35.5829 30.7195 35.5681 30.7195C35.5591 30.7195 35.5116 30.7563 35.461 30.8045C35.4105 30.8498 35.351 30.8895 35.3272 30.8895C35.3034 30.8895 35.2826 30.9008 35.2826 30.9178C35.2826 30.932 35.2618 30.9461 35.238 30.9461C35.2142 30.9461 35.1934 30.9603 35.1934 30.9773C35.1934 31.0084 35.122 31.0878 35.0922 31.0878C35.0565 31.0878 34.9584 31.1841 34.9733 31.2067C34.9822 31.2181 34.9733 31.2294 34.9554 31.2294C34.9197 31.2294 34.8305 31.3031 34.6283 31.4985C34.4766 31.643 34.4736 31.6458 34.3785 31.7308C34.3368 31.7677 34.3012 31.8158 34.3012 31.8385C34.3012 31.8611 34.2863 31.881 34.2684 31.881C34.2268 31.881 34.1525 31.9518 34.1525 31.9915C34.1525 32.0084 34.1376 32.0226 34.1197 32.0226C34.0841 32.0226 34.0038 32.0934 34.0038 32.1246C34.0038 32.1331 33.9591 32.1841 33.9026 32.2322C33.8491 32.2832 33.7926 32.3512 33.7837 32.3852C33.7718 32.4192 33.748 32.4475 33.7331 32.4475C33.7183 32.4475 33.7064 32.4645 33.7064 32.4844C33.7064 32.507 33.6736 32.541 33.632 32.5609C33.5844 32.5835 33.5577 32.6232 33.5577 32.6657C33.5577 32.7053 33.5398 32.7308 33.5131 32.7308C33.4893 32.7308 33.4684 32.745 33.4684 32.7592C33.4684 32.7762 33.4357 32.8243 33.3941 32.8668C33.3525 32.9093 33.3197 32.9575 33.3197 32.9773C33.3197 32.9971 33.3078 33.0141 33.29 33.0141C33.2751 33.0141 33.2603 33.0339 33.2603 33.0566C33.2603 33.0793 33.2484 33.0991 33.2305 33.0991C33.2157 33.0991 33.1948 33.1303 33.1829 33.1699C33.174 33.2096 33.1562 33.2407 33.1413 33.2407C33.1294 33.2407 33.0967 33.2889 33.064 33.3456C33.0105 33.4475 32.9956 33.4674 32.9123 33.5637C32.8915 33.5864 32.8736 33.6317 32.8736 33.6657C32.8736 33.6968 32.8618 33.7223 32.8439 33.7223C32.829 33.7223 32.8142 33.7422 32.8142 33.7648C32.8142 33.7875 32.7934 33.8073 32.7696 33.8073C32.7428 33.8073 32.7249 33.8356 32.7249 33.881C32.7249 33.9206 32.7071 33.9716 32.6863 33.9915C32.5911 34.0934 32.5763 34.1218 32.5763 34.1756C32.5763 34.2096 32.5554 34.2549 32.5316 34.2776C32.5078 34.3031 32.487 34.3456 32.487 34.3767C32.487 34.405 32.4751 34.4305 32.4573 34.4305C32.4424 34.4305 32.4276 34.4645 32.4276 34.5042C32.4276 34.5467 32.4067 34.5949 32.3829 34.6118C32.3562 34.6288 32.3354 34.6827 32.3294 34.7337C32.3264 34.7818 32.3175 34.8186 32.3116 34.813C32.2878 34.7903 32.1896 35.0113 32.1896 35.0849C32.1896 35.1274 32.1777 35.1671 32.1629 35.1728C32.148 35.1756 32.1302 35.2067 32.1242 35.2379C32.1212 35.2691 32.1034 35.3031 32.0885 35.3116C32.0766 35.3229 32.0558 35.3881 32.0499 35.4617C32.0409 35.5325 32.0231 35.592 32.0112 35.592C31.9844 35.592 31.9249 35.7988 31.9012 35.9745C31.8922 36.0368 31.8744 36.0963 31.8595 36.1048C31.8447 36.1133 31.8238 36.1982 31.8149 36.2946C31.803 36.3909 31.7822 36.4702 31.7703 36.4702C31.7554 36.4702 31.7435 36.5467 31.7435 36.6373C31.7435 36.7308 31.7287 36.8101 31.7138 36.8158C31.696 36.8215 31.6751 36.9745 31.6632 37.1643C31.6484 37.3767 31.6365 37.473 31.6246 37.4192C31.6127 37.3711 31.6038 37.7875 31.6038 38.3399C31.6038 38.8923 31.6127 39.3059 31.6246 39.2606C31.6365 39.2067 31.6484 39.2946 31.6603 39.5014C31.6722 39.6883 31.693 39.83 31.7108 39.8356C31.7287 39.8413 31.7435 39.9206 31.7435 40.0113C31.7435 40.1019 31.7554 40.1841 31.7703 40.1926C31.7822 40.2011 31.803 40.2861 31.8149 40.3796C31.8268 40.473 31.8476 40.5495 31.8625 40.5495C31.8803 40.5495 31.8922 40.5779 31.8922 40.6118C31.8922 40.7138 31.9874 41.0594 32.0142 41.0594C32.029 41.0594 32.0409 41.0963 32.0409 41.1444C32.0409 41.2266 32.1212 41.456 32.1599 41.4844C32.1718 41.4929 32.1896 41.5552 32.1986 41.626C32.2075 41.694 32.2313 41.7563 32.2461 41.762C32.264 41.7677 32.2789 41.8073 32.2789 41.847C32.2789 41.9065 32.2848 41.915 32.3086 41.881C32.3294 41.8498 32.3383 41.8611 32.3383 41.9291C32.3383 42.0141 32.4186 42.1954 32.4662 42.2152C32.4781 42.2209 32.487 42.2464 32.487 42.2747C32.487 42.3002 32.5078 42.3484 32.5316 42.3796C32.5554 42.4079 32.5763 42.456 32.5763 42.4872C32.5763 42.5155 32.609 42.5694 32.6506 42.6062C32.6922 42.643 32.7249 42.6968 32.7249 42.728C32.7249 42.7563 32.7428 42.7903 32.7636 42.796C32.7904 42.8073 32.7904 42.813 32.7606 42.813C32.7368 42.8158 32.7547 42.8441 32.7963 42.8838C32.8409 42.9206 32.8736 42.9716 32.8736 42.9971C32.8736 43.0254 32.8915 43.0651 32.9093 43.0849C33.0105 43.1926 33.0283 43.2209 33.0342 43.2861C33.0342 43.3229 33.0491 43.3541 33.061 43.3541C33.1086 43.3541 33.171 43.4362 33.171 43.4929C33.171 43.5269 33.1889 43.5524 33.2157 43.5524C33.2394 43.5524 33.2603 43.5722 33.2603 43.5949C33.2603 43.6175 33.2722 43.6373 33.287 43.6373C33.3019 43.6373 33.3227 43.6685 33.3316 43.7082C33.3435 43.7478 33.3644 43.779 33.3792 43.779C33.3971 43.779 33.409 43.796 33.409 43.8158C33.409 43.8356 33.4417 43.8753 33.4833 43.9036C33.5249 43.932 33.5577 43.9745 33.5577 43.9971C33.5577 44.0198 33.5904 44.0651 33.632 44.1019C33.6736 44.1388 33.7064 44.1756 33.7064 44.1869C33.7064 44.1983 33.7242 44.2266 33.745 44.2464C33.8313 44.3399 33.8551 44.3739 33.8551 44.4022C33.8551 44.4164 33.8699 44.4305 33.8878 44.4305C33.9235 44.4305 34.0038 44.5014 34.0038 44.5297C34.0038 44.541 34.0692 44.6118 34.1495 44.6855C34.2387 44.7677 34.2833 44.83 34.2625 44.8385C34.2387 44.847 34.2387 44.8526 34.2655 44.8526C34.3131 44.8555 34.3904 44.9263 34.3904 44.966C34.3904 44.983 34.4171 44.9971 34.4499 44.9971C34.4885 44.9971 34.5153 45.0226 34.5272 45.0679C34.5361 45.1076 34.5599 45.1388 34.5748 45.1388C34.6134 45.1388 34.6878 45.2124 34.6878 45.2492C34.6878 45.2662 34.7056 45.2804 34.7264 45.2804C34.7443 45.2804 34.8335 45.3456 34.9227 45.422C35.0119 45.5014 35.0952 45.5637 35.1101 45.5637C35.122 45.5637 35.1339 45.5779 35.1339 45.5949C35.1339 45.6345 35.2082 45.7053 35.2499 45.7053C35.2677 45.7053 35.2826 45.7167 35.2826 45.7308C35.2826 45.745 35.3123 45.7677 35.348 45.7762C35.3807 45.7875 35.4402 45.8271 35.4759 45.864C35.5116 45.9008 35.5502 45.932 35.5621 45.932C35.574 45.932 35.6038 45.949 35.6246 45.966C35.7168 46.0453 35.7554 46.0736 35.7733 46.0736C35.7852 46.0736 35.8119 46.0906 35.8328 46.1076C35.9368 46.1983 35.9666 46.2152 36.0142 46.2152C36.0439 46.2152 36.0588 46.2237 36.0469 46.2322C36.0201 46.2606 36.142 46.3569 36.2045 46.3569C36.2372 46.3569 36.264 46.3767 36.264 46.3994C36.264 46.4249 36.2907 46.4419 36.3383 46.4419C36.38 46.4419 36.4127 46.4532 36.4127 46.4702C36.4127 46.4844 36.4335 46.4985 36.4573 46.4985C36.4811 46.4985 36.5019 46.5099 36.5019 46.524C36.5019 46.5382 36.5316 46.5609 36.5703 46.5722C36.606 46.5835 36.6417 46.6005 36.6506 46.609C36.6863 46.6543 36.832 46.7252 36.8885 46.7252C36.9212 46.7252 36.948 46.7365 36.948 46.7478C36.948 46.7818 37.1145 46.8668 37.1859 46.8668C37.2186 46.8668 37.2394 46.8781 37.2305 46.8951C37.2216 46.9093 37.2335 46.9235 37.2603 46.9235C37.2841 46.9235 37.3138 46.9433 37.3257 46.9688C37.3406 47.0056 37.3465 47.0056 37.3673 46.9745C37.3881 46.9461 37.3941 46.9461 37.3941 46.9716C37.3941 46.9915 37.4209 47.0084 37.4565 47.0084C37.4893 47.0084 37.5368 47.0283 37.5606 47.0509C37.5874 47.0736 37.632 47.0934 37.6647 47.0934C37.6945 47.0934 37.7212 47.1048 37.7212 47.1218C37.7212 47.1359 37.7539 47.1501 37.7956 47.1501C37.8372 47.1501 37.8699 47.1614 37.8699 47.1756C37.8699 47.1898 37.9264 47.2096 37.9978 47.2209C38.0662 47.2322 38.1287 47.2521 38.1376 47.2606C38.1614 47.2917 38.3993 47.3767 38.4647 47.3767C38.4974 47.3767 38.5242 47.3881 38.5242 47.4022C38.5242 47.4164 38.5599 47.4334 38.6075 47.4419C38.6521 47.4504 38.7205 47.4645 38.7621 47.4759C38.8038 47.4844 38.887 47.5014 38.9495 47.5099C39.009 47.5184 39.0595 47.5382 39.0595 47.5495C39.0595 47.5637 39.0952 47.575 39.1428 47.575C39.1874 47.575 39.2766 47.5949 39.342 47.6175C39.4075 47.6402 39.5175 47.6572 39.5889 47.66C39.6573 47.66 39.7138 47.6713 39.7138 47.6855C39.7138 47.6968 39.8119 47.7167 39.9309 47.7252C40.0469 47.7365 40.1777 47.7535 40.2194 47.762C40.261 47.7733 40.4038 47.7875 40.5406 47.7932C40.6744 47.8016 40.7844 47.8186 40.7844 47.8328C40.7844 47.847 41.1264 47.8583 41.5725 47.8583C42.1822 47.8583 42.3606 47.8498 42.3606 47.8215C42.3606 47.7988 42.3725 47.8016 42.3904 47.83C42.4082 47.8583 42.4201 47.8611 42.4201 47.8356C42.4201 47.813 42.4736 47.8016 42.5926 47.8016C42.6848 47.8016 42.8157 47.7875 42.8811 47.7733C42.9465 47.7563 43.1071 47.7365 43.238 47.728C43.3688 47.7167 43.4818 47.6997 43.4907 47.6883C43.4997 47.677 43.5591 47.66 43.6246 47.6515C43.7435 47.6373 43.8625 47.6118 43.8625 47.6033C43.8625 47.6005 43.916 47.592 43.9785 47.5864C44.0439 47.5835 44.1034 47.5665 44.1123 47.5552C44.1272 47.5325 44.2759 47.4957 44.5406 47.4419C44.5852 47.4334 44.6209 47.4164 44.6209 47.405C44.6209 47.3909 44.6893 47.3739 44.7696 47.3626C44.8528 47.3512 44.9183 47.3314 44.9183 47.3172C44.9183 47.3031 44.951 47.2917 44.9926 47.2917C45.0342 47.2917 45.067 47.2804 45.067 47.2662C45.067 47.2521 45.1205 47.2351 45.1859 47.2237C45.2513 47.2152 45.3049 47.1926 45.3049 47.1784C45.3049 47.1614 45.3376 47.1501 45.3792 47.1501C45.4209 47.1501 45.4536 47.1359 45.4536 47.1218C45.4536 47.1048 45.4803 47.0934 45.5131 47.0934C45.5458 47.0934 45.5815 47.0736 45.5904 47.0509C45.6023 47.0254 45.6469 47.0084 45.7093 47.0084C45.7658 47.0084 45.8104 46.9943 45.8104 46.9801C45.8104 46.9631 45.8253 46.9518 45.8432 46.9518C45.861 46.9518 45.8937 46.932 45.9175 46.9093C45.9443 46.8866 45.9919 46.8668 46.0275 46.8668C46.1019 46.8668 46.1971 46.7762 46.1971 46.7082C46.1971 46.6543 46.1406 46.5977 46.0573 46.5722C46.0246 46.5609 45.9473 46.5099 45.8848 46.456C45.8253 46.4022 45.7688 46.3569 45.7629 46.3569C45.742 46.3569 45.6796 46.3059 45.5428 46.1784C45.4803 46.1218 45.4209 46.0736 45.409 46.0736C45.3792 46.0736 45.3049 45.9943 45.3049 45.9631C45.3049 45.9461 45.29 45.932 45.2722 45.932C45.2543 45.932 45.1532 45.8498 45.0491 45.7478C44.942 45.6458 44.835 45.5637 44.8052 45.5637C44.7606 45.5637 44.7606 45.558 44.7993 45.5354C44.829 45.5184 44.832 45.507 44.8082 45.507C44.7874 45.507 44.7696 45.4872 44.7696 45.4645C44.7696 45.4419 44.7547 45.422 44.7368 45.422C44.6952 45.422 44.6209 45.3512 44.6209 45.3116C44.6209 45.2946 44.606 45.2804 44.5881 45.2804C44.5465 45.2804 44.4722 45.2096 44.4722 45.1699C44.4722 45.0963 44.0677 45.1784 44.032 45.2577C44.0261 45.2719 43.9815 45.2804 43.9309 45.2804C43.8268 45.2804 43.5502 45.3682 43.5502 45.3994C43.5502 45.4135 43.4729 45.422 43.3777 45.422C43.2826 45.422 43.1815 45.439 43.1487 45.4589C43.116 45.4787 43.0298 45.5014 42.9554 45.5042C42.8811 45.5099 42.8008 45.5212 42.777 45.5354C42.7532 45.5467 42.5718 45.5665 42.3755 45.575C42.1792 45.5864 41.9651 45.6062 41.8997 45.6203C41.7302 45.6543 41.4238 45.6543 41.2305 45.6203C41.1413 45.6033 40.9123 45.5779 40.7249 45.5637C40.3413 45.5354 40.1242 45.5014 40.0023 45.4532C39.9547 45.4362 39.8595 45.422 39.7852 45.422C39.7138 45.422 39.6543 45.4135 39.6543 45.3994C39.6543 45.3739 39.4283 45.3116 39.2528 45.2889C39.1874 45.2804 39.1279 45.2634 39.119 45.2521C39.0982 45.2181 38.8811 45.1388 38.8186 45.1388C38.7859 45.1388 38.7621 45.1274 38.7621 45.1133C38.7621 45.0991 38.7235 45.0793 38.6729 45.0679C38.6253 45.0566 38.5837 45.0368 38.5837 45.0226C38.5837 45.0084 38.551 44.9971 38.5093 44.9971C38.4677 44.9971 38.435 44.9858 38.435 44.9688C38.435 44.9546 38.3874 44.9348 38.3309 44.9235C38.2744 44.915 38.2268 44.8951 38.2268 44.881C38.2268 44.8668 38.1911 44.8555 38.1465 44.8555C38.087 44.8555 38.0751 44.847 38.1019 44.83C38.1316 44.813 38.1108 44.8016 38.0365 44.7875C37.977 44.7762 37.9294 44.7563 37.9294 44.7422C37.9294 44.7252 37.9086 44.7138 37.8848 44.7138C37.861 44.7138 37.8402 44.7025 37.8402 44.6855C37.8402 44.6713 37.8075 44.6515 37.7658 44.6402C37.7242 44.6317 37.6915 44.6118 37.6915 44.6005C37.6915 44.5892 37.6588 44.5694 37.6171 44.5609C37.5755 44.5495 37.5428 44.5297 37.5428 44.5155C37.5428 44.4985 37.5249 44.4872 37.5012 44.4872C37.4774 44.4872 37.4536 44.4759 37.4476 44.4617C37.4447 44.4475 37.4179 44.4305 37.3971 44.4249C37.3733 44.4192 37.3227 44.3881 37.287 44.3512C37.2513 44.3172 37.1948 44.2889 37.1591 44.2889C37.1235 44.2889 37.0967 44.2719 37.0967 44.2464C37.0967 44.2237 37.0818 44.2039 37.067 44.2039C37.0491 44.2039 36.9986 44.1728 36.9539 44.1331C36.9093 44.0934 36.8618 44.0623 36.8469 44.0623C36.832 44.0623 36.7904 44.0311 36.7517 43.9915C36.7131 43.9518 36.6744 43.9206 36.6655 43.9206C36.6357 43.9206 36.5614 43.8413 36.5614 43.8101C36.5614 43.7932 36.5465 43.779 36.5287 43.779C36.487 43.779 36.4127 43.7082 36.4127 43.6685C36.4127 43.6515 36.38 43.6373 36.3383 43.6373C36.2789 43.6373 36.264 43.6232 36.264 43.5694C36.264 43.5212 36.2432 43.4957 36.1926 43.4844C36.151 43.4759 36.1093 43.4419 36.1004 43.4107C36.0915 43.3796 36.0707 43.3541 36.0558 43.3541C36.0171 43.3541 35.8774 43.2152 35.8774 43.1813C35.8774 43.1416 35.8 43.0708 35.7614 43.0708C35.7435 43.0708 35.7287 43.0566 35.7287 43.0396C35.7287 43.0198 35.696 42.9773 35.6543 42.9405C35.6127 42.9036 35.58 42.8668 35.58 42.8583C35.58 42.847 35.5621 42.8215 35.5443 42.8016C35.464 42.7167 35.4313 42.677 35.4313 42.66C35.4313 42.643 35.3986 42.6033 35.3212 42.5184C35.3004 42.4985 35.2826 42.4674 35.2826 42.4504C35.2826 42.4334 35.2618 42.4192 35.238 42.4192C35.2112 42.4192 35.1934 42.3937 35.1934 42.3484C35.1934 42.3087 35.1815 42.2776 35.1636 42.2776C35.1487 42.2776 35.1339 42.2577 35.1339 42.2351C35.1339 42.2124 35.122 42.1926 35.1071 42.1926C35.0922 42.1926 35.0684 42.1643 35.0565 42.1274C35.0447 42.0934 35.0119 42.0453 34.9822 42.0198C34.9525 41.9971 34.9197 41.9433 34.9108 41.9008C34.8989 41.8583 34.8781 41.8243 34.8632 41.8243C34.8484 41.8243 34.8365 41.7988 34.8365 41.7677C34.8365 41.7365 34.8246 41.711 34.8097 41.711C34.7948 41.711 34.774 41.677 34.7651 41.6373C34.7532 41.5977 34.7205 41.5382 34.6907 41.507C34.658 41.4759 34.6253 41.4079 34.6134 41.3541C34.6045 41.3002 34.5837 41.2577 34.5688 41.2577C34.551 41.2577 34.5391 41.2266 34.5391 41.1869C34.5391 41.1473 34.5272 41.1161 34.5093 41.1161C34.4945 41.1161 34.4736 41.0708 34.4618 41.0169C34.4528 40.9631 34.432 40.9178 34.4171 40.9178C34.4023 40.9178 34.3904 40.8838 34.3904 40.8385C34.3874 40.796 34.3696 40.7308 34.3458 40.6912C34.322 40.6515 34.3041 40.592 34.3012 40.5552C34.3012 40.5212 34.2893 40.4929 34.2744 40.4929C34.2595 40.4929 34.2417 40.4305 34.2298 40.3512C34.2179 40.2747 34.1971 40.2039 34.1822 40.1954C34.1644 40.1869 34.1525 40.1331 34.1525 40.0793C34.1525 40.0254 34.1406 39.983 34.1257 39.983C34.1108 39.983 34.09 39.8866 34.0781 39.7705C34.0662 39.6543 34.0454 39.558 34.0305 39.558C34.0157 39.558 34.0038 39.4617 34.0038 39.3456C34.0038 39.2237 33.9919 39.1331 33.974 39.1331C33.9562 39.1331 33.9443 38.8583 33.9443 38.3682C33.9443 37.8781 33.9562 37.6033 33.974 37.6033C33.9919 37.6033 34.0038 37.5042 34.0038 37.3626C34.0038 37.2294 34.0157 37.1218 34.0305 37.1218C34.0454 37.1218 34.0662 37.0254 34.0781 36.9093C34.09 36.779 34.1108 36.6968 34.1316 36.6968C34.1525 36.6968 34.1495 36.6855 34.1227 36.6685C34.093 36.6515 34.09 36.6402 34.1168 36.6402C34.1376 36.6402 34.1525 36.6033 34.1525 36.5552C34.1525 36.507 34.1644 36.4702 34.1792 36.4702C34.1941 36.4702 34.2179 36.3994 34.2268 36.3144C34.2387 36.2294 34.2595 36.1586 34.2744 36.1586C34.2893 36.1586 34.3012 36.1274 34.3012 36.0906C34.3012 36.0509 34.3131 36.0141 34.3279 36.0056C34.3428 35.9943 34.3636 35.9376 34.3755 35.8753C34.3874 35.813 34.4052 35.762 34.4201 35.762C34.4469 35.762 34.4915 35.6232 34.4826 35.5694C34.4796 35.5524 34.4915 35.5354 34.5093 35.5354C34.5242 35.5354 34.5391 35.5042 34.5391 35.4645C34.5391 35.4249 34.5539 35.3937 34.5688 35.3937C34.5867 35.3937 34.5986 35.3767 34.5986 35.3541C34.5986 35.3116 34.6878 35.1359 34.7235 35.1104C34.7324 35.1019 34.7532 35.0594 34.7621 35.0169C34.774 34.9745 34.7948 34.9405 34.8097 34.9405C34.8246 34.9405 34.8365 34.915 34.8365 34.8838C34.8365 34.8526 34.8484 34.8271 34.8632 34.8271C34.8781 34.8271 34.8989 34.796 34.9078 34.7563C34.9197 34.7167 34.9406 34.6855 34.9554 34.6855C34.9733 34.6855 34.9852 34.6657 34.9852 34.643C34.9852 34.6203 34.9971 34.6005 35.0119 34.6005C35.0268 34.6005 35.0476 34.5694 35.0565 34.5297C35.0684 34.49 35.0893 34.4589 35.1041 34.4589C35.122 34.4589 35.1339 34.439 35.1339 34.4164C35.1339 34.3937 35.1487 34.3739 35.1636 34.3739C35.1815 34.3739 35.1934 34.3484 35.1934 34.3172C35.1934 34.2861 35.2142 34.2521 35.238 34.2436C35.2618 34.2322 35.2826 34.2152 35.2826 34.1983C35.2826 34.1841 35.3004 34.1529 35.3183 34.1331C35.3986 34.0481 35.4313 34.0084 35.4313 33.9915C35.4313 33.983 35.464 33.9461 35.5056 33.9093C35.5473 33.8725 35.58 33.8215 35.58 33.796C35.58 33.7705 35.6008 33.7507 35.6246 33.7507C35.6484 33.7507 35.6692 33.7365 35.6692 33.7195C35.6692 33.6997 35.7168 33.6458 35.7733 33.592C35.8298 33.541 35.8774 33.4872 35.8774 33.4702C35.8774 33.4362 36.0201 33.2974 36.0558 33.2974C36.0707 33.2974 36.0915 33.2719 36.1004 33.2407C36.1093 33.2096 36.151 33.1756 36.1926 33.1671C36.2372 33.1558 36.264 33.1303 36.264 33.0963C36.264 33.0623 36.2907 33.0368 36.3383 33.0254C36.38 33.0169 36.4127 32.9915 36.4127 32.9688C36.4127 32.9461 36.4246 32.9291 36.4394 32.9291C36.4543 32.9291 36.5257 32.8725 36.6 32.8016C36.6774 32.7308 36.7458 32.6742 36.7547 32.6742C36.7755 32.6742 36.838 32.626 36.951 32.524C36.9956 32.4815 37.0491 32.4475 37.067 32.4475C37.0818 32.4475 37.0967 32.4362 37.0967 32.4192C37.0967 32.405 37.1294 32.3852 37.171 32.3739C37.2127 32.3654 37.2454 32.3456 37.2454 32.3314C37.2454 32.3172 37.2603 32.3059 37.2781 32.3059C37.296 32.3059 37.3287 32.2889 37.3495 32.2691C37.4476 32.1869 37.4833 32.1643 37.5131 32.1643C37.5279 32.1643 37.5428 32.1529 37.5428 32.1359C37.5428 32.1218 37.5755 32.1019 37.6171 32.0906C37.6588 32.0821 37.6915 32.0623 37.6915 32.0481C37.6915 32.0339 37.7183 32.0226 37.751 32.0226C37.7867 32.0226 37.8432 31.9915 37.8789 31.9546C37.9145 31.9178 37.9889 31.8781 38.0424 31.8696C38.093 31.8583 38.1376 31.8356 38.1376 31.8215C38.1376 31.8073 38.1584 31.796 38.1822 31.796C38.206 31.796 38.2268 31.7818 38.2268 31.7677C38.2268 31.7507 38.2595 31.7393 38.2982 31.7393C38.3398 31.7393 38.3904 31.7195 38.4171 31.6968C38.4409 31.6742 38.4885 31.6543 38.5212 31.6543C38.5569 31.6543 38.5837 31.643 38.5837 31.6288C38.5837 31.6147 38.6223 31.5949 38.6729 31.5835C38.7205 31.5722 38.7681 31.5524 38.777 31.5382C38.7889 31.524 38.8335 31.5127 38.8841 31.5127C38.9316 31.5127 38.9703 31.4985 38.9703 31.4844C38.9703 31.4674 39.003 31.456 39.0417 31.456C39.0803 31.456 39.119 31.4362 39.1309 31.4135C39.1428 31.3852 39.1904 31.3711 39.2796 31.3711C39.351 31.3711 39.4164 31.3597 39.4223 31.3456C39.4283 31.3286 39.4789 31.3087 39.5354 31.3002C39.5919 31.2917 39.6454 31.2719 39.6484 31.2549C39.6543 31.2407 39.7406 31.2294 39.8417 31.2294C39.9547 31.2294 40.0112 31.2181 39.9874 31.2039C39.9577 31.1869 39.9725 31.1813 40.032 31.1784C40.1748 31.1756 40.3383 31.1388 40.3383 31.1133C40.3383 31.0991 40.5376 31.0878 40.7815 31.0878C41.058 31.0878 41.2305 31.0764 41.2365 31.0594C41.2484 31.0198 41.9532 31.0169 41.9681 31.0566C41.974 31.0764 42.1287 31.0878 42.3933 31.0878C42.6194 31.0878 42.8067 31.0991 42.8067 31.1133C42.8067 31.1274 42.896 31.1473 43.009 31.1586C43.1517 31.1728 43.1933 31.1869 43.1487 31.2039C43.1101 31.2181 43.1577 31.2266 43.2915 31.2266C43.4015 31.2294 43.4907 31.2407 43.4907 31.2549C43.4907 31.2691 43.5443 31.2861 43.6097 31.2974C43.6751 31.3059 43.7287 31.3286 43.7287 31.3427C43.7287 31.3597 43.7822 31.3711 43.8446 31.3711C43.9547 31.3711 44.148 31.4419 44.1688 31.49C44.1748 31.5042 44.2223 31.5127 44.2729 31.5127C44.3264 31.5127 44.3948 31.5325 44.4246 31.5552C44.4573 31.5779 44.5138 31.5977 44.5525 31.5977C44.5911 31.5977 44.6209 31.609 44.6209 31.626C44.6209 31.6402 44.6536 31.6543 44.6952 31.6543C44.7428 31.6543 44.7696 31.6713 44.7696 31.6968C44.7696 31.7223 44.7963 31.7393 44.8439 31.7393C44.8855 31.7393 44.9183 31.7507 44.9183 31.7677C44.9183 31.7818 44.951 31.796 44.9926 31.796C45.0342 31.796 45.067 31.813 45.067 31.8328C45.067 31.8526 45.0967 31.8696 45.1324 31.8725C45.1651 31.8753 45.2067 31.8951 45.2186 31.915C45.2394 31.9461 45.2454 31.9461 45.2454 31.915C45.2454 31.8951 45.2751 31.9093 45.3168 31.949C45.3554 31.9915 45.409 32.0226 45.4357 32.0226C45.4625 32.0226 45.516 32.0538 45.5547 32.0934C45.5933 32.1331 45.6528 32.1643 45.6885 32.1643C45.7242 32.1643 45.751 32.1813 45.751 32.2067C45.751 32.2294 45.7718 32.2492 45.7956 32.2492C45.8194 32.2492 45.8402 32.2606 45.8402 32.2776C45.8402 32.2917 45.861 32.3059 45.8848 32.3059C45.9116 32.3059 45.9621 32.3371 46.0008 32.3767C46.0394 32.4164 46.0841 32.4475 46.1049 32.4475C46.1227 32.4475 46.1376 32.4589 46.1376 32.473C46.1376 32.4872 46.1644 32.507 46.1941 32.5184C46.2238 32.5269 46.2982 32.5779 46.3606 32.6317C46.4201 32.6855 46.4796 32.7308 46.4945 32.7308C46.5064 32.7308 46.6194 32.8271 46.7473 32.9433C46.8722 33.0594 46.9881 33.1558 47.003 33.1558C47.0179 33.1558 47.0298 33.1699 47.0298 33.1869C47.0298 33.2266 47.1041 33.2974 47.1458 33.2974C47.1636 33.2974 47.1785 33.3116 47.1785 33.3286C47.1785 33.3484 47.2261 33.4022 47.2826 33.456C47.3391 33.507 47.3867 33.5609 47.3867 33.5779C47.3867 33.5949 47.4372 33.6543 47.4997 33.7138C47.5621 33.7733 47.6216 33.8441 47.6335 33.8725C47.6454 33.9036 47.6692 33.915 47.687 33.9036C47.7108 33.8923 47.7138 33.8951 47.7019 33.9178C47.69 33.9348 47.7019 33.9575 47.7257 33.966C47.7525 33.9745 47.7733 34.0084 47.7733 34.0368C47.7733 34.0651 47.7941 34.0906 47.8179 34.0906C47.8417 34.0906 47.8625 34.1104 47.8625 34.1331C47.8625 34.1558 47.8774 34.1756 47.8922 34.1756C47.9101 34.1756 47.922 34.2011 47.922 34.2322C47.922 34.2634 47.9428 34.2974 47.9666 34.3059C47.9904 34.3172 48.0112 34.3484 48.0112 34.3767C48.0112 34.405 48.0261 34.4305 48.0409 34.4305C48.0588 34.4305 48.0707 34.4447 48.0707 34.4589C48.0707 34.4759 48.1034 34.5212 48.145 34.558C48.1986 34.6033 48.2104 34.6288 48.1837 34.6373C48.1539 34.6487 48.1539 34.6543 48.1837 34.6543C48.2015 34.6572 48.2194 34.677 48.2194 34.6997C48.2194 34.7223 48.2402 34.7422 48.264 34.7422C48.2937 34.7422 48.3086 34.7705 48.3086 34.8271C48.3086 34.8838 48.3354 34.9376 48.3829 34.9801C48.4246 35.0169 48.4573 35.0651 48.4573 35.0906C48.4573 35.1444 48.5525 35.3087 48.5852 35.3087C48.5971 35.3087 48.606 35.3597 48.606 35.422C48.606 35.4844 48.6179 35.5354 48.6357 35.5354C48.6506 35.5354 48.6714 35.5665 48.6833 35.6062C48.6922 35.6458 48.7131 35.677 48.7279 35.677C48.7428 35.677 48.7547 35.7082 48.7547 35.745C48.7547 35.7847 48.7725 35.8328 48.7933 35.8526C48.8112 35.8725 48.835 35.9348 48.838 35.9886C48.8439 36.0424 48.8617 36.0906 48.8766 36.0963C48.8915 36.1019 48.9034 36.1359 48.9034 36.1699C48.9034 36.2039 48.9242 36.2577 48.948 36.2889C48.9718 36.3172 48.9926 36.4022 48.9926 36.4759C48.9926 36.5665 49.0045 36.6118 49.0313 36.6118C49.0551 36.6118 49.0521 36.6232 49.0223 36.6402C48.9986 36.6543 48.9926 36.6685 49.0104 36.6685C49.0283 36.6685 49.0521 36.7195 49.064 36.7818C49.0729 36.8441 49.0967 36.8951 49.1116 36.8951C49.1294 36.8951 49.1413 36.9858 49.1413 37.1076C49.1413 37.2577 49.1532 37.3201 49.18 37.3201C49.2038 37.3201 49.2008 37.3314 49.171 37.3484C49.1413 37.3682 49.1354 37.3824 49.1591 37.3965C49.2632 37.4645 49.2692 39.2464 49.1651 39.2464C49.1532 39.2464 49.1413 39.3569 49.1413 39.4929C49.1383 39.6685 49.1264 39.7592 49.0967 39.796C49.0729 39.8271 49.0521 39.8951 49.0521 39.9461C49.0521 39.9971 49.0402 40.0396 49.0223 40.0396C49.0075 40.0396 48.9926 40.0849 48.9926 40.1388C48.9926 40.1954 48.9718 40.2861 48.948 40.3427C48.9242 40.3966 48.9034 40.4674 48.9034 40.4929C48.9034 40.5212 48.8915 40.5495 48.8766 40.5552C48.8617 40.558 48.8439 40.609 48.838 40.6628C48.835 40.7167 48.8112 40.779 48.7933 40.7988C48.7725 40.8186 48.7547 40.8668 48.7547 40.9036C48.7547 40.9405 48.7458 40.9745 48.7339 40.9801C48.6863 40.9971 48.606 41.1784 48.606 41.2606C48.606 41.3059 48.5941 41.3427 48.5762 41.3427C48.5614 41.3427 48.5465 41.3626 48.5465 41.3852C48.5465 41.4079 48.5316 41.4277 48.5138 41.4277C48.4989 41.4277 48.493 41.439 48.5019 41.456C48.5108 41.4702 48.5049 41.4844 48.49 41.4844C48.4722 41.4844 48.4573 41.5127 48.4573 41.5439C48.4573 41.5779 48.4246 41.6345 48.3829 41.6713C48.3413 41.7082 48.3086 41.7677 48.3086 41.8101C48.3086 41.8526 48.2759 41.9121 48.2342 41.949C48.1926 41.9858 48.1599 42.0339 48.1599 42.0594C48.1599 42.0821 48.1391 42.1076 48.1153 42.1189C48.0915 42.1274 48.0707 42.1614 48.0707 42.1926C48.0707 42.2237 48.0588 42.2492 48.0409 42.2492C48.0261 42.2492 48.0112 42.2662 48.0112 42.2889C48.0112 42.3116 47.9904 42.3342 47.9666 42.3456C47.9428 42.3541 47.922 42.3881 47.922 42.4192C47.922 42.4504 47.9101 42.4759 47.8922 42.4759C47.8774 42.4759 47.8625 42.4957 47.8625 42.5184C47.8625 42.541 47.8417 42.5609 47.8179 42.5609C47.7911 42.5609 47.7733 42.5864 47.7733 42.6317C47.7733 42.6713 47.7614 42.7025 47.7435 42.7025C47.687 42.7025 47.7138 42.7903 47.7881 42.8555C47.8298 42.8923 47.8625 42.9348 47.8625 42.9546C47.8625 42.9716 47.8774 42.9858 47.8922 42.9858C47.9309 42.9858 47.9725 43.0169 48.1331 43.1614C48.1956 43.2209 48.261 43.2691 48.2788 43.2691C48.2967 43.2691 48.3086 43.2889 48.3086 43.3116C48.3086 43.3342 48.3235 43.3541 48.3413 43.3541C48.3829 43.3541 48.4573 43.4249 48.4573 43.4645C48.4573 43.4815 48.487 43.4957 48.5197 43.4957C48.5554 43.4957 48.6149 43.5269 48.6536 43.5665C48.6922 43.6062 48.7368 43.6373 48.7547 43.6373C48.7725 43.6373 48.8171 43.6685 48.8558 43.7082C48.8945 43.7478 48.948 43.779 48.9748 43.779C49.0015 43.779 49.0551 43.8101 49.0937 43.8498C49.1324 43.8895 49.1919 43.9206 49.2275 43.9206C49.2603 43.9206 49.29 43.932 49.29 43.949C49.29 43.9631 49.3227 43.983 49.3644 43.9943C49.406 44.0028 49.4387 44.0226 49.4387 44.0368C49.4387 44.0509 49.4655 44.0623 49.4982 44.0623C49.5309 44.0623 49.5577 44.0509 49.5577 44.0368C49.5577 44.0226 49.5844 44.0056 49.6171 43.9971C49.6499 43.9886 49.6766 43.9603 49.6766 43.9348C49.6766 43.9093 49.7093 43.8611 49.751 43.8243C49.7926 43.7875 49.8253 43.745 49.8253 43.7252C49.8253 43.7082 49.8402 43.694 49.8551 43.694C49.8729 43.694 49.8848 43.6742 49.8848 43.6515C49.8848 43.626 49.9145 43.5779 49.9532 43.5439C50.0216 43.4787 50.1227 43.3144 50.1227 43.2662C50.1227 43.2492 50.1465 43.2152 50.1762 43.1841C50.203 43.1558 50.2595 43.0708 50.3012 42.9943C50.3428 42.9206 50.3844 42.8526 50.3993 42.8498C50.4112 42.8441 50.4201 42.8215 50.4201 42.7988C50.4201 42.7762 50.432 42.7592 50.4469 42.7592C50.4617 42.7592 50.4826 42.7138 50.4915 42.66C50.5034 42.6062 50.5242 42.5609 50.5391 42.5609C50.5569 42.5609 50.5688 42.541 50.5688 42.5184C50.5688 42.4957 50.5807 42.4759 50.5956 42.4759C50.6104 42.4759 50.6313 42.4305 50.6402 42.3767C50.6521 42.3229 50.6729 42.2776 50.6878 42.2776C50.7056 42.2776 50.7175 42.2379 50.7175 42.1926C50.7175 42.1444 50.7294 42.1076 50.7473 42.1076C50.7621 42.1076 50.7829 42.0764 50.7948 42.0368C50.8038 41.9971 50.8246 41.966 50.8394 41.966C50.8543 41.966 50.8662 41.9433 50.8662 41.9121C50.8662 41.8838 50.8989 41.7875 50.9406 41.6997C50.9822 41.6118 51.0149 41.5155 51.0149 41.4844C51.0149 41.4305 51.1012 41.2266 51.1368 41.2011C51.1487 41.1926 51.1636 41.1359 51.1725 41.0736C51.1963 40.9065 51.2617 40.6912 51.2885 40.6912C51.3034 40.6912 51.3123 40.6345 51.3123 40.5637C51.3123 40.4929 51.3331 40.3881 51.3569 40.3314C51.3807 40.2776 51.4015 40.1756 51.4015 40.1076C51.4015 40.0396 51.4164 39.983 51.4313 39.983C51.4491 39.983 51.461 39.9093 51.461 39.8186C51.464 39.7308 51.4818 39.6062 51.5056 39.5439C51.5354 39.4674 51.5502 39.3116 51.5502 39.0708C51.5502 38.8101 51.5591 38.7082 51.5889 38.6997C51.6157 38.6883 51.6157 38.6827 51.5889 38.6827C51.5591 38.6798 51.5502 38.5949 51.5502 38.3569C51.5502 38.1246 51.5621 38.0283 51.5889 38.0198C51.6186 38.0084 51.6186 38.0028 51.5889 38.0028C51.5591 37.9999 51.5502 37.9008 51.5502 37.6062C51.5502 37.3201 51.5383 37.1869 51.5056 37.1133C51.4818 37.0566 51.461 36.9263 51.461 36.8243C51.461 36.7195 51.4491 36.6402 51.4313 36.6402C51.4164 36.6402 51.4015 36.592 51.4015 36.5297C51.4015 36.4702 51.3807 36.3739 51.3569 36.3201C51.3331 36.2634 51.3123 36.1643 51.3123 36.1019C51.3123 36.0396 51.3004 35.9886 51.2826 35.9886C51.2677 35.9886 51.2528 35.9575 51.2528 35.9206C51.2528 35.8838 51.232 35.8073 51.2082 35.7535C51.1844 35.6968 51.1636 35.6062 51.1636 35.5495C51.1636 35.4957 51.1517 35.4504 51.1368 35.4504C51.122 35.4504 51.1012 35.4107 51.0893 35.3654C51.0774 35.3172 51.0595 35.2861 51.0476 35.2917C51.0357 35.3002 51.0238 35.2634 51.0209 35.2096C51.0149 35.1558 50.9792 35.0424 50.9406 34.9546C50.8989 34.8696 50.8662 34.7762 50.8662 34.7535C50.8662 34.7308 50.8454 34.6912 50.8216 34.6685C50.7978 34.643 50.777 34.6005 50.777 34.5694C50.777 34.541 50.7651 34.5155 50.7473 34.5155C50.7324 34.5155 50.7175 34.49 50.7175 34.456C50.7175 34.4249 50.6967 34.3796 50.6729 34.3569C50.6491 34.3314 50.6283 34.2832 50.6283 34.2436C50.6283 34.2067 50.6164 34.1756 50.5986 34.1756C50.5837 34.1756 50.5688 34.1614 50.5688 34.1444C50.5688 34.1274 50.548 34.0963 50.5242 34.0736C50.5004 34.0481 50.4796 34.0056 50.4796 33.9745C50.4796 33.9461 50.4677 33.9206 50.4499 33.9206C50.435 33.9206 50.4201 33.8951 50.4201 33.864C50.4201 33.8328 50.4082 33.8073 50.3904 33.8073C50.3755 33.8073 50.3547 33.7762 50.3428 33.7365C50.3339 33.6968 50.3131 33.6657 50.3012 33.6657C50.2893 33.6657 50.2684 33.6345 50.2595 33.5949C50.2476 33.5552 50.2268 33.524 50.2119 33.524C50.1941 33.524 50.1822 33.5042 50.1822 33.4815C50.1822 33.4589 50.1703 33.439 50.1525 33.439C50.1376 33.439 50.1227 33.4164 50.1227 33.3881C50.1197 33.3257 50.0513 33.2407 50.0008 33.2407C49.9681 33.2407 49.9681 33.2351 50.0038 33.2124C50.0335 33.1954 50.0365 33.1841 50.0127 33.1841C49.9919 33.1841 49.974 33.1643 49.974 33.1416C49.974 33.1189 49.9621 33.0991 49.9473 33.0991C49.9324 33.0991 49.9086 33.0708 49.8967 33.0339C49.8848 32.9999 49.8461 32.9433 49.8075 32.9093C49.7688 32.8753 49.7361 32.8328 49.7361 32.8158C49.7361 32.8016 49.7242 32.7875 49.7064 32.7875C49.6915 32.7875 49.6766 32.762 49.6766 32.7308C49.6766 32.6997 49.6558 32.6742 49.632 32.6742C49.5933 32.6742 49.5725 32.6232 49.5844 32.5524C49.5844 32.541 49.5666 32.5325 49.5428 32.5325C49.519 32.5325 49.4982 32.5155 49.4982 32.4957C49.4982 32.4759 49.4714 32.4419 49.4387 32.4192C49.406 32.3965 49.3792 32.3626 49.3792 32.3427C49.3792 32.3229 49.3584 32.3059 49.3346 32.3059C49.3108 32.3059 49.29 32.2917 49.29 32.2747C49.29 32.2351 49.2157 32.1643 49.174 32.1643C49.1562 32.1643 49.1413 32.1331 49.1413 32.0934C49.1413 32.0538 49.1264 32.0226 49.1086 32.0226C49.0759 32.0226 48.9926 31.9546 48.9926 31.9263C48.9926 31.898 48.8171 31.7393 48.7844 31.7393C48.7696 31.7393 48.7547 31.7252 48.7547 31.7082C48.7547 31.6685 48.6803 31.5977 48.6387 31.5977C48.6209 31.5977 48.606 31.5835 48.606 31.5665C48.606 31.5269 48.5316 31.456 48.49 31.456C48.4722 31.456 48.4573 31.4362 48.4573 31.4135C48.4573 31.3909 48.4424 31.3711 48.4246 31.3711C48.3859 31.3711 48.3086 31.3002 48.3086 31.2634C48.3086 31.2492 48.2759 31.2266 48.2342 31.2181C48.1837 31.2067 48.1599 31.1813 48.1599 31.1359C48.1599 31.0849 48.1539 31.0821 48.1301 31.1161C48.1123 31.1444 48.1004 31.1473 48.1004 31.1218C48.1004 31.1048 48.0796 31.0878 48.0558 31.0878C48.032 31.0878 48.0112 31.0679 48.0112 31.0453C48.0112 31.0226 47.9963 31.0028 47.9785 31.0028C47.9606 31.0028 47.9041 30.9575 47.8506 30.9036C47.7941 30.8498 47.7346 30.8045 47.7168 30.8045C47.696 30.8045 47.6513 30.7733 47.6127 30.7337C47.574 30.694 47.5294 30.6628 47.5086 30.6628C47.4907 30.6628 47.4759 30.6515 47.4759 30.6345C47.4759 30.6203 47.4432 30.6005 47.4015 30.5892C47.3599 30.5807 47.3272 30.558 47.3272 30.5439C47.3272 30.507 47.235 30.439 47.1844 30.4362C47.1636 30.4362 47.116 30.405 47.0774 30.3654C47.0387 30.3257 46.9852 30.2946 46.9554 30.2946C46.9257 30.2946 46.8722 30.2634 46.8335 30.2237C46.7948 30.1841 46.7383 30.1529 46.7026 30.1529C46.6699 30.1529 46.6432 30.1416 46.6432 30.1274C46.6432 30.1133 46.6134 30.0906 46.5777 30.0793C46.5391 30.0679 46.4885 30.0368 46.4617 30.0084C46.435 29.9773 46.3725 29.9461 46.319 29.9376C46.2684 29.9263 46.2268 29.9121 46.2268 29.9008C46.2268 29.8895 46.1673 29.8583 46.093 29.8271C46.0186 29.796 45.9591 29.762 45.9591 29.7478C45.9591 29.7365 45.9413 29.728 45.9175 29.728C45.8967 29.728 45.8372 29.7082 45.7926 29.6855C45.745 29.6628 45.6826 29.643 45.6558 29.643C45.6261 29.643 45.6023 29.6317 45.6023 29.6203C45.6023 29.609 45.5368 29.575 45.4536 29.5439C45.3733 29.5127 45.3049 29.4787 45.3049 29.4674C45.3049 29.456 45.2722 29.4447 45.2305 29.4447C45.1621 29.4447 44.951 29.3654 44.9183 29.3286C44.9093 29.3201 44.8439 29.3031 44.7696 29.2946C44.6982 29.2861 44.6328 29.2634 44.6268 29.2492C44.6209 29.2322 44.5762 29.2181 44.5287 29.2181C44.4811 29.2181 44.4424 29.2039 44.4424 29.1898C44.4424 29.1728 44.3859 29.1614 44.3175 29.1614C44.2461 29.1614 44.1629 29.1416 44.1331 29.1189C44.1004 29.0963 44.0231 29.0764 43.9606 29.0764C43.8893 29.0764 43.8476 29.0623 43.8476 29.0396C43.8476 29.0169 43.8357 29.0198 43.8179 29.0481C43.803 29.0708 43.7881 29.0764 43.7881 29.0594C43.7881 29.0424 43.7257 29.0198 43.6484 29.0113C43.571 29.0028 43.5026 28.983 43.4967 28.966C43.4907 28.9461 43.3896 28.9348 43.235 28.9348C43.0982 28.9348 42.9852 28.9235 42.9852 28.9093C42.9852 28.898 42.8603 28.8781 42.7116 28.8668C42.5599 28.8555 42.429 28.8328 42.4171 28.8158C42.4052 28.796 42.3933 28.7988 42.3815 28.8243C42.3696 28.8526 42.3636 28.8526 42.3636 28.8271C42.3606 28.8016 42.1822 28.7931 41.5725 28.7931C41.1086 28.7931 40.7844 28.8045 40.7844 28.8186ZM40.3294 45.5524C40.3205 45.5609 40.2937 45.5637 40.2729 45.5552C40.2491 45.5467 40.258 45.5382 40.2907 45.5382C40.3235 45.5354 40.3413 45.5439 40.3294 45.5524ZM42.887 45.5524C42.8781 45.5609 42.8513 45.5637 42.8305 45.5552C42.8067 45.5467 42.8157 45.5382 42.8484 45.5382C42.8811 45.5354 42.8989 45.5439 42.887 45.5524Z" fill="#1E3C64"/>
<path d="M51.696 28.8187C51.6871 28.8385 51.5889 28.8584 51.467 28.8697C51.351 28.8782 51.2529 28.898 51.2529 28.9093C51.2529 28.9235 51.1339 28.9348 50.9882 28.9348C50.8127 28.9348 50.7176 28.9462 50.7116 28.9688C50.7057 28.9858 50.6224 29.0057 50.5302 29.0142C50.438 29.0198 50.3607 29.0368 50.3607 29.051C50.3607 29.0652 50.3101 29.0765 50.2477 29.0765C50.1852 29.0765 50.1079 29.0963 50.0752 29.119C50.0455 29.1416 49.9681 29.1615 49.9086 29.1615C49.8462 29.1615 49.7956 29.1728 49.7956 29.1898C49.7956 29.204 49.751 29.2181 49.6945 29.2181C49.638 29.2181 49.5875 29.2323 49.5815 29.2493C49.5756 29.2635 49.5101 29.2861 49.4388 29.2946C49.3644 29.3031 49.299 29.3201 49.2901 29.3286C49.2573 29.3654 49.0462 29.4448 48.9778 29.4448C48.9362 29.4448 48.9034 29.4561 48.9034 29.4703C48.9034 29.4844 48.838 29.5184 48.7547 29.5467C48.6744 29.5751 48.606 29.6062 48.606 29.6204C48.606 29.6317 48.5585 29.6487 48.502 29.6601C48.4455 29.6686 48.3979 29.6884 48.3979 29.7025C48.3979 29.7167 48.377 29.728 48.3533 29.728C48.3295 29.728 48.3086 29.7394 48.3086 29.7564C48.3086 29.7705 48.2819 29.7847 48.2462 29.7847C48.154 29.7847 48.0112 29.8754 48.0112 29.9348C48.0112 29.9972 48.0648 30.0538 48.154 30.0793C48.1897 30.0907 48.2194 30.1133 48.2194 30.1275C48.2194 30.1416 48.2402 30.153 48.264 30.153C48.2878 30.153 48.3086 30.1728 48.3086 30.1955C48.3086 30.2181 48.3235 30.238 48.3384 30.238C48.3562 30.238 48.4038 30.2691 48.4455 30.3088C48.4871 30.3484 48.5347 30.3796 48.5495 30.3796C48.5912 30.3796 48.6655 30.4533 48.6655 30.4901C48.6655 30.5071 48.6804 30.5212 48.6982 30.5212C48.7191 30.5212 48.7756 30.5666 48.8321 30.6204C48.8856 30.6742 48.9421 30.7195 48.9599 30.7195C48.9778 30.7195 48.9927 30.7394 48.9927 30.762C48.9927 30.7847 49.0075 30.8045 49.0254 30.8045C49.067 30.8045 49.1414 30.8754 49.1414 30.915C49.1414 30.932 49.1562 30.9462 49.1741 30.9462C49.2157 30.9462 49.2901 31.017 49.2901 31.0567C49.2901 31.0737 49.3049 31.0878 49.3228 31.0878C49.3406 31.0878 49.3733 31.1048 49.3971 31.1275C49.4209 31.1501 49.4388 31.1813 49.4388 31.1983C49.4388 31.2153 49.4596 31.2295 49.4834 31.2295C49.5072 31.2295 49.528 31.2493 49.528 31.2748C49.528 31.2974 49.5428 31.3088 49.5577 31.3003C49.5756 31.2918 49.5875 31.3031 49.5875 31.3258C49.5875 31.3513 49.6083 31.3711 49.6321 31.3711C49.6559 31.3711 49.6767 31.3853 49.6767 31.4023C49.6767 31.4674 49.7659 31.5127 49.8938 31.5127C49.9681 31.5127 50.0336 31.5042 50.0395 31.4901C50.0603 31.4419 50.2536 31.3711 50.3637 31.3711C50.4261 31.3711 50.4797 31.3598 50.4797 31.3456C50.4797 31.3314 50.5213 31.3116 50.5689 31.3003C50.6194 31.289 50.6581 31.2691 50.6581 31.255C50.6581 31.2408 50.7443 31.2295 50.8484 31.2295C50.9585 31.2295 51.0744 31.2125 51.122 31.187C51.1696 31.1643 51.2529 31.1445 51.3064 31.1445C51.357 31.1445 51.4016 31.1303 51.4016 31.1161C51.4016 31.0991 51.5592 31.0878 51.8179 31.0878C52.0767 31.0878 52.2343 31.0765 52.2343 31.0595C52.2343 31.017 52.4038 31.0255 52.4217 31.0652C52.4336 31.0935 52.4395 31.0935 52.4395 31.0652C52.4425 31.0227 53.0373 31.0142 53.0373 31.0595C53.0373 31.0991 53.1176 31.0935 53.1354 31.051C53.1473 31.0227 53.1533 31.0227 53.1533 31.051C53.1562 31.0793 53.2455 31.0878 53.4982 31.0878C53.7064 31.0878 53.8402 31.0991 53.8402 31.1161C53.8402 31.1303 53.8849 31.1445 53.9384 31.1445C53.9889 31.1473 54.0663 31.1643 54.1079 31.187C54.1495 31.2096 54.2626 31.2266 54.3696 31.2295C54.4975 31.2295 54.5718 31.2436 54.6016 31.272C54.6283 31.2946 54.6789 31.3144 54.7205 31.3144C54.7592 31.3144 54.7919 31.3258 54.7919 31.3428C54.7919 31.3569 54.8514 31.3711 54.9257 31.3711C55.0179 31.3711 55.0655 31.3853 55.0774 31.4136C55.0893 31.4363 55.128 31.4561 55.1666 31.4561C55.2053 31.4561 55.238 31.4731 55.238 31.4901C55.238 31.5156 55.2499 31.5127 55.2678 31.4844C55.2856 31.4561 55.2975 31.4533 55.2975 31.4759C55.2975 31.4958 55.3302 31.5127 55.3718 31.5127C55.4135 31.5127 55.4462 31.5241 55.4462 31.5411C55.4462 31.5552 55.4997 31.5779 55.5652 31.5864C55.6306 31.5977 55.6841 31.6147 55.6841 31.6289C55.6841 31.6431 55.699 31.6544 55.7168 31.6544C55.7347 31.6544 55.7674 31.6742 55.7912 31.6969C55.8179 31.7195 55.8685 31.7394 55.9101 31.7394C55.9488 31.7394 55.9815 31.7507 55.9815 31.7677C55.9815 31.7819 56.0023 31.796 56.0261 31.796C56.0499 31.796 56.0707 31.8074 56.0707 31.8244C56.0707 31.8385 56.1183 31.8584 56.1748 31.8697C56.2313 31.8782 56.2789 31.898 56.2789 31.9122C56.2789 31.9263 56.2997 31.9377 56.3235 31.9377C56.3473 31.9377 56.3681 31.949 56.3681 31.966C56.3681 31.9802 56.4008 32 56.4425 32.0113C56.4841 32.0198 56.5168 32.0397 56.5168 32.051C56.5168 32.0623 56.5495 32.0822 56.5912 32.0907C56.6328 32.102 56.6655 32.1218 56.6655 32.136C56.6655 32.153 56.6804 32.1643 56.6982 32.1643C56.7161 32.1643 56.7488 32.1813 56.7696 32.1983C56.8678 32.2833 56.9034 32.3059 56.9332 32.3059C56.9481 32.3059 56.9629 32.3173 56.9629 32.3314C56.9629 32.3456 56.9956 32.3654 57.0373 32.3739C57.0789 32.3853 57.1116 32.4051 57.1116 32.4193C57.1116 32.4363 57.1265 32.4476 57.1414 32.4476C57.1592 32.4476 57.2008 32.4731 57.2365 32.5042C57.2722 32.5326 57.3139 32.5524 57.3287 32.5411C57.3466 32.5326 57.3495 32.5382 57.3406 32.5524C57.3287 32.5694 57.3555 32.6062 57.4001 32.6346C57.4447 32.6601 57.525 32.7252 57.5756 32.779C57.6261 32.83 57.6797 32.8725 57.6886 32.8725C57.7213 32.8725 57.7956 32.949 57.7956 32.9802C57.7956 32.9943 57.8283 33.017 57.87 33.0255C57.9176 33.0368 57.9443 33.0623 57.9443 33.0963C57.9443 33.1303 57.9711 33.1558 58.0157 33.1671C58.0573 33.1756 58.096 33.2096 58.1079 33.2408C58.1168 33.2691 58.1525 33.3031 58.1823 33.3116C58.212 33.3201 58.2477 33.3541 58.2566 33.3853C58.2685 33.4136 58.2893 33.4391 58.3042 33.4391C58.3191 33.4391 58.331 33.4533 58.331 33.4703C58.331 33.4873 58.3785 33.5411 58.435 33.5921C58.4915 33.6459 58.5391 33.6997 58.5391 33.7195C58.5391 33.7365 58.5599 33.7507 58.5837 33.7507C58.6075 33.7507 58.6283 33.7705 58.6283 33.796C58.6283 33.8215 58.6611 33.8725 58.7027 33.9093C58.7443 33.9462 58.777 33.983 58.777 33.9943C58.777 34.0057 58.8038 34.0368 58.8395 34.0652C58.8752 34.0935 58.893 34.1303 58.8782 34.1501C58.8663 34.1728 58.8692 34.1756 58.8901 34.1643C58.9109 34.153 58.9257 34.1615 58.9257 34.187C58.9257 34.2125 58.9376 34.2323 58.9555 34.2323C58.9704 34.2323 58.9912 34.2635 59.0031 34.3031C59.012 34.3428 59.0328 34.3739 59.0477 34.3739C59.0625 34.3739 59.0744 34.3938 59.0744 34.4164C59.0744 34.4391 59.0863 34.4589 59.1042 34.4589C59.1191 34.4589 59.1399 34.4901 59.1518 34.5297C59.1607 34.5694 59.1815 34.6006 59.1964 34.6006C59.2112 34.6006 59.2231 34.6204 59.2231 34.6431C59.2231 34.6657 59.235 34.6856 59.2529 34.6856C59.2678 34.6856 59.2886 34.7167 59.3005 34.7564C59.3094 34.796 59.3302 34.8272 59.3451 34.8272C59.3599 34.8272 59.3718 34.8527 59.3718 34.8839C59.3718 34.915 59.3837 34.9405 59.3986 34.9405C59.4135 34.9405 59.4343 34.9773 59.4462 35.0255C59.4581 35.0708 59.4759 35.1105 59.4908 35.1105C59.5027 35.1105 59.5235 35.1416 59.5324 35.1813C59.5443 35.221 59.5652 35.2521 59.58 35.2521C59.5979 35.2521 59.6098 35.2833 59.6098 35.3229C59.6098 35.3626 59.6246 35.3938 59.6395 35.3938C59.6573 35.3938 59.6692 35.4136 59.6692 35.4391C59.6692 35.5043 59.7674 35.762 59.7912 35.762C59.8031 35.762 59.8209 35.813 59.8328 35.8754C59.8447 35.9377 59.8655 35.9943 59.8804 36.0057C59.8953 36.0142 59.9072 36.051 59.9072 36.0907C59.9072 36.1275 59.9191 36.1586 59.9339 36.1586C59.9488 36.1586 59.9696 36.2295 59.9815 36.3144C59.9904 36.3994 60.0142 36.4703 60.0291 36.4703C60.044 36.4703 60.0559 36.5071 60.0559 36.5552C60.0559 36.6006 60.0678 36.6402 60.0826 36.6402C60.0975 36.6402 60.1183 36.7479 60.1302 36.881C60.1421 37.0142 60.1629 37.1218 60.1778 37.1218C60.1927 37.1218 60.2046 37.2181 60.2046 37.3343C60.2046 37.4561 60.2165 37.5467 60.2343 37.5467C60.2521 37.5467 60.264 37.8244 60.264 38.3258C60.264 38.8272 60.2521 39.1048 60.2343 39.1048C60.2165 39.1048 60.2046 39.1983 60.2046 39.3314C60.2046 39.4561 60.1927 39.5581 60.1778 39.5581C60.1629 39.5581 60.1421 39.6544 60.1302 39.7705C60.1183 39.8867 60.0975 39.983 60.0826 39.983C60.0678 39.983 60.0559 40.0283 60.0559 40.0822C60.0559 40.136 60.044 40.1813 60.0291 40.1813C60.0142 40.1813 59.9904 40.2521 59.9815 40.3371C59.9696 40.4221 59.9488 40.4929 59.9369 40.4929C59.925 40.4929 59.9072 40.5269 59.8982 40.5694C59.8744 40.6856 59.806 40.9009 59.7882 40.9179C59.7525 40.949 59.6692 41.1501 59.6692 41.2011C59.6692 41.2323 59.6573 41.2578 59.6395 41.2578C59.6246 41.2578 59.6098 41.289 59.6098 41.3286C59.6098 41.3683 59.5889 41.4079 59.5652 41.4164C59.5414 41.4278 59.5265 41.4448 59.5354 41.4561C59.5443 41.4703 59.5324 41.4986 59.5086 41.5213C59.4849 41.5439 59.4551 41.5949 59.4432 41.6374C59.4343 41.6771 59.4135 41.7111 59.3986 41.7111C59.3837 41.7111 59.3718 41.7365 59.3718 41.7677C59.3718 41.7989 59.3599 41.8244 59.3451 41.8244C59.3302 41.8244 59.3124 41.8527 59.3005 41.8895C59.2915 41.9235 59.2588 41.9802 59.2291 42.0113C59.1964 42.0425 59.1607 42.0963 59.1518 42.1303C59.1399 42.1643 59.1161 42.1926 59.1012 42.1926C59.0863 42.1926 59.0744 42.2181 59.0744 42.2493C59.0744 42.2833 59.0417 42.3371 59.0001 42.3739C58.9585 42.4108 58.9257 42.4533 58.9257 42.4703C58.9257 42.4873 58.893 42.5326 58.8514 42.5722C58.8098 42.6119 58.777 42.6516 58.777 42.6601C58.777 42.6714 58.7592 42.6969 58.7414 42.7167C58.6611 42.8017 58.6283 42.8414 58.6283 42.8584C58.6283 42.8669 58.5956 42.9037 58.554 42.9405C58.5124 42.9773 58.4797 43.0198 58.4797 43.0397C58.4797 43.0567 58.4648 43.0708 58.4469 43.0708C58.4053 43.0708 58.331 43.1416 58.331 43.1813C58.331 43.1983 58.3191 43.2125 58.3042 43.2125C58.2893 43.2125 58.2685 43.238 58.2566 43.2663C58.2477 43.2975 58.212 43.3314 58.1823 43.3399C58.1495 43.3513 58.1139 43.3881 58.1049 43.4278C58.093 43.4759 58.0663 43.4958 58.0157 43.4958C57.9592 43.4958 57.9443 43.5099 57.9443 43.5666C57.9443 43.6232 57.9295 43.6374 57.87 43.6374C57.8283 43.6374 57.7956 43.6516 57.7956 43.6686C57.7956 43.7082 57.7213 43.779 57.6797 43.779C57.6618 43.779 57.6469 43.7989 57.6469 43.8215C57.6469 43.8442 57.6321 43.864 57.6142 43.864C57.5964 43.864 57.5399 43.9065 57.4863 43.9575C57.4328 44.0085 57.3704 44.0623 57.3466 44.0737C57.2276 44.1303 57.1741 44.1671 57.1919 44.1841C57.2008 44.1955 57.1889 44.204 57.1622 44.204C57.1354 44.204 57.1116 44.2153 57.1116 44.2295C57.1116 44.2436 57.0819 44.2663 57.0462 44.2776C57.0105 44.2861 56.951 44.3258 56.9124 44.3626C56.8737 44.3994 56.8231 44.4306 56.7994 44.4306C56.7756 44.4306 56.7547 44.4419 56.7547 44.4589C56.7547 44.4731 56.7339 44.4873 56.7101 44.4873C56.6863 44.4873 56.6655 44.4986 56.6655 44.5156C56.6655 44.5298 56.6328 44.5496 56.5912 44.5609C56.5495 44.5694 56.5168 44.5892 56.5168 44.6006C56.5168 44.6119 56.4841 44.6317 56.4425 44.6402C56.4008 44.6516 56.3681 44.6714 56.3681 44.6856C56.3681 44.7026 56.3473 44.7139 56.3235 44.7139C56.2997 44.7139 56.2789 44.7252 56.2789 44.7422C56.2789 44.7564 56.2313 44.7762 56.1718 44.7875C56.0975 44.8017 56.0767 44.813 56.1064 44.83C56.1332 44.847 56.1213 44.8555 56.0648 44.8555C56.0172 44.8555 55.9815 44.8669 55.9815 44.881C55.9815 44.8952 55.9339 44.915 55.8774 44.9235C55.8209 44.9348 55.7733 44.9547 55.7733 44.9688C55.7733 44.9858 55.7406 44.9972 55.699 44.9972C55.6573 44.9972 55.6246 45.0085 55.6246 45.0227C55.6246 45.0368 55.586 45.0567 55.5354 45.068C55.4878 45.0793 55.4462 45.0992 55.4462 45.1133C55.4462 45.1275 55.4165 45.1388 55.3808 45.1388C55.3034 45.1388 55.0893 45.2266 55.0893 45.2578C55.0893 45.2691 55.0269 45.2805 54.9495 45.2805C54.8692 45.2805 54.78 45.3003 54.7503 45.323C54.7176 45.3456 54.667 45.3654 54.6373 45.3654C54.6075 45.3654 54.5837 45.3768 54.5837 45.3938C54.5837 45.4079 54.5153 45.4221 54.435 45.4221C54.3518 45.4221 54.2358 45.4419 54.1763 45.4646C54.1198 45.4873 54.0187 45.5071 53.9562 45.5071C53.8938 45.5071 53.8373 45.5184 53.8283 45.5298C53.8194 45.5439 53.6678 45.5637 53.4923 45.5751C53.3168 45.5864 53.1235 45.6006 53.067 45.6062C53.0105 45.6147 52.8469 45.6261 52.7042 45.6374C52.496 45.6516 52.4425 45.6459 52.4425 45.6176C52.4425 45.5836 52.4365 45.5836 52.4157 45.6147C52.3979 45.6459 52.3681 45.6459 52.2759 45.6232C52.2135 45.6062 51.9994 45.5807 51.8031 45.5666C51.4075 45.5354 51.1607 45.5014 51.0358 45.4533C50.9882 45.4363 50.899 45.4221 50.8336 45.4221C50.7711 45.4221 50.7176 45.4136 50.7176 45.3994C50.7176 45.3739 50.4915 45.3116 50.3161 45.289C50.2507 45.2805 50.1912 45.2663 50.1823 45.255C50.1525 45.221 49.9414 45.1388 49.8819 45.1388C49.8492 45.1388 49.8016 45.119 49.7778 45.0963C49.751 45.0737 49.7005 45.0538 49.6588 45.0538C49.6202 45.0538 49.5875 45.0397 49.5875 45.0255C49.5875 45.0085 49.5547 44.9972 49.5131 44.9972C49.4715 44.9972 49.4388 44.9858 49.4388 44.9688C49.4388 44.9547 49.406 44.9348 49.3644 44.9235C49.3228 44.915 49.2901 44.8952 49.2901 44.881C49.2901 44.8669 49.2573 44.8555 49.2157 44.8555C49.1741 44.8555 49.1414 44.8442 49.1414 44.83C49.1414 44.8159 49.1086 44.796 49.067 44.7875C49.0254 44.7762 48.9927 44.7564 48.9927 44.7422C48.9927 44.7252 48.9748 44.7139 48.951 44.7139C48.9272 44.7139 48.8886 44.6969 48.8678 44.6771C48.8469 44.6601 48.8023 44.6374 48.7696 44.6346C48.7369 44.6289 48.7072 44.6119 48.7012 44.5977C48.6953 44.5836 48.6715 44.5722 48.6477 44.5722C48.6239 44.5722 48.606 44.5609 48.606 44.5439C48.606 44.5298 48.5733 44.5099 48.5317 44.4986C48.4901 44.4901 48.4573 44.4731 48.4573 44.4618C48.4573 44.4504 48.4246 44.4221 48.383 44.4023C48.3414 44.3824 48.3086 44.3484 48.3086 44.3258C48.3086 44.306 48.2819 44.289 48.2492 44.289C48.2165 44.289 48.1629 44.2663 48.1332 44.238C48.0291 44.1501 47.9845 44.119 47.9607 44.119C47.9458 44.119 47.9161 44.0935 47.8923 44.0623C47.8685 44.0312 47.8328 44.0057 47.812 44.0057C47.7912 44.0057 47.7733 43.9858 47.7733 43.9632C47.7733 43.9405 47.7585 43.9207 47.7406 43.9207C47.7228 43.9207 47.6901 43.9037 47.6692 43.8867C47.5711 43.8017 47.5354 43.779 47.5057 43.779C47.4908 43.779 47.4759 43.7649 47.4759 43.7479C47.4759 43.7082 47.4016 43.6374 47.3599 43.6374C47.3421 43.6374 47.3272 43.6232 47.3272 43.6062C47.3272 43.5666 47.2529 43.4958 47.2112 43.4958C47.1934 43.4958 47.1785 43.4816 47.1785 43.4646C47.1785 43.4249 47.1042 43.3541 47.0626 43.3541C47.0447 43.3541 47.0298 43.3399 47.0298 43.323C47.0298 43.306 46.9793 43.2436 46.9198 43.1841C46.7622 43.0283 46.7324 42.9943 46.7324 42.9518C46.7324 42.9264 46.7235 42.9264 46.7027 42.9575C46.6789 42.9943 46.673 42.9943 46.673 42.9547C46.673 42.9292 46.6402 42.8725 46.5986 42.8272C46.557 42.7819 46.5153 42.7224 46.5064 42.6941C46.4975 42.6686 46.4767 42.6459 46.4618 42.6459C46.4469 42.6459 46.435 42.6261 46.435 42.6034C46.435 42.5807 46.4142 42.5609 46.3904 42.5609C46.3666 42.5609 46.3458 42.5411 46.3458 42.5184C46.3458 42.4958 46.3339 42.4759 46.3161 42.4759C46.3012 42.4759 46.2863 42.4504 46.2863 42.4193C46.2863 42.3881 46.2655 42.3541 46.2417 42.3456C46.2179 42.3343 46.1971 42.3116 46.1971 42.289C46.1971 42.2663 46.1852 42.2493 46.1674 42.2493C46.1525 42.2493 46.1376 42.2238 46.1376 42.1926C46.1376 42.1615 46.1168 42.1275 46.093 42.119C46.0692 42.1077 46.0484 42.0822 46.0484 42.0595C46.0484 42.0397 46.0157 41.9915 45.9741 41.9547C45.9295 41.915 45.8997 41.8584 45.8997 41.813C45.8997 41.7677 45.87 41.7111 45.8254 41.6714C45.7837 41.6346 45.751 41.5694 45.7451 41.5184C45.7421 41.4703 45.7302 41.4363 45.7183 41.4448C45.7064 41.4504 45.6886 41.4306 45.6767 41.3994C45.6678 41.3683 45.644 41.3428 45.6291 41.3428C45.6142 41.3428 45.6023 41.306 45.6023 41.2606C45.6023 41.1785 45.522 40.9972 45.4774 40.9802C45.4626 40.9745 45.4536 40.9263 45.4536 40.8725C45.4536 40.8045 45.4388 40.7762 45.409 40.7762C45.3763 40.7762 45.3644 40.745 45.3644 40.6629C45.3644 40.6006 45.3525 40.5496 45.3347 40.5496C45.3198 40.5496 45.3049 40.5184 45.3049 40.4788C45.3049 40.4391 45.2901 40.4079 45.2722 40.4079C45.2544 40.4079 45.2455 40.3881 45.2573 40.3654C45.2663 40.3428 45.2603 40.3229 45.2455 40.3229C45.2276 40.3229 45.2157 40.2578 45.2157 40.1813C45.2157 40.102 45.2038 40.0397 45.1889 40.0397C45.177 40.0397 45.1562 39.9802 45.1473 39.9065C45.1384 39.8329 45.1176 39.7677 45.0997 39.762C45.0789 39.7564 45.067 39.6572 45.067 39.4986C45.067 39.3598 45.0551 39.2465 45.0402 39.2465C44.9421 39.2465 44.951 37.4618 45.0492 37.3966C45.073 37.3824 45.067 37.3683 45.0373 37.3484C45.0075 37.3314 45.0046 37.3201 45.0313 37.3201C45.0551 37.3201 45.067 37.2578 45.067 37.1077C45.067 36.9858 45.0789 36.8952 45.0968 36.8952C45.1116 36.8952 45.1354 36.8442 45.1443 36.7819C45.1562 36.7195 45.18 36.6686 45.1979 36.6686C45.2157 36.6686 45.2098 36.6544 45.186 36.6402C45.1622 36.6261 45.1562 36.6119 45.1741 36.6119C45.1949 36.6119 45.2127 36.5411 45.2217 36.4363C45.2306 36.3371 45.2514 36.255 45.2692 36.2493C45.2901 36.2436 45.3049 36.2068 45.3049 36.17C45.3049 36.1331 45.3198 36.102 45.3347 36.102C45.3525 36.102 45.3644 36.0595 45.3644 36.0085C45.3644 35.9603 45.3852 35.8924 45.409 35.864C45.4328 35.8329 45.4536 35.779 45.4536 35.7422C45.4536 35.7054 45.4655 35.6771 45.4804 35.6771C45.4953 35.6771 45.5161 35.6459 45.525 35.6062C45.5369 35.5666 45.5577 35.5354 45.5726 35.5354C45.5904 35.5354 45.6023 35.4844 45.6023 35.4221C45.6023 35.3598 45.6142 35.3088 45.6261 35.3088C45.6588 35.3088 45.751 35.153 45.751 35.0963C45.751 35.068 45.7837 35.017 45.8254 34.9802C45.87 34.9433 45.8997 34.8839 45.8997 34.8385C45.8997 34.7932 45.9295 34.7365 45.9741 34.6969C46.0157 34.6601 46.0484 34.6119 46.0484 34.5921C46.0484 34.5694 46.0692 34.5439 46.093 34.5326C46.1168 34.5241 46.1376 34.4901 46.1376 34.4589C46.1376 34.4278 46.1525 34.4023 46.1674 34.4023C46.1852 34.4023 46.1971 34.3824 46.1971 34.3598C46.1971 34.3371 46.209 34.3173 46.2239 34.3173C46.2388 34.3173 46.2626 34.289 46.2744 34.2521C46.2863 34.2181 46.325 34.1615 46.3637 34.1275C46.4023 34.0935 46.435 34.0453 46.435 34.0198C46.435 33.9972 46.4499 33.9773 46.4648 33.9773C46.5421 33.9773 46.4797 33.8499 46.3458 33.728C46.1466 33.5467 46.1168 33.5241 46.0782 33.5241C46.0633 33.5241 46.0484 33.5042 46.0484 33.4816C46.0484 33.4589 46.0336 33.4391 46.0157 33.4391C45.9741 33.4391 45.8997 33.3683 45.8997 33.3286C45.8997 33.3116 45.8789 33.2975 45.8551 33.2975C45.8313 33.2975 45.8105 33.2833 45.8105 33.2691C45.8105 33.2521 45.7897 33.2408 45.7629 33.2408C45.7391 33.2408 45.7243 33.2295 45.7332 33.2153C45.7421 33.2011 45.7183 33.1813 45.6767 33.1728C45.635 33.1615 45.6023 33.1416 45.6023 33.1275C45.6023 33.1105 45.5815 33.0992 45.5577 33.0992C45.5339 33.0992 45.5131 33.0878 45.5131 33.0708C45.5131 33.0567 45.4834 33.0368 45.4447 33.0283C45.406 33.017 45.3525 32.9802 45.3228 32.9405C45.2901 32.9037 45.2425 32.8725 45.2127 32.8725C45.18 32.8725 45.1562 32.8584 45.1562 32.8442C45.1562 32.8272 45.1354 32.8159 45.1116 32.8159C45.0878 32.8159 45.067 32.8045 45.067 32.7875C45.067 32.7734 45.0343 32.7535 44.9927 32.7422C44.951 32.7337 44.9183 32.7139 44.9183 32.7025C44.9183 32.6912 44.8856 32.6714 44.844 32.6629C44.8023 32.6516 44.7696 32.6317 44.7696 32.6176C44.7696 32.5779 44.7131 32.5836 44.6655 32.6232C44.5257 32.7422 44.4722 32.8045 44.4722 32.8414C44.4722 32.8555 44.4514 32.8725 44.4276 32.8839C44.4038 32.8924 44.383 32.9178 44.383 32.9433C44.383 32.9688 44.3503 33.017 44.3086 33.0538C44.267 33.0907 44.2343 33.1331 44.2343 33.153C44.2343 33.17 44.2165 33.1841 44.1986 33.1841C44.1718 33.1841 44.1748 33.1955 44.2046 33.2125C44.2402 33.2351 44.2402 33.2408 44.2075 33.2408C44.157 33.2408 44.0886 33.3258 44.0856 33.3881C44.0856 33.4164 44.0737 33.4391 44.0559 33.4391C44.041 33.4391 44.0261 33.4589 44.0261 33.4816C44.0261 33.5042 44.0053 33.5241 43.9815 33.5241C43.9547 33.5241 43.9369 33.5496 43.9369 33.5949C43.9369 33.6346 43.928 33.6657 43.9161 33.6657C43.9012 33.6657 43.8655 33.7224 43.8328 33.7932C43.8001 33.864 43.7644 33.9207 43.7525 33.9207C43.7376 33.9207 43.7287 33.9462 43.7287 33.9745C43.7287 34.0057 43.7079 34.0482 43.6841 34.0737C43.6603 34.0963 43.6395 34.1275 43.6395 34.1445C43.6395 34.1615 43.6276 34.1756 43.6098 34.1756C43.5949 34.1756 43.58 34.2068 43.58 34.2436C43.58 34.2833 43.5592 34.3314 43.5354 34.3569C43.5116 34.3796 43.4908 34.4249 43.4908 34.4561C43.4908 34.4901 43.4789 34.5156 43.4611 34.5156C43.4462 34.5156 43.4313 34.5411 43.4313 34.5694C43.4313 34.6006 43.4105 34.6431 43.3867 34.6686C43.3629 34.6912 43.3421 34.728 43.3421 34.7507C43.3421 34.8045 43.2529 35.0057 43.2202 35.0255C43.2083 35.034 43.1934 35.0992 43.1904 35.1728C43.1845 35.2465 43.1726 35.3003 43.1577 35.2918C43.1458 35.2833 43.125 35.3314 43.1161 35.3938C43.1012 35.4731 43.0863 35.4986 43.0715 35.4731C43.0536 35.4504 43.0447 35.4731 43.0447 35.5439C43.0447 35.6034 43.0239 35.6969 43.0001 35.7535C42.9763 35.8074 42.9555 35.8839 42.9555 35.9207C42.9555 35.9575 42.9436 35.9887 42.9257 35.9887C42.9109 35.9887 42.896 36.0397 42.896 36.102C42.896 36.1643 42.8752 36.2635 42.8514 36.3201C42.8276 36.3739 42.8068 36.4703 42.8068 36.5297C42.8068 36.5921 42.7949 36.6402 42.777 36.6402C42.7592 36.6402 42.7473 36.7195 42.7473 36.8244C42.7473 36.9263 42.7265 37.0567 42.7027 37.1133C42.67 37.187 42.6581 37.3201 42.6581 37.6034C42.6581 37.8895 42.6492 38 42.6224 38.0085C42.5927 38.0198 42.5927 38.0255 42.6224 38.0255C42.6492 38.0283 42.6581 38.1133 42.6581 38.3513C42.6581 38.5836 42.6462 38.6799 42.6224 38.6884C42.5927 38.6997 42.5927 38.7054 42.6224 38.7054C42.6492 38.7082 42.6581 38.8017 42.6581 39.068C42.6581 39.3116 42.673 39.4674 42.7027 39.5439C42.7265 39.6062 42.7443 39.7422 42.7473 39.847C42.7473 39.9575 42.7592 40.0397 42.777 40.0397C42.7949 40.0397 42.8068 40.0822 42.8068 40.136C42.8068 40.187 42.8276 40.2776 42.8514 40.3314C42.8752 40.3881 42.896 40.4901 42.896 40.5609C42.896 40.6346 42.9109 40.6912 42.9347 40.6997C42.9614 40.7111 42.9585 40.7224 42.9257 40.745C42.902 40.762 42.896 40.7762 42.9139 40.7762C42.9585 40.7762 43.0447 40.9972 43.0447 41.1162C43.0447 41.1671 43.0536 41.2011 43.0655 41.1926C43.0923 41.1671 43.1666 41.3569 43.1845 41.4986C43.1934 41.5609 43.2083 41.6176 43.2202 41.6261C43.2559 41.6544 43.3421 41.8555 43.3421 41.9094C43.3421 41.9405 43.354 41.966 43.3689 41.966C43.3837 41.966 43.4046 41.9972 43.4135 42.0368C43.4254 42.0765 43.4462 42.1077 43.4611 42.1077C43.4789 42.1077 43.4908 42.1445 43.4908 42.1926C43.4908 42.238 43.5027 42.2776 43.5205 42.2776C43.5354 42.2776 43.5562 42.323 43.5681 42.3768C43.577 42.4306 43.5979 42.4759 43.6127 42.4759C43.6276 42.4759 43.6395 42.4958 43.6395 42.5184C43.6395 42.5411 43.6514 42.5609 43.6692 42.5609C43.6841 42.5609 43.7049 42.6062 43.7168 42.6601C43.7257 42.7139 43.7466 42.7592 43.7614 42.7592C43.7763 42.7592 43.7882 42.779 43.7882 42.8017C43.7882 42.8244 43.8001 42.8442 43.815 42.8442C43.8298 42.8442 43.8507 42.8754 43.8596 42.915C43.8715 42.9547 43.8923 42.9858 43.9072 42.9858C43.925 42.9858 43.9369 43.0113 43.9369 43.0425C43.9369 43.0765 43.9696 43.1303 44.0112 43.1671C44.0529 43.204 44.0856 43.2465 44.0856 43.2635C44.0856 43.3031 44.1778 43.4674 44.2402 43.5354C44.27 43.5666 44.2997 43.6147 44.3116 43.6431C44.3205 43.6714 44.3414 43.6941 44.3562 43.6941C44.3711 43.6941 44.383 43.7139 44.383 43.7365C44.383 43.7592 44.4038 43.779 44.4276 43.779C44.4514 43.779 44.4722 43.7989 44.4722 43.8215C44.4722 43.8442 44.4841 43.864 44.499 43.864C44.5139 43.864 44.5376 43.8924 44.5495 43.9264C44.5614 43.9632 44.5941 44.0113 44.6239 44.0368C44.6566 44.0623 44.6804 44.0963 44.6804 44.1162C44.6804 44.1331 44.7042 44.1473 44.7339 44.1473C44.7756 44.1473 44.7785 44.153 44.7399 44.1756C44.7101 44.1926 44.7072 44.204 44.7339 44.204C44.7518 44.204 44.7696 44.2238 44.7696 44.2465C44.7696 44.2691 44.7845 44.289 44.8023 44.289C44.838 44.289 44.9183 44.3598 44.9183 44.3909C44.9183 44.4023 44.951 44.4391 44.9927 44.4759C45.0343 44.5128 45.067 44.5609 45.067 44.5864C45.067 44.6091 45.0878 44.6289 45.1116 44.6289C45.1354 44.6289 45.1562 44.6431 45.1562 44.6572C45.1562 44.6884 45.7659 45.2805 45.7986 45.2805C45.8284 45.2805 45.8997 45.3598 45.8997 45.3909C45.8997 45.4079 45.9086 45.4221 45.9235 45.4221C45.9354 45.4221 45.98 45.4504 46.0246 45.4873C46.2031 45.6317 46.2269 45.6487 46.2447 45.6487C46.2744 45.6487 46.3458 45.7281 46.3458 45.7592C46.3458 45.7762 46.3607 45.7904 46.3785 45.7904C46.3964 45.7904 46.4291 45.8074 46.4499 45.8244C46.5481 45.9094 46.5837 45.932 46.6105 45.932C46.6254 45.932 46.6462 45.9518 46.6551 45.9773C46.664 46 46.6849 46.0113 46.7027 46.0028C46.7176 45.9943 46.7324 46.0057 46.7324 46.0283C46.7324 46.0567 46.7592 46.0737 46.8068 46.0737C46.8544 46.0737 46.8811 46.0907 46.8811 46.1162C46.8811 46.1388 46.902 46.1586 46.9257 46.1586C46.9495 46.1586 46.9704 46.1671 46.9704 46.1813C46.9704 46.1926 47.0179 46.2266 47.0744 46.255C47.131 46.2861 47.1785 46.3201 47.1785 46.3343C47.1785 46.3456 47.2112 46.3569 47.2529 46.3569C47.3005 46.3569 47.3272 46.3739 47.3272 46.3994C47.3272 46.4221 47.3481 46.4419 47.3718 46.4419C47.3956 46.4419 47.4165 46.4533 47.4165 46.4703C47.4165 46.4844 47.4432 46.4986 47.4759 46.4986C47.5086 46.4986 47.5443 46.5184 47.5533 46.5411C47.5652 46.5637 47.6008 46.5836 47.6365 46.5836C47.6722 46.5836 47.7257 46.6147 47.7555 46.6544C47.7882 46.6941 47.8417 46.7252 47.8804 46.7252C47.9191 46.7252 47.9785 46.7507 48.0083 46.779C48.041 46.8102 48.1213 46.8499 48.1867 46.8669C48.2551 46.8839 48.3086 46.9094 48.3086 46.9235C48.3086 46.9405 48.3295 46.9518 48.3533 46.9518C48.377 46.9518 48.3979 46.9632 48.3979 46.9802C48.3979 46.9943 48.4425 47.0085 48.499 47.0085C48.5614 47.0085 48.606 47.0255 48.6179 47.051C48.6269 47.0737 48.6626 47.0935 48.6953 47.0935C48.728 47.0935 48.7547 47.1048 48.7547 47.1218C48.7547 47.136 48.7875 47.1501 48.8291 47.1501C48.8707 47.1501 48.9034 47.1615 48.9034 47.1785C48.9034 47.1926 48.957 47.2153 49.0224 47.2238C49.0878 47.2351 49.1414 47.2521 49.1414 47.2663C49.1414 47.2805 49.1741 47.2918 49.2157 47.2918C49.2573 47.2918 49.2901 47.3031 49.2901 47.3173C49.2901 47.3315 49.3585 47.3513 49.4388 47.3626C49.522 47.3739 49.5875 47.3909 49.5875 47.4051C49.5875 47.4164 49.6231 47.4334 49.6707 47.4419C49.7153 47.4533 49.8313 47.4759 49.9295 47.4929C50.0276 47.5128 50.1168 47.5411 50.1257 47.5552C50.1376 47.5694 50.1823 47.5836 50.2298 47.5864C50.2774 47.5892 50.331 47.6006 50.3518 47.6119C50.3696 47.6232 50.4707 47.6402 50.5748 47.6516C50.6759 47.6601 50.7681 47.6771 50.777 47.6884C50.786 47.6997 50.8782 47.7196 50.9852 47.7281C51.0923 47.7394 51.238 47.7592 51.3124 47.7734C51.3867 47.7875 51.5027 47.7989 51.5741 47.8017C51.6544 47.8017 51.699 47.8159 51.699 47.8357C51.699 47.8612 51.7109 47.8584 51.7317 47.83C51.7555 47.7989 51.7674 47.796 51.7793 47.8215C51.7971 47.8669 53.4239 47.8754 53.4239 47.83C53.4239 47.813 53.5012 47.8017 53.5964 47.8017C53.6886 47.8017 53.8789 47.7819 54.0187 47.7592C54.1585 47.7366 54.322 47.7167 54.3845 47.7167C54.444 47.7167 54.4945 47.7026 54.4945 47.6884C54.4945 47.6714 54.554 47.6601 54.6254 47.6601C54.6997 47.6601 54.7949 47.6459 54.8425 47.6289C54.8871 47.6119 54.9733 47.5921 55.0298 47.5836C55.0863 47.5779 55.1399 47.5609 55.1488 47.5467C55.1577 47.5326 55.244 47.5071 55.3421 47.4901C55.6514 47.4363 55.6841 47.4278 55.6841 47.4023C55.6841 47.3881 55.7109 47.3768 55.7436 47.3768C55.809 47.3768 56.0469 47.2918 56.0707 47.2606C56.0797 47.2521 56.1421 47.2323 56.2135 47.221C56.2819 47.2096 56.3384 47.1898 56.3384 47.1756C56.3384 47.1615 56.38 47.1501 56.4276 47.1501C56.4782 47.1501 56.5168 47.1388 56.5168 47.1247C56.5168 47.1105 56.5495 47.0907 56.5912 47.0822C56.6328 47.0708 56.6655 47.051 56.6655 47.0368C56.6655 47.0198 56.6982 47.0085 56.7399 47.0085C56.7815 47.0085 56.8142 46.9972 56.8142 46.983C56.8142 46.9688 56.8559 46.949 56.9034 46.9377C56.954 46.9264 56.9867 46.9065 56.9748 46.8924C56.9659 46.8782 56.9986 46.8669 57.0432 46.8669C57.0908 46.8669 57.1622 46.8357 57.2068 46.796C57.2514 46.7564 57.3079 46.7252 57.3317 46.7252C57.406 46.7252 57.4685 46.6912 57.4477 46.6601C57.4388 46.6459 57.4447 46.6402 57.4626 46.6516C57.4804 46.6601 57.5101 46.6544 57.5339 46.6346C57.5547 46.6147 57.6231 46.5722 57.6856 46.5439C57.7451 46.5128 57.7956 46.4788 57.7956 46.4646C57.7956 46.4533 57.8283 46.4419 57.87 46.4419C57.9176 46.4419 57.9443 46.4249 57.9443 46.3994C57.9443 46.3768 57.9711 46.3569 58.0038 46.3569C58.0663 46.3569 58.1882 46.2606 58.1614 46.2323C58.1495 46.2238 58.1733 46.2153 58.209 46.2153C58.2447 46.2153 58.3042 46.1841 58.3428 46.1445C58.3815 46.1048 58.4202 46.0737 58.4321 46.0737C58.444 46.0737 58.4737 46.0567 58.4945 46.0397C58.5867 45.9603 58.6254 45.932 58.6462 45.932C58.6581 45.932 58.6968 45.9009 58.7354 45.8612C58.7741 45.8215 58.8217 45.7904 58.8454 45.7904C58.8692 45.7904 58.9139 45.7592 58.9436 45.7196C58.9733 45.6799 59.015 45.6487 59.0358 45.6487C59.0566 45.6487 59.0744 45.6289 59.0744 45.6062C59.0744 45.5836 59.0893 45.5637 59.1042 45.5637C59.122 45.5637 59.2023 45.4986 59.2886 45.4221C59.3718 45.3428 59.4611 45.2805 59.4819 45.2805C59.5027 45.2805 59.5205 45.2635 59.5205 45.2436C59.5205 45.221 59.5533 45.187 59.5949 45.1671C59.6365 45.1473 59.6692 45.119 59.6692 45.1048C59.6692 45.068 59.7466 44.9972 59.7852 44.9972C59.8031 44.9972 59.8179 44.983 59.8179 44.966C59.8179 44.9377 59.8715 44.8782 60.0945 44.6572C60.154 44.5977 60.2046 44.5411 60.2046 44.5326C60.2046 44.4986 60.3057 44.4051 60.3295 44.4193C60.3414 44.4278 60.3533 44.4193 60.3533 44.3994C60.3533 44.3824 60.386 44.3371 60.4276 44.3003C60.4692 44.2635 60.502 44.221 60.502 44.2011C60.502 44.1841 60.5347 44.1388 60.5763 44.102C60.6179 44.0652 60.6507 44.0198 60.6507 43.9972C60.6507 43.9745 60.6834 43.932 60.725 43.9037C60.7666 43.8754 60.7994 43.8357 60.7994 43.8159C60.7994 43.796 60.8112 43.779 60.8291 43.779C60.844 43.779 60.8648 43.7479 60.8767 43.7082C60.8856 43.6686 60.9064 43.6374 60.9213 43.6374C60.9362 43.6374 60.9481 43.6176 60.9481 43.5949C60.9481 43.5722 60.9689 43.5524 60.9927 43.5524C61.0165 43.5524 61.0373 43.5269 61.0373 43.4986C61.0373 43.4703 61.07 43.4164 61.1116 43.3796C61.1503 43.3428 61.186 43.289 61.186 43.2606C61.186 43.2323 61.2038 43.1898 61.2246 43.17C61.3168 43.0708 61.3347 43.0425 61.3347 43C61.3347 42.9745 61.3674 42.9235 61.409 42.8867C61.4625 42.8414 61.4744 42.8159 61.4477 42.8074C61.4179 42.796 61.4179 42.7904 61.4477 42.7904C61.4655 42.7875 61.4834 42.762 61.4834 42.7309C61.4834 42.6969 61.5161 42.6431 61.5577 42.6062C61.5994 42.5694 61.6321 42.5156 61.6321 42.4873C61.6321 42.4561 61.6529 42.4079 61.6767 42.3796C61.7005 42.3484 61.7213 42.306 61.7213 42.2861C61.7213 42.2663 61.754 42.1983 61.7956 42.136C61.8373 42.0737 61.87 41.9972 61.87 41.966C61.87 41.9348 61.8849 41.9094 61.8997 41.9094C61.9176 41.9094 61.9295 41.881 61.9295 41.8442C61.9295 41.8074 61.9503 41.7535 61.9741 41.7224C61.9979 41.6941 62.0187 41.6261 62.0187 41.5751C62.0187 41.5269 62.0306 41.4844 62.0425 41.4844C62.0752 41.4844 62.1674 41.2295 62.1674 41.136C62.1674 41.0935 62.1793 41.0595 62.1941 41.0595C62.2209 41.0595 62.3161 40.7139 62.3161 40.6119C62.3161 40.5779 62.328 40.5496 62.3458 40.5496C62.3607 40.5496 62.3815 40.4731 62.3934 40.3796C62.4053 40.2861 62.4261 40.2011 62.438 40.1926C62.4529 40.1841 62.4648 40.1246 62.4648 40.0567C62.4648 39.9915 62.4767 39.9263 62.4945 39.9094C62.5094 39.8952 62.5332 39.7252 62.5451 39.5354C62.554 39.3456 62.5748 39.1898 62.5897 39.1898C62.6016 39.1898 62.6135 38.8017 62.6135 38.3258C62.6135 37.7677 62.6016 37.4618 62.5837 37.4618C62.5689 37.4618 62.554 37.4363 62.554 37.4051C62.554 37.3739 62.5718 37.3484 62.5927 37.3484C62.6194 37.3484 62.6194 37.3428 62.5956 37.3258C62.5748 37.3144 62.551 37.1813 62.5391 37.0227C62.5243 36.847 62.5064 36.762 62.4945 36.796C62.4797 36.8357 62.4678 36.8017 62.4559 36.6827C62.4321 36.4249 62.3756 36.119 62.3458 36.102C62.3339 36.0935 62.3161 36.0368 62.3072 35.9745C62.2834 35.7989 62.2239 35.5921 62.1971 35.5921C62.1852 35.5921 62.1674 35.5326 62.1585 35.4618C62.1525 35.3881 62.1317 35.3229 62.1198 35.3116C62.1049 35.3031 62.0871 35.2691 62.0841 35.238C62.0782 35.2068 62.0603 35.1756 62.0454 35.1728C62.0306 35.1671 62.0187 35.1218 62.0187 35.0708C62.0187 35.0198 61.9979 34.9547 61.9741 34.9235C61.9503 34.8952 61.9295 34.8414 61.9295 34.8045C61.9295 34.7705 61.9176 34.7422 61.8997 34.7422C61.8849 34.7422 61.87 34.7167 61.87 34.6856C61.87 34.6544 61.8492 34.6204 61.8254 34.6119C61.7986 34.6006 61.7808 34.5552 61.7808 34.4901C61.7808 34.4136 61.7718 34.3994 61.751 34.4306C61.7272 34.4646 61.7213 34.4561 61.7213 34.3966C61.7213 34.3541 61.7005 34.3031 61.6767 34.2776C61.6529 34.255 61.6321 34.2068 61.6321 34.1728C61.6321 34.1388 61.5994 34.0822 61.5577 34.0453C61.5101 34.0028 61.4834 33.949 61.4834 33.8924C61.4834 33.8357 61.4685 33.8074 61.4388 33.8074C61.415 33.8074 61.3941 33.7875 61.3941 33.7649C61.3941 33.7422 61.3823 33.7224 61.3644 33.7224C61.3495 33.7224 61.3347 33.6969 61.3347 33.6629C61.3347 33.6317 61.3168 33.5864 61.299 33.5666C61.2038 33.4674 61.186 33.4391 61.186 33.3966C61.186 33.3711 61.1533 33.3229 61.1146 33.289C61.0759 33.255 61.0373 33.1983 61.0254 33.1615C61.0135 33.1275 60.9897 33.0992 60.9748 33.0992C60.9599 33.0992 60.9481 33.0793 60.9481 33.0567C60.9481 33.034 60.9362 33.0142 60.9183 33.0142C60.9034 33.0142 60.8886 32.9972 60.8886 32.9773C60.8886 32.9575 60.8559 32.9093 60.8142 32.8669C60.7726 32.8244 60.7399 32.7762 60.7399 32.7592C60.7399 32.745 60.7191 32.7309 60.6953 32.7309C60.6715 32.7309 60.6507 32.7054 60.6507 32.6771C60.6507 32.6487 60.5852 32.5581 60.502 32.4788C60.4217 32.3994 60.3533 32.3201 60.3533 32.3031C60.3533 32.289 60.3205 32.2465 60.2789 32.2096C60.2373 32.1728 60.2046 32.136 60.2046 32.1246C60.2046 32.0935 60.1243 32.0227 60.0886 32.0227C60.0707 32.0227 60.0559 32.0085 60.0559 31.9943C60.0559 31.9575 60.0261 31.9207 59.8269 31.7252C59.7406 31.6431 59.6692 31.5609 59.6692 31.5439C59.6692 31.5269 59.6544 31.5127 59.6395 31.5127C59.6217 31.5127 59.5741 31.4844 59.5354 31.4476C59.4968 31.4136 59.4224 31.3513 59.3748 31.3059C59.3272 31.2635 59.2707 31.2295 59.2529 31.2295C59.235 31.2295 59.2261 31.2181 59.235 31.2068C59.2529 31.1813 59.1488 31.0878 59.1042 31.0878C59.0863 31.0878 59.0744 31.068 59.0744 31.0453C59.0744 31.0227 59.0566 31.0028 59.0358 31.0028C59.015 31.0028 58.9793 30.9773 58.9555 30.9462C58.9257 30.9065 58.9079 30.9008 58.8901 30.9263C58.8752 30.949 58.8663 30.9462 58.8663 30.9093C58.8663 30.8839 58.8514 30.8612 58.8336 30.8612C58.8127 30.8612 58.7681 30.83 58.7295 30.7904C58.6908 30.7507 58.6521 30.7195 58.6432 30.7195C58.6254 30.7195 58.5837 30.6884 58.4945 30.6119C58.4737 30.5949 58.441 30.5779 58.4231 30.5779C58.4053 30.5779 58.3904 30.5637 58.3904 30.5496C58.3904 30.5326 58.3756 30.5212 58.3577 30.5212C58.3399 30.5212 58.3072 30.5042 58.2863 30.4844C58.1882 30.4023 58.1525 30.3796 58.1228 30.3796C58.1079 30.3796 58.093 30.3683 58.093 30.3541C58.093 30.3399 58.0633 30.3173 58.0276 30.3059C57.9919 30.2974 57.9443 30.2691 57.9205 30.2493C57.8997 30.2266 57.8611 30.2096 57.8373 30.2096C57.8135 30.2096 57.7956 30.1955 57.7956 30.1813C57.7956 30.1643 57.7748 30.153 57.751 30.153C57.7272 30.153 57.7064 30.1416 57.7064 30.1246C57.7064 30.1105 57.6737 30.0907 57.6321 30.0793C57.5904 30.0708 57.5577 30.051 57.5577 30.0368C57.5577 30.0227 57.5369 30.0113 57.5131 30.0113C57.4893 30.0113 57.4685 30 57.4685 29.9858C57.4685 29.9717 57.4239 29.9518 57.3704 29.9433C57.3168 29.9348 57.2544 29.9008 57.2336 29.8725C57.2098 29.8414 57.1741 29.8244 57.1503 29.8329C57.1295 29.8414 57.1116 29.8329 57.1116 29.8159C57.1116 29.7989 57.0789 29.7847 57.0373 29.7847C56.9956 29.7847 56.9629 29.7734 56.9629 29.762C56.9629 29.7507 56.8975 29.7167 56.8142 29.6884C56.7339 29.6601 56.6655 29.6289 56.6655 29.6176C56.6655 29.6062 56.5912 29.5722 56.502 29.5439C56.4127 29.5127 56.3384 29.4816 56.3384 29.4703C56.3384 29.4618 56.2819 29.4448 56.2165 29.4363C56.1481 29.4278 56.0826 29.4108 56.0737 29.3966C56.0648 29.3853 56.0291 29.3683 55.9964 29.3654C55.9637 29.3598 55.9339 29.3428 55.928 29.3286C55.922 29.3144 55.8804 29.3031 55.8388 29.3031C55.7941 29.3003 55.7257 29.2833 55.6841 29.2606C55.6425 29.238 55.58 29.221 55.5443 29.2181C55.5057 29.2181 55.4759 29.204 55.4759 29.1898C55.4759 29.1728 55.4254 29.1615 55.3629 29.1615C55.3005 29.1615 55.2231 29.1416 55.1904 29.119C55.1607 29.0963 55.0774 29.0765 55.009 29.0765C54.9406 29.0765 54.8811 29.0652 54.8752 29.051C54.8722 29.0368 54.786 29.0198 54.6878 29.0113C54.5927 29.0028 54.5064 28.983 54.5005 28.966C54.4945 28.9462 54.3994 28.9348 54.2536 28.9348C54.1257 28.9348 54.0187 28.9235 54.0187 28.9093C54.0187 28.898 53.8878 28.8782 53.7302 28.8669C53.5696 28.8555 53.4358 28.8357 53.4298 28.8215C53.412 28.7762 51.7971 28.7847 51.7793 28.8272C51.7674 28.8555 51.7555 28.8555 51.7347 28.8244C51.7139 28.7989 51.702 28.796 51.696 28.8187ZM54.2477 31.1898C54.2388 31.1983 54.212 31.2011 54.1912 31.1926C54.1674 31.1841 54.1763 31.1756 54.209 31.1756C54.2417 31.1728 54.2596 31.1813 54.2477 31.1898ZM51.3927 45.5524C51.3837 45.5609 51.357 45.5637 51.3362 45.5552C51.3124 45.5467 51.3213 45.5382 51.354 45.5382C51.3867 45.5354 51.4046 45.5439 51.3927 45.5524ZM53.9503 45.5524C53.9414 45.5609 53.9146 45.5637 53.8938 45.5552C53.87 45.5467 53.8789 45.5382 53.9116 45.5382C53.9443 45.5354 53.9622 45.5439 53.9503 45.5524Z" fill="#1E3C64"/>
<rect x="331.75" y="32.75" width="13.5" height="13.5" rx="2.25" stroke="#424548" stroke-width="1.5"/>
<path d="M333.809 40.1504V38.6738H337.641V34.8154H339.144V38.6738H342.976V40.1504H339.144V44H337.641V40.1504H333.809Z" fill="#424548"/>
<defs>
<filter id="filter0_d_1_106" x="-10" y="-5" width="395" height="81" filterUnits="userSpaceOnUse" color-interpolation-filters="sRGB">
<feFlood flood-opacity="0" result="BackgroundImageFix"/>
<feColorMatrix in="SourceAlpha" type="matrix" values="0 0 0 0 0 0 0 0 0 0 0 0 0 0 0 0 0 0 127 0" result="hardAlpha"/>
<feOffset dy="5"/>
<feGaussianBlur stdDeviation="5"/>
<feComposite in2="hardAlpha" operator="out"/>
<feColorMatrix type="matrix" values="0 0 0 0 0 0 0 0 0 0 0 0 0 0 0 0 0 0 0.15 0"/>
<feBlend mode="normal" in2="BackgroundImageFix" result="effect1_dropShadow_1_106"/>
<feBlend mode="normal" in="SourceGraphic" in2="effect1_dropShadow_1_106" result="shape"/>
</filter>
</defs>
</svg>
