<svg width="32" height="20" viewBox="0 0 32 20" fill="none" xmlns="http://www.w3.org/2000/svg">
<path d="M9.78443 0.818647C9.78443 0.832811 9.66547 0.855473 9.51677 0.866804C9.3532 0.878136 9.24911 0.897966 9.24911 0.917796C9.24911 0.934793 9.23424 0.929127 9.21937 0.906465C9.20153 0.878136 9.18963 0.875304 9.18963 0.897967C9.18963 0.923463 9.12123 0.934793 8.95469 0.934793C8.82383 0.934793 8.7138 0.946126 8.70785 0.96029C8.70487 0.974454 8.61863 0.997117 8.52049 1.00562C8.42235 1.01695 8.33907 1.03678 8.33313 1.05094C8.32718 1.06511 8.2677 1.07644 8.1993 1.07644C8.1309 1.07644 8.04762 1.09627 8.01788 1.11893C7.98517 1.14159 7.92272 1.16142 7.87513 1.16142C7.82755 1.16142 7.79186 1.17842 7.79186 1.19542C7.79186 1.22091 7.77997 1.21808 7.76212 1.18975C7.74725 1.16709 7.73238 1.16142 7.73238 1.17842C7.73238 1.19825 7.6967 1.21808 7.65209 1.22658C7.45878 1.26624 7.28629 1.31723 7.28629 1.33706C7.28629 1.35122 7.25952 1.35972 7.22383 1.35972C7.19112 1.35972 7.14354 1.37955 7.11974 1.40222C7.09298 1.42488 7.02755 1.44471 6.97104 1.44471C6.91454 1.44471 6.86993 1.45321 6.86993 1.46737C6.86993 1.4787 6.79855 1.5127 6.71528 1.54103C6.62904 1.56936 6.55171 1.60052 6.54279 1.61185C6.51603 1.64301 6.33164 1.72799 6.28703 1.72799C6.26324 1.72799 6.24539 1.73933 6.24539 1.75632C6.24539 1.77049 6.21268 1.78465 6.17105 1.78465C6.12941 1.78465 6.0967 1.79882 6.0967 1.81581C6.0967 1.83281 6.07588 1.83848 6.04911 1.82998C6.02532 1.82148 6.01342 1.82431 6.02235 1.84131C6.03127 1.85831 6.01937 1.86964 5.99558 1.86964C5.96881 1.86964 5.948 1.88097 5.948 1.89513C5.948 1.9093 5.90636 1.92913 5.85878 1.94046C5.80822 1.95179 5.76956 1.97162 5.76956 1.98579C5.76956 1.99995 5.74279 2.01128 5.71008 2.01128C5.67736 2.01128 5.6506 2.02261 5.6506 2.03678C5.6506 2.05094 5.61789 2.07077 5.57625 2.07927C5.53461 2.0906 5.5019 2.11043 5.5019 2.1246C5.5019 2.14159 5.48108 2.15292 5.45729 2.15292C5.4335 2.15292 5.41268 2.16425 5.41268 2.17842C5.41268 2.19258 5.37997 2.21241 5.33833 2.22091C5.2967 2.23224 5.26398 2.25207 5.26398 2.26624C5.26398 2.28324 5.24316 2.29457 5.21937 2.29457C5.19558 2.29457 5.14502 2.32573 5.10339 2.36539C5.06175 2.40505 4.9993 2.43621 4.96658 2.43621C4.92792 2.43621 4.91305 2.44754 4.92197 2.46737C4.93387 2.48437 4.91603 2.5042 4.88034 2.5127C4.84465 2.5212 4.81789 2.53819 4.81789 2.55236C4.81789 2.56652 4.80302 2.57785 4.78517 2.57785C4.76733 2.57785 4.73461 2.59485 4.7138 2.61185C4.62755 2.68833 4.58294 2.7195 4.56807 2.7195C4.55915 2.7195 4.51157 2.75632 4.46101 2.80448C4.41045 2.84981 4.35097 2.88947 4.32718 2.88947C4.30339 2.88947 4.28257 2.9008 4.28257 2.9178C4.28257 2.93196 4.26175 2.94613 4.23796 2.94613C4.21417 2.94613 4.19335 2.96029 4.19335 2.97729C4.19335 3.00845 4.12197 3.08777 4.09223 3.08777C4.05655 3.08777 3.95841 3.18409 3.97328 3.20675C3.9822 3.21808 3.97328 3.22941 3.95543 3.22941C3.91974 3.22941 3.83053 3.30307 3.62829 3.49853C3.47662 3.64301 3.47365 3.64584 3.37848 3.73083C3.33684 3.76766 3.30116 3.81581 3.30116 3.83848C3.30116 3.86114 3.28629 3.88097 3.26844 3.88097C3.22681 3.88097 3.15246 3.95179 3.15246 3.99145C3.15246 4.00845 3.13759 4.02261 3.11974 4.02261C3.08406 4.02261 3.00376 4.09343 3.00376 4.1246C3.00376 4.13309 2.95915 4.18409 2.90264 4.23225C2.84911 4.28324 2.79261 4.35122 2.78368 4.38522C2.77179 4.41921 2.748 4.44754 2.73313 4.44754C2.71826 4.44754 2.70636 4.46454 2.70636 4.48437C2.70636 4.50703 2.67365 4.54103 2.63201 4.56086C2.58443 4.58352 2.55766 4.62318 2.55766 4.66567C2.55766 4.70533 2.53982 4.73083 2.51305 4.73083C2.48926 4.73083 2.46844 4.74499 2.46844 4.75916C2.46844 4.77615 2.43573 4.82431 2.39409 4.86681C2.35246 4.9093 2.31974 4.95746 2.31974 4.97729C2.31974 4.99712 2.30785 5.01411 2.29 5.01411C2.27513 5.01411 2.26027 5.03394 2.26027 5.05661C2.26027 5.07927 2.24837 5.0991 2.23053 5.0991C2.21566 5.0991 2.19484 5.13026 2.18294 5.16992C2.17402 5.20958 2.15618 5.24074 2.14131 5.24074C2.12941 5.24074 2.0967 5.2889 2.06398 5.34556C2.01045 5.44754 1.99558 5.46737 1.91231 5.56369C1.89149 5.58635 1.87365 5.63168 1.87365 5.66567C1.87365 5.69683 1.86175 5.72233 1.84391 5.72233C1.82904 5.72233 1.81417 5.74216 1.81417 5.76482C1.81417 5.78749 1.79335 5.80731 1.76956 5.80731C1.74279 5.80731 1.72495 5.83564 1.72495 5.88097C1.72495 5.92063 1.70711 5.97162 1.68629 5.99145C1.59112 6.09343 1.57625 6.12176 1.57625 6.17559C1.57625 6.20958 1.55543 6.25491 1.53164 6.27757C1.50785 6.30307 1.48703 6.34556 1.48703 6.37672C1.48703 6.40505 1.47514 6.43054 1.45729 6.43054C1.44242 6.43054 1.42755 6.46454 1.42755 6.5042C1.42755 6.54669 1.40673 6.59485 1.38294 6.61185C1.35618 6.62885 1.33536 6.68267 1.32941 6.73366C1.32644 6.78182 1.31751 6.81865 1.31157 6.81298C1.28777 6.79032 1.18963 7.01128 1.18963 7.08494C1.18963 7.12743 1.17774 7.16709 1.16287 7.17275C1.148 7.17559 1.13015 7.20675 1.12421 7.23791C1.12123 7.26907 1.10339 7.30307 1.08852 7.31156C1.07662 7.3229 1.0558 7.38805 1.04986 7.46171C1.04093 7.53253 1.02309 7.59202 1.01119 7.59202C0.984429 7.59202 0.924949 7.79882 0.901157 7.97445C0.892236 8.03678 0.874392 8.09627 0.859522 8.10477C0.844652 8.11326 0.823834 8.19825 0.814912 8.29457C0.803016 8.39088 0.782198 8.47021 0.770302 8.47021C0.755433 8.47021 0.743537 8.54669 0.743537 8.63734C0.743537 8.73083 0.728667 8.81015 0.713797 8.81581C0.695953 8.82148 0.675135 8.97445 0.663239 9.16426C0.648369 9.37672 0.636474 9.47304 0.624578 9.41921C0.612682 9.37105 0.60376 9.78748 0.60376 10.3399C0.60376 10.8923 0.612682 11.3059 0.624578 11.2606C0.636474 11.2067 0.648369 11.2946 0.660265 11.5014C0.672161 11.6883 0.692979 11.83 0.710823 11.8356C0.728667 11.8413 0.743537 11.9206 0.743537 12.0113C0.743537 12.1019 0.755433 12.1841 0.770302 12.1926C0.782198 12.2011 0.803016 12.2861 0.814912 12.3796C0.826808 12.473 0.847626 12.5495 0.862496 12.5495C0.88034 12.5495 0.892236 12.5779 0.892236 12.6118C0.892236 12.7138 0.987403 13.0594 1.01417 13.0594C1.02904 13.0594 1.04093 13.0963 1.04093 13.1444C1.04093 13.2266 1.12123 13.456 1.15989 13.4844C1.17179 13.4929 1.18963 13.5552 1.19856 13.626C1.20748 13.694 1.23127 13.7563 1.24614 13.762C1.26398 13.7677 1.27885 13.8073 1.27885 13.847C1.27885 13.9065 1.2848 13.915 1.30859 13.881C1.32941 13.8498 1.33833 13.8611 1.33833 13.9291C1.33833 14.0141 1.41863 14.1954 1.46621 14.2152C1.47811 14.2209 1.48703 14.2464 1.48703 14.2747C1.48703 14.3002 1.50785 14.3484 1.53164 14.3796C1.55543 14.4079 1.57625 14.456 1.57625 14.4872C1.57625 14.5155 1.60896 14.5694 1.6506 14.6062C1.69224 14.643 1.72495 14.6968 1.72495 14.728C1.72495 14.7563 1.74279 14.7903 1.76361 14.796C1.79038 14.8073 1.79038 14.813 1.76064 14.813C1.73685 14.8158 1.75469 14.8441 1.79632 14.8838C1.84093 14.9206 1.87365 14.9716 1.87365 14.9971C1.87365 15.0254 1.89149 15.0651 1.90934 15.0849C2.01045 15.1926 2.02829 15.2209 2.03424 15.2861C2.03424 15.3229 2.04911 15.3541 2.06101 15.3541C2.10859 15.3541 2.17105 15.4362 2.17105 15.4929C2.17105 15.5269 2.18889 15.5524 2.21566 15.5524C2.23945 15.5524 2.26027 15.5722 2.26027 15.5949C2.26027 15.6175 2.27216 15.6373 2.28703 15.6373C2.3019 15.6373 2.32272 15.6685 2.33164 15.7082C2.34354 15.7478 2.36435 15.779 2.37922 15.779C2.39707 15.779 2.40896 15.796 2.40896 15.8158C2.40896 15.8356 2.44168 15.8753 2.48331 15.9036C2.52495 15.932 2.55766 15.9745 2.55766 15.9971C2.55766 16.0198 2.59038 16.0651 2.63201 16.1019C2.67365 16.1388 2.70636 16.1756 2.70636 16.1869C2.70636 16.1983 2.72421 16.2266 2.74502 16.2464C2.83127 16.3399 2.85506 16.3739 2.85506 16.4022C2.85506 16.4164 2.86993 16.4305 2.88777 16.4305C2.92346 16.4305 3.00376 16.5014 3.00376 16.5297C3.00376 16.541 3.06919 16.6118 3.14948 16.6855C3.2387 16.7677 3.28331 16.83 3.2625 16.8385C3.2387 16.847 3.2387 16.8526 3.26547 16.8526C3.31305 16.8555 3.39038 16.9263 3.39038 16.966C3.39038 16.983 3.41714 16.9971 3.44986 16.9971C3.48852 16.9971 3.51528 17.0226 3.52718 17.0679C3.5361 17.1076 3.55989 17.1388 3.57476 17.1388C3.61342 17.1388 3.68777 17.2124 3.68777 17.2492C3.68777 17.2662 3.70562 17.2804 3.72644 17.2804C3.74428 17.2804 3.8335 17.3456 3.92272 17.422C4.01194 17.5014 4.09521 17.5637 4.11008 17.5637C4.12197 17.5637 4.13387 17.5779 4.13387 17.5949C4.13387 17.6345 4.20822 17.7053 4.24986 17.7053C4.2677 17.7053 4.28257 17.7167 4.28257 17.7308C4.28257 17.745 4.31231 17.7677 4.348 17.7762C4.38071 17.7875 4.44019 17.8271 4.47588 17.864C4.51157 17.9008 4.55023 17.932 4.56212 17.932C4.57402 17.932 4.60376 17.949 4.62458 17.966C4.71677 18.0453 4.75543 18.0736 4.77328 18.0736C4.78517 18.0736 4.81194 18.0906 4.83276 18.1076C4.93684 18.1983 4.96658 18.2152 5.01417 18.2152C5.04391 18.2152 5.05878 18.2237 5.04688 18.2322C5.02012 18.2606 5.14205 18.3569 5.2045 18.3569C5.23722 18.3569 5.26398 18.3767 5.26398 18.3994C5.26398 18.4249 5.29075 18.4419 5.33833 18.4419C5.37997 18.4419 5.41268 18.4532 5.41268 18.4702C5.41268 18.4844 5.4335 18.4985 5.45729 18.4985C5.48108 18.4985 5.5019 18.5099 5.5019 18.524C5.5019 18.5382 5.53164 18.5609 5.5703 18.5722C5.60599 18.5835 5.64168 18.6005 5.6506 18.609C5.68629 18.6543 5.83201 18.7252 5.88852 18.7252C5.92123 18.7252 5.948 18.7365 5.948 18.7478C5.948 18.7818 6.11454 18.8668 6.18591 18.8668C6.21863 18.8668 6.23945 18.8781 6.23052 18.8951C6.2216 18.9093 6.2335 18.9235 6.26026 18.9235C6.28406 18.9235 6.3138 18.9433 6.32569 18.9688C6.34056 19.0056 6.34651 19.0056 6.36733 18.9745C6.38815 18.9461 6.39409 18.9461 6.39409 18.9716C6.39409 18.9915 6.42086 19.0084 6.45655 19.0084C6.48926 19.0084 6.53684 19.0283 6.56064 19.0509C6.5874 19.0736 6.63201 19.0934 6.66473 19.0934C6.69446 19.0934 6.72123 19.1048 6.72123 19.1218C6.72123 19.1359 6.75394 19.1501 6.79558 19.1501C6.83722 19.1501 6.86993 19.1614 6.86993 19.1756C6.86993 19.1898 6.92644 19.2096 6.99781 19.2209C7.06621 19.2322 7.12867 19.2521 7.13759 19.2606C7.16138 19.2917 7.3993 19.3767 7.46473 19.3767C7.49744 19.3767 7.5242 19.3881 7.5242 19.4022C7.5242 19.4164 7.55989 19.4334 7.60748 19.4419C7.65209 19.4504 7.72049 19.4645 7.76212 19.4759C7.80376 19.4844 7.88703 19.5014 7.94948 19.5099C8.00896 19.5184 8.05952 19.5382 8.05952 19.5495C8.05952 19.5637 8.09521 19.575 8.14279 19.575C8.1874 19.575 8.27662 19.5949 8.34205 19.6175C8.40748 19.6402 8.51751 19.6572 8.58889 19.66C8.65729 19.66 8.7138 19.6713 8.7138 19.6855C8.7138 19.6968 8.81194 19.7167 8.9309 19.7252C9.04688 19.7365 9.17774 19.7535 9.21937 19.762C9.26101 19.7733 9.40376 19.7875 9.54056 19.7932C9.67439 19.8016 9.78443 19.8186 9.78443 19.8328C9.78443 19.847 10.1264 19.8583 10.5725 19.8583C11.1822 19.8583 11.3606 19.8498 11.3606 19.8215C11.3606 19.7988 11.3725 19.8016 11.3904 19.83C11.4082 19.8583 11.4201 19.8611 11.4201 19.8356C11.4201 19.813 11.4736 19.8016 11.5926 19.8016C11.6848 19.8016 11.8157 19.7875 11.8811 19.7733C11.9465 19.7563 12.1071 19.7365 12.238 19.728C12.3688 19.7167 12.4818 19.6997 12.4907 19.6883C12.4997 19.677 12.5591 19.66 12.6246 19.6515C12.7435 19.6373 12.8625 19.6118 12.8625 19.6033C12.8625 19.6005 12.916 19.592 12.9785 19.5864C13.0439 19.5835 13.1034 19.5665 13.1123 19.5552C13.1272 19.5325 13.2759 19.4957 13.5406 19.4419C13.5852 19.4334 13.6209 19.4164 13.6209 19.405C13.6209 19.3909 13.6893 19.3739 13.7696 19.3626C13.8528 19.3512 13.9183 19.3314 13.9183 19.3172C13.9183 19.3031 13.951 19.2917 13.9926 19.2917C14.0342 19.2917 14.067 19.2804 14.067 19.2662C14.067 19.2521 14.1205 19.2351 14.1859 19.2237C14.2513 19.2152 14.3049 19.1926 14.3049 19.1784C14.3049 19.1614 14.3376 19.1501 14.3792 19.1501C14.4209 19.1501 14.4536 19.1359 14.4536 19.1218C14.4536 19.1048 14.4803 19.0934 14.5131 19.0934C14.5458 19.0934 14.5815 19.0736 14.5904 19.0509C14.6023 19.0254 14.6469 19.0084 14.7093 19.0084C14.7658 19.0084 14.8104 18.9943 14.8104 18.9801C14.8104 18.9631 14.8253 18.9518 14.8432 18.9518C14.861 18.9518 14.8937 18.932 14.9175 18.9093C14.9443 18.8866 14.9919 18.8668 15.0275 18.8668C15.1019 18.8668 15.1971 18.7762 15.1971 18.7082C15.1971 18.6543 15.1406 18.5977 15.0573 18.5722C15.0246 18.5609 14.9473 18.5099 14.8848 18.456C14.8253 18.4022 14.7688 18.3569 14.7629 18.3569C14.742 18.3569 14.6796 18.3059 14.5428 18.1784C14.4803 18.1218 14.4209 18.0736 14.409 18.0736C14.3792 18.0736 14.3049 17.9943 14.3049 17.9631C14.3049 17.9461 14.29 17.932 14.2722 17.932C14.2543 17.932 14.1532 17.8498 14.0491 17.7478C13.942 17.6458 13.835 17.5637 13.8052 17.5637C13.7606 17.5637 13.7606 17.558 13.7993 17.5354C13.829 17.5184 13.832 17.507 13.8082 17.507C13.7874 17.507 13.7696 17.4872 13.7696 17.4645C13.7696 17.4419 13.7547 17.422 13.7368 17.422C13.6952 17.422 13.6209 17.3512 13.6209 17.3116C13.6209 17.2946 13.606 17.2804 13.5881 17.2804C13.5465 17.2804 13.4722 17.2096 13.4722 17.1699C13.4722 17.0963 13.0677 17.1784 13.032 17.2577C13.0261 17.2719 12.9815 17.2804 12.9309 17.2804C12.8268 17.2804 12.5502 17.3682 12.5502 17.3994C12.5502 17.4135 12.4729 17.422 12.3777 17.422C12.2826 17.422 12.1815 17.439 12.1487 17.4589C12.116 17.4787 12.0298 17.5014 11.9554 17.5042C11.8811 17.5099 11.8008 17.5212 11.777 17.5354C11.7532 17.5467 11.5718 17.5665 11.3755 17.575C11.1792 17.5864 10.9651 17.6062 10.8997 17.6203C10.7302 17.6543 10.4238 17.6543 10.2305 17.6203C10.1413 17.6033 9.91231 17.5779 9.72495 17.5637C9.3413 17.5354 9.1242 17.5014 9.00227 17.4532C8.95469 17.4362 8.85952 17.422 8.78517 17.422C8.7138 17.422 8.65432 17.4135 8.65432 17.3994C8.65432 17.3739 8.42829 17.3116 8.25283 17.2889C8.1874 17.2804 8.12792 17.2634 8.119 17.2521C8.09818 17.2181 7.88108 17.1388 7.81863 17.1388C7.78591 17.1388 7.76212 17.1274 7.76212 17.1133C7.76212 17.0991 7.72346 17.0793 7.6729 17.0679C7.62532 17.0566 7.58368 17.0368 7.58368 17.0226C7.58368 17.0084 7.55097 16.9971 7.50933 16.9971C7.4677 16.9971 7.43499 16.9858 7.43499 16.9688C7.43499 16.9546 7.3874 16.9348 7.3309 16.9235C7.27439 16.915 7.22681 16.8951 7.22681 16.881C7.22681 16.8668 7.19112 16.8555 7.14651 16.8555C7.08703 16.8555 7.07513 16.847 7.1019 16.83C7.13164 16.813 7.11082 16.8016 7.03647 16.7875C6.97699 16.7762 6.92941 16.7563 6.92941 16.7422C6.92941 16.7252 6.90859 16.7138 6.8848 16.7138C6.86101 16.7138 6.84019 16.7025 6.84019 16.6855C6.84019 16.6713 6.80748 16.6515 6.76584 16.6402C6.7242 16.6317 6.69149 16.6118 6.69149 16.6005C6.69149 16.5892 6.65878 16.5694 6.61714 16.5609C6.57551 16.5495 6.54279 16.5297 6.54279 16.5155C6.54279 16.4985 6.52495 16.4872 6.50116 16.4872C6.47736 16.4872 6.45357 16.4759 6.44762 16.4617C6.44465 16.4475 6.41789 16.4305 6.39707 16.4249C6.37328 16.4192 6.32272 16.3881 6.28703 16.3512C6.25134 16.3172 6.19484 16.2889 6.15915 16.2889C6.12346 16.2889 6.0967 16.2719 6.0967 16.2464C6.0967 16.2237 6.08183 16.2039 6.06696 16.2039C6.04911 16.2039 5.99855 16.1728 5.95394 16.1331C5.90933 16.0934 5.86175 16.0623 5.84688 16.0623C5.83201 16.0623 5.79038 16.0311 5.75171 15.9915C5.71305 15.9518 5.67439 15.9206 5.66547 15.9206C5.63573 15.9206 5.56138 15.8413 5.56138 15.8101C5.56138 15.7932 5.54651 15.779 5.52867 15.779C5.48703 15.779 5.41268 15.7082 5.41268 15.6685C5.41268 15.6515 5.37997 15.6373 5.33833 15.6373C5.27885 15.6373 5.26398 15.6232 5.26398 15.5694C5.26398 15.5212 5.24316 15.4957 5.19261 15.4844C5.15097 15.4759 5.10934 15.4419 5.10041 15.4107C5.09149 15.3796 5.07067 15.3541 5.0558 15.3541C5.01714 15.3541 4.87737 15.2152 4.87737 15.1813C4.87737 15.1416 4.80004 15.0708 4.76138 15.0708C4.74354 15.0708 4.72867 15.0566 4.72867 15.0396C4.72867 15.0198 4.69595 14.9773 4.65432 14.9405C4.61268 14.9036 4.57997 14.8668 4.57997 14.8583C4.57997 14.847 4.56212 14.8215 4.54428 14.8016C4.46398 14.7167 4.43127 14.677 4.43127 14.66C4.43127 14.643 4.39855 14.6033 4.32123 14.5184C4.30041 14.4985 4.28257 14.4674 4.28257 14.4504C4.28257 14.4334 4.26175 14.4192 4.23796 14.4192C4.21119 14.4192 4.19335 14.3937 4.19335 14.3484C4.19335 14.3087 4.18145 14.2776 4.16361 14.2776C4.14874 14.2776 4.13387 14.2577 4.13387 14.2351C4.13387 14.2124 4.12197 14.1926 4.1071 14.1926C4.09223 14.1926 4.06844 14.1643 4.05655 14.1274C4.04465 14.0934 4.01194 14.0453 3.9822 14.0198C3.95246 13.9971 3.91974 13.9433 3.91082 13.9008C3.89893 13.8583 3.87811 13.8243 3.86324 13.8243C3.84837 13.8243 3.83647 13.7988 3.83647 13.7677C3.83647 13.7365 3.82458 13.711 3.80971 13.711C3.79484 13.711 3.77402 13.677 3.7651 13.6373C3.7532 13.5977 3.72049 13.5382 3.69075 13.507C3.65803 13.4759 3.62532 13.4079 3.61342 13.3541C3.6045 13.3002 3.58368 13.2577 3.56881 13.2577C3.55097 13.2577 3.53908 13.2266 3.53908 13.1869C3.53908 13.1473 3.52718 13.1161 3.50934 13.1161C3.49447 13.1161 3.47365 13.0708 3.46175 13.0169C3.45283 12.9631 3.43201 12.9178 3.41714 12.9178C3.40227 12.9178 3.39038 12.8838 3.39038 12.8385C3.3874 12.796 3.36956 12.7308 3.34577 12.6912C3.32197 12.6515 3.30413 12.592 3.30116 12.5552C3.30116 12.5212 3.28926 12.4929 3.27439 12.4929C3.25952 12.4929 3.24168 12.4305 3.22978 12.3512C3.21789 12.2747 3.19707 12.2039 3.1822 12.1954C3.16435 12.1869 3.15246 12.1331 3.15246 12.0793C3.15246 12.0254 3.14056 11.983 3.12569 11.983C3.11082 11.983 3.09 11.8866 3.07811 11.7705C3.06621 11.6543 3.0454 11.558 3.03053 11.558C3.01566 11.558 3.00376 11.4617 3.00376 11.3456C3.00376 11.2237 2.99186 11.1331 2.97402 11.1331C2.95618 11.1331 2.94428 10.8583 2.94428 10.3682C2.94428 9.87814 2.95618 9.60335 2.97402 9.60335C2.99186 9.60335 3.00376 9.5042 3.00376 9.36256C3.00376 9.22941 3.01566 9.12176 3.03053 9.12176C3.0454 9.12176 3.06621 9.02545 3.07811 8.9093C3.09 8.77899 3.11082 8.69683 3.13164 8.69683C3.15246 8.69683 3.14948 8.6855 3.12272 8.6685C3.09298 8.65151 3.09 8.64018 3.11677 8.64018C3.13759 8.64018 3.15246 8.60335 3.15246 8.55519C3.15246 8.50703 3.16435 8.47021 3.17922 8.47021C3.19409 8.47021 3.21789 8.39938 3.22681 8.3144C3.2387 8.22941 3.25952 8.15859 3.27439 8.15859C3.28926 8.15859 3.30116 8.12743 3.30116 8.0906C3.30116 8.05094 3.31305 8.01411 3.32792 8.00562C3.34279 7.99428 3.36361 7.93763 3.37551 7.8753C3.3874 7.81298 3.40525 7.76199 3.42012 7.76199C3.44688 7.76199 3.49149 7.62318 3.48257 7.56936C3.4796 7.55236 3.49149 7.53536 3.50934 7.53536C3.52421 7.53536 3.53908 7.5042 3.53908 7.46454C3.53908 7.42488 3.55394 7.39372 3.56881 7.39372C3.58666 7.39372 3.59855 7.37672 3.59855 7.35406C3.59855 7.31156 3.68777 7.13593 3.72346 7.11043C3.73238 7.10193 3.7532 7.05944 3.76212 7.01695C3.77402 6.97445 3.79484 6.94046 3.80971 6.94046C3.82458 6.94046 3.83647 6.91496 3.83647 6.8838C3.83647 6.85264 3.84837 6.82714 3.86324 6.82714C3.87811 6.82714 3.89893 6.79598 3.90785 6.75632C3.91974 6.71666 3.94056 6.6855 3.95543 6.6855C3.97328 6.6855 3.98517 6.66567 3.98517 6.64301C3.98517 6.62035 3.99707 6.60052 4.01194 6.60052C4.02681 6.60052 4.04763 6.56935 4.05655 6.52969C4.06844 6.49003 4.08926 6.45887 4.10413 6.45887C4.12197 6.45887 4.13387 6.43904 4.13387 6.41638C4.13387 6.39372 4.14874 6.37389 4.16361 6.37389C4.18145 6.37389 4.19335 6.34839 4.19335 6.31723C4.19335 6.28607 4.21417 6.25207 4.23796 6.24358C4.26175 6.23224 4.28257 6.21525 4.28257 6.19825C4.28257 6.18409 4.30041 6.15292 4.31826 6.13309C4.39855 6.04811 4.43127 6.00845 4.43127 5.99145C4.43127 5.98295 4.46398 5.94612 4.50562 5.9093C4.54725 5.87247 4.57997 5.82148 4.57997 5.79598C4.57997 5.77049 4.60079 5.75066 4.62458 5.75066C4.64837 5.75066 4.66919 5.73649 4.66919 5.7195C4.66919 5.69967 4.71677 5.64584 4.77328 5.59202C4.82978 5.54103 4.87737 5.4872 4.87737 5.4702C4.87737 5.43621 5.02012 5.2974 5.0558 5.2974C5.07067 5.2974 5.09149 5.2719 5.10041 5.24074C5.10934 5.20958 5.15097 5.17559 5.19261 5.16709C5.23722 5.15576 5.26398 5.13026 5.26398 5.09627C5.26398 5.06227 5.29075 5.03678 5.33833 5.02545C5.37997 5.01695 5.41268 4.99145 5.41268 4.96879C5.41268 4.94612 5.42458 4.92913 5.43945 4.92913C5.45432 4.92913 5.52569 4.87247 5.60004 4.80165C5.67736 4.73083 5.74577 4.67417 5.75469 4.67417C5.77551 4.67417 5.83796 4.62601 5.95097 4.52403C5.99558 4.48154 6.04911 4.44754 6.06696 4.44754C6.08183 4.44754 6.0967 4.43621 6.0967 4.41921C6.0967 4.40505 6.12941 4.38522 6.17105 4.37389C6.21268 4.36539 6.24539 4.34556 6.24539 4.33139C6.24539 4.31723 6.26026 4.3059 6.27811 4.3059C6.29595 4.3059 6.32867 4.2889 6.34948 4.26907C6.44763 4.18692 6.48331 4.16426 6.51305 4.16426C6.52792 4.16426 6.54279 4.15292 6.54279 4.13593C6.54279 4.12176 6.57551 4.10193 6.61714 4.0906C6.65878 4.0821 6.69149 4.06227 6.69149 4.04811C6.69149 4.03394 6.71826 4.02261 6.75097 4.02261C6.78666 4.02261 6.84316 3.99145 6.87885 3.95462C6.91454 3.9178 6.98889 3.87814 7.04242 3.86964C7.09298 3.85831 7.13759 3.83564 7.13759 3.82148C7.13759 3.80731 7.15841 3.79598 7.1822 3.79598C7.20599 3.79598 7.22681 3.78182 7.22681 3.76765C7.22681 3.75066 7.25952 3.73933 7.29818 3.73933C7.33982 3.73933 7.39038 3.7195 7.41714 3.69683C7.44093 3.67417 7.48852 3.65434 7.52123 3.65434C7.55692 3.65434 7.58368 3.64301 7.58368 3.62885C7.58368 3.61468 7.62235 3.59485 7.6729 3.58352C7.72049 3.57219 7.76807 3.55236 7.77699 3.53819C7.78889 3.52403 7.8335 3.5127 7.88406 3.5127C7.93164 3.5127 7.9703 3.49853 7.9703 3.48437C7.9703 3.46737 8.00301 3.45604 8.04168 3.45604C8.08034 3.45604 8.119 3.43621 8.1309 3.41355C8.14279 3.38522 8.19038 3.37105 8.27959 3.37105C8.35097 3.37105 8.4164 3.35972 8.42235 3.34556C8.42829 3.32856 8.47885 3.30873 8.53536 3.30023C8.59186 3.29173 8.64539 3.2719 8.64837 3.25491C8.65432 3.24074 8.74056 3.22941 8.84168 3.22941C8.95469 3.22941 9.01119 3.21808 8.9874 3.20392C8.95766 3.18692 8.97253 3.18125 9.03201 3.17842C9.17476 3.17559 9.33833 3.13876 9.33833 3.11326C9.33833 3.0991 9.53759 3.08777 9.78145 3.08777C10.058 3.08777 10.2305 3.07644 10.2365 3.05944C10.2484 3.01978 10.9532 3.01695 10.9681 3.05661C10.974 3.07644 11.1287 3.08777 11.3933 3.08777C11.6194 3.08777 11.8067 3.0991 11.8067 3.11326C11.8067 3.12743 11.896 3.14726 12.009 3.15859C12.1517 3.17275 12.1933 3.18692 12.1487 3.20392C12.1101 3.21808 12.1577 3.22658 12.2915 3.22658C12.4015 3.22941 12.4907 3.24074 12.4907 3.25491C12.4907 3.26907 12.5443 3.28607 12.6097 3.2974C12.6751 3.3059 12.7287 3.32856 12.7287 3.34273C12.7287 3.35972 12.7822 3.37105 12.8446 3.37105C12.9547 3.37105 13.148 3.44188 13.1688 3.49003C13.1748 3.5042 13.2223 3.5127 13.2729 3.5127C13.3264 3.5127 13.3948 3.53253 13.4246 3.55519C13.4573 3.57785 13.5138 3.59768 13.5525 3.59768C13.5911 3.59768 13.6209 3.60901 13.6209 3.62601C13.6209 3.64018 13.6536 3.65434 13.6952 3.65434C13.7428 3.65434 13.7696 3.67134 13.7696 3.69683C13.7696 3.72233 13.7963 3.73933 13.8439 3.73933C13.8855 3.73933 13.9183 3.75066 13.9183 3.76765C13.9183 3.78182 13.951 3.79598 13.9926 3.79598C14.0342 3.79598 14.067 3.81298 14.067 3.83281C14.067 3.85264 14.0967 3.86964 14.1324 3.87247C14.1651 3.8753 14.2067 3.89513 14.2186 3.91496C14.2394 3.94613 14.2454 3.94613 14.2454 3.91496C14.2454 3.89513 14.2751 3.9093 14.3168 3.94896C14.3554 3.99145 14.409 4.02261 14.4357 4.02261C14.4625 4.02261 14.516 4.05377 14.5547 4.09343C14.5933 4.13309 14.6528 4.16426 14.6885 4.16426C14.7242 4.16426 14.751 4.18125 14.751 4.20675C14.751 4.22941 14.7718 4.24924 14.7956 4.24924C14.8194 4.24924 14.8402 4.26057 14.8402 4.27757C14.8402 4.29173 14.861 4.3059 14.8848 4.3059C14.9116 4.3059 14.9621 4.33706 15.0008 4.37672C15.0394 4.41638 15.0841 4.44754 15.1049 4.44754C15.1227 4.44754 15.1376 4.45887 15.1376 4.47304C15.1376 4.4872 15.1644 4.50703 15.1941 4.51836C15.2238 4.52686 15.2982 4.57785 15.3606 4.63168C15.4201 4.6855 15.4796 4.73083 15.4945 4.73083C15.5064 4.73083 15.6194 4.82714 15.7473 4.94329C15.8722 5.05944 15.9881 5.15576 16.003 5.15576C16.0179 5.15576 16.0298 5.16992 16.0298 5.18692C16.0298 5.22658 16.1041 5.2974 16.1458 5.2974C16.1636 5.2974 16.1785 5.31156 16.1785 5.32856C16.1785 5.34839 16.2261 5.40222 16.2826 5.45604C16.3391 5.50703 16.3867 5.56086 16.3867 5.57785C16.3867 5.59485 16.4372 5.65434 16.4997 5.71383C16.5621 5.77332 16.6216 5.84414 16.6335 5.87247C16.6454 5.90363 16.6692 5.91496 16.687 5.90363C16.7108 5.8923 16.7138 5.89513 16.7019 5.9178C16.69 5.93479 16.7019 5.95746 16.7257 5.96596C16.7525 5.97445 16.7733 6.00845 16.7733 6.03678C16.7733 6.06511 16.7941 6.0906 16.8179 6.0906C16.8417 6.0906 16.8625 6.11043 16.8625 6.13309C16.8625 6.15576 16.8774 6.17559 16.8922 6.17559C16.9101 6.17559 16.922 6.20108 16.922 6.23224C16.922 6.26341 16.9428 6.2974 16.9666 6.3059C16.9904 6.31723 17.0112 6.34839 17.0112 6.37672C17.0112 6.40505 17.0261 6.43054 17.0409 6.43054C17.0588 6.43054 17.0707 6.44471 17.0707 6.45887C17.0707 6.47587 17.1034 6.5212 17.145 6.55802C17.1986 6.60335 17.2104 6.62885 17.1837 6.63734C17.1539 6.64868 17.1539 6.65434 17.1837 6.65434C17.2015 6.65717 17.2194 6.677 17.2194 6.69967C17.2194 6.72233 17.2402 6.74216 17.264 6.74216C17.2937 6.74216 17.3086 6.77049 17.3086 6.82714C17.3086 6.8838 17.3354 6.93763 17.3829 6.98012C17.4246 7.01695 17.4573 7.06511 17.4573 7.0906C17.4573 7.14443 17.5525 7.30873 17.5852 7.30873C17.5971 7.30873 17.606 7.35972 17.606 7.42205C17.606 7.48437 17.6179 7.53536 17.6357 7.53536C17.6506 7.53536 17.6714 7.56652 17.6833 7.60618C17.6922 7.64584 17.7131 7.677 17.7279 7.677C17.7428 7.677 17.7547 7.70816 17.7547 7.74499C17.7547 7.78465 17.7725 7.83281 17.7933 7.85264C17.8112 7.87247 17.835 7.93479 17.838 7.98862C17.8439 8.04244 17.8617 8.0906 17.8766 8.09627C17.8915 8.10193 17.9034 8.13593 17.9034 8.16992C17.9034 8.20392 17.9242 8.25774 17.948 8.2889C17.9718 8.31723 17.9926 8.40222 17.9926 8.47587C17.9926 8.56652 18.0045 8.61185 18.0313 8.61185C18.0551 8.61185 18.0521 8.62318 18.0223 8.64018C17.9986 8.65434 17.9926 8.6685 18.0104 8.6685C18.0283 8.6685 18.0521 8.7195 18.064 8.78182C18.0729 8.84414 18.0967 8.89513 18.1116 8.89513C18.1294 8.89513 18.1413 8.98579 18.1413 9.1076C18.1413 9.25774 18.1532 9.32006 18.18 9.32006C18.2038 9.32006 18.2008 9.33139 18.171 9.34839C18.1413 9.36822 18.1354 9.38239 18.1591 9.39655C18.2632 9.46454 18.2692 11.2464 18.1651 11.2464C18.1532 11.2464 18.1413 11.3569 18.1413 11.4929C18.1383 11.6685 18.1264 11.7592 18.0967 11.796C18.0729 11.8271 18.0521 11.8951 18.0521 11.9461C18.0521 11.9971 18.0402 12.0396 18.0223 12.0396C18.0075 12.0396 17.9926 12.0849 17.9926 12.1388C17.9926 12.1954 17.9718 12.2861 17.948 12.3427C17.9242 12.3966 17.9034 12.4674 17.9034 12.4929C17.9034 12.5212 17.8915 12.5495 17.8766 12.5552C17.8617 12.558 17.8439 12.609 17.838 12.6628C17.835 12.7167 17.8112 12.779 17.7933 12.7988C17.7725 12.8186 17.7547 12.8668 17.7547 12.9036C17.7547 12.9405 17.7458 12.9745 17.7339 12.9801C17.6863 12.9971 17.606 13.1784 17.606 13.2606C17.606 13.3059 17.5941 13.3427 17.5762 13.3427C17.5614 13.3427 17.5465 13.3626 17.5465 13.3852C17.5465 13.4079 17.5316 13.4277 17.5138 13.4277C17.4989 13.4277 17.493 13.439 17.5019 13.456C17.5108 13.4702 17.5049 13.4844 17.49 13.4844C17.4722 13.4844 17.4573 13.5127 17.4573 13.5439C17.4573 13.5779 17.4246 13.6345 17.3829 13.6713C17.3413 13.7082 17.3086 13.7677 17.3086 13.8101C17.3086 13.8526 17.2759 13.9121 17.2342 13.949C17.1926 13.9858 17.1599 14.0339 17.1599 14.0594C17.1599 14.0821 17.1391 14.1076 17.1153 14.1189C17.0915 14.1274 17.0707 14.1614 17.0707 14.1926C17.0707 14.2237 17.0588 14.2492 17.0409 14.2492C17.0261 14.2492 17.0112 14.2662 17.0112 14.2889C17.0112 14.3116 16.9904 14.3342 16.9666 14.3456C16.9428 14.3541 16.922 14.3881 16.922 14.4192C16.922 14.4504 16.9101 14.4759 16.8922 14.4759C16.8774 14.4759 16.8625 14.4957 16.8625 14.5184C16.8625 14.541 16.8417 14.5609 16.8179 14.5609C16.7911 14.5609 16.7733 14.5864 16.7733 14.6317C16.7733 14.6713 16.7614 14.7025 16.7435 14.7025C16.687 14.7025 16.7138 14.7903 16.7881 14.8555C16.8298 14.8923 16.8625 14.9348 16.8625 14.9546C16.8625 14.9716 16.8774 14.9858 16.8922 14.9858C16.9309 14.9858 16.9725 15.0169 17.1331 15.1614C17.1956 15.2209 17.261 15.2691 17.2788 15.2691C17.2967 15.2691 17.3086 15.2889 17.3086 15.3116C17.3086 15.3342 17.3235 15.3541 17.3413 15.3541C17.3829 15.3541 17.4573 15.4249 17.4573 15.4645C17.4573 15.4815 17.487 15.4957 17.5197 15.4957C17.5554 15.4957 17.6149 15.5269 17.6536 15.5665C17.6922 15.6062 17.7368 15.6373 17.7547 15.6373C17.7725 15.6373 17.8171 15.6685 17.8558 15.7082C17.8945 15.7478 17.948 15.779 17.9748 15.779C18.0015 15.779 18.0551 15.8101 18.0937 15.8498C18.1324 15.8895 18.1919 15.9206 18.2275 15.9206C18.2603 15.9206 18.29 15.932 18.29 15.949C18.29 15.9631 18.3227 15.983 18.3644 15.9943C18.406 16.0028 18.4387 16.0226 18.4387 16.0368C18.4387 16.0509 18.4655 16.0623 18.4982 16.0623C18.5309 16.0623 18.5577 16.0509 18.5577 16.0368C18.5577 16.0226 18.5844 16.0056 18.6171 15.9971C18.6499 15.9886 18.6766 15.9603 18.6766 15.9348C18.6766 15.9093 18.7093 15.8611 18.751 15.8243C18.7926 15.7875 18.8253 15.745 18.8253 15.7252C18.8253 15.7082 18.8402 15.694 18.8551 15.694C18.8729 15.694 18.8848 15.6742 18.8848 15.6515C18.8848 15.626 18.9145 15.5779 18.9532 15.5439C19.0216 15.4787 19.1227 15.3144 19.1227 15.2662C19.1227 15.2492 19.1465 15.2152 19.1762 15.1841C19.203 15.1558 19.2595 15.0708 19.3012 14.9943C19.3428 14.9206 19.3844 14.8526 19.3993 14.8498C19.4112 14.8441 19.4201 14.8215 19.4201 14.7988C19.4201 14.7762 19.432 14.7592 19.4469 14.7592C19.4617 14.7592 19.4826 14.7138 19.4915 14.66C19.5034 14.6062 19.5242 14.5609 19.5391 14.5609C19.5569 14.5609 19.5688 14.541 19.5688 14.5184C19.5688 14.4957 19.5807 14.4759 19.5956 14.4759C19.6104 14.4759 19.6313 14.4305 19.6402 14.3767C19.6521 14.3229 19.6729 14.2776 19.6878 14.2776C19.7056 14.2776 19.7175 14.2379 19.7175 14.1926C19.7175 14.1444 19.7294 14.1076 19.7473 14.1076C19.7621 14.1076 19.7829 14.0764 19.7948 14.0368C19.8038 13.9971 19.8246 13.966 19.8394 13.966C19.8543 13.966 19.8662 13.9433 19.8662 13.9121C19.8662 13.8838 19.8989 13.7875 19.9406 13.6997C19.9822 13.6118 20.0149 13.5155 20.0149 13.4844C20.0149 13.4305 20.1012 13.2266 20.1368 13.2011C20.1487 13.1926 20.1636 13.1359 20.1725 13.0736C20.1963 12.9065 20.2617 12.6912 20.2885 12.6912C20.3034 12.6912 20.3123 12.6345 20.3123 12.5637C20.3123 12.4929 20.3331 12.3881 20.3569 12.3314C20.3807 12.2776 20.4015 12.1756 20.4015 12.1076C20.4015 12.0396 20.4164 11.983 20.4313 11.983C20.4491 11.983 20.461 11.9093 20.461 11.8186C20.464 11.7308 20.4818 11.6062 20.5056 11.5439C20.5354 11.4674 20.5502 11.3116 20.5502 11.0708C20.5502 10.8101 20.5591 10.7082 20.5889 10.6997C20.6157 10.6883 20.6157 10.6827 20.5889 10.6827C20.5591 10.6798 20.5502 10.5949 20.5502 10.3569C20.5502 10.1246 20.5621 10.0283 20.5889 10.0198C20.6186 10.0084 20.6186 10.0028 20.5889 10.0028C20.5591 9.99995 20.5502 9.9008 20.5502 9.60618C20.5502 9.32006 20.5383 9.18692 20.5056 9.11326C20.4818 9.05661 20.461 8.9263 20.461 8.82431C20.461 8.7195 20.4491 8.64018 20.4313 8.64018C20.4164 8.64018 20.4015 8.59202 20.4015 8.52969C20.4015 8.4702 20.3807 8.37389 20.3569 8.32006C20.3331 8.26341 20.3123 8.16426 20.3123 8.10193C20.3123 8.03961 20.3004 7.98862 20.2826 7.98862C20.2677 7.98862 20.2528 7.95746 20.2528 7.92063C20.2528 7.8838 20.232 7.80731 20.2082 7.75349C20.1844 7.69683 20.1636 7.60618 20.1636 7.54953C20.1636 7.4957 20.1517 7.45037 20.1368 7.45037C20.122 7.45037 20.1012 7.41071 20.0893 7.36539C20.0774 7.31723 20.0595 7.28607 20.0476 7.29173C20.0357 7.30023 20.0238 7.26341 20.0209 7.20958C20.0149 7.15576 19.9792 7.04244 19.9406 6.95462C19.8989 6.86964 19.8662 6.77615 19.8662 6.75349C19.8662 6.73083 19.8454 6.69117 19.8216 6.66851C19.7978 6.64301 19.777 6.60052 19.777 6.56935C19.777 6.54103 19.7651 6.51553 19.7473 6.51553C19.7324 6.51553 19.7175 6.49003 19.7175 6.45604C19.7175 6.42488 19.6967 6.37955 19.6729 6.35689C19.6491 6.33139 19.6283 6.28324 19.6283 6.24358C19.6283 6.20675 19.6164 6.17559 19.5986 6.17559C19.5837 6.17559 19.5688 6.16142 19.5688 6.14443C19.5688 6.12743 19.548 6.09627 19.5242 6.0736C19.5004 6.04811 19.4796 6.00562 19.4796 5.97445C19.4796 5.94613 19.4677 5.92063 19.4499 5.92063C19.435 5.92063 19.4201 5.89513 19.4201 5.86397C19.4201 5.83281 19.4082 5.80731 19.3904 5.80731C19.3755 5.80731 19.3547 5.77615 19.3428 5.73649C19.3339 5.69683 19.3131 5.66567 19.3012 5.66567C19.2893 5.66567 19.2684 5.63451 19.2595 5.59485C19.2476 5.55519 19.2268 5.52403 19.2119 5.52403C19.1941 5.52403 19.1822 5.5042 19.1822 5.48154C19.1822 5.45887 19.1703 5.43904 19.1525 5.43904C19.1376 5.43904 19.1227 5.41638 19.1227 5.38805C19.1197 5.32573 19.0513 5.24074 19.0008 5.24074C18.9681 5.24074 18.9681 5.23508 19.0038 5.21241C19.0335 5.19542 19.0365 5.18409 19.0127 5.18409C18.9919 5.18409 18.974 5.16426 18.974 5.14159C18.974 5.11893 18.9621 5.0991 18.9473 5.0991C18.9324 5.0991 18.9086 5.07077 18.8967 5.03394C18.8848 4.99995 18.8461 4.94329 18.8075 4.9093C18.7688 4.8753 18.7361 4.83281 18.7361 4.81581C18.7361 4.80165 18.7242 4.78749 18.7064 4.78749C18.6915 4.78749 18.6766 4.76199 18.6766 4.73083C18.6766 4.69967 18.6558 4.67417 18.632 4.67417C18.5933 4.67417 18.5725 4.62318 18.5844 4.55236C18.5844 4.54103 18.5666 4.53253 18.5428 4.53253C18.519 4.53253 18.4982 4.51553 18.4982 4.4957C18.4982 4.47587 18.4714 4.44188 18.4387 4.41921C18.406 4.39655 18.3792 4.36256 18.3792 4.34273C18.3792 4.3229 18.3584 4.3059 18.3346 4.3059C18.3108 4.3059 18.29 4.29173 18.29 4.27474C18.29 4.23508 18.2157 4.16426 18.174 4.16426C18.1562 4.16426 18.1413 4.13309 18.1413 4.09343C18.1413 4.05377 18.1264 4.02261 18.1086 4.02261C18.0759 4.02261 17.9926 3.95462 17.9926 3.9263C17.9926 3.89797 17.8171 3.73933 17.7844 3.73933C17.7696 3.73933 17.7547 3.72516 17.7547 3.70817C17.7547 3.66851 17.6803 3.59768 17.6387 3.59768C17.6209 3.59768 17.606 3.58352 17.606 3.56652C17.606 3.52686 17.5316 3.45604 17.49 3.45604C17.4722 3.45604 17.4573 3.43621 17.4573 3.41355C17.4573 3.39088 17.4424 3.37105 17.4246 3.37105C17.3859 3.37105 17.3086 3.30023 17.3086 3.26341C17.3086 3.24924 17.2759 3.22658 17.2342 3.21808C17.1837 3.20675 17.1599 3.18125 17.1599 3.13593C17.1599 3.08493 17.1539 3.0821 17.1301 3.1161C17.1123 3.14443 17.1004 3.14726 17.1004 3.12176C17.1004 3.10477 17.0796 3.08777 17.0558 3.08777C17.032 3.08777 17.0112 3.06794 17.0112 3.04527C17.0112 3.02261 16.9963 3.00278 16.9785 3.00278C16.9606 3.00278 16.9041 2.95746 16.8506 2.90363C16.7941 2.84981 16.7346 2.80448 16.7168 2.80448C16.696 2.80448 16.6513 2.77332 16.6127 2.73366C16.574 2.694 16.5294 2.66284 16.5086 2.66284C16.4907 2.66284 16.4759 2.65151 16.4759 2.63451C16.4759 2.62035 16.4432 2.60052 16.4015 2.58918C16.3599 2.58069 16.3272 2.55802 16.3272 2.54386C16.3272 2.50703 16.235 2.43904 16.1844 2.43621C16.1636 2.43621 16.116 2.40505 16.0774 2.36539C16.0387 2.32573 15.9852 2.29457 15.9554 2.29457C15.9257 2.29457 15.8722 2.26341 15.8335 2.22375C15.7948 2.18408 15.7383 2.15292 15.7026 2.15292C15.6699 2.15292 15.6432 2.14159 15.6432 2.12743C15.6432 2.11326 15.6134 2.0906 15.5777 2.07927C15.5391 2.06794 15.4885 2.03678 15.4617 2.00845C15.435 1.97729 15.3725 1.94612 15.319 1.93763C15.2684 1.92629 15.2268 1.91213 15.2268 1.9008C15.2268 1.88947 15.1673 1.85831 15.093 1.82715C15.0186 1.79598 14.9591 1.76199 14.9591 1.74783C14.9591 1.73649 14.9413 1.72799 14.9175 1.72799C14.8967 1.72799 14.8372 1.70816 14.7926 1.6855C14.745 1.66284 14.6826 1.64301 14.6558 1.64301C14.6261 1.64301 14.6023 1.63168 14.6023 1.62035C14.6023 1.60901 14.5368 1.57502 14.4536 1.54386C14.3733 1.5127 14.3049 1.4787 14.3049 1.46737C14.3049 1.45604 14.2722 1.44471 14.2305 1.44471C14.1621 1.44471 13.951 1.36539 13.9183 1.32856C13.9093 1.32006 13.8439 1.30307 13.7696 1.29457C13.6982 1.28607 13.6328 1.2634 13.6268 1.24924C13.6209 1.23224 13.5762 1.21808 13.5287 1.21808C13.4811 1.21808 13.4424 1.20392 13.4424 1.18975C13.4424 1.17275 13.3859 1.16142 13.3175 1.16142C13.2461 1.16142 13.1629 1.14159 13.1331 1.11893C13.1004 1.09627 13.0231 1.07644 12.9606 1.07644C12.8893 1.07644 12.8476 1.06227 12.8476 1.03961C12.8476 1.01695 12.8357 1.01978 12.8179 1.04811C12.803 1.07077 12.7881 1.07644 12.7881 1.05944C12.7881 1.04244 12.7257 1.01978 12.6484 1.01128C12.571 1.00278 12.5026 0.982953 12.4967 0.965956C12.4907 0.946126 12.3896 0.934793 12.235 0.934793C12.0982 0.934793 11.9852 0.923463 11.9852 0.909298C11.9852 0.897967 11.8603 0.878136 11.7116 0.866804C11.5599 0.855473 11.429 0.83281 11.4171 0.815813C11.4052 0.795983 11.3933 0.798817 11.3815 0.824312C11.3696 0.852641 11.3636 0.85264 11.3636 0.827144C11.3606 0.801649 11.1822 0.79315 10.5725 0.79315C10.1086 0.79315 9.78443 0.804482 9.78443 0.818647ZM9.32941 17.5524C9.32049 17.5609 9.29372 17.5637 9.2729 17.5552C9.24911 17.5467 9.25803 17.5382 9.29075 17.5382C9.32346 17.5354 9.3413 17.5439 9.32941 17.5524ZM11.887 17.5524C11.8781 17.5609 11.8513 17.5637 11.8305 17.5552C11.8067 17.5467 11.8157 17.5382 11.8484 17.5382C11.8811 17.5354 11.8989 17.5439 11.887 17.5524Z" fill="#1E3C64"/>
<path d="M20.696 0.818695C20.6871 0.838525 20.5889 0.858355 20.467 0.869686C20.351 0.878185 20.2529 0.898016 20.2529 0.909348C20.2529 0.923512 20.1339 0.934843 19.9882 0.934843C19.8127 0.934843 19.7176 0.946175 19.7116 0.968838C19.7057 0.985835 19.6224 1.00566 19.5302 1.01416C19.438 1.01983 19.3607 1.03683 19.3607 1.05099C19.3607 1.06516 19.3101 1.07649 19.2477 1.07649C19.1852 1.07649 19.1079 1.09632 19.0752 1.11898C19.0455 1.14164 18.9681 1.16147 18.9086 1.16147C18.8462 1.16147 18.7956 1.1728 18.7956 1.1898C18.7956 1.20396 18.751 1.21813 18.6945 1.21813C18.638 1.21813 18.5875 1.23229 18.5815 1.24929C18.5756 1.26345 18.5101 1.28612 18.4388 1.29462C18.3644 1.30312 18.299 1.32011 18.2901 1.32861C18.2573 1.36544 18.0462 1.44476 17.9778 1.44476C17.9362 1.44476 17.9034 1.45609 17.9034 1.47025C17.9034 1.48442 17.838 1.51841 17.7547 1.54674C17.6744 1.57507 17.606 1.60623 17.606 1.6204C17.606 1.63173 17.5585 1.64872 17.502 1.66006C17.4455 1.66855 17.3979 1.68838 17.3979 1.70255C17.3979 1.71671 17.377 1.72804 17.3533 1.72804C17.3295 1.72804 17.3086 1.73938 17.3086 1.75637C17.3086 1.77054 17.2819 1.7847 17.2462 1.7847C17.154 1.7847 17.0112 1.87535 17.0112 1.93484C17.0112 1.99717 17.0648 2.05382 17.154 2.07932C17.1897 2.09065 17.2194 2.11331 17.2194 2.12748C17.2194 2.14164 17.2402 2.15297 17.264 2.15297C17.2878 2.15297 17.3086 2.1728 17.3086 2.19547C17.3086 2.21813 17.3235 2.23796 17.3384 2.23796C17.3562 2.23796 17.4038 2.26912 17.4455 2.30878C17.4871 2.34844 17.5347 2.3796 17.5495 2.3796C17.5912 2.3796 17.6655 2.45326 17.6655 2.49008C17.6655 2.50708 17.6804 2.52125 17.6982 2.52125C17.7191 2.52125 17.7756 2.56657 17.8321 2.6204C17.8856 2.67422 17.9421 2.71955 17.9599 2.71955C17.9778 2.71955 17.9927 2.73938 17.9927 2.76204C17.9927 2.7847 18.0075 2.80453 18.0254 2.80453C18.067 2.80453 18.1414 2.87535 18.1414 2.91501C18.1414 2.93201 18.1562 2.94617 18.1741 2.94617C18.2157 2.94617 18.2901 3.017 18.2901 3.05666C18.2901 3.07365 18.3049 3.08782 18.3228 3.08782C18.3406 3.08782 18.3733 3.10481 18.3971 3.12748C18.4209 3.15014 18.4388 3.1813 18.4388 3.1983C18.4388 3.2153 18.4596 3.22946 18.4834 3.22946C18.5072 3.22946 18.528 3.24929 18.528 3.27479C18.528 3.29745 18.5428 3.30878 18.5577 3.30028C18.5756 3.29178 18.5875 3.30312 18.5875 3.32578C18.5875 3.35127 18.6083 3.37111 18.6321 3.37111C18.6559 3.37111 18.6767 3.38527 18.6767 3.40227C18.6767 3.46742 18.7659 3.51275 18.8938 3.51275C18.9681 3.51275 19.0336 3.50425 19.0395 3.49008C19.0603 3.44193 19.2536 3.37111 19.3637 3.37111C19.4261 3.37111 19.4797 3.35977 19.4797 3.34561C19.4797 3.33144 19.5213 3.31161 19.5689 3.30028C19.6194 3.28895 19.6581 3.26912 19.6581 3.25496C19.6581 3.24079 19.7443 3.22946 19.8484 3.22946C19.9585 3.22946 20.0744 3.21246 20.122 3.18697C20.1696 3.1643 20.2529 3.14448 20.3064 3.14448C20.357 3.14448 20.4016 3.13031 20.4016 3.11615C20.4016 3.09915 20.5592 3.08782 20.8179 3.08782C21.0767 3.08782 21.2343 3.07649 21.2343 3.05949C21.2343 3.017 21.4038 3.02549 21.4217 3.06516C21.4336 3.09348 21.4395 3.09348 21.4395 3.06516C21.4425 3.02266 22.0373 3.01416 22.0373 3.05949C22.0373 3.09915 22.1176 3.09348 22.1354 3.05099C22.1473 3.02266 22.1533 3.02266 22.1533 3.05099C22.1562 3.07932 22.2455 3.08782 22.4982 3.08782C22.7064 3.08782 22.8402 3.09915 22.8402 3.11615C22.8402 3.13031 22.8849 3.14448 22.9384 3.14448C22.9889 3.14731 23.0663 3.1643 23.1079 3.18697C23.1495 3.20963 23.2626 3.22663 23.3696 3.22946C23.4975 3.22946 23.5718 3.24362 23.6016 3.27195C23.6283 3.29462 23.6789 3.31445 23.7205 3.31445C23.7592 3.31445 23.7919 3.32578 23.7919 3.34278C23.7919 3.35694 23.8514 3.37111 23.9257 3.37111C24.0179 3.37111 24.0655 3.38527 24.0774 3.4136C24.0893 3.43626 24.128 3.45609 24.1666 3.45609C24.2053 3.45609 24.238 3.47309 24.238 3.49008C24.238 3.51558 24.2499 3.51275 24.2678 3.48442C24.2856 3.45609 24.2975 3.45326 24.2975 3.47592C24.2975 3.49575 24.3302 3.51275 24.3718 3.51275C24.4135 3.51275 24.4462 3.52408 24.4462 3.54108C24.4462 3.55524 24.4997 3.5779 24.5652 3.5864C24.6306 3.59773 24.6841 3.61473 24.6841 3.62889C24.6841 3.64306 24.699 3.65439 24.7168 3.65439C24.7347 3.65439 24.7674 3.67422 24.7912 3.69688C24.8179 3.71955 24.8685 3.73938 24.9101 3.73938C24.9488 3.73938 24.9815 3.75071 24.9815 3.76771C24.9815 3.78187 25.0023 3.79603 25.0261 3.79603C25.0499 3.79603 25.0707 3.80736 25.0707 3.82436C25.0707 3.83853 25.1183 3.85836 25.1748 3.86969C25.2313 3.87819 25.2789 3.89802 25.2789 3.91218C25.2789 3.92635 25.2997 3.93768 25.3235 3.93768C25.3473 3.93768 25.3681 3.94901 25.3681 3.96601C25.3681 3.98017 25.4008 4 25.4425 4.01133C25.4841 4.01983 25.5168 4.03966 25.5168 4.05099C25.5168 4.06232 25.5495 4.08215 25.5912 4.09065C25.6328 4.10198 25.6655 4.12181 25.6655 4.13598C25.6655 4.15297 25.6804 4.16431 25.6982 4.16431C25.7161 4.16431 25.7488 4.1813 25.7696 4.1983C25.8678 4.28329 25.9034 4.30595 25.9332 4.30595C25.9481 4.30595 25.9629 4.31728 25.9629 4.33144C25.9629 4.34561 25.9956 4.36544 26.0373 4.37394C26.0789 4.38527 26.1116 4.4051 26.1116 4.41926C26.1116 4.43626 26.1265 4.44759 26.1414 4.44759C26.1592 4.44759 26.2008 4.47309 26.2365 4.50425C26.2722 4.53258 26.3139 4.55241 26.3287 4.54108C26.3466 4.53258 26.3495 4.53824 26.3406 4.55241C26.3287 4.56941 26.3555 4.60623 26.4001 4.63456C26.4447 4.66006 26.525 4.72521 26.5756 4.77904C26.6261 4.83003 26.6796 4.87252 26.6886 4.87252C26.7213 4.87252 26.7956 4.94901 26.7956 4.98017C26.7956 4.99433 26.8283 5.017 26.87 5.0255C26.9176 5.03683 26.9443 5.06232 26.9443 5.09632C26.9443 5.13031 26.9711 5.15581 27.0157 5.16714C27.0573 5.17564 27.096 5.20963 27.1079 5.24079C27.1168 5.26912 27.1525 5.30312 27.1823 5.31161C27.212 5.32011 27.2477 5.35411 27.2566 5.38527C27.2685 5.4136 27.2893 5.43909 27.3042 5.43909C27.3191 5.43909 27.331 5.45326 27.331 5.47026C27.331 5.48725 27.3785 5.54108 27.435 5.59207C27.4915 5.64589 27.5391 5.69972 27.5391 5.71955C27.5391 5.73654 27.5599 5.75071 27.5837 5.75071C27.6075 5.75071 27.6283 5.77054 27.6283 5.79603C27.6283 5.82153 27.6611 5.87252 27.7027 5.90935C27.7443 5.94618 27.777 5.983 27.777 5.99434C27.777 6.00567 27.8038 6.03683 27.8395 6.06516C27.8752 6.09349 27.893 6.13031 27.8782 6.15014C27.8663 6.17281 27.8692 6.17564 27.8901 6.16431C27.9109 6.15298 27.9257 6.16147 27.9257 6.18697C27.9257 6.21247 27.9376 6.2323 27.9555 6.2323C27.9704 6.2323 27.9912 6.26346 28.0031 6.30312C28.012 6.34278 28.0328 6.37394 28.0477 6.37394C28.0625 6.37394 28.0744 6.39377 28.0744 6.41643C28.0744 6.43909 28.0863 6.45892 28.1042 6.45892C28.1191 6.45892 28.1399 6.49009 28.1518 6.52975C28.1607 6.56941 28.1815 6.60057 28.1964 6.60057C28.2112 6.60057 28.2231 6.6204 28.2231 6.64306C28.2231 6.66572 28.235 6.68555 28.2529 6.68555C28.2678 6.68555 28.2886 6.71672 28.3005 6.75638C28.3094 6.79604 28.3302 6.8272 28.3451 6.8272C28.3599 6.8272 28.3718 6.85269 28.3718 6.88385C28.3718 6.91502 28.3837 6.94051 28.3986 6.94051C28.4135 6.94051 28.4343 6.97734 28.4462 7.0255C28.4581 7.07082 28.4759 7.11048 28.4908 7.11048C28.5027 7.11048 28.5235 7.14164 28.5324 7.1813C28.5443 7.22096 28.5652 7.25213 28.58 7.25213C28.5979 7.25213 28.6098 7.28329 28.6098 7.32295C28.6098 7.36261 28.6246 7.39377 28.6395 7.39377C28.6573 7.39377 28.6692 7.4136 28.6692 7.43909C28.6692 7.50425 28.7674 7.76204 28.7912 7.76204C28.8031 7.76204 28.8209 7.81303 28.8328 7.87536C28.8447 7.93768 28.8655 7.99434 28.8804 8.00567C28.8953 8.01417 28.9072 8.05099 28.9072 8.09065C28.9072 8.12748 28.9191 8.15864 28.9339 8.15864C28.9488 8.15864 28.9696 8.22946 28.9815 8.31445C28.9904 8.39944 29.0142 8.47026 29.0291 8.47026C29.044 8.47026 29.0559 8.50708 29.0559 8.55524C29.0559 8.60057 29.0678 8.64023 29.0826 8.64023C29.0975 8.64023 29.1183 8.74788 29.1302 8.88102C29.1421 9.01417 29.1629 9.12181 29.1778 9.12181C29.1927 9.12181 29.2046 9.21813 29.2046 9.33428C29.2046 9.45609 29.2165 9.54674 29.2343 9.54674C29.2521 9.54674 29.264 9.82437 29.264 10.3258C29.264 10.8272 29.2521 11.1048 29.2343 11.1048C29.2165 11.1048 29.2046 11.1983 29.2046 11.3314C29.2046 11.4561 29.1927 11.5581 29.1778 11.5581C29.1629 11.5581 29.1421 11.6544 29.1302 11.7705C29.1183 11.8867 29.0975 11.983 29.0826 11.983C29.0678 11.983 29.0559 12.0283 29.0559 12.0822C29.0559 12.136 29.044 12.1813 29.0291 12.1813C29.0142 12.1813 28.9904 12.2521 28.9815 12.3371C28.9696 12.4221 28.9488 12.4929 28.9369 12.4929C28.925 12.4929 28.9072 12.5269 28.8982 12.5694C28.8744 12.6856 28.806 12.9009 28.7882 12.9179C28.7525 12.949 28.6692 13.1501 28.6692 13.2011C28.6692 13.2323 28.6573 13.2578 28.6395 13.2578C28.6246 13.2578 28.6098 13.289 28.6098 13.3286C28.6098 13.3683 28.5889 13.4079 28.5652 13.4164C28.5414 13.4278 28.5265 13.4448 28.5354 13.4561C28.5443 13.4703 28.5324 13.4986 28.5086 13.5213C28.4849 13.5439 28.4551 13.5949 28.4432 13.6374C28.4343 13.6771 28.4135 13.7111 28.3986 13.7111C28.3837 13.7111 28.3718 13.7365 28.3718 13.7677C28.3718 13.7989 28.3599 13.8244 28.3451 13.8244C28.3302 13.8244 28.3124 13.8527 28.3005 13.8895C28.2915 13.9235 28.2588 13.9802 28.2291 14.0113C28.1964 14.0425 28.1607 14.0963 28.1518 14.1303C28.1399 14.1643 28.1161 14.1926 28.1012 14.1926C28.0863 14.1926 28.0744 14.2181 28.0744 14.2493C28.0744 14.2833 28.0417 14.3371 28.0001 14.3739C27.9585 14.4108 27.9257 14.4533 27.9257 14.4703C27.9257 14.4873 27.893 14.5326 27.8514 14.5722C27.8098 14.6119 27.777 14.6516 27.777 14.6601C27.777 14.6714 27.7592 14.6969 27.7414 14.7167C27.6611 14.8017 27.6283 14.8414 27.6283 14.8584C27.6283 14.8669 27.5956 14.9037 27.554 14.9405C27.5124 14.9773 27.4797 15.0198 27.4797 15.0397C27.4797 15.0567 27.4648 15.0708 27.4469 15.0708C27.4053 15.0708 27.331 15.1416 27.331 15.1813C27.331 15.1983 27.3191 15.2125 27.3042 15.2125C27.2893 15.2125 27.2685 15.238 27.2566 15.2663C27.2477 15.2975 27.212 15.3314 27.1823 15.3399C27.1495 15.3513 27.1139 15.3881 27.1049 15.4278C27.093 15.4759 27.0663 15.4958 27.0157 15.4958C26.9592 15.4958 26.9443 15.5099 26.9443 15.5666C26.9443 15.6232 26.9295 15.6374 26.87 15.6374C26.8283 15.6374 26.7956 15.6516 26.7956 15.6686C26.7956 15.7082 26.7213 15.779 26.6797 15.779C26.6618 15.779 26.6469 15.7989 26.6469 15.8215C26.6469 15.8442 26.6321 15.864 26.6142 15.864C26.5964 15.864 26.5399 15.9065 26.4863 15.9575C26.4328 16.0085 26.3704 16.0623 26.3466 16.0737C26.2276 16.1303 26.1741 16.1671 26.1919 16.1841C26.2008 16.1955 26.1889 16.204 26.1622 16.204C26.1354 16.204 26.1116 16.2153 26.1116 16.2295C26.1116 16.2436 26.0819 16.2663 26.0462 16.2776C26.0105 16.2861 25.951 16.3258 25.9124 16.3626C25.8737 16.3994 25.8231 16.4306 25.7994 16.4306C25.7756 16.4306 25.7547 16.4419 25.7547 16.4589C25.7547 16.4731 25.7339 16.4873 25.7101 16.4873C25.6863 16.4873 25.6655 16.4986 25.6655 16.5156C25.6655 16.5298 25.6328 16.5496 25.5912 16.5609C25.5495 16.5694 25.5168 16.5892 25.5168 16.6006C25.5168 16.6119 25.4841 16.6317 25.4425 16.6402C25.4008 16.6516 25.3681 16.6714 25.3681 16.6856C25.3681 16.7026 25.3473 16.7139 25.3235 16.7139C25.2997 16.7139 25.2789 16.7252 25.2789 16.7422C25.2789 16.7564 25.2313 16.7762 25.1718 16.7875C25.0975 16.8017 25.0767 16.813 25.1064 16.83C25.1332 16.847 25.1213 16.8555 25.0648 16.8555C25.0172 16.8555 24.9815 16.8669 24.9815 16.881C24.9815 16.8952 24.9339 16.915 24.8774 16.9235C24.8209 16.9348 24.7733 16.9547 24.7733 16.9688C24.7733 16.9858 24.7406 16.9972 24.699 16.9972C24.6573 16.9972 24.6246 17.0085 24.6246 17.0227C24.6246 17.0368 24.586 17.0567 24.5354 17.068C24.4878 17.0793 24.4462 17.0992 24.4462 17.1133C24.4462 17.1275 24.4165 17.1388 24.3808 17.1388C24.3034 17.1388 24.0893 17.2266 24.0893 17.2578C24.0893 17.2691 24.0269 17.2805 23.9495 17.2805C23.8692 17.2805 23.78 17.3003 23.7503 17.323C23.7176 17.3456 23.667 17.3654 23.6373 17.3654C23.6075 17.3654 23.5837 17.3768 23.5837 17.3938C23.5837 17.4079 23.5153 17.4221 23.435 17.4221C23.3518 17.4221 23.2358 17.4419 23.1763 17.4646C23.1198 17.4873 23.0187 17.5071 22.9562 17.5071C22.8938 17.5071 22.8373 17.5184 22.8284 17.5298C22.8194 17.5439 22.6678 17.5637 22.4923 17.5751C22.3168 17.5864 22.1235 17.6006 22.067 17.6062C22.0105 17.6147 21.8469 17.6261 21.7042 17.6374C21.496 17.6516 21.4425 17.6459 21.4425 17.6176C21.4425 17.5836 21.4365 17.5836 21.4157 17.6147C21.3979 17.6459 21.3681 17.6459 21.2759 17.6232C21.2135 17.6062 20.9994 17.5807 20.8031 17.5666C20.4075 17.5354 20.1607 17.5014 20.0358 17.4533C19.9882 17.4363 19.899 17.4221 19.8336 17.4221C19.7711 17.4221 19.7176 17.4136 19.7176 17.3994C19.7176 17.3739 19.4915 17.3116 19.3161 17.289C19.2507 17.2805 19.1912 17.2663 19.1823 17.255C19.1525 17.221 18.9414 17.1388 18.8819 17.1388C18.8492 17.1388 18.8016 17.119 18.7778 17.0963C18.751 17.0737 18.7005 17.0538 18.6588 17.0538C18.6202 17.0538 18.5875 17.0397 18.5875 17.0255C18.5875 17.0085 18.5547 16.9972 18.5131 16.9972C18.4715 16.9972 18.4388 16.9858 18.4388 16.9688C18.4388 16.9547 18.406 16.9348 18.3644 16.9235C18.3228 16.915 18.2901 16.8952 18.2901 16.881C18.2901 16.8669 18.2573 16.8555 18.2157 16.8555C18.1741 16.8555 18.1414 16.8442 18.1414 16.83C18.1414 16.8159 18.1086 16.796 18.067 16.7875C18.0254 16.7762 17.9927 16.7564 17.9927 16.7422C17.9927 16.7252 17.9748 16.7139 17.951 16.7139C17.9272 16.7139 17.8886 16.6969 17.8678 16.6771C17.8469 16.6601 17.8023 16.6374 17.7696 16.6346C17.7369 16.6289 17.7072 16.6119 17.7012 16.5977C17.6953 16.5836 17.6715 16.5722 17.6477 16.5722C17.6239 16.5722 17.606 16.5609 17.606 16.5439C17.606 16.5298 17.5733 16.5099 17.5317 16.4986C17.4901 16.4901 17.4573 16.4731 17.4573 16.4618C17.4573 16.4504 17.4246 16.4221 17.383 16.4023C17.3414 16.3824 17.3086 16.3484 17.3086 16.3258C17.3086 16.306 17.2819 16.289 17.2492 16.289C17.2165 16.289 17.1629 16.2663 17.1332 16.238C17.0291 16.1501 16.9845 16.119 16.9607 16.119C16.9458 16.119 16.9161 16.0935 16.8923 16.0623C16.8685 16.0312 16.8328 16.0057 16.812 16.0057C16.7912 16.0057 16.7733 15.9858 16.7733 15.9632C16.7733 15.9405 16.7585 15.9207 16.7406 15.9207C16.7228 15.9207 16.6901 15.9037 16.6692 15.8867C16.5711 15.8017 16.5354 15.779 16.5057 15.779C16.4908 15.779 16.4759 15.7649 16.4759 15.7479C16.4759 15.7082 16.4016 15.6374 16.3599 15.6374C16.3421 15.6374 16.3272 15.6232 16.3272 15.6062C16.3272 15.5666 16.2529 15.4958 16.2112 15.4958C16.1934 15.4958 16.1785 15.4816 16.1785 15.4646C16.1785 15.4249 16.1042 15.3541 16.0626 15.3541C16.0447 15.3541 16.0298 15.3399 16.0298 15.323C16.0298 15.306 15.9793 15.2436 15.9198 15.1841C15.7622 15.0283 15.7324 14.9943 15.7324 14.9518C15.7324 14.9264 15.7235 14.9263 15.7027 14.9575C15.6789 14.9943 15.673 14.9943 15.673 14.9547C15.673 14.9292 15.6402 14.8725 15.5986 14.8272C15.557 14.7819 15.5153 14.7224 15.5064 14.6941C15.4975 14.6686 15.4767 14.6459 15.4618 14.6459C15.4469 14.6459 15.435 14.6261 15.435 14.6034C15.435 14.5807 15.4142 14.5609 15.3904 14.5609C15.3666 14.5609 15.3458 14.5411 15.3458 14.5184C15.3458 14.4958 15.3339 14.4759 15.3161 14.4759C15.3012 14.4759 15.2863 14.4504 15.2863 14.4193C15.2863 14.3881 15.2655 14.3541 15.2417 14.3456C15.2179 14.3343 15.1971 14.3116 15.1971 14.289C15.1971 14.2663 15.1852 14.2493 15.1674 14.2493C15.1525 14.2493 15.1376 14.2238 15.1376 14.1926C15.1376 14.1615 15.1168 14.1275 15.093 14.119C15.0692 14.1077 15.0484 14.0822 15.0484 14.0595C15.0484 14.0397 15.0157 13.9915 14.9741 13.9547C14.9295 13.915 14.8997 13.8584 14.8997 13.813C14.8997 13.7677 14.87 13.7111 14.8254 13.6714C14.7837 13.6346 14.751 13.5694 14.7451 13.5184C14.7421 13.4703 14.7302 13.4363 14.7183 13.4448C14.7064 13.4504 14.6886 13.4306 14.6767 13.3994C14.6678 13.3683 14.644 13.3428 14.6291 13.3428C14.6142 13.3428 14.6023 13.306 14.6023 13.2606C14.6023 13.1785 14.522 12.9972 14.4774 12.9802C14.4626 12.9745 14.4536 12.9263 14.4536 12.8725C14.4536 12.8045 14.4388 12.7762 14.409 12.7762C14.3763 12.7762 14.3644 12.745 14.3644 12.6629C14.3644 12.6006 14.3525 12.5496 14.3347 12.5496C14.3198 12.5496 14.3049 12.5184 14.3049 12.4788C14.3049 12.4391 14.2901 12.4079 14.2722 12.4079C14.2544 12.4079 14.2455 12.3881 14.2573 12.3654C14.2663 12.3428 14.2603 12.3229 14.2455 12.3229C14.2276 12.3229 14.2157 12.2578 14.2157 12.1813C14.2157 12.102 14.2038 12.0397 14.1889 12.0397C14.177 12.0397 14.1562 11.9802 14.1473 11.9065C14.1384 11.8329 14.1176 11.7677 14.0997 11.762C14.0789 11.7564 14.067 11.6572 14.067 11.4986C14.067 11.3598 14.0551 11.2465 14.0402 11.2465C13.9421 11.2465 13.951 9.46176 14.0492 9.3966C14.073 9.38244 14.067 9.36827 14.0373 9.34844C14.0075 9.33145 14.0046 9.32012 14.0313 9.32012C14.0551 9.32012 14.067 9.25779 14.067 9.10765C14.067 8.98584 14.0789 8.89519 14.0968 8.89519C14.1116 8.89519 14.1354 8.84419 14.1443 8.78187C14.1562 8.71955 14.18 8.66856 14.1979 8.66856C14.2157 8.66856 14.2098 8.65439 14.186 8.64023C14.1622 8.62606 14.1562 8.6119 14.1741 8.6119C14.1949 8.6119 14.2127 8.54108 14.2217 8.43626C14.2306 8.33711 14.2514 8.25496 14.2692 8.24929C14.2901 8.24363 14.3049 8.2068 14.3049 8.16997C14.3049 8.13315 14.3198 8.10198 14.3347 8.10198C14.3525 8.10198 14.3644 8.05949 14.3644 8.0085C14.3644 7.96034 14.3852 7.89235 14.409 7.86402C14.4328 7.83286 14.4536 7.77904 14.4536 7.74221C14.4536 7.70538 14.4655 7.67706 14.4804 7.67706C14.4953 7.67706 14.5161 7.64589 14.525 7.60623C14.5369 7.56657 14.5577 7.53541 14.5726 7.53541C14.5904 7.53541 14.6023 7.48442 14.6023 7.4221C14.6023 7.35977 14.6142 7.30878 14.6261 7.30878C14.6588 7.30878 14.751 7.15298 14.751 7.09632C14.751 7.06799 14.7837 7.017 14.8254 6.98017C14.87 6.94334 14.8997 6.88385 14.8997 6.83853C14.8997 6.7932 14.9295 6.73655 14.9741 6.69689C15.0157 6.66006 15.0484 6.6119 15.0484 6.59207C15.0484 6.56941 15.0692 6.54391 15.093 6.53258C15.1168 6.52408 15.1376 6.49009 15.1376 6.45892C15.1376 6.42776 15.1525 6.40227 15.1674 6.40227C15.1852 6.40227 15.1971 6.38244 15.1971 6.35977C15.1971 6.33711 15.209 6.31728 15.2239 6.31728C15.2388 6.31728 15.2626 6.28895 15.2744 6.25213C15.2863 6.21813 15.325 6.16147 15.3637 6.12748C15.4023 6.09349 15.435 6.04533 15.435 6.01983C15.435 5.99717 15.4499 5.97734 15.4648 5.97734C15.5421 5.97734 15.4797 5.84986 15.3458 5.72805C15.1466 5.54674 15.1168 5.52408 15.0782 5.52408C15.0633 5.52408 15.0484 5.50425 15.0484 5.48159C15.0484 5.45892 15.0336 5.43909 15.0157 5.43909C14.9741 5.43909 14.8997 5.36827 14.8997 5.32861C14.8997 5.31162 14.8789 5.29745 14.8551 5.29745C14.8313 5.29745 14.8105 5.28329 14.8105 5.26912C14.8105 5.25212 14.7897 5.24079 14.7629 5.24079C14.7391 5.24079 14.7243 5.22946 14.7332 5.2153C14.7421 5.20113 14.7183 5.1813 14.6767 5.1728C14.635 5.16147 14.6023 5.14164 14.6023 5.12748C14.6023 5.11048 14.5815 5.09915 14.5577 5.09915C14.5339 5.09915 14.5131 5.08782 14.5131 5.07082C14.5131 5.05666 14.4834 5.03683 14.4447 5.02833C14.406 5.017 14.3525 4.98017 14.3228 4.94051C14.2901 4.90368 14.2425 4.87252 14.2127 4.87252C14.18 4.87252 14.1562 4.85836 14.1562 4.84419C14.1562 4.8272 14.1354 4.81586 14.1116 4.81586C14.0878 4.81586 14.067 4.80453 14.067 4.78754C14.067 4.77337 14.0343 4.75354 13.9927 4.74221C13.951 4.73371 13.9183 4.71388 13.9183 4.70255C13.9183 4.69122 13.8856 4.67139 13.844 4.66289C13.8023 4.65156 13.7696 4.63173 13.7696 4.61756C13.7696 4.5779 13.7131 4.58357 13.6655 4.62323C13.5257 4.74221 13.4722 4.80453 13.4722 4.84136C13.4722 4.85552 13.4514 4.87252 13.4276 4.88385C13.4038 4.89235 13.383 4.91785 13.383 4.94334C13.383 4.96884 13.3503 5.017 13.3086 5.05382C13.267 5.09065 13.2343 5.13315 13.2343 5.15298C13.2343 5.16997 13.2165 5.18414 13.1986 5.18414C13.1718 5.18414 13.1748 5.19547 13.2046 5.21247C13.2402 5.23513 13.2402 5.24079 13.2075 5.24079C13.157 5.24079 13.0886 5.32578 13.0856 5.3881C13.0856 5.41643 13.0737 5.43909 13.0559 5.43909C13.041 5.43909 13.0261 5.45892 13.0261 5.48159C13.0261 5.50425 13.0053 5.52408 12.9815 5.52408C12.9547 5.52408 12.9369 5.54958 12.9369 5.5949C12.9369 5.63456 12.928 5.66572 12.9161 5.66572C12.9012 5.66572 12.8655 5.72238 12.8328 5.7932C12.8001 5.86402 12.7644 5.92068 12.7525 5.92068C12.7376 5.92068 12.7287 5.94618 12.7287 5.9745C12.7287 6.00567 12.7079 6.04816 12.6841 6.07366C12.6603 6.09632 12.6395 6.12748 12.6395 6.14448C12.6395 6.16147 12.6276 6.17564 12.6098 6.17564C12.5949 6.17564 12.58 6.2068 12.58 6.24363C12.58 6.28329 12.5592 6.33145 12.5354 6.35694C12.5116 6.3796 12.4908 6.42493 12.4908 6.45609C12.4908 6.49009 12.4789 6.51558 12.4611 6.51558C12.4462 6.51558 12.4313 6.54108 12.4313 6.56941C12.4313 6.60057 12.4105 6.64306 12.3867 6.66856C12.3629 6.69122 12.3421 6.72805 12.3421 6.75071C12.3421 6.80453 12.2529 7.00567 12.2202 7.0255C12.2083 7.034 12.1934 7.09915 12.1904 7.17281C12.1845 7.24646 12.1726 7.30028 12.1577 7.29179C12.1458 7.28329 12.125 7.33145 12.1161 7.39377C12.1012 7.47309 12.0863 7.49858 12.0715 7.47309C12.0536 7.45043 12.0447 7.47309 12.0447 7.54391C12.0447 7.6034 12.0239 7.69688 12.0001 7.75354C11.9763 7.80737 11.9555 7.88385 11.9555 7.92068C11.9555 7.95751 11.9436 7.98867 11.9257 7.98867C11.9109 7.98867 11.896 8.03966 11.896 8.10198C11.896 8.16431 11.8752 8.26346 11.8514 8.32012C11.8276 8.37394 11.8068 8.47026 11.8068 8.52975C11.8068 8.59207 11.7949 8.64023 11.777 8.64023C11.7592 8.64023 11.7473 8.71955 11.7473 8.82436C11.7473 8.92635 11.7265 9.05666 11.7027 9.11332C11.67 9.18697 11.6581 9.32011 11.6581 9.6034C11.6581 9.88952 11.6492 10 11.6224 10.0085C11.5927 10.0198 11.5927 10.0255 11.6224 10.0255C11.6492 10.0283 11.6581 10.1133 11.6581 10.3513C11.6581 10.5836 11.6462 10.6799 11.6224 10.6884C11.5927 10.6997 11.5927 10.7054 11.6224 10.7054C11.6492 10.7082 11.6581 10.8017 11.6581 11.068C11.6581 11.3116 11.673 11.4674 11.7027 11.5439C11.7265 11.6062 11.7443 11.7422 11.7473 11.847C11.7473 11.9575 11.7592 12.0397 11.777 12.0397C11.7949 12.0397 11.8068 12.0822 11.8068 12.136C11.8068 12.187 11.8276 12.2776 11.8514 12.3314C11.8752 12.3881 11.896 12.4901 11.896 12.5609C11.896 12.6346 11.9109 12.6912 11.9347 12.6997C11.9614 12.7111 11.9585 12.7224 11.9257 12.745C11.902 12.762 11.896 12.7762 11.9139 12.7762C11.9585 12.7762 12.0447 12.9972 12.0447 13.1162C12.0447 13.1671 12.0536 13.2011 12.0655 13.1926C12.0923 13.1671 12.1666 13.3569 12.1845 13.4986C12.1934 13.5609 12.2083 13.6176 12.2202 13.6261C12.2559 13.6544 12.3421 13.8555 12.3421 13.9094C12.3421 13.9405 12.354 13.966 12.3689 13.966C12.3837 13.966 12.4046 13.9972 12.4135 14.0368C12.4254 14.0765 12.4462 14.1077 12.4611 14.1077C12.4789 14.1077 12.4908 14.1445 12.4908 14.1926C12.4908 14.238 12.5027 14.2776 12.5205 14.2776C12.5354 14.2776 12.5562 14.323 12.5681 14.3768C12.577 14.4306 12.5979 14.4759 12.6127 14.4759C12.6276 14.4759 12.6395 14.4958 12.6395 14.5184C12.6395 14.5411 12.6514 14.5609 12.6692 14.5609C12.6841 14.5609 12.7049 14.6062 12.7168 14.6601C12.7257 14.7139 12.7466 14.7592 12.7614 14.7592C12.7763 14.7592 12.7882 14.779 12.7882 14.8017C12.7882 14.8244 12.8001 14.8442 12.815 14.8442C12.8298 14.8442 12.8507 14.8754 12.8596 14.915C12.8715 14.9547 12.8923 14.9858 12.9072 14.9858C12.925 14.9858 12.9369 15.0113 12.9369 15.0425C12.9369 15.0765 12.9696 15.1303 13.0113 15.1671C13.0529 15.204 13.0856 15.2465 13.0856 15.2635C13.0856 15.3031 13.1778 15.4674 13.2402 15.5354C13.27 15.5666 13.2997 15.6147 13.3116 15.6431C13.3205 15.6714 13.3414 15.6941 13.3562 15.6941C13.3711 15.6941 13.383 15.7139 13.383 15.7365C13.383 15.7592 13.4038 15.779 13.4276 15.779C13.4514 15.779 13.4722 15.7989 13.4722 15.8215C13.4722 15.8442 13.4841 15.864 13.499 15.864C13.5139 15.864 13.5376 15.8924 13.5495 15.9264C13.5614 15.9632 13.5941 16.0113 13.6239 16.0368C13.6566 16.0623 13.6804 16.0963 13.6804 16.1162C13.6804 16.1331 13.7042 16.1473 13.7339 16.1473C13.7756 16.1473 13.7785 16.153 13.7399 16.1756C13.7101 16.1926 13.7072 16.204 13.7339 16.204C13.7518 16.204 13.7696 16.2238 13.7696 16.2465C13.7696 16.2691 13.7845 16.289 13.8023 16.289C13.838 16.289 13.9183 16.3598 13.9183 16.3909C13.9183 16.4023 13.951 16.4391 13.9927 16.4759C14.0343 16.5128 14.067 16.5609 14.067 16.5864C14.067 16.6091 14.0878 16.6289 14.1116 16.6289C14.1354 16.6289 14.1562 16.6431 14.1562 16.6572C14.1562 16.6884 14.7659 17.2805 14.7986 17.2805C14.8284 17.2805 14.8997 17.3598 14.8997 17.3909C14.8997 17.4079 14.9086 17.4221 14.9235 17.4221C14.9354 17.4221 14.98 17.4504 15.0246 17.4873C15.2031 17.6317 15.2269 17.6487 15.2447 17.6487C15.2744 17.6487 15.3458 17.7281 15.3458 17.7592C15.3458 17.7762 15.3607 17.7904 15.3785 17.7904C15.3964 17.7904 15.4291 17.8074 15.4499 17.8244C15.5481 17.9094 15.5837 17.932 15.6105 17.932C15.6254 17.932 15.6462 17.9518 15.6551 17.9773C15.664 18 15.6849 18.0113 15.7027 18.0028C15.7176 17.9943 15.7324 18.0057 15.7324 18.0283C15.7324 18.0567 15.7592 18.0737 15.8068 18.0737C15.8544 18.0737 15.8811 18.0907 15.8811 18.1162C15.8811 18.1388 15.902 18.1586 15.9257 18.1586C15.9495 18.1586 15.9704 18.1671 15.9704 18.1813C15.9704 18.1926 16.0179 18.2266 16.0744 18.255C16.131 18.2861 16.1785 18.3201 16.1785 18.3343C16.1785 18.3456 16.2112 18.3569 16.2529 18.3569C16.3005 18.3569 16.3272 18.3739 16.3272 18.3994C16.3272 18.4221 16.3481 18.4419 16.3718 18.4419C16.3956 18.4419 16.4165 18.4533 16.4165 18.4703C16.4165 18.4844 16.4432 18.4986 16.4759 18.4986C16.5086 18.4986 16.5443 18.5184 16.5533 18.5411C16.5652 18.5637 16.6008 18.5836 16.6365 18.5836C16.6722 18.5836 16.7257 18.6147 16.7555 18.6544C16.7882 18.6941 16.8417 18.7252 16.8804 18.7252C16.9191 18.7252 16.9785 18.7507 17.0083 18.779C17.041 18.8102 17.1213 18.8499 17.1867 18.8669C17.2551 18.8839 17.3086 18.9094 17.3086 18.9235C17.3086 18.9405 17.3295 18.9518 17.3533 18.9518C17.377 18.9518 17.3979 18.9632 17.3979 18.9802C17.3979 18.9943 17.4425 19.0085 17.499 19.0085C17.5614 19.0085 17.606 19.0255 17.6179 19.051C17.6269 19.0737 17.6626 19.0935 17.6953 19.0935C17.728 19.0935 17.7547 19.1048 17.7547 19.1218C17.7547 19.136 17.7875 19.1501 17.8291 19.1501C17.8707 19.1501 17.9034 19.1615 17.9034 19.1785C17.9034 19.1926 17.957 19.2153 18.0224 19.2238C18.0878 19.2351 18.1414 19.2521 18.1414 19.2663C18.1414 19.2805 18.1741 19.2918 18.2157 19.2918C18.2573 19.2918 18.2901 19.3031 18.2901 19.3173C18.2901 19.3315 18.3585 19.3513 18.4388 19.3626C18.522 19.3739 18.5875 19.3909 18.5875 19.4051C18.5875 19.4164 18.6231 19.4334 18.6707 19.4419C18.7153 19.4533 18.8313 19.4759 18.9295 19.4929C19.0276 19.5128 19.1168 19.5411 19.1257 19.5552C19.1376 19.5694 19.1823 19.5836 19.2298 19.5864C19.2774 19.5892 19.331 19.6006 19.3518 19.6119C19.3696 19.6232 19.4707 19.6402 19.5748 19.6516C19.6759 19.6601 19.7681 19.6771 19.777 19.6884C19.786 19.6997 19.8782 19.7196 19.9852 19.7281C20.0923 19.7394 20.238 19.7592 20.3124 19.7734C20.3867 19.7875 20.5027 19.7989 20.5741 19.8017C20.6544 19.8017 20.699 19.8159 20.699 19.8357C20.699 19.8612 20.7109 19.8584 20.7317 19.83C20.7555 19.7989 20.7674 19.796 20.7793 19.8215C20.7971 19.8669 22.4239 19.8754 22.4239 19.83C22.4239 19.813 22.5012 19.8017 22.5964 19.8017C22.6886 19.8017 22.8789 19.7819 23.0187 19.7592C23.1585 19.7366 23.322 19.7167 23.3845 19.7167C23.444 19.7167 23.4945 19.7026 23.4945 19.6884C23.4945 19.6714 23.554 19.6601 23.6254 19.6601C23.6997 19.6601 23.7949 19.6459 23.8425 19.6289C23.8871 19.6119 23.9733 19.5921 24.0298 19.5836C24.0863 19.5779 24.1399 19.5609 24.1488 19.5467C24.1577 19.5326 24.244 19.5071 24.3421 19.4901C24.6514 19.4363 24.6841 19.4278 24.6841 19.4023C24.6841 19.3881 24.7109 19.3768 24.7436 19.3768C24.809 19.3768 25.0469 19.2918 25.0707 19.2606C25.0797 19.2521 25.1421 19.2323 25.2135 19.221C25.2819 19.2096 25.3384 19.1898 25.3384 19.1756C25.3384 19.1615 25.38 19.1501 25.4276 19.1501C25.4782 19.1501 25.5168 19.1388 25.5168 19.1247C25.5168 19.1105 25.5495 19.0907 25.5912 19.0822C25.6328 19.0708 25.6655 19.051 25.6655 19.0368C25.6655 19.0198 25.6982 19.0085 25.7399 19.0085C25.7815 19.0085 25.8142 18.9972 25.8142 18.983C25.8142 18.9688 25.8559 18.949 25.9034 18.9377C25.954 18.9264 25.9867 18.9065 25.9748 18.8924C25.9659 18.8782 25.9986 18.8669 26.0432 18.8669C26.0908 18.8669 26.1622 18.8357 26.2068 18.796C26.2514 18.7564 26.3079 18.7252 26.3317 18.7252C26.406 18.7252 26.4685 18.6912 26.4477 18.6601C26.4388 18.6459 26.4447 18.6402 26.4626 18.6516C26.4804 18.6601 26.5101 18.6544 26.5339 18.6346C26.5547 18.6147 26.6231 18.5722 26.6856 18.5439C26.7451 18.5128 26.7956 18.4788 26.7956 18.4646C26.7956 18.4533 26.8283 18.4419 26.87 18.4419C26.9176 18.4419 26.9443 18.4249 26.9443 18.3994C26.9443 18.3768 26.9711 18.3569 27.0038 18.3569C27.0663 18.3569 27.1882 18.2606 27.1614 18.2323C27.1495 18.2238 27.1733 18.2153 27.209 18.2153C27.2447 18.2153 27.3042 18.1841 27.3428 18.1445C27.3815 18.1048 27.4202 18.0737 27.4321 18.0737C27.444 18.0737 27.4737 18.0567 27.4945 18.0397C27.5867 17.9603 27.6254 17.932 27.6462 17.932C27.6581 17.932 27.6968 17.9009 27.7354 17.8612C27.7741 17.8215 27.8217 17.7904 27.8454 17.7904C27.8692 17.7904 27.9139 17.7592 27.9436 17.7196C27.9733 17.6799 28.015 17.6487 28.0358 17.6487C28.0566 17.6487 28.0744 17.6289 28.0744 17.6062C28.0744 17.5836 28.0893 17.5637 28.1042 17.5637C28.122 17.5637 28.2023 17.4986 28.2886 17.4221C28.3718 17.3428 28.4611 17.2805 28.4819 17.2805C28.5027 17.2805 28.5205 17.2635 28.5205 17.2436C28.5205 17.221 28.5533 17.187 28.5949 17.1671C28.6365 17.1473 28.6692 17.119 28.6692 17.1048C28.6692 17.068 28.7466 16.9972 28.7852 16.9972C28.8031 16.9972 28.8179 16.983 28.8179 16.966C28.8179 16.9377 28.8715 16.8782 29.0945 16.6572C29.154 16.5977 29.2046 16.5411 29.2046 16.5326C29.2046 16.4986 29.3057 16.4051 29.3295 16.4193C29.3414 16.4278 29.3533 16.4193 29.3533 16.3994C29.3533 16.3824 29.386 16.3371 29.4276 16.3003C29.4692 16.2635 29.502 16.221 29.502 16.2011C29.502 16.1841 29.5347 16.1388 29.5763 16.102C29.6179 16.0652 29.6507 16.0198 29.6507 15.9972C29.6507 15.9745 29.6834 15.932 29.725 15.9037C29.7666 15.8754 29.7994 15.8357 29.7994 15.8159C29.7994 15.796 29.8112 15.779 29.8291 15.779C29.844 15.779 29.8648 15.7479 29.8767 15.7082C29.8856 15.6686 29.9064 15.6374 29.9213 15.6374C29.9362 15.6374 29.9481 15.6176 29.9481 15.5949C29.9481 15.5722 29.9689 15.5524 29.9927 15.5524C30.0165 15.5524 30.0373 15.5269 30.0373 15.4986C30.0373 15.4703 30.07 15.4164 30.1116 15.3796C30.1503 15.3428 30.186 15.289 30.186 15.2606C30.186 15.2323 30.2038 15.1898 30.2246 15.17C30.3168 15.0708 30.3347 15.0425 30.3347 15C30.3347 14.9745 30.3674 14.9235 30.409 14.8867C30.4625 14.8414 30.4744 14.8159 30.4477 14.8074C30.4179 14.796 30.4179 14.7904 30.4477 14.7904C30.4655 14.7875 30.4834 14.762 30.4834 14.7309C30.4834 14.6969 30.5161 14.6431 30.5577 14.6062C30.5994 14.5694 30.6321 14.5156 30.6321 14.4873C30.6321 14.4561 30.6529 14.4079 30.6767 14.3796C30.7005 14.3484 30.7213 14.306 30.7213 14.2861C30.7213 14.2663 30.754 14.1983 30.7956 14.136C30.8373 14.0737 30.87 13.9972 30.87 13.966C30.87 13.9348 30.8849 13.9094 30.8997 13.9094C30.9176 13.9094 30.9295 13.881 30.9295 13.8442C30.9295 13.8074 30.9503 13.7535 30.9741 13.7224C30.9979 13.6941 31.0187 13.6261 31.0187 13.5751C31.0187 13.5269 31.0306 13.4844 31.0425 13.4844C31.0752 13.4844 31.1674 13.2295 31.1674 13.136C31.1674 13.0935 31.1793 13.0595 31.1941 13.0595C31.2209 13.0595 31.3161 12.7139 31.3161 12.6119C31.3161 12.5779 31.328 12.5496 31.3458 12.5496C31.3607 12.5496 31.3815 12.4731 31.3934 12.3796C31.4053 12.2861 31.4261 12.2011 31.438 12.1926C31.4529 12.1841 31.4648 12.1246 31.4648 12.0567C31.4648 11.9915 31.4767 11.9263 31.4945 11.9094C31.5094 11.8952 31.5332 11.7252 31.5451 11.5354C31.554 11.3456 31.5748 11.1898 31.5897 11.1898C31.6016 11.1898 31.6135 10.8017 31.6135 10.3258C31.6135 9.76771 31.6016 9.46176 31.5837 9.46176C31.5689 9.46176 31.554 9.43626 31.554 9.4051C31.554 9.37394 31.5718 9.34844 31.5927 9.34844C31.6194 9.34844 31.6194 9.34278 31.5956 9.32578C31.5748 9.31445 31.551 9.18131 31.5391 9.02267C31.5243 8.84703 31.5064 8.76204 31.4945 8.79604C31.4797 8.8357 31.4678 8.8017 31.4559 8.68272C31.4321 8.42493 31.3756 8.11898 31.3458 8.10198C31.3339 8.09349 31.3161 8.03683 31.3072 7.97451C31.2834 7.79887 31.2239 7.59207 31.1971 7.59207C31.1852 7.59207 31.1674 7.53258 31.1585 7.46176C31.1525 7.3881 31.1317 7.32295 31.1198 7.31162C31.1049 7.30312 31.0871 7.26912 31.0841 7.23796C31.0782 7.2068 31.0603 7.17564 31.0455 7.17281C31.0306 7.16714 31.0187 7.12181 31.0187 7.07082C31.0187 7.01983 30.9979 6.95467 30.9741 6.92351C30.9503 6.89518 30.9295 6.84136 30.9295 6.80453C30.9295 6.77054 30.9176 6.74221 30.8997 6.74221C30.8849 6.74221 30.87 6.71672 30.87 6.68555C30.87 6.65439 30.8492 6.6204 30.8254 6.6119C30.7986 6.60057 30.7808 6.55524 30.7808 6.49009C30.7808 6.4136 30.7718 6.39943 30.751 6.4306C30.7272 6.46459 30.7213 6.45609 30.7213 6.3966C30.7213 6.35411 30.7005 6.30312 30.6767 6.27762C30.6529 6.25496 30.6321 6.2068 30.6321 6.1728C30.6321 6.13881 30.5994 6.08215 30.5577 6.04533C30.5101 6.00283 30.4834 5.94901 30.4834 5.89235C30.4834 5.83569 30.4685 5.80737 30.4388 5.80737C30.415 5.80737 30.3941 5.78754 30.3941 5.76487C30.3941 5.74221 30.3823 5.72238 30.3644 5.72238C30.3495 5.72238 30.3347 5.69688 30.3347 5.66289C30.3347 5.63173 30.3168 5.5864 30.299 5.56657C30.2038 5.46742 30.186 5.43909 30.186 5.3966C30.186 5.3711 30.1533 5.32295 30.1146 5.28895C30.0759 5.25496 30.0373 5.1983 30.0254 5.16147C30.0135 5.12748 29.9897 5.09915 29.9748 5.09915C29.9599 5.09915 29.9481 5.07932 29.9481 5.05666C29.9481 5.03399 29.9362 5.01416 29.9183 5.01416C29.9034 5.01416 29.8886 4.99717 29.8886 4.97734C29.8886 4.95751 29.8559 4.90935 29.8142 4.86686C29.7726 4.82436 29.7399 4.7762 29.7399 4.75921C29.7399 4.74504 29.7191 4.73088 29.6953 4.73088C29.6715 4.73088 29.6507 4.70538 29.6507 4.67705C29.6507 4.64872 29.5852 4.55807 29.502 4.47875C29.4217 4.39943 29.3533 4.32011 29.3533 4.30312C29.3533 4.28895 29.3205 4.24646 29.2789 4.20963C29.2373 4.1728 29.2046 4.13598 29.2046 4.12465C29.2046 4.09348 29.1243 4.02266 29.0886 4.02266C29.0707 4.02266 29.0559 4.0085 29.0559 3.99433C29.0559 3.95751 29.0261 3.92068 28.8269 3.72521C28.7406 3.64306 28.6692 3.56091 28.6692 3.54391C28.6692 3.52691 28.6544 3.51275 28.6395 3.51275C28.6217 3.51275 28.5741 3.48442 28.5354 3.44759C28.4968 3.4136 28.4224 3.35127 28.3748 3.30595C28.3272 3.26346 28.2707 3.22946 28.2529 3.22946C28.235 3.22946 28.2261 3.21813 28.235 3.2068C28.2529 3.1813 28.1488 3.08782 28.1042 3.08782C28.0863 3.08782 28.0744 3.06799 28.0744 3.04532C28.0744 3.02266 28.0566 3.00283 28.0358 3.00283C28.015 3.00283 27.9793 2.97734 27.9555 2.94617C27.9257 2.90651 27.9079 2.90085 27.8901 2.92635C27.8752 2.94901 27.8663 2.94617 27.8663 2.90935C27.8663 2.88385 27.8514 2.86119 27.8336 2.86119C27.8127 2.86119 27.7681 2.83003 27.7295 2.79037C27.6908 2.75071 27.6521 2.71955 27.6432 2.71955C27.6254 2.71955 27.5837 2.68838 27.4945 2.6119C27.4737 2.5949 27.441 2.5779 27.4231 2.5779C27.4053 2.5779 27.3904 2.56374 27.3904 2.54957C27.3904 2.53258 27.3756 2.52125 27.3577 2.52125C27.3399 2.52125 27.3072 2.50425 27.2863 2.48442C27.1882 2.40227 27.1525 2.3796 27.1228 2.3796C27.1079 2.3796 27.093 2.36827 27.093 2.35411C27.093 2.33994 27.0633 2.31728 27.0276 2.30595C26.9919 2.29745 26.9443 2.26912 26.9205 2.24929C26.8997 2.22663 26.8611 2.20963 26.8373 2.20963C26.8135 2.20963 26.7956 2.19547 26.7956 2.1813C26.7956 2.16431 26.7748 2.15297 26.751 2.15297C26.7272 2.15297 26.7064 2.14164 26.7064 2.12465C26.7064 2.11048 26.6737 2.09065 26.6321 2.07932C26.5904 2.07082 26.5577 2.05099 26.5577 2.03683C26.5577 2.02266 26.5369 2.01133 26.5131 2.01133C26.4893 2.01133 26.4685 2 26.4685 1.98583C26.4685 1.97167 26.4239 1.95184 26.3704 1.94334C26.3168 1.93484 26.2544 1.90085 26.2336 1.87252C26.2098 1.84136 26.1741 1.82436 26.1503 1.83286C26.1295 1.84136 26.1116 1.83286 26.1116 1.81586C26.1116 1.79887 26.0789 1.7847 26.0373 1.7847C25.9956 1.7847 25.9629 1.77337 25.9629 1.76204C25.9629 1.75071 25.8975 1.71671 25.8142 1.68839C25.7339 1.66006 25.6655 1.62889 25.6655 1.61756C25.6655 1.60623 25.5912 1.57224 25.502 1.54391C25.4127 1.51275 25.3384 1.48158 25.3384 1.47025C25.3384 1.46175 25.2819 1.44476 25.2165 1.43626C25.1481 1.42776 25.0826 1.41076 25.0737 1.3966C25.0648 1.38527 25.0291 1.36827 24.9964 1.36544C24.9637 1.35977 24.9339 1.34278 24.928 1.32861C24.922 1.31445 24.8804 1.30312 24.8388 1.30312C24.7941 1.30028 24.7257 1.28328 24.6841 1.26062C24.6425 1.23796 24.58 1.22096 24.5443 1.21813C24.5057 1.21813 24.4759 1.20396 24.4759 1.1898C24.4759 1.1728 24.4254 1.16147 24.3629 1.16147C24.3005 1.16147 24.2231 1.14164 24.1904 1.11898C24.1607 1.09632 24.0774 1.07649 24.009 1.07649C23.9406 1.07649 23.8811 1.06516 23.8752 1.05099C23.8722 1.03683 23.786 1.01983 23.6878 1.01133C23.5927 1.00283 23.5064 0.983001 23.5005 0.966003C23.4945 0.946173 23.3994 0.934843 23.2536 0.934843C23.1257 0.934843 23.0187 0.923512 23.0187 0.909348C23.0187 0.898016 22.8878 0.878185 22.7302 0.866854C22.5696 0.855522 22.4358 0.835692 22.4298 0.821527C22.412 0.776202 20.7971 0.784701 20.7793 0.827194C20.7674 0.855523 20.7555 0.855523 20.7347 0.824362C20.7139 0.798866 20.702 0.796032 20.696 0.818695ZM23.2477 3.1898C23.2388 3.1983 23.212 3.20113 23.1912 3.19263C23.1674 3.18414 23.1763 3.17564 23.209 3.17564C23.2417 3.1728 23.2596 3.1813 23.2477 3.1898ZM20.3927 17.5524C20.3837 17.5609 20.357 17.5637 20.3362 17.5552C20.3124 17.5467 20.3213 17.5382 20.354 17.5382C20.3867 17.5354 20.4046 17.5439 20.3927 17.5524ZM22.9503 17.5524C22.9414 17.5609 22.9146 17.5637 22.8938 17.5552C22.87 17.5467 22.8789 17.5382 22.9116 17.5382C22.9443 17.5354 22.9622 17.5439 22.9503 17.5524Z" fill="#1E3C64"/>
</svg>
